<?xml version="1.0" encoding="utf-8"?>
<!-- Generator: Adobe Illustrator 25.0.0, SVG Export Plug-In . SVG Version: 6.00 Build 0)  -->
<svg version="1.1" id="Слой_1" xmlns="http://www.w3.org/2000/svg" xmlns:xlink="http://www.w3.org/1999/xlink" x="0px" y="0px"
	 viewBox="0 0 200 200" style="enable-background:new 0 0 200 200;" xml:space="preserve">
<style type="text/css">
	.st0{fill:#FFF18D;}
	.st1{fill:none;stroke:#666666;stroke-width:0.2;stroke-linecap:round;stroke-linejoin:round;}
	.st2{fill:none;stroke:#333333;stroke-width:0.4;stroke-linecap:round;stroke-linejoin:round;}
	.st3{fill:#FFFFFF;stroke:#333333;stroke-width:0.4;stroke-linecap:round;stroke-linejoin:round;}
	.st4{fill:none;stroke:#333333;stroke-width:0.6;stroke-linecap:round;stroke-linejoin:round;}
	.st5{fill:none;stroke:#333333;stroke-width:0.8;stroke-linecap:round;stroke-linejoin:round;}
	.st6{fill:none;stroke:#333333;stroke-width:0.8;stroke-linecap:square;stroke-linejoin:round;}
	.st7{fill:none;stroke:#666666;stroke-width:0.2;stroke-miterlimit:22.93;}
	.st8{fill:#FFF18D;stroke:#666666;stroke-width:0.2;stroke-miterlimit:22.93;}
	.st9{fill-rule:evenodd;clip-rule:evenodd;fill:#FFF18D;stroke:#666666;stroke-width:0.2;stroke-miterlimit:22.93;}
	.st10{fill:#FFF18D;stroke:#666666;stroke-width:0.2;stroke-miterlimit:22.9294;}
	.st11{fill:#FFFFFF;}
	.st12{fill:#1A1A18;}
	.st13{font-family:'ArialMT';}
	.st14{font-size:8px;}
	.st15{fill:#E43622;}
	.st16{font-size:9px;}
	.st17{fill:#666666;}
</style>
<rect x="53.4" y="47" class="st0" width="119" height="55.9"/>
<rect x="24.2" y="95.6" class="st0" width="21.1" height="61.3"/>
<rect x="53" y="99.2" class="st0" width="88" height="55.9"/>
<path class="st1" d="M161.6,49.1c0,0,2.3-0.4,3.1-0.4s3.1,0.4,3.1,0.4"/>
<path class="st1" d="M167.9,49.1c0.2,0.1,0.5,0.1,0.7,0.2c0.2,0.2,0.3,0.4,0.5,0.6l0.1,0.7"/>
<path class="st1" d="M157.9,49.2c0,0,2-0.7,2.6-0.8c0.9-0.2,1.8-0.3,2.8-0.4c0.7,0,2.1,0,2.8,0c0.9,0.1,1.8,0.2,2.8,0.4
	c0.7,0.2,2.8,0.8,2.8,0.8"/>
<path class="st1" d="M160.3,50.7l0.1-0.7c0.1-0.2,0.3-0.4,0.5-0.6c0.2-0.1,0.5-0.2,0.7-0.2"/>
<path class="st1" d="M171.6,69.6l-0.6,1.8c0,0-0.9,1.2-1.2,1.6c-0.9,1-2,1.6-3.2,1.9c-0.6,0.1-1.2,0.2-1.8,0.2
	c-1.9,0-3.8-0.8-5.2-2.1c-0.4-0.5-0.7-1-1.1-1.6l-0.6-1.8"/>
<path class="st1" d="M157.9,69.6V49.2 M157.3,75.7V46.8 M169.2,63.4V50.7 M171.6,49.2v20.4 M172.2,75.7V46.8"/>
<path class="st1" d="M169.2,63.4c0,0.5-0.1,1-0.2,1.4c-0.2,0.4-0.4,0.8-0.7,1.2c-0.3,0.4-0.7,0.8-1.1,1.1c-0.4,0.3-0.9,0.5-1.3,0.6
	c-0.5,0.1-1,0.1-1.4,0.1c-0.5-0.1-1-0.2-1.4-0.4c-0.3-0.1-0.5-0.2-0.7-0.4c-0.4-0.3-0.7-0.7-1-1.1s-0.5-0.8-0.7-1.2
	c-0.1-0.5-0.2-1-0.2-1.4V50.7"/>
<path class="st1" d="M158.4,71.2c0,0,1.4-0.9,1.9-1.1c0.7-0.3,1.4-0.5,2.2-0.7c0.8-0.1,1.5-0.1,2.3-0.1c0.7,0,1.4,0,2.2,0.1
	c0.7,0.2,1.5,0.4,2.2,0.7c0.5,0.2,2,1.1,2,1.1"/>
<circle class="st1" cx="164.5" cy="51" r="0.8"/>
<circle class="st1" cx="164.5" cy="51" r="0.4"/>
<polyline class="st2" points="45.4,95.5 24,95.5 24,157.3 "/>
<polyline class="st2" points="45.4,93.1 21.6,93.1 21.6,159.6 "/>
<path class="st2" d="M47.8,142.1v-11.9 M48.8,142.1v-11.9 M53.3,142.1v-29.8 M45.4,141.5v-28.6 M47.8,131.7h1 M45.4,130.2h7.9
	 M47.8,140.5h1"/>
<polygon class="st3" points="60.1,128.3 59.3,128.8 52.4,112.8 53.3,112.3 "/>
<polyline class="st2" points="53.3,130.2 55.3,130.1 57.4,129.6 59.3,128.8 "/>
<path class="st2" d="M47.8,58.3V88 M45.4,87.4V58.9 M53.3,58.3V88"/>
<polyline class="st2" points="48.7,88 48.7,58.3 48.7,59.8 47.8,59.8 47.8,58.3 48.7,58.3 "/>
<rect x="47.8" y="86.5" class="st2" width="1" height="1.4"/>
<rect x="47.8" y="72.4" class="st2" width="1" height="1.6"/>
<polyline class="st1" points="157.6,46.8 157.7,46.6 157.9,46.5 172,46.5 "/>
<polyline class="st1" points="172,46.5 172.3,46.6 172.4,46.8 "/>
<line class="st1" x1="157.9" y1="76.1" x2="172" y2="76.1"/>
<polyline class="st1" points="172.4,75.7 172.3,76 172,76.1 "/>
<rect x="129.4" y="126.4" class="st1" width="11.4" height="10"/>
<line class="st1" x1="134.8" y1="151.9" x2="128.9" y2="151.9"/>
<polyline class="st1" points="134.8,152.1 128.9,152.1 128.9,151.9 "/>
<path class="st1" d="M134.8,149.9v0.2 M134.8,150.9v0.2 M134.8,151.9v0.1"/>
<polyline class="st1" points="126.6,149.5 126.7,149.5 126.7,149.7 "/>
<polyline class="st1" points="126.6,149.5 126.4,149.7 126.2,149.8 "/>
<polyline class="st1" points="126.1,149.9 126.1,149.8 126.2,149.8 "/>
<path class="st1" d="M128,152.2l-1.3-2.6 M127.4,152.5l-1.3-2.8"/>
<polyline class="st1" points="127.8,152.3 127.6,151.9 127.4,151.9 "/>
<line class="st1" x1="127.4" y1="152.1" x2="127.7" y2="152.4"/>
<polygon class="st1" points="128.2,152.7 128,152.8 127.8,152.9 127.7,152.8 127.6,152.7 127.7,152.4 127.8,152.3 128,152.4 "/>
<polyline class="st1" points="127.8,152.2 128,152.3 128.3,152.5 128.2,152.9 127.9,153 127.6,152.9 127.4,152.5 127.6,152.3 "/>
<polyline class="st1" points="127.8,152.3 128,152.3 128.2,152.5 128.2,152.8 127.9,152.9 127.7,152.9 127.6,152.7 127.7,152.3 "/>
<path class="st1" d="M134.8,144.1h-5.9 M134.8,149.9h-5.9 M134.8,150.1h-5.9 M134.8,150.9h-5.9 M134.8,151.1h-5.9 M127.2,151.9
	l-0.6,0.2 M128.9,150.9v0.2 M128.9,149.9v0.2"/>
<polyline class="st1" points="134.8,144 128.9,144 128.9,144.1 "/>
<path class="st1" d="M128.9,148v0.1 M128.9,146.9v0.2 M128.9,146v0.2 M128.9,145v0.2 M128.9,149v0.1 M134.8,145v0.2 M134.8,146v0.2
	 M134.8,146.9v0.2 M134.8,148v0.1 M134.8,149v0.1 M134.8,144.1v0.1"/>
<polyline class="st1" points="126.6,144 127.1,144.1 127.3,144.7 "/>
<path class="st1" d="M134.8,148.1h-5.9 M134.8,148h-5.9 M134.8,147.1h-5.9 M134.8,148.9h-5.9 M134.8,146.9h-5.9 M134.8,149.1h-5.9
	 M134.8,146.2h-5.9 M134.8,146h-5.9 M134.8,145.3h-5.9 M134.8,145h-5.9"/>
<polyline class="st1" points="127.8,143.8 134.9,143.8 135.2,144 135.5,144.4 135.5,152.5 135.2,153 134.8,153.1 127.8,153.1 "/>
<path class="st1" d="M135.7,143.5v10.1 M127.3,144.7v6.1"/>
<polyline class="st1" points="126.5,149.4 126.6,149.4 126.7,149.5 "/>
<polyline class="st1" points="126.5,149.4 126.4,149.5 126.1,149.7 126.1,149.8 "/>
<line class="st1" x1="126.1" y1="149.7" x2="126.2" y2="149.7"/>
<polyline class="st1" points="121.1,152.2 120.5,151.9 120.2,151.5 "/>
<polygon class="st1" points="124.3,148.1 124.2,148.5 123.8,148.6 123.5,148.5 123.4,148.1 123.5,147.7 123.8,147.6 124.2,147.7 "/>
<line class="st1" x1="122.9" y1="146.9" x2="121.1" y2="144.7"/>
<polyline class="st1" points="120.2,144.7 120.5,144.1 121.1,144 "/>
<polygon class="st1" points="124.6,148.1 124.4,148.7 123.8,148.9 123.2,148.7 123,148.1 123.2,147.5 123.8,147.3 124.4,147.5 "/>
<path class="st1" d="M127.8,143.8h-7.1 M121.1,151.3l1.8-2 M120.2,151.5v-6.7 M119.8,153.7v-10.1"/>
<polyline class="st1" points="120.1,144.4 120.2,144 120.7,143.8 "/>
<line class="st1" x1="120.1" y1="144.4" x2="120.1" y2="152.5"/>
<polyline class="st1" points="120.7,153.1 120.4,153 120.1,152.5 "/>
<path class="st1" d="M121.1,144h5.5 M124.8,146.9l1.8-2.2 M126.6,152.2h-5.5 M126.6,151.3l-1.8-2 M119.8,143.6h16 M135.8,153.6h-16
	 M120.8,153.2h7.1"/>
<rect x="102.2" y="142.8" class="st1" width="10.8" height="1"/>
<rect x="102.2" y="143.8" class="st1" width="10.8" height="10.7"/>
<polygon class="st1" points="109.3,142.9 109.1,143.1 109,143.3 109.1,143.7 109.3,143.8 109.7,143.7 109.8,143.3 109.7,143.1 "/>
<polygon class="st1" points="104,142.9 103.8,143.1 103.7,143.3 103.8,143.7 104,143.8 104.4,143.7 104.5,143.3 104.4,143.1 "/>
<polygon class="st1" points="104,143.2 103.9,143.2 103.9,143.3 103.9,143.4 104,143.5 104.2,143.4 104.3,143.3 104.2,143.2 "/>
<polygon class="st1" points="107.6,142.9 107.3,143.1 107.2,143.3 107.3,143.7 107.6,143.8 107.9,143.7 108,143.3 107.9,143.1 "/>
<polygon class="st1" points="105.8,142.9 105.6,143.1 105.5,143.3 105.6,143.7 105.8,143.8 106.1,143.7 106.2,143.3 106.1,143.1 "/>
<polygon class="st1" points="105.8,143.2 105.7,143.2 105.6,143.3 105.7,143.4 105.8,143.5 106,143.4 106.1,143.3 106,143.2 "/>
<polygon class="st1" points="107.6,143.2 107.5,143.2 107.4,143.3 107.5,143.4 107.6,143.5 107.8,143.4 107.8,143.2 "/>
<polygon class="st1" points="111.1,142.9 110.9,143.1 110.8,143.3 110.9,143.7 111.1,143.8 111.5,143.7 111.6,143.3 111.5,143.1 "/>
<polygon class="st1" points="111.1,143.2 111,143.2 111,143.3 111,143.4 111.1,143.5 111.2,143.4 111.4,143.3 111.2,143.2 "/>
<polygon class="st1" points="109.3,143.2 109.2,143.2 109.2,143.3 109.2,143.4 109.3,143.5 109.6,143.4 109.6,143.2 "/>
<rect x="127.8" y="127.5" class="st1" width="0.1" height="2.2"/>
<line class="st1" x1="128.9" y1="136.3" x2="128.4" y2="136.3"/>
<polyline class="st1" points="127.9,135.9 128,136.2 128.4,136.3 "/>
<line class="st1" x1="127.9" y1="135.9" x2="127.9" y2="126.9"/>
<polyline class="st1" points="128.4,126.4 128,126.5 127.9,126.9 "/>
<polyline class="st1" points="128.4,126.4 128.9,126.4 128.9,136.3 "/>
<rect x="128.9" y="126.9" class="st1" width="0.5" height="9"/>
<path class="st1" d="M133,131.3h4.3 M135.2,129.1v4.3 M136.8,129.6l-3.3,3.4 M133.6,129.6l3.2,3.4"/>
<polyline class="st1" points="140.8,136.3 128.9,136.3 128.9,142.8 98.6,142.8 "/>
<polyline class="st1" points="98.6,154.7 140.8,154.7 140.8,136.3 "/>
<polyline class="st1" points="101.3,144.1 114,144.1 114,153.9 113.2,153.9 "/>
<polyline class="st1" points="101.5,144.3 113.8,144.3 113.8,153.6 113.2,153.6 "/>
<polyline class="st1" points="101.5,144.3 101.5,153.6 102.1,153.6 "/>
<polyline class="st1" points="101.3,144.1 101.3,153.9 102.1,153.9 "/>
<polyline class="st1" points="102.1,145.9 113.2,145.9 112.9,146.2 102.4,146.2 102.1,145.9 102.1,154.2 "/>
<line class="st1" x1="113.2" y1="145.9" x2="113.2" y2="152.3"/>
<polyline class="st1" points="102.4,146.2 103,146.7 112.3,146.7 112.9,146.2 112.9,154.2 112.3,153.7 112.3,146.7 112,146.8 
	103.2,146.8 103,146.7 103,153.7 106,153.7 "/>
<polyline class="st1" points="106.2,148.8 106,149.1 109.3,149.1 109,148.8 "/>
<polyline class="st1" points="106,149.1 106,154.2 109.3,154.2 109.3,149.1 "/>
<polyline class="st1" points="103,153.7 102.4,154.2 102.4,146.2 "/>
<path class="st1" d="M102.4,154.2h3.6 M109.4,153.7h3"/>
<line class="st1" x1="109.3" y1="154.2" x2="112.9" y2="154.2"/>
<path class="st1" d="M102.2,154.2L102.2,154.2 M102.1,154.2h3.9"/>
<polyline class="st1" points="109.3,154.2 113.2,154.2 113.2,145.9 "/>
<rect x="102.1" y="154.2" class="st1" width="11" height="0.5"/>
<line class="st1" x1="98.6" y1="142.8" x2="98.6" y2="154.7"/>
<line class="st4" x1="172.4" y1="106.8" x2="166.4" y2="106.8"/>
<polyline class="st4" points="146.6,106.8 144.7,106.8 144.7,154.7 "/>
<line class="st4" x1="172.4" y1="102.9" x2="166.4" y2="102.9"/>
<line class="st2" x1="115.2" y1="81.1" x2="117.6" y2="81.1"/>
<line class="st2" x1="115.2" y1="99.3" x2="117.6" y2="99.3"/>
<line class="st2" x1="154.6" y1="76.1" x2="154.6" y2="78.5"/>
<line class="st2" x1="139" y1="76.1" x2="139" y2="78.5"/>
<path class="st4" d="M146.6,102.9v4 M166.4,102.9v4"/>
<line class="st2" x1="135.8" y1="102.9" x2="135.8" y2="105.3"/>
<line class="st2" x1="117.6" y1="102.9" x2="117.6" y2="105.3"/>
<polyline class="st1" points="154.1,46.9 154.6,48 154.8,49.2 154.6,50.4 154,51.6 153.1,52.5 152,53.1 150.8,53.3 "/>
<polyline class="st1" points="150.8,52.8 151.4,52.8 152.2,52.6 152.8,52.2 153.2,51.9 153.7,51.3 154,50.7 154.2,50.1 154.3,49.3 
	154.3,48.7 "/>
<polyline class="st1" points="150.8,52.8 150.1,52.8 149.5,52.6 148.9,52.2 148.4,51.9 148,51.3 147.6,50.7 147.4,50.1 147.4,48.7 
	"/>
<polyline class="st1" points="147.6,46.9 147.8,46.7 147.6,47.3 "/>
<line class="st1" x1="150.6" y1="48.3" x2="147.8" y2="47.9"/>
<polyline class="st1" points="149.3,48.1 147.7,48.3 147.4,48.7 "/>
<polyline class="st1" points="147.8,47.9 147.6,47.7 147.6,47.3 "/>
<line class="st1" x1="150.5" y1="47.2" x2="150.6" y2="48.9"/>
<polyline class="st1" points="154.1,46.9 153.7,46.7 154,47.4 "/>
<polyline class="st1" points="150.6,46.9 151,46.9 151.1,47.1 151.1,47.2 "/>
<path class="st1" d="M151,49h-0.2 M152.3,48.2l1.6,0.1 M153.6,47.9l-2.5,0.4"/>
<polyline class="st1" points="151.1,48.9 151.1,49 151,49 "/>
<path class="st1" d="M151.1,47.2v1.7 M153.8,48.3l0.5,0.5"/>
<polyline class="st1" points="154,47.4 154,47.8 153.6,47.9 "/>
<line class="st1" x1="153.7" y1="46.7" x2="147.8" y2="46.7"/>
<polyline class="st1" points="151.1,48.6 151.4,49 151.4,49.5 151.1,49.8 150.6,49.8 150.2,49.5 150.2,49 150.6,48.6 "/>
<polyline class="st1" points="151,49 151.2,49.2 151.1,49.5 150.8,49.6 150.5,49.5 150.5,49.2 150.6,48.9 "/>
<polyline class="st1" points="150.5,47.2 150.5,47.1 150.6,46.9 "/>
<polyline class="st1" points="150.7,49 150.6,49 150.6,48.9 "/>
<polyline class="st1" points="150.8,53.3 149.6,53.1 148.4,52.5 147.6,51.6 147,50.4 146.9,49.2 147,48 147.6,46.9 "/>
<polygon class="st3" points="154.6,78.1 141,85.9 140.6,85.2 154.2,77.4 "/>
<polyline class="st2" points="141,85.9 139.9,83.4 139.2,80.8 139,78.1 "/>
<polyline class="st3" points="172.4,76.1 154.6,76.1 154.6,78.1 154.6,78.5 172.4,78.5 "/>
<polygon class="st3" points="115.6,99.3 106.4,83.5 107.3,83.1 116.4,98.9 "/>
<polyline class="st2" points="106.4,83.5 109.3,82.2 112.4,81.4 115.6,81.1 "/>
<polyline class="st3" points="128.3,46.5 128.3,76.1 115.2,76.1 115.2,81.1 115.6,81.1 117.6,81.1 117.6,78.5 139,78.5 139,78.1 
	139,76.1 130.7,76.1 130.7,46.5 "/>
<polygon class="st3" points="135.8,104.8 120,113.9 119.6,113.2 135.4,104.1 "/>
<polyline class="st2" points="120,113.9 118.7,111 117.8,108 117.6,104.8 "/>
<polyline class="st3" points="53.3,102.9 115.2,102.9 115.2,99.3 115.6,99.3 117.6,99.3 117.6,102.9 117.6,104.8 117.6,105.3 
	53.3,105.3 "/>
<polyline class="st3" points="140.8,102.9 135.8,102.9 135.8,104.8 135.8,105.3 140.8,105.3 "/>
<polygon class="st2" points="146.6,106.3 163.8,116.3 164.3,115.6 147.1,105.6 "/>
<polyline class="st2" points="163.8,116.3 165.2,113.2 166.2,109.8 166.4,106.3 "/>
<path class="st2" d="M166.4,106.3v-1.9 M146.6,106.3v-1.9"/>
<path class="st2" d="M174.7,106.8h2"/>
<line class="st5" x1="53.3" y1="46.5" x2="151.7" y2="46.5"/>
<line class="st6" x1="48.4" y1="38.9" x2="179.9" y2="38.9"/>
<line class="st6" x1="47.8" y1="38.3" x2="179.9" y2="38.3"/>
<line class="st6" x1="45.4" y1="36" x2="179.9" y2="36"/>
<rect x="21.6" y="157.3" class="st5" width="23.8" height="2.3"/>
<line class="st5" x1="48.4" y1="58.3" x2="48.4" y2="38.9"/>
<line class="st5" x1="53.3" y1="58.3" x2="53.3" y2="46.5"/>
<polyline class="st5" points="45.4,87.4 47.8,87.4 47.8,88 53.3,88 "/>
<polyline class="st5" points="45.4,58.9 47.8,58.9 47.8,58.3 53.3,58.3 "/>
<polyline class="st5" points="45.4,141.5 47.8,141.5 47.8,142.1 53.3,142.1 "/>
<polyline class="st5" points="45.4,112.9 47.8,112.9 47.8,112.3 53.3,112.3 "/>
<line class="st5" x1="48.4" y1="112.3" x2="48.4" y2="88"/>
<line class="st5" x1="53.3" y1="112.3" x2="53.3" y2="88"/>
<line class="st6" x1="48.4" y1="162.3" x2="48.4" y2="142.1"/>
<line class="st5" x1="53.3" y1="154.7" x2="53.3" y2="142.1"/>
<line class="st6" x1="47.8" y1="162.3" x2="47.8" y2="141.5"/>
<line class="st6" x1="45.4" y1="162.3" x2="45.4" y2="141.5"/>
<line class="st5" x1="47.8" y1="112.9" x2="47.8" y2="87.4"/>
<line class="st5" x1="45.4" y1="112.9" x2="45.4" y2="87.4"/>
<line class="st5" x1="47.8" y1="58.9" x2="47.8" y2="38.3"/>
<line class="st5" x1="45.4" y1="58.9" x2="45.4" y2="36"/>
<polyline class="st5" points="123.7,162.3 123.7,159.6 118.3,159.6 118.3,162.3 "/>
<line class="st5" x1="172.4" y1="46.5" x2="172.4" y2="106.8"/>
<line class="st5" x1="179.9" y1="46.5" x2="179.9" y2="106.8"/>
<line class="st5" x1="146.6" y1="162.3" x2="146.6" y2="154.7"/>
<path class="st5" d="M179.9,106.8h-7.4"/>
<path class="st5" d="M179.9,36v10.5 M157,46.5h15.5"/>
<polyline class="st5" points="157,46.5 157,43.9 151.7,43.9 151.7,46.5 "/>
<path class="st1" d="M134.9,46.8h7.5c0.3,0,0.5,0.2,0.5,0.5v2.8c0,0.3-0.2,0.5-0.5,0.5h-7.5c-0.3,0-0.5-0.2-0.5-0.5v-2.8
	C134.4,47,134.6,46.8,134.9,46.8z"/>
<ellipse class="st1" cx="138.7" cy="56.1" rx="2.7" ry="3.1"/>
<ellipse class="st1" cx="138.7" cy="56.1" rx="2.7" ry="3.1"/>
<path class="st1" d="M142,56.1c0.3,1.8-1,3.5-2.8,3.8s-3.5-1-3.8-2.8c-0.1-0.3-0.1-0.7,0-1c0-1.2,0.3-2.4,0.8-3.5
	c0.6-0.8,1.5-0.5,2.5-0.5s1.9-0.4,2.5,0.4C141.7,53.6,142,54.8,142,56.1z"/>
<path class="st1" d="M136,50.7c0.2,0.6,0.3,1.3,0.2,1.9"/>
<path class="st1" d="M141.5,50.7c-0.2,0.6-0.3,1.3-0.2,1.9"/>
<circle class="st1" cx="138.7" cy="54.5" r="0.8"/>
<circle class="st1" cx="138.7" cy="54.5" r="0.4"/>
<line class="st5" x1="53.3" y1="154.7" x2="146.6" y2="154.7"/>
<line class="st5" x1="123.7" y1="162.3" x2="146.6" y2="162.3"/>
<line class="st5" x1="45.4" y1="162.3" x2="118.3" y2="162.3"/>
<polyline class="st4" points="146.6,102.9 140.8,102.9 140.8,154.7 "/>
<path class="st7" d="M161.5,88h-9.1c-1.7,0-3.1,1.7-3.1,3.8v6.4c0,2.1,1.4,3.8,3.1,3.8h9.1c1.7,0,3.1-1.7,3.1-3.8v-6.4
	C164.6,89.7,163.2,88,161.5,88z"/>
<path class="st7" d="M161.1,88.6h-8.2c-1.5,0-2.8,1.5-2.8,3.4v5.8c0,1.9,1.2,3.4,2.8,3.4h8.2c1.5,0,2.8-1.5,2.8-3.4V92
	C163.9,90.2,162.6,88.6,161.1,88.6z"/>
<path class="st7" d="M155.1,93.8c-0.6,0.2-0.9,1.5-0.6,2.9s1,2.4,1.6,2.2s0.9-1.5,0.6-2.9S155.7,93.6,155.1,93.8z"/>
<path class="st7" d="M154.5,96.8c0.5-1.3,1.2-1.5,2.2-0.7"/>
<path class="st7" d="M159,91.3c-0.6-0.3-1.4,0.6-1.8,2s-0.3,2.7,0.3,2.9s1.4-0.6,1.8-2S159.5,91.6,159,91.3z"/>
<path class="st7" d="M157.1,93.4c1-0.7,1.7-0.4,2.1,1"/>
<path class="st8" d="M60.9,137.1h30.4c1.9,0,3.5,1.6,3.5,3.5v8.8c0,1.9-1.6,3.5-3.5,3.5H60.9c-1.9,0-3.5-1.6-3.5-3.5v-8.8
	C57.4,138.6,59,137.1,60.9,137.1z"/>
<path class="st8" d="M92.3,139.2h1.5c0.6,0,1.1,0.5,1.1,1.1v10.5c0,0.6-0.5,1.1-1.1,1.1h-1.5c-0.6,0-1.1-0.5-1.1-1.1v-10.5
	C91.2,139.7,91.7,139.2,92.3,139.2z"/>
<path class="st8" d="M58.2,139.2h1.5c0.6,0,1.1,0.5,1.1,1.1v10.5c0,0.6-0.5,1.1-1.1,1.1h-1.5c-0.6,0-1.1-0.5-1.1-1.1v-10.5
	C57.2,139.7,57.6,139.2,58.2,139.2z"/>
<path class="st8" d="M59,147.6h34.3c0.7,0,1.3,0.6,1.3,1.3v1.8c0,0.7-0.6,1.3-1.3,1.3H59c-0.7,0-1.3-0.6-1.3-1.3v-1.8
	C57.7,148.2,58.3,147.6,59,147.6z"/>
<path class="st8" d="M61.4,147.9h29.5c0.6,0,1.1,0.5,1.1,1.1v1.5c0,0.6-0.5,1.1-1.1,1.1H61.4c-0.6,0-1.1-0.5-1.1-1.1V149
	C60.3,148.4,60.8,147.9,61.4,147.9z"/>
<line class="st7" x1="76.1" y1="137.1" x2="76.1" y2="147.6"/>
<rect x="92.7" y="106" class="st8" width="23.9" height="5.8"/>
<rect x="98" y="107.2" class="st8" width="14.3" height="3.8"/>
<rect x="94.9" y="108.3" class="st8" width="19.6" height="1.2"/>
<path class="st9" d="M62.8,125.6v-2.3c0-0.2,0.2-0.4,0.4-0.4h6.1c0.1,0,0.2,0.1,0.2,0.2v2.5c0,1.4-1.1,2.5-2.6,2.5h-1.6
	C63.9,128.2,62.8,127,62.8,125.6z"/>
<path class="st7" d="M62.8,125.6c2.4,1.9,4.6,1.9,6.7,0"/>
<path class="st9" d="M70.1,125.7v-2.3c0-0.2,0.2-0.4,0.4-0.4h6.1c0.1,0,0.2,0.1,0.2,0.2l0,0v2.5c0,1.4-1.1,2.5-2.5,2.5h-1.6
	C71.3,128.3,70.1,127.1,70.1,125.7z"/>
<path class="st7" d="M70.1,125.7c2.4,1.9,4.6,1.9,6.7,0"/>
<path class="st9" d="M77.8,125.7v-2.3c0-0.2,0.2-0.4,0.4-0.4h6.1c0.1,0,0.2,0.1,0.2,0.2l0,0v2.5c0,1.4-1.1,2.5-2.5,2.5h-1.6
	C78.9,128.3,77.8,127.2,77.8,125.7z"/>
<path class="st7" d="M77.8,125.7c2.4,1.9,4.6,1.9,6.7,0"/>
<path class="st9" d="M63,109.1v2.3c0,0.2,0.2,0.4,0.4,0.4h6.1c0.1,0,0.2-0.1,0.2-0.2l0,0v-2.5c0-1.4-1.1-2.5-2.5-2.5l0,0h-1.6
	C64.2,106.5,63,107.7,63,109.1L63,109.1z"/>
<path class="st7" d="M63,109.1c2.4-1.9,4.6-1.9,6.7,0"/>
<path class="st9" d="M70.4,109v2.3c0,0.2,0.2,0.4,0.4,0.4l0,0h6.1c0.1,0,0.2-0.1,0.2-0.2l0,0V109c0-1.4-1.1-2.5-2.5-2.6H73
	C71.6,106.4,70.4,107.6,70.4,109z"/>
<path class="st7" d="M70.4,109c2.4-1.9,4.6-1.9,6.7,0"/>
<path class="st9" d="M78.1,108.9v2.3c0,0.2,0.2,0.4,0.4,0.4l0,0h6.1c0.1,0,0.2-0.1,0.2-0.2l0,0v-2.5c0-1.4-1.1-2.5-2.5-2.6h-1.6
	C79.2,106.4,78.1,107.5,78.1,108.9z"/>
<path class="st7" d="M78.1,108.9c2.4-1.9,4.6-1.9,6.7,0"/>
<path class="st8" d="M63.1,109.8H84c1.2,0,2.2,1,2.2,2.2v10.1c0,1.2-1,2.2-2.2,2.2H63.1c-1.2,0-2.2-1-2.2-2.2V112
	C60.9,110.8,61.9,109.8,63.1,109.8z"/>
<path class="st8" d="M55.2,90.9h9.3c0.5,0,0.9,0.4,0.9,0.9v9.1c0,0.5-0.4,0.9-0.9,0.9h-9.3c-0.5,0-0.9-0.4-0.9-0.9v-9.1
	C54.3,91.3,54.7,90.9,55.2,90.9z"/>
<path class="st8" d="M55.1,47.6h9.3c0.5,0,0.9,0.4,0.9,0.9v9.1c0,0.5-0.4,0.9-0.9,0.9h-9.3c-0.5,0-0.9-0.4-0.9-0.9v-9.1
	C54.2,48,54.6,47.6,55.1,47.6z"/>
<rect x="119.9" y="62.4" transform="matrix(0.9952 -9.758556e-02 9.758556e-02 0.9952 -6.1003 12.0612)" class="st10" width="0.7" height="12"/>
<rect x="110.3" y="51.9" transform="matrix(0.9325 -0.3611 0.3611 0.9325 -11.0184 45.5292)" class="st10" width="12" height="0.7"/>
<rect x="120.6" y="48" class="st8" width="6.4" height="27.1"/>
<path class="st11" d="M80.4,58.3H90c4,0,7.2,3.2,7.2,7.3v18.1c0,4-3.2,7.2-7.2,7.2h-9.6c-4,0-7.2-3.2-7.2-7.2V65.5
	C73.2,61.5,76.4,58.3,80.4,58.3z"/>
<text transform="matrix(1 0 0 1 78.0399 67.17)" class="st12 st13 st14">10,5</text>
<text transform="matrix(1 0 0 1 77.08 76.97)" class="st15 st13 st16">29,2</text>
<text transform="matrix(1 0 0 1 78 86.5701)" class="st12 st13 st14">28,2</text>
<text transform="matrix(1 0 0 1 95.2296 99.26)" class="st17 st13 st14" style="text-decoration: underline;">10,5</text>
<text transform="matrix(1 0 0 1 136.2114 100.0326)" class="st17 st13 st14" style="text-decoration: underline;">3,2</text>
<text transform="matrix(1 0 0 1 132.7847 73.7896)" class="st17 st13 st14" style="text-decoration: underline;">3,4</text>
<text transform="matrix(1 0 0 1 113.06 139.5801)" class="st17 st13 st14" style="text-decoration: underline;">11,1</text>
<text transform="matrix(6.123234e-17 -1 1 6.123234e-17 36.99 146.7695)" class="st17 st13 st14" style="text-decoration: underline;">3,4х0,3=1,0</text>
</svg>
