<?xml version="1.0" encoding="utf-8"?>
<!-- Generator: Adobe Illustrator 25.0.0, SVG Export Plug-In . SVG Version: 6.00 Build 0)  -->
<svg version="1.1" id="Слой_1" xmlns="http://www.w3.org/2000/svg" xmlns:xlink="http://www.w3.org/1999/xlink" x="0px" y="0px"
	 viewBox="0 0 200 200" style="enable-background:new 0 0 200 200;" xml:space="preserve">
<style type="text/css">
	.st0{fill:#FFF18D;}
	.st1{fill:none;stroke:#666666;stroke-width:0.2;stroke-linecap:round;stroke-linejoin:round;}
	.st2{fill:none;stroke:#333333;stroke-width:0.4;stroke-linecap:round;stroke-linejoin:round;}
	.st3{fill:#FFFFFF;stroke:#333333;stroke-width:0.4;stroke-linecap:round;stroke-linejoin:round;}
	.st4{fill:none;stroke:#333333;stroke-width:0.6;stroke-linecap:round;stroke-linejoin:round;}
	.st5{fill:none;stroke:#333333;stroke-width:0.8;stroke-linecap:round;stroke-linejoin:round;}
	.st6{fill:#FFF18D;stroke:#666666;stroke-width:0.2;stroke-miterlimit:22.9288;}
	.st7{fill:#FFF18D;stroke:#666666;stroke-width:0.2;stroke-miterlimit:22.93;}
	.st8{fill-rule:evenodd;clip-rule:evenodd;fill:#FFF18D;stroke:#666666;stroke-width:0.2;stroke-miterlimit:22.93;}
	.st9{fill:none;stroke:#666666;stroke-width:0.2;stroke-miterlimit:22.93;}
	.st10{fill:#666666;}
	.st11{font-family:'ArialMT';}
	.st12{font-size:8px;}
	.st13{fill:#FFFFFF;}
	.st14{fill:#1A1A18;}
	.st15{fill:#E43622;}
	.st16{font-size:9px;}
</style>
<rect x="29.7" y="40" class="st0" width="119.6" height="55.9"/>
<rect x="61.6" y="91.8" class="st0" width="87.2" height="55.9"/>
<rect x="156.8" y="89.1" class="st0" width="21.2" height="61.6"/>
<path class="st1" d="M58,39.9h7.5c0.3,0,0.5,0.2,0.5,0.5v2.8c0,0.3-0.2,0.5-0.5,0.5H58c-0.3,0-0.5-0.2-0.5-0.5v-2.8
	C57.5,40.2,57.7,39.9,58,39.9z"/>
<ellipse class="st1" cx="61.7" cy="49.2" rx="2.7" ry="3.1"/>
<ellipse class="st1" cx="61.7" cy="49.2" rx="2.7" ry="3.1"/>
<path class="st1" d="M65,49.2c0.2,1.8-1,3.5-2.8,3.7s-3.5-1-3.7-2.8c0-0.3,0-0.6,0-0.9c0-1.2,0.3-2.4,0.8-3.6
	c0.6-0.8,1.5-0.5,2.5-0.5s1.9-0.4,2.5,0.4C64.7,46.7,65,47.9,65,49.2z"/>
<path class="st1" d="M59,43.8c0.2,0.6,0.3,1.3,0.2,1.9"/>
<path class="st1" d="M64.6,43.8c-0.2,0.6-0.3,1.3-0.2,1.9"/>
<circle class="st1" cx="61.7" cy="47.6" r="0.8"/>
<circle class="st1" cx="61.7" cy="47.6" r="0.4"/>
<path class="st1" d="M34.4,42.5c0,0,2.3-0.4,3.1-0.4s3.1,0.4,3.1,0.4"/>
<path class="st1" d="M40.6,42.5c0.2,0.1,0.5,0.1,0.7,0.2c0.2,0.2,0.3,0.4,0.5,0.6l0.1,0.7"/>
<path class="st1" d="M30.7,42.6c0,0,2-0.7,2.6-0.8c0.9-0.2,1.8-0.3,2.8-0.4c0.9-0.1,1.8-0.1,2.8,0c0.9,0.1,1.8,0.2,2.8,0.4
	c0.7,0.2,2.8,0.8,2.8,0.8"/>
<path class="st1" d="M33.1,44l0.1-0.7c0.1-0.2,0.3-0.4,0.5-0.6c0.2-0.1,0.5-0.2,0.7-0.2"/>
<path class="st1" d="M44.3,63l-0.6,1.8c0,0-0.9,1.2-1.2,1.6c-0.4,0.4-0.9,0.8-1.4,1.2c-0.6,0.3-1.2,0.5-1.8,0.7
	c-0.6,0.1-1.2,0.2-1.8,0.2s-1.3-0.1-1.9-0.2c-0.6-0.2-1.1-0.4-1.7-0.7c-0.6-0.3-1.1-0.8-1.6-1.2c-0.4-0.5-0.7-1-1.1-1.6L30.7,63"/>
<path class="st1" d="M30.7,63V42.6 M30.1,69.1V40.2 M41.9,56.7V44 M44.3,42.6V63 M44.9,69.1V40.2"/>
<path class="st1" d="M41.9,56.7c0,0.5-0.1,1-0.2,1.4c-0.2,0.4-0.4,0.8-0.7,1.2s-0.7,0.8-1.1,1.1c-0.4,0.3-0.9,0.5-1.3,0.6
	c-0.5,0.1-1,0.1-1.4,0.1c-0.5-0.1-1-0.2-1.4-0.4c-0.3-0.1-0.5-0.2-0.7-0.4c-0.4-0.3-0.7-0.7-1-1.1c-0.3-0.4-0.5-0.8-0.7-1.2
	c-0.1-0.5-0.2-1-0.2-1.4V44"/>
<path class="st1" d="M31.1,64.5c0,0,1.4-0.9,1.9-1.1c0.7-0.3,1.4-0.5,2.2-0.7c0.8-0.1,1.5-0.1,2.3-0.1c0.7,0,1.4,0,2.2,0.1
	c0.7,0.2,1.5,0.4,2.2,0.7c0.5,0.2,2,1.1,2,1.1"/>
<circle class="st1" cx="37.3" cy="44.4" r="0.8"/>
<circle class="st1" cx="37.3" cy="44.4" r="0.4"/>
<line class="st1" x1="44.9" y1="69.1" x2="30.1" y2="69.1"/>
<polyline class="st1" points="44.7,40.2 44.6,39.9 44.3,39.8 30.3,39.8 "/>
<polyline class="st1" points="30.3,39.8 30.1,39.9 29.9,40.2 "/>
<line class="st1" x1="44.3" y1="69.5" x2="30.3" y2="69.5"/>
<polyline class="st1" points="29.9,69.1 30.1,69.3 30.3,69.4 "/>
<rect x="61.6" y="119.7" class="st1" width="11.3" height="10"/>
<line class="st1" x1="67.5" y1="145.3" x2="73.5" y2="145.3"/>
<polyline class="st1" points="67.5,145.4 73.5,145.4 73.5,145.3 "/>
<path class="st1" d="M67.5,143.3v0.2 M67.5,144.2v0.2 M67.5,145.3v0.1"/>
<polyline class="st1" points="75.8,142.9 75.7,142.9 75.5,143 "/>
<polyline class="st1" points="75.8,142.9 75.9,143 76.1,143.1 76.1,143.2 "/>
<path class="st1" d="M74.3,145.5l1.3-2.6 M74.8,145.9l1.4-2.8 M76.1,143.1L76.1,143.1"/>
<polyline class="st1" points="74.5,145.7 74.7,145.3 74.8,145.3 "/>
<line class="st1" x1="74.8" y1="145.4" x2="74.7" y2="145.8"/>
<polygon class="st1" points="74.1,146 74.2,146.1 74.5,146.2 74.7,146.1 74.7,145.8 74.5,145.7 74.2,145.8 "/>
<polyline class="st1" points="74.6,145.5 74.2,145.7 74,145.9 74.1,146.2 74.5,146.4 74.7,146.2 74.9,145.9 74.7,145.7 "/>
<polyline class="st1" points="74.5,145.7 74.2,145.7 74.1,145.9 74.2,146.1 74.5,146.2 74.7,146.2 74.8,146 74.7,145.7 "/>
<path class="st1" d="M67.5,137.5h6 M67.5,143.3h6 M67.5,143.5h6 M67.5,144.2h6 M67.5,144.5h6 M75.2,145.3l0.6,0.2 M73.5,144.2v0.2
	 M73.5,143.3v0.2"/>
<polyline class="st1" points="67.5,137.4 73.5,137.4 73.5,137.5 "/>
<path class="st1" d="M73.5,141.3v0.1 M73.5,140.3v0.2 M73.5,139.3v0.2 M73.5,138.3v0.2 M73.5,142.3v0.1 M67.5,138.3v0.2 M67.5,139.3
	v0.2 M67.5,140.3v0.2 M67.5,141.3v0.1 M67.5,142.3v0.1 M67.5,137.4v0.1"/>
<polyline class="st1" points="75.8,137.4 75.2,137.5 74.9,138.1 "/>
<path class="st1" d="M67.5,141.5h6 M67.5,141.3h6 M67.5,140.5h6 M67.5,142.3h6 M67.5,140.3h6 M67.5,142.5h6 M67.5,139.6h6
	 M67.5,139.3h6 M67.5,138.6h6 M67.5,138.4h6"/>
<polyline class="st1" points="74.5,137.1 67.4,137.1 67,137.4 66.8,137.7 66.8,145.9 67,146.4 67.5,146.5 74.5,146.5 "/>
<path class="st1" d="M66.5,136.9V147 M74.9,138.1v6.1"/>
<polyline class="st1" points="75.8,142.8 75.7,142.8 75.7,142.9 "/>
<polyline class="st1" points="75.8,142.8 76,142.9 76.1,143 "/>
<polyline class="st1" points="76.3,143.1 76.3,143 76.1,143 "/>
<polyline class="st1" points="81.2,145.5 81.8,145.3 82,144.8 "/>
<polygon class="st1" points="77.9,141.5 78.2,141.8 78.4,141.9 78.8,141.8 79,141.5 78.8,141.1 78.4,141 78.2,141.1 "/>
<line class="st1" x1="79.5" y1="140.3" x2="81.2" y2="138.1"/>
<polyline class="st1" points="82,138.1 81.8,137.5 81.2,137.4 "/>
<polygon class="st1" points="77.7,141.5 77.9,142.1 78.4,142.3 79,142.1 79.3,141.5 79,140.9 78.4,140.6 77.9,140.9 "/>
<path class="st1" d="M74.5,137.1h7.2 M81.2,144.7l-1.7-2 M82,144.8v-6.7 M82.5,147v-10.1"/>
<polyline class="st1" points="82.3,137.7 82,137.4 81.7,137.1 "/>
<line class="st1" x1="82.3" y1="137.7" x2="82.3" y2="145.9"/>
<polyline class="st1" points="81.5,146.5 82,146.4 82.3,145.9 "/>
<path class="st1" d="M81.2,137.4h-5.4 M77.5,140.3l-1.7-2.2 M75.8,145.5h5.4 M75.8,144.7l1.7-2 M82.5,136.9h-16 M66.5,147h16
	 M81.5,146.5h-7"/>
<rect x="89.3" y="136.2" class="st1" width="10.8" height="1"/>
<rect x="89.3" y="137.1" class="st1" width="10.8" height="10.7"/>
<polygon class="st1" points="92.9,136.3 93.2,136.4 93.3,136.7 93.2,137 92.9,137.1 92.7,137 92.6,136.7 92.7,136.4 "/>
<polygon class="st1" points="98.2,136.3 98.5,136.4 98.6,136.7 98.5,137 98.2,137.1 98,137 97.9,136.7 98,136.4 "/>
<polygon class="st1" points="98.2,136.5 98.3,136.5 98.5,136.7 98.3,136.8 98.2,136.9 98.1,136.8 98,136.7 98.1,136.5 "/>
<polygon class="st1" points="94.7,136.3 95,136.4 95.1,136.7 95,137 94.7,137.1 94.4,137 94.3,136.7 94.4,136.4 "/>
<polygon class="st1" points="96.4,136.3 96.8,136.4 96.9,136.7 96.8,137 96.4,137.1 96.2,137 96.1,136.7 96.2,136.4 "/>
<polygon class="st1" points="96.4,136.5 96.7,136.5 96.7,136.7 96.7,136.8 96.4,136.9 96.3,136.8 96.3,136.5 "/>
<polygon class="st1" points="94.7,136.5 94.9,136.5 94.9,136.7 94.9,136.8 94.7,136.9 94.5,136.8 94.5,136.5 "/>
<polygon class="st1" points="91.1,136.3 91.4,136.4 91.5,136.7 91.4,137 91.1,137.1 90.9,137 90.8,136.7 90.9,136.4 "/>
<polygon class="st1" points="91.1,136.5 91.3,136.5 91.4,136.7 91.3,136.8 91.1,136.9 91,136.8 91,136.5 "/>
<polygon class="st1" points="92.9,136.5 93.1,136.5 93.2,136.7 93.1,136.8 92.9,136.9 92.8,136.8 92.7,136.7 92.8,136.5 "/>
<rect x="74.5" y="120.8" class="st1" width="0.1" height="2.2"/>
<line class="st1" x1="73.5" y1="129.7" x2="74" y2="129.7"/>
<polyline class="st1" points="74.5,129.2 74.3,129.6 74,129.7 "/>
<line class="st1" x1="74.5" y1="129.2" x2="74.5" y2="120.2"/>
<polyline class="st1" points="74,119.7 74.3,119.9 74.5,120.2 "/>
<polyline class="st1" points="74,119.7 73.5,119.7 73.5,129.7 "/>
<rect x="72.9" y="120.2" class="st1" width="0.6" height="9"/>
<path class="st1" d="M69.4,124.7H65 M67.2,122.5v4.3 M65.6,123l3.2,3.4 M68.8,123l-3.2,3.4"/>
<polyline class="st1" points="61.6,129.7 73.5,129.7 73.5,136.2 103.7,136.2 "/>
<polyline class="st1" points="103.7,148.1 61.6,148.1 61.6,129.7 "/>
<polyline class="st1" points="101,137.5 88.4,137.5 88.4,147.2 89.1,147.2 "/>
<polyline class="st1" points="100.9,137.6 88.5,137.6 88.5,147 89.1,147 "/>
<polyline class="st1" points="100.9,137.6 100.9,147 100.3,147 "/>
<polyline class="st1" points="101,137.5 101,147.2 100.3,147.2 "/>
<polyline class="st1" points="100.3,139.3 89.1,139.3 89.5,139.5 100,139.5 100.3,139.3 100.3,147.6 "/>
<line class="st1" x1="89.1" y1="139.3" x2="89.1" y2="145.7"/>
<polyline class="st1" points="100,139.5 99.3,140 90.1,140 89.5,139.5 89.5,147.6 90.1,147.1 90.1,140 90.3,140.1 99.1,140.1 
	99.3,140 99.3,147.1 96.4,147.1 "/>
<polyline class="st1" points="96.1,142.2 96.4,142.4 93.1,142.4 93.3,142.2 "/>
<polyline class="st1" points="96.4,142.4 96.4,147.6 93.1,147.6 93.1,142.4 "/>
<polyline class="st1" points="99.3,147.1 100,147.6 100,139.5 "/>
<path class="st1" d="M100,147.6h-3.6 M93,147.1h-3"/>
<line class="st1" x1="93.1" y1="147.6" x2="89.3" y2="147.6"/>
<path class="st1" d="M100,147.6L100,147.6 M100.1,147.6h-3.7"/>
<polyline class="st1" points="93.1,147.6 89.1,147.6 89.1,139.3 "/>
<polyline class="st1" points="100.1,147.6 100.3,147.6 100.3,148.1 89.1,148.1 89.1,147.6 100.3,147.6 "/>
<line class="st1" x1="103.7" y1="136.2" x2="103.7" y2="148.1"/>
<polyline class="st1" points="62,155.6 61.7,155.7 61.6,156 "/>
<polyline class="st1" points="48.3,40.3 47.7,41.4 47.6,42.6 47.7,43.8 48.3,45 49.1,45.8 50.2,46.4 51.5,46.7 "/>
<polyline class="st1" points="51.5,46.2 50.8,46.2 50.2,45.9 49.6,45.6 49,45.2 48.7,44.6 48.3,44 48.1,43.4 48.1,42.1 "/>
<polyline class="st1" points="51.5,46.2 52.1,46.2 52.9,45.9 53.3,45.6 53.9,45.2 54.3,44.6 54.7,44 54.9,43.4 55,42.7 54.9,42.1 
	"/>
<line class="st1" x1="51.5" y1="40.1" x2="51.5" y2="46.7"/>
<polyline class="st1" points="54.8,40.3 54.5,40 54.8,40.7 "/>
<line class="st1" x1="51.8" y1="41.6" x2="54.4" y2="41.3"/>
<polyline class="st1" points="53,41.5 54.5,41.6 54.9,42.1 "/>
<polyline class="st1" points="54.4,41.3 54.8,41 54.8,40.7 "/>
<line class="st1" x1="51.8" y1="40.5" x2="51.8" y2="42.2"/>
<polyline class="st1" points="48.3,40.3 48.5,40 48.3,40.8 "/>
<polyline class="st1" points="51.7,40.3 51.3,40.3 51.2,40.4 51.2,40.5 "/>
<path class="st1" d="M51.4,42.3L51.4,42.3 M50,41.5l-1.6,0.1 M48.7,41.3l2.5,0.4"/>
<polyline class="st1" points="51.3,42.2 51.3,42.3 51.4,42.3 "/>
<path class="st1" d="M51.2,40.5l0.1,1.7 M48.4,41.6L48,42.1"/>
<polyline class="st1" points="48.3,40.8 48.4,41.1 48.7,41.3 "/>
<path class="st1" d="M49.4,42.6h4.2 M48.6,40.1h6"/>
<polyline class="st1" points="51.2,42 50.9,42.3 50.9,42.8 51.3,43.2 51.8,43.2 52.1,42.8 52.1,42.3 51.8,42 "/>
<polyline class="st1" points="51.3,42.3 51.2,42.6 51.2,42.8 51.5,42.9 51.8,42.8 51.9,42.6 51.7,42.2 "/>
<polyline class="st1" points="51.8,40.5 51.8,40.4 51.7,40.3 "/>
<polyline class="st1" points="51.5,42.3 51.7,42.3 51.8,42.2 "/>
<polyline class="st1" points="51.5,46.7 52.7,46.4 53.8,45.8 54.7,45 55.3,43.8 55.5,42.6 55.3,41.4 54.8,40.3 "/>
<line class="st1" x1="22.3" y1="59.6" x2="22.3" y2="65.6"/>
<polyline class="st2" points="157,88.9 178.4,88.9 178.4,150.7 "/>
<polyline class="st2" points="157,86.5 180.8,86.5 180.8,151.8 "/>
<path class="st2" d="M154.6,135.5v-11.9 M153.6,135.5v-11.9 M149.1,135.5v-29.8 M157,134.9v-28.6 M154.6,125h-1 M157,123.6h-7.9
	 M154.6,133.9h-1"/>
<polygon class="st3" points="142.1,121.7 143,122.1 149.9,106.2 149.1,105.7 "/>
<polyline class="st2" points="149.1,123.6 146.9,123.4 144.9,123 143,122.1 "/>
<path class="st2" d="M154.6,51.7v29.6 M157,80.7V52.3 M149.1,51.7v29.6"/>
<polyline class="st2" points="153.7,81.3 153.7,51.7 153.7,53.1 154.6,53.1 154.6,51.7 153.7,51.7 "/>
<rect x="153.7" y="79.9" class="st2" width="1" height="1.4"/>
<rect x="153.7" y="65.7" class="st2" width="1" height="1.6"/>
<line class="st4" x1="29.9" y1="100.2" x2="35.8" y2="100.2"/>
<polyline class="st4" points="55.6,100.2 57.7,100.2 57.7,148.1 "/>
<line class="st4" x1="29.9" y1="96.2" x2="35.8" y2="96.2"/>
<line class="st2" x1="87.1" y1="74.5" x2="84.8" y2="74.5"/>
<line class="st2" x1="87.1" y1="92.6" x2="84.8" y2="92.6"/>
<line class="st2" x1="47.7" y1="69.5" x2="47.7" y2="71.9"/>
<line class="st2" x1="63.3" y1="69.5" x2="63.3" y2="71.9"/>
<path class="st4" d="M55.6,96.2v4 M35.8,96.2v4"/>
<line class="st2" x1="66.5" y1="96.2" x2="66.5" y2="98.6"/>
<polygon class="st3" points="47.7,71.5 61.3,79.3 61.7,78.6 48.2,70.8 "/>
<polyline class="st2" points="61.3,79.3 62.5,76.8 63.1,74.1 63.3,71.5 "/>
<polyline class="st3" points="29.9,69.4 47.7,69.4 47.7,71.5 47.7,71.9 29.9,71.9 "/>
<polygon class="st3" points="86.7,92.6 95.8,76.9 95.1,76.4 86,92.2 "/>
<polyline class="st2" points="95.8,76.9 92.9,75.6 89.8,74.7 86.7,74.5 "/>
<polygon class="st3" points="84.8,71.9 63.3,71.9 63.3,71.5 63.3,69.4 71.7,69.4 71.7,39.8 74,39.8 74,69.4 87.1,69.4 87.1,74.5 
	86.7,74.5 84.8,74.5 "/>
<polygon class="st3" points="66.5,98.1 82.3,107.2 82.7,106.5 66.9,97.4 "/>
<polyline class="st2" points="82.3,107.2 83.6,104.4 84.4,101.4 84.8,98.1 "/>
<polyline class="st3" points="149.1,98.6 84.8,98.6 84.8,96.2 84.8,98.1 84.8,96.2 84.8,92.6 86.7,92.6 87.1,92.6 87.1,96.2 
	149.1,96.2 "/>
<polyline class="st3" points="61.6,96.2 66.5,96.2 66.5,98.1 66.5,98.6 61.6,98.6 "/>
<polygon class="st2" points="55.6,99.7 38.5,109.7 38.1,108.9 55.1,99 "/>
<polyline class="st2" points="38.5,109.7 37,106.5 36.2,103.2 35.8,99.7 "/>
<path class="st2" d="M35.8,99.7v-1.9 M55.6,99.7v-1.9"/>
<line class="st5" x1="149.1" y1="39.8" x2="50.7" y2="39.8"/>
<line class="st5" x1="154" y1="32.3" x2="22.3" y2="32.3"/>
<line class="st5" x1="154.6" y1="31.7" x2="22.3" y2="31.7"/>
<line class="st5" x1="157" y1="29.4" x2="22.3" y2="29.4"/>
<line class="st5" x1="149.1" y1="148.1" x2="57.7" y2="148.1"/>
<line class="st5" x1="78.5" y1="155.6" x2="57.7" y2="155.6"/>
<line class="st5" x1="157" y1="155.6" x2="83.9" y2="155.6"/>
<rect x="157" y="150.7" class="st5" width="23.8" height="2.3"/>
<line class="st5" x1="154" y1="51.7" x2="154" y2="32.3"/>
<line class="st5" x1="149.1" y1="51.7" x2="149.1" y2="39.8"/>
<polyline class="st5" points="157,80.7 154.6,80.7 154.6,81.3 149.1,81.3 "/>
<polyline class="st5" points="157,52.3 154.6,52.3 154.6,51.7 149.1,51.7 "/>
<polyline class="st5" points="157,134.9 154.6,134.9 154.6,135.5 149.1,135.5 "/>
<polyline class="st5" points="157,106.3 154.6,106.3 154.6,105.7 149.1,105.7 "/>
<line class="st5" x1="154" y1="105.7" x2="154" y2="81.3"/>
<line class="st5" x1="149.1" y1="105.7" x2="149.1" y2="81.3"/>
<line class="st5" x1="154" y1="155.5" x2="154" y2="135.5"/>
<line class="st5" x1="149.1" y1="155.5" x2="149.1" y2="135.5"/>
<line class="st5" x1="154.6" y1="155.6" x2="154.6" y2="134.9"/>
<line class="st5" x1="157" y1="155.6" x2="157" y2="134.9"/>
<line class="st5" x1="154.6" y1="106.3" x2="154.6" y2="80.7"/>
<line class="st5" x1="157" y1="106.3" x2="157" y2="80.7"/>
<line class="st5" x1="154.6" y1="52.3" x2="154.6" y2="31.7"/>
<line class="st5" x1="157" y1="52.3" x2="157" y2="29.4"/>
<polyline class="st5" points="78.5,155.6 78.5,153 83.9,153 83.9,155.6 "/>
<line class="st5" x1="29.9" y1="39.8" x2="29.9" y2="100.2"/>
<line class="st5" x1="22.4" y1="29.4" x2="22.4" y2="100.2"/>
<line class="st5" x1="57.7" y1="155.6" x2="57.7" y2="148.1"/>
<line class="st5" x1="22.4" y1="100.2" x2="29.9" y2="100.2"/>
<path class="st5" d="M22.4,29.4l22.9,10.4H29.9"/>
<polyline class="st5" points="45.3,39.8 45.3,37.3 50.7,37.3 50.7,39.8 "/>
<polyline class="st4" points="55.6,96.2 61.6,96.2 61.6,148.1 "/>
<rect x="126.4" y="42.1" transform="matrix(9.758817e-02 -0.9952 0.9952 9.758817e-02 66.4969 169.6125)" class="st6" width="0.7" height="12"/>
<rect x="136.8" y="51.6" transform="matrix(0.3611 -0.9325 0.9325 0.3611 42.8131 166.4044)" class="st6" width="12" height="0.7"/>
<rect x="119.9" y="41.3" class="st7" width="27.1" height="6.4"/>
<path class="st8" d="M110.2,63.4V45.9c0-2.6-2.1-4.6-4.6-4.6h-28c-0.8,0-1.4,0.6-1.4,1.5v24c0,0.7,0.6,1.3,1.3,1.3h28.1
	C108.1,68,110.2,65.9,110.2,63.4z"/>
<path class="st7" d="M78.3,56.3H83c0.6,0,1,0.5,1,1v7.9c0,0.6-0.5,1-1,1h-4.7c-0.6,0-1-0.5-1-1v-7.9C77.3,56.7,77.7,56.3,78.3,56.3z
	"/>
<path class="st7" d="M78.5,43.5h4.7c0.6,0,1,0.5,1,1v7.9c0,0.6-0.5,1-1,1h-4.7c-0.6,0-1-0.5-1-1v-7.9C77.4,44,77.9,43.5,78.5,43.5z"
	/>
<line class="st9" x1="93" y1="68" x2="93" y2="41.3"/>
<polygon class="st8" points="91.8,45.5 91.1,41.3 88.1,44.1 "/>
<line class="st9" x1="88.1" y1="44.1" x2="88.1" y2="68"/>
<path class="st9" d="M50.6,81.1H40.2c-2,0.1-3.6,1.7-3.5,3.8v6.4c-0.1,2,1.5,3.7,3.5,3.8h10.4c2-0.1,3.6-1.7,3.5-3.8v-6.4
	C54.2,82.8,52.6,81.1,50.6,81.1z"/>
<path class="st9" d="M50.1,81.7h-9.5c-1.8,0.1-3.3,1.6-3.2,3.4v5.8c-0.1,1.8,1.4,3.4,3.2,3.4h9.5c1.8-0.1,3.3-1.6,3.2-3.4v-5.8
	C53.4,83.3,52,81.7,50.1,81.7z"/>
<path class="st9" d="M43.2,86.9c-0.7,0.2-1,1.5-0.7,2.9s1.2,2.4,1.9,2.2s1-1.5,0.7-2.9S43.9,86.7,43.2,86.9z"/>
<path class="st9" d="M42.6,89.9c0.6-1.3,1.4-1.5,2.5-0.7"/>
<path class="st9" d="M47.7,84.4c-0.7-0.3-1.6,0.6-2.1,2s-0.3,2.7,0.3,2.9s1.6-0.6,2.1-2S48.3,84.6,47.7,84.4z"/>
<path class="st9" d="M45.5,86.5c1.1-0.7,2-0.3,2.4,1"/>
<rect x="141.6" y="59.9" class="st7" width="5.8" height="23.9"/>
<rect x="142.8" y="64.2" class="st7" width="3.8" height="14.3"/>
<rect x="143.8" y="62" class="st7" width="1.2" height="19.6"/>
<path class="st7" d="M105.9,99.5h30.4c1.9,0,3.5,1.6,3.5,3.5v8.8c0,1.9-1.6,3.5-3.5,3.5l0,0h-30.4c-1.9,0-3.5-1.6-3.5-3.5V103
	C102.5,101.1,104,99.5,105.9,99.5z"/>
<path class="st7" d="M103.4,100.5h1.5c0.6,0,1.1,0.5,1.1,1.1v10.5c0,0.6-0.5,1.1-1.1,1.1h-1.5c-0.6,0-1.1-0.5-1.1-1.1v-10.5
	C102.4,101,102.8,100.5,103.4,100.5z"/>
<path class="st7" d="M137.4,100.6h1.5c0.6,0,1.1,0.5,1.1,1.1v10.5c0,0.6-0.5,1.1-1.1,1.1h-1.5c-0.6,0-1.1-0.5-1.1-1.1v-10.5
	C136.4,101,136.8,100.6,137.4,100.6z"/>
<path class="st7" d="M104,100.5h34.3c0.7,0,1.3,0.6,1.3,1.3v1.8c0,0.7-0.6,1.3-1.3,1.3H104c-0.7,0-1.3-0.6-1.3-1.3v-1.8
	C102.7,101.1,103.3,100.5,104,100.5z"/>
<path class="st7" d="M106.4,100.8h29.5c0.6,0,1.1,0.5,1.1,1.1v1.5c0,0.6-0.5,1.1-1.1,1.1h-29.5c-0.6,0-1.1-0.5-1.1-1.1v-1.5
	C105.3,101.3,105.8,100.8,106.4,100.8z"/>
<line class="st9" x1="121.1" y1="115.3" x2="121.1" y2="104.8"/>
<path class="st8" d="M110,128.5v-2.3c0-0.2,0.2-0.4,0.4-0.4h6.1c0.1,0,0.2,0.1,0.2,0.2l0,0v2.5c0,1.4-1.1,2.6-2.5,2.6l0,0h-1.6
	C111.2,131.1,110,129.9,110,128.5z"/>
<path class="st9" d="M110,128.5c2.4,1.9,4.6,1.9,6.7,0"/>
<path class="st8" d="M117.4,128.6v-2.3c0-0.2,0.2-0.4,0.4-0.4l0,0h6.1c0.1,0,0.2,0.1,0.2,0.2l0,0v2.5c0,1.4-1.1,2.5-2.5,2.6H120
	C118.6,131.2,117.4,130.1,117.4,128.6L117.4,128.6z"/>
<path class="st9" d="M117.4,128.6c2.4,1.9,4.6,1.9,6.7,0"/>
<path class="st8" d="M125,128.7v-2.3c0-0.2,0.2-0.4,0.4-0.4l0,0h6.1c0.1,0,0.2,0.1,0.2,0.2l0,0v2.5c0,1.4-1.1,2.5-2.5,2.6h-1.6
	C126.2,131.3,125,130.1,125,128.7z"/>
<path class="st9" d="M125,128.7c2.4,1.9,4.6,1.9,6.7,0"/>
<path class="st7" d="M110.3,112.8h20.9c1.2,0,2.2,1,2.2,2.2v10.1c0,1.2-1,2.2-2.2,2.2h-20.9c-1.2,0-2.2-1-2.2-2.2V115
	C108.2,113.7,109.1,112.8,110.3,112.8z"/>
<text transform="matrix(1 0 0 1 132.2399 144.3999)" class="st10 st11 st12" style="text-decoration: underline;">11,1</text>
<text transform="matrix(1 0 0 1 58.8295 66.75)" class="st10 st11 st12" style="text-decoration: underline;">3,4</text>
<text transform="matrix(1 0 0 1 94.385 92.3606)" class="st10 st11 st12" style="text-decoration: underline;">10,5</text>
<text transform="matrix(1 0 0 1 55.0515 93.5492)" class="st10 st11 st12" style="text-decoration: underline;">3,2</text>
<path class="st13" d="M120.1,56.1h9.6c4,0,7.2,3.2,7.2,7.2v18.1c0,4-3.2,7.2-7.2,7.2h-9.6c-4,0-7.2-3.2-7.2-7.2v-18
	C112.9,59.4,116.1,56.1,120.1,56.1z"/>
<text transform="matrix(1 0 0 1 117.1581 65.1558)" class="st14 st11 st12">10,5</text>
<text transform="matrix(1 0 0 1 117.158 84.5001)" class="st14 st11 st12">28,2</text>
<text transform="matrix(1 0 0 1 116.1854 75.3998)" class="st15 st11 st16">29,2</text>
<text transform="matrix(6.123234e-17 -1 1 6.123234e-17 168.9 139.8604)" class="st10 st11 st12" style="text-decoration: underline;">3,4х0,3=1,0</text>
</svg>
