<?xml version="1.0" encoding="utf-8"?>
<!-- Generator: Adobe Illustrator 25.0.0, SVG Export Plug-In . SVG Version: 6.00 Build 0)  -->
<svg version="1.1" id="Слой_1" xmlns="http://www.w3.org/2000/svg" xmlns:xlink="http://www.w3.org/1999/xlink" x="0px" y="0px"
	 viewBox="0 0 200 200" style="enable-background:new 0 0 200 200;" xml:space="preserve">
<style type="text/css">
	.st0{fill:#A3C98F;}
	.st1{fill:none;stroke:#666666;stroke-width:0.2;stroke-linecap:round;stroke-linejoin:round;}
	.st2{fill:none;stroke:#333333;stroke-width:0.6;stroke-linecap:round;stroke-linejoin:round;}
	.st3{fill:none;stroke:#333333;stroke-width:0.4;stroke-linecap:round;stroke-linejoin:round;}
	.st4{fill:#FFFFFF;stroke:#333333;stroke-width:0.4;stroke-linecap:round;stroke-linejoin:round;}
	.st5{fill:none;stroke:#333333;stroke-width:0.8;stroke-linecap:round;stroke-linejoin:round;}
	.st6{fill:none;stroke:#333333;stroke-width:0.8;stroke-linecap:square;stroke-linejoin:round;}
	.st7{fill-rule:evenodd;clip-rule:evenodd;fill:#A3C98F;stroke:#666666;stroke-width:0.2;stroke-miterlimit:22.93;}
	.st8{fill:#A3C98F;stroke:#666666;stroke-width:0.2;stroke-miterlimit:22.93;}
	.st9{fill:none;stroke:#666666;stroke-width:0.2;stroke-miterlimit:22.93;}
	.st10{fill:#FFFFFF;}
	.st11{fill:#1A1A18;}
	.st12{font-family:'ArialMT';}
	.st13{font-size:8px;}
	.st14{fill:#E43622;}
	.st15{font-size:9px;}
	.st16{fill:#666666;}
	.st17{fill-rule:evenodd;clip-rule:evenodd;fill:#A3C98F;}
	.st18{fill:none;stroke:#333333;stroke-width:0.4;stroke-linecap:round;stroke-linejoin:round;stroke-miterlimit:10;}
	.st19{font-family:'GOST-2.304-81typeB';}
</style>
<rect x="67.2" y="38.4" class="st0" width="87" height="130.1"/>
<path class="st1" d="M121.3,38.1h7.5c0.3,0,0.5,0.2,0.5,0.5v2.8c0,0.3-0.2,0.5-0.5,0.5h-7.5c-0.3,0-0.5-0.2-0.5-0.5v-2.8
	C120.8,38.3,121.1,38.1,121.3,38.1z"/>
<ellipse class="st1" cx="125.1" cy="47.4" rx="2.7" ry="3.1"/>
<ellipse class="st1" cx="125.1" cy="47.4" rx="2.7" ry="3.1"/>
<path class="st1" d="M128.4,47.4c0.3,1.8-1,3.5-2.8,3.8s-3.5-1-3.8-2.8c-0.1-0.3-0.1-0.7,0-1c0-1.2,0.3-2.4,0.8-3.5
	c0.6-0.8,1.5-0.5,2.5-0.5s1.9-0.4,2.5,0.4C128.1,44.8,128.4,46.1,128.4,47.4z"/>
<path class="st1" d="M122.4,41.9c0.2,0.6,0.3,1.3,0.2,1.9"/>
<path class="st1" d="M127.9,41.9c-0.2,0.6-0.3,1.3-0.2,1.9"/>
<circle class="st1" cx="125.1" cy="45.7" r="0.8"/>
<circle class="st1" cx="125.1" cy="45.7" r="0.4"/>
<path class="st1" d="M143.9,40.8c0,0,2.3-0.4,3.1-0.4s3.1,0.4,3.1,0.4"/>
<path class="st1" d="M150.1,40.8c0.2,0.1,0.5,0.1,0.7,0.2c0.2,0.2,0.3,0.4,0.5,0.6l0.1,0.7"/>
<path class="st1" d="M140.2,40.9c0,0,2-0.7,2.6-0.8c0.9-0.2,1.8-0.3,2.8-0.4c0.9-0.1,1.8-0.1,2.8,0c0.9,0.1,1.8,0.2,2.8,0.4
	c0.7,0.2,2.8,0.8,2.8,0.8"/>
<path class="st1" d="M142.6,42.4l0.1-0.7c0.1-0.2,0.3-0.4,0.5-0.6c0.2-0.1,0.5-0.2,0.7-0.2"/>
<path class="st1" d="M153.9,61.3l-0.6,1.8c0,0-0.9,1.2-1.2,1.6c-0.4,0.4-0.9,0.8-1.4,1.2c-0.6,0.3-1.2,0.5-1.8,0.7
	c-0.6,0.1-1.2,0.2-1.8,0.2s-1.3-0.1-1.9-0.2c-0.6-0.2-1.1-0.4-1.7-0.7c-0.6-0.3-1.1-0.7-1.6-1.2c-0.4-0.5-0.8-1-1.1-1.6l-0.6-1.8"/>
<path class="st1" d="M140.2,61.3V40.9 M139.6,67.4V38.5 M151.4,55.1V42.4 M153.8,40.9v20.4 M154.4,67.5v-29"/>
<path class="st1" d="M151.4,55.1c0,0.5-0.1,1-0.2,1.4c-0.2,0.4-0.4,0.8-0.7,1.2s-0.7,0.8-1.1,1.1c-0.4,0.3-0.9,0.5-1.3,0.6
	c-0.5,0.1-1,0.1-1.4,0.1c-0.5-0.1-1-0.2-1.4-0.4c-0.3-0.1-0.5-0.2-0.7-0.4c-0.4-0.3-0.7-0.7-1-1.1c-0.3-0.4-0.5-0.8-0.7-1.2
	c-0.1-0.5-0.2-1-0.2-1.4V42.4"/>
<path class="st1" d="M140.6,62.9c0,0,1.4-0.9,1.9-1.1c0.7-0.3,1.4-0.5,2.2-0.7c0.8-0.1,1.5-0.1,2.3-0.1c0.7,0,1.4,0,2.2,0.1
	c0.7,0.2,1.5,0.4,2.2,0.7c0.5,0.2,2,1.1,2,1.1"/>
<circle class="st1" cx="146.8" cy="42.7" r="0.8"/>
<circle class="st1" cx="146.8" cy="42.7" r="0.4"/>
<line class="st2" x1="154.4" y1="168.5" x2="67" y2="168.5"/>
<line class="st2" x1="158.4" y1="168.5" x2="158.4" y2="168.5"/>
<rect x="103.1" y="67" class="st1" width="0.1" height="2.3"/>
<polyline class="st1" points="103.7,70.3 103.3,70.1 103.2,69.8 "/>
<polyline class="st1" points="73.9,38 116.1,38 116.1,60.4 "/>
<path class="st1" d="M77.7,38.5h3.6 M84.6,39h3"/>
<line class="st1" x1="84.6" y1="38.5" x2="88.2" y2="38.5"/>
<path class="st1" d="M77.5,38.5L77.5,38.5 M77.4,38.5h3.8"/>
<rect x="77.4" y="38" class="st1" width="11" height="0.5"/>
<rect x="104.7" y="60.4" class="st1" width="11.4" height="10"/>
<line class="st1" x1="113.3" y1="43.8" x2="113.3" y2="49.8"/>
<polyline class="st1" points="113.4,43.8 113.4,49.8 113.3,49.8 "/>
<path class="st1" d="M111.2,43.8h0.2 M112.2,43.8h0.2 M113.3,43.8L113.3,43.8"/>
<polyline class="st1" points="110.9,52.1 110.9,52 111,51.8 "/>
<polyline class="st1" points="110.9,52.1 111,52.2 111.1,52.5 "/>
<line class="st1" x1="111.2" y1="52.5" x2="111.1" y2="52.5"/>
<path class="st1" d="M113.5,50.5l-2.6,1.5 M113.9,51.2l-2.8,1.4"/>
<polyline class="st1" points="113.7,50.8 113.3,51 113.3,51.1 "/>
<line class="st1" x1="113.4" y1="51.1" x2="113.8" y2="51"/>
<polygon class="st1" points="114,50.4 114.1,50.5 114.2,50.8 114.1,51 113.8,51 113.7,50.8 113.8,50.5 "/>
<polyline class="st1" points="113.5,50.9 113.7,50.5 113.9,50.3 114.2,50.4 114.4,50.8 114.2,51 113.9,51.1 113.7,51 "/>
<polyline class="st1" points="113.7,50.8 113.7,50.5 113.9,50.4 114.2,50.5 114.4,50.8 114.2,51 114,51.1 113.8,51 "/>
<path class="st1" d="M105.5,43.8v6 M111.2,43.8v6 M111.5,43.8v6 M112.2,43.8v6 M112.4,43.8v6 M113.3,51.5l0.2,0.6 M112.2,49.8h0.2
	 M111.2,49.8h0.2"/>
<polyline class="st1" points="105.4,43.8 105.4,49.8 105.5,49.8 "/>
<path class="st1" d="M109.3,49.8L109.3,49.8 M108.3,49.8h0.2 M107.3,49.8h0.2 M106.3,49.8h0.2 M110.3,49.8h0.2 M106.3,43.8h0.2
	 M107.3,43.8h0.2 M108.3,43.8h0.2 M109.3,43.8L109.3,43.8 M110.3,43.8h0.2 M105.4,43.8L105.4,43.8"/>
<polyline class="st1" points="105.4,52.1 105.5,51.5 106.1,51.2 "/>
<path class="st1" d="M109.4,43.8v6 M109.3,43.8v6 M108.5,43.8v6 M110.3,43.8v6 M108.3,43.8v6 M110.6,43.8v6 M107.6,43.8v6
	 M107.3,43.8v6 M106.6,43.8v6 M106.4,43.8v6"/>
<polyline class="st1" points="105.1,50.8 105.1,43.7 105.4,43.3 105.7,43.1 113.9,43.1 114.4,43.3 114.6,43.8 114.6,50.8 "/>
<path class="st1" d="M104.9,42.8h10.2 M106.1,51.2h6.1"/>
<polyline class="st1" points="110.8,52.1 110.8,52 110.9,52 "/>
<polyline class="st1" points="110.8,52.1 110.9,52.3 111,52.5 "/>
<polyline class="st1" points="111.1,52.6 111,52.6 111,52.5 "/>
<polyline class="st1" points="113.5,57.5 113.4,58.1 112.8,58.3 "/>
<polygon class="st1" points="109.4,54.2 109.8,54.4 109.9,54.7 109.8,55.1 109.4,55.3 109.1,55.1 109,54.7 109.1,54.4 "/>
<line class="st1" x1="108.2" y1="55.8" x2="106.2" y2="57.5"/>
<polyline class="st1" points="106.1,58.3 105.5,58.1 105.4,57.5 "/>
<polygon class="st1" points="109.4,54 110.1,54.2 110.3,54.7 110.1,55.3 109.4,55.6 108.8,55.3 108.6,54.7 108.8,54.2 "/>
<path class="st1" d="M105.1,50.8v7.1 M112.8,57.5l-2.2-1.7 M112.8,58.3h-6.7 M115.1,58.8h-10.2"/>
<polyline class="st1" points="105.7,58.5 105.4,58.3 105.1,57.8 "/>
<line class="st1" x1="105.7" y1="58.5" x2="113.9" y2="58.5"/>
<polyline class="st1" points="114.6,57.8 114.4,58.3 113.9,58.5 "/>
<path class="st1" d="M105.4,57.5v-5.4 M108.2,53.8l-2-1.7 M113.6,52.1v5.4 M112.8,52.1l-2.2,1.7 M104.9,58.8v-16 M115.1,42.8v16
	 M114.6,57.8v-7"/>
<rect x="77.5" y="49" class="st1" width="10.8" height="1"/>
<rect x="77.5" y="38.3" class="st1" width="10.8" height="10.7"/>
<polygon class="st1" points="84.6,49 85,49.1 85.1,49.5 85,49.7 84.6,49.8 84.4,49.7 84.2,49.5 84.4,49.1 "/>
<polygon class="st1" points="79.3,49 79.7,49.1 79.8,49.5 79.7,49.7 79.3,49.8 79.1,49.7 79,49.5 79.1,49.1 "/>
<polygon class="st1" points="79.3,49.2 79.4,49.2 79.6,49.5 79.4,49.6 79.2,49.6 79.2,49.5 79.2,49.2 "/>
<polygon class="st1" points="82.9,49 83.2,49.1 83.3,49.5 83.2,49.7 82.9,49.8 82.6,49.7 82.4,49.5 82.6,49.1 "/>
<polygon class="st1" points="81.1,49 81.4,49.1 81.5,49.5 81.4,49.7 81.1,49.8 80.9,49.7 80.8,49.5 80.9,49.1 "/>
<polygon class="st1" points="81.1,49.2 81.2,49.2 81.4,49.5 81.2,49.6 81,49.6 80.9,49.5 81,49.2 "/>
<polygon class="st1" points="82.9,49.2 83.1,49.2 83.1,49.5 83.1,49.6 82.9,49.6 82.8,49.6 82.7,49.5 82.8,49.2 "/>
<polygon class="st1" points="86.4,49 86.8,49.1 86.9,49.5 86.8,49.7 86.4,49.8 86.2,49.7 86.1,49.5 86.2,49.1 "/>
<polygon class="st1" points="86.4,49.2 86.5,49.2 86.7,49.5 86.5,49.6 86.3,49.6 86.3,49.5 86.3,49.2 "/>
<polygon class="st1" points="84.6,49.2 84.8,49.2 84.8,49.5 84.8,49.6 84.6,49.6 84.5,49.6 84.5,49.5 84.5,49.2 "/>
<line class="st1" x1="104.2" y1="60.4" x2="103.7" y2="60.4"/>
<polyline class="st1" points="103.2,60.8 103.3,60.5 103.7,60.4 "/>
<line class="st1" x1="103.2" y1="60.8" x2="103.2" y2="69.8"/>
<polyline class="st1" points="103.7,70.3 104.2,70.3 104.2,60.4 "/>
<rect x="104.2" y="60.8" class="st1" width="0.5" height="9"/>
<path class="st1" d="M108.2,65.4h4.3 M110.4,67.6v-4.3 M112.1,67.1l-3.2-3.4 M108.8,67.1l3.2-3.4"/>
<polyline class="st1" points="116.1,60.4 104.2,60.4 104.2,49.9 73.9,49.9 "/>
<polyline class="st1" points="76.6,48.6 89.3,48.6 89.3,38.9 88.4,38.9 "/>
<polyline class="st1" points="76.8,48.5 89.1,48.5 89.1,39.1 88.4,39.1 "/>
<polyline class="st1" points="76.8,48.5 76.8,39.1 77.4,39.1 "/>
<polyline class="st1" points="76.6,48.6 76.6,38.9 77.4,38.9 "/>
<polyline class="st1" points="77.4,46.8 88.4,46.8 88.2,46.6 77.7,46.6 77.4,46.8 77.4,38.4 "/>
<line class="st1" x1="88.4" y1="46.8" x2="88.4" y2="40.5"/>
<polyline class="st1" points="77.7,46.6 78.2,46.1 87.6,46.1 88.2,46.6 88.2,38.5 87.6,39 87.6,46.1 87.2,46 78.5,46 78.2,46.1 
	78.2,39 81.2,39 "/>
<polyline class="st1" points="81.5,43.9 81.2,43.7 84.6,43.7 84.2,43.9 "/>
<polyline class="st1" points="81.2,43.7 81.2,38.5 84.6,38.5 84.6,43.7 "/>
<polyline class="st1" points="78.2,39 77.7,38.5 77.7,46.6 "/>
<polyline class="st1" points="84.6,38.5 88.4,38.5 88.4,46.8 "/>
<line class="st1" x1="73.9" y1="49.9" x2="73.9" y2="38"/>
<polyline class="st1" points="139.6,38.4 139.7,38.2 139.9,38 154.1,38 "/>
<polyline class="st1" points="154.1,38 154.3,38.2 154.4,38.4 "/>
<line class="st1" x1="139.9" y1="67.7" x2="154.1" y2="67.7"/>
<polyline class="st1" points="154.4,67.3 154.3,67.6 154.1,67.7 "/>
<path class="st3" d="M136.4,70.1v-2.4 M120.7,70.1v-2.4 M118.4,79.6H116 M118.4,97.8H116 M146.9,102.7v2.4 M128.6,102.7v2.4"/>
<line class="st2" x1="154.4" y1="77.7" x2="158.4" y2="77.7"/>
<line class="st2" x1="154.4" y1="97.4" x2="158.4" y2="97.4"/>
<path class="st3" d="M61.5,55.1V67 M62.5,55.1V67 M67,55.1v29.6 M59.1,55.7v28.4 M61.5,65.4h1 M59,67h8 M61.5,56.5h1"/>
<polygon class="st4" points="73.8,68.8 73,68.3 66.1,84.2 67,84.7 "/>
<polyline class="st3" points="67,66.8 69,67.1 71.1,67.6 73,68.3 "/>
<path class="st3" d="M61.5,121.9v29.8 M59,151.1v-28.6 M67,121.9v29.8"/>
<polyline class="st3" points="62.4,151.7 62.4,121.9 62.4,123.5 61.5,123.5 61.5,121.9 62.4,121.9 "/>
<rect x="61.5" y="150.1" class="st3" width="1" height="1.6"/>
<rect x="61.5" y="136.1" class="st3" width="1" height="1.4"/>
<polyline class="st1" points="138.5,38.8 139,39.8 139.2,41.2 139,42.3 138.4,43.4 137.6,44.3 136.5,44.9 135.3,45.1 "/>
<polyline class="st1" points="135.3,44.8 135.9,44.6 136.5,44.4 137.1,44 137.7,43.7 138,43.2 138.4,42.6 138.6,41.9 138.8,41.3 
	138.6,40.5 "/>
<polyline class="st1" points="135.3,44.8 134.6,44.6 133.9,44.4 133.4,44 132.8,43.7 132.4,43.2 132,42.6 131.8,41.9 131.7,41.3 
	131.8,40.5 "/>
<polyline class="st1" points="131.9,38.8 132.1,38.5 131.9,39.2 "/>
<line class="st1" x1="134.9" y1="40.1" x2="132.3" y2="39.7"/>
<polyline class="st1" points="133.7,40.1 132.1,40.1 131.8,40.5 "/>
<polyline class="st1" points="132.3,39.7 132,39.6 131.9,39.2 "/>
<line class="st1" x1="134.9" y1="39" x2="135" y2="40.7"/>
<polyline class="st1" points="138.5,38.8 138.1,38.5 138.4,39.2 "/>
<polyline class="st1" points="135,38.9 135.5,38.9 135.5,39 "/>
<path class="st1" d="M136.7,40.1h1.6 M138,39.8l-2.5,0.2"/>
<polyline class="st1" points="135.1,40.8 135.4,40.8 135.5,40.7 "/>
<path class="st1" d="M135.5,39v1.7 M138.3,40.1l0.4,0.5 M135.4,40.8h0.1"/>
<polyline class="st1" points="138.4,39.2 138.3,39.6 138,39.8 "/>
<line class="st1" x1="138.1" y1="38.5" x2="132.1" y2="38.5"/>
<polyline class="st1" points="135.5,40.4 135.9,40.8 135.8,41.3 135.5,41.6 134.9,41.6 134.7,41.3 134.7,40.8 134.9,40.4 "/>
<polyline class="st1" points="135.4,40.8 135.6,41 135.5,41.3 135.3,41.4 134.9,41.3 134.9,41 135,40.8 "/>
<polyline class="st1" points="134.9,39 134.9,38.9 135,38.9 "/>
<polyline class="st1" points="135.1,40.8 135,40.8 135,40.7 "/>
<polyline class="st1" points="135.3,45.1 133.9,44.9 132.9,44.3 132,43.4 131.4,42.3 131.2,41.2 131.4,39.8 131.9,38.8 "/>
<line class="st1" x1="123" y1="30" x2="126.6" y2="30"/>
<path class="st1" d="M115.9,30L115.9,30 M115.8,30h3.8"/>
<rect x="115.8" y="30" class="st1" width="11" height="0.5"/>
<polygon class="st4" points="146.9,104.8 131.2,113.8 130.7,113.1 146.5,103.9 "/>
<polyline class="st3" points="131.2,113.8 129.9,111 129,107.9 128.6,104.8 "/>
<polyline class="st4" points="154.4,102.7 146.9,102.7 146.9,104.8 146.9,105.1 154.4,105.1 "/>
<polygon class="st4" points="120.7,69.7 134.3,77.5 134.8,76.8 121.2,68.9 "/>
<polyline class="st3" points="134.3,77.5 135.5,75 136.2,72.4 136.4,69.7 "/>
<polyline class="st4" points="154.4,67.7 136.4,67.7 136.4,69.7 136.4,70.1 154.4,70.1 "/>
<polygon class="st4" points="116.4,97.8 107.3,82 108,81.6 117.1,97.3 "/>
<polyline class="st3" points="107.3,82 110.2,80.7 113.3,79.8 116.4,79.6 "/>
<polyline class="st4" points="118.4,38 118.4,67.7 120.7,67.7 120.7,69.7 120.7,70.1 118.4,70.1 118.4,79.6 116.4,79.6 116.1,79.6 
	116.1,38 "/>
<polyline class="st4" points="67,105.1 128.6,105.1 128.6,104.8 128.6,102.7 118.4,102.7 118.4,97.8 116.4,97.8 116.1,97.8 
	116.1,102.7 67,102.7 "/>
<polygon class="st3" points="156.4,77.7 166.3,94.7 165.6,95.2 155.6,78 "/>
<polyline class="st3" points="156.4,97.4 159.9,97.1 163.2,96.2 166.3,94.7 "/>
<path class="st3" d="M156.4,97.4h-1.9 M156.4,77.6h-1.9"/>
<rect x="35.2" y="33.1" class="st5" width="23.9" height="2.3"/>
<polyline class="st5" points="59,84.1 61.5,84.1 61.5,84.7 67,84.7 "/>
<polyline class="st5" points="59,55.7 61.5,55.7 61.5,55.1 67,55.1 "/>
<polyline class="st5" points="59,151.1 61.5,151.1 61.5,151.7 67,151.7 "/>
<polyline class="st5" points="59,122.5 61.5,122.5 61.5,121.9 67,121.9 "/>
<line class="st6" x1="62" y1="172.3" x2="62" y2="151.7"/>
<line class="st6" x1="67" y1="172.4" x2="67" y2="151.7"/>
<line class="st5" x1="62" y1="121.9" x2="62" y2="84.7"/>
<line class="st5" x1="67" y1="121.9" x2="67" y2="84.7"/>
<line class="st6" x1="62" y1="55.1" x2="62" y2="30.5"/>
<line class="st6" x1="67" y1="30.5" x2="59" y2="30.5"/>
<line class="st5" x1="67" y1="55.1" x2="67" y2="38"/>
<line class="st6" x1="61.5" y1="172.3" x2="61.5" y2="151.1"/>
<line class="st6" x1="59" y1="172.3" x2="59" y2="151.1"/>
<line class="st5" x1="61.5" y1="122.5" x2="61.5" y2="84.1"/>
<line class="st5" x1="59" y1="122.5" x2="59" y2="84.1"/>
<line class="st6" x1="61.5" y1="55.7" x2="61.5" y2="30.5"/>
<line class="st6" x1="59" y1="55.7" x2="59" y2="30.5"/>
<polyline class="st5" points="137.4,38 137.4,35.4 132,35.4 132,38 "/>
<line class="st5" x1="158.4" y1="38" x2="158.4" y2="30.5"/>
<line class="st2" x1="158.4" y1="172.4" x2="59" y2="172.4"/>
<line class="st5" x1="67" y1="30.5" x2="158.4" y2="30.5"/>
<line class="st5" x1="137.4" y1="38" x2="158.4" y2="38"/>
<line class="st5" x1="67" y1="38" x2="132" y2="38"/>
<path class="st2" d="M154.4,38v39.6 M158.4,38v39.6"/>
<line class="st2" x1="154.4" y1="97.4" x2="154.4" y2="168.5"/>
<line class="st2" x1="158.4" y1="97.4" x2="158.4" y2="168.5"/>
<line class="st2" x1="158.4" y1="168.5" x2="158.4" y2="172.4"/>
<path class="st7" d="M101.7,146.4v-17.5c0-2.6-2.1-4.6-4.6-4.6H69.2c-0.8,0-1.4,0.6-1.4,1.4v24c0,0.7,0.6,1.3,1.3,1.3h28.1
	C99.6,151,101.7,148.9,101.7,146.4z"/>
<path class="st8" d="M69.8,139.2h4.7c0.6,0,1,0.5,1,1v7.9c0,0.6-0.5,1-1,1h-4.7c-0.6,0-1-0.5-1-1v-7.9
	C68.8,139.7,69.3,139.2,69.8,139.2z"/>
<path class="st8" d="M70,126.5h4.7c0.6,0,1,0.5,1,1v7.9c0,0.6-0.5,1-1,1H70c-0.6,0-1-0.5-1-1v-7.9C69,127,69.5,126.5,70,126.5z"/>
<line class="st9" x1="84.5" y1="151" x2="84.5" y2="124.2"/>
<polygon class="st7" points="83.4,128.4 82.7,124.2 79.6,127.1 "/>
<line class="st9" x1="79.6" y1="127.1" x2="79.6" y2="151"/>
<path class="st8" d="M70.1,111.7h9.3c0.5,0,0.9,0.4,0.9,0.9v9.1c0,0.5-0.4,0.9-0.9,0.9h-9.3c-0.5,0-0.9-0.4-0.9-0.9v-9.1
	C69.2,112.1,69.6,111.7,70.1,111.7z"/>
<path class="st8" d="M70.1,152.1h9.3c0.5,0,0.9,0.4,0.9,0.9v9.1c0,0.5-0.4,0.9-0.9,0.9h-9.3c-0.5,0-0.9-0.4-0.9-0.9V153
	C69.2,152.5,69.6,152.1,70.1,152.1z"/>
<rect x="93.2" y="106.4" class="st8" width="23.9" height="5.8"/>
<rect x="98.5" y="107.6" class="st8" width="14.3" height="3.8"/>
<rect x="95.4" y="108.6" class="st8" width="19.6" height="1.2"/>
<path class="st7" d="M74,98.1v-2.3c0-0.2,0.2-0.4,0.4-0.4l0,0h6.1c0.1,0,0.2,0.1,0.2,0.2l0,0v2.5c0,1.4-1.1,2.6-2.5,2.6l0,0h-1.5
	C75.2,100.7,74,99.6,74,98.1L74,98.1z"/>
<path class="st9" d="M74,98.1c2.4,1.9,4.6,1.9,6.7,0"/>
<path class="st7" d="M81.4,98.2V96c0-0.2,0.2-0.4,0.4-0.4h6.1c0.1,0,0.2,0.1,0.2,0.2l0,0v2.5c0,1.4-1.1,2.6-2.5,2.6l0,0H84
	C82.6,100.9,81.4,99.7,81.4,98.2C81.4,98.3,81.4,98.2,81.4,98.2z"/>
<path class="st9" d="M81.4,98.2c2.4,1.9,4.6,1.9,6.7,0"/>
<path class="st7" d="M89.1,98.3V96c0-0.2,0.2-0.4,0.4-0.4h6.1c0.1,0,0.2,0.1,0.2,0.2l0,0v2.5c0,1.4-1.1,2.6-2.5,2.6l0,0h-1.6
	C90.2,100.9,89.1,99.7,89.1,98.3z"/>
<path class="st9" d="M89.1,98.3c2.4,1.9,4.6,1.9,6.7,0"/>
<path class="st7" d="M74.3,81.7V84c0,0.2,0.2,0.4,0.4,0.4h6.1c0.1,0,0.2-0.1,0.2-0.2l0,0v-2.5c0-1.4-1.1-2.5-2.5-2.6h-1.6
	C75.5,79.1,74.3,80.2,74.3,81.7z"/>
<path class="st9" d="M74.3,81.7c2.4-1.9,4.6-1.9,6.7,0"/>
<path class="st7" d="M81.7,81.6v2.3c0,0.2,0.2,0.4,0.4,0.4l0,0h6.1c0.1,0,0.2-0.1,0.2-0.2l0,0v-2.5c0-1.4-1.2-2.5-2.5-2.5h-1.6
	C82.8,79,81.7,80.1,81.7,81.6z"/>
<path class="st9" d="M81.7,81.6c2.4-1.9,4.6-1.9,6.7,0"/>
<path class="st7" d="M89.3,81.5v2.3c0,0.2,0.2,0.4,0.4,0.4l0,0h6.1c0.1,0,0.2-0.1,0.2-0.2l0,0v-2.5c0-1.4-1.1-2.5-2.5-2.6h-1.6
	C90.5,78.9,89.4,80.1,89.3,81.5z"/>
<path class="st9" d="M89.3,81.5c2.4-1.9,4.6-1.9,6.7,0"/>
<path class="st8" d="M74.4,82.4h20.9c1.2,0,2.2,1,2.2,2.2v10.1c0,1.2-1,2.2-2.2,2.2H74.4c-1.2,0-2.2-1-2.2-2.2V84.6
	C72.2,83.3,73.2,82.4,74.4,82.4z"/>
<rect x="145.2" y="124.5" class="st8" width="5.8" height="23.9"/>
<rect x="145.9" y="129.9" class="st8" width="3.8" height="14.3"/>
<rect x="147.5" y="126.8" class="st8" width="1.2" height="19.6"/>
<path class="st10" d="M122,119.9h9.6c4,0,7.2,3.2,7.2,7.2v18.1c0,4-3.2,7.2-7.2,7.2H122c-4,0-7.2-3.2-7.2-7.2v-18.1
	C114.8,123.2,118,119.9,122,119.9z"/>
<text transform="matrix(1 0 0 1 119.0601 128.4)" class="st11 st12 st13">14,2</text>
<text transform="matrix(1 0 0 1 119.0599 148.4)" class="st11 st12 st13">28,3</text>
<text transform="matrix(1 0 0 1 118.0866 139.0497)" class="st14 st12 st15">30,5</text>
<text transform="matrix(1 0 0 1 141.0441 99.7344)" class="st16 st12 st13" style="text-decoration: underline;">2,9</text>
<text transform="matrix(1 0 0 1 98.76 98.9299)" class="st16 st12 st13" style="text-decoration: underline;">8,2</text>
<text transform="matrix(1 0 0 1 125.318 63.8871)" class="st16 st12 st13" style="text-decoration: underline;">3,0</text>
<text transform="matrix(1 0 0 1 134.3297 164.3501)" class="st16 st12 st13" style="text-decoration: underline;">14,2</text>
<rect x="37.4" y="35.8" class="st17" width="21.2" height="131.6"/>
<polyline class="st18" points="58.8,35.4 35,35.4 35,170.2 58.8,170.2 "/>
<polyline class="st18" points="58.8,167.5 37.4,167.5 37.4,35.8 "/>
<g>
	<text transform="matrix(0 -1 1 0 50.4366 125.1514)" class="st16 st19 st13" style="text-decoration: underline;">7,3х0,3=2,2</text>
</g>
</svg>
