<?xml version="1.0" encoding="utf-8"?>
<!-- Generator: Adobe Illustrator 25.0.0, SVG Export Plug-In . SVG Version: 6.00 Build 0)  -->
<svg version="1.1" id="Слой_1" xmlns="http://www.w3.org/2000/svg" xmlns:xlink="http://www.w3.org/1999/xlink" x="0px" y="0px"
	 viewBox="0 0 200 200" style="enable-background:new 0 0 200 200;" xml:space="preserve">
<style type="text/css">
	.st0{fill:#A3C98F;}
	.st1{fill-rule:evenodd;clip-rule:evenodd;fill:#A3C98F;}
	.st2{fill:none;stroke:#666666;stroke-width:0.2;stroke-linecap:round;stroke-linejoin:round;}
	.st3{fill:none;stroke:#333333;stroke-width:0.6;stroke-linecap:round;stroke-linejoin:round;}
	.st4{fill:#FFFFFF;stroke:#333333;stroke-width:0.4;stroke-linecap:round;stroke-linejoin:round;}
	.st5{fill:none;stroke:#333333;stroke-width:0.4;stroke-linecap:round;stroke-linejoin:round;}
	.st6{fill:none;stroke:#333333;stroke-width:0.8;stroke-linecap:round;stroke-linejoin:round;}
	.st7{fill-rule:evenodd;clip-rule:evenodd;fill:#A3C98F;stroke:#666666;stroke-width:0.2;stroke-miterlimit:22.93;}
	.st8{fill:#A3C98F;stroke:#666666;stroke-width:0.2;stroke-miterlimit:22.93;}
	.st9{fill:none;stroke:#666666;stroke-width:0.2;stroke-miterlimit:22.93;}
	.st10{fill:#FFFFFF;}
	.st11{fill:#1A1A18;}
	.st12{font-family:'ArialMT';}
	.st13{font-size:7px;}
	.st14{fill:#E43622;}
	.st15{font-size:8px;}
	.st16{fill:#666666;}
	.st17{font-size:7.1px;}
</style>
<rect x="70.6" y="89.1" class="st0" width="77.8" height="77.8"/>
<rect x="52" y="174.1" class="st0" width="96.5" height="18.8"/>
<rect x="105.3" y="15.2" class="st0" width="33.6" height="39.4"/>
<polygon class="st1" points="97.7,166.8 52.9,166.8 52.9,104.2 52.3,104.2 52.3,60.9 107.3,61 107.3,54.3 121.3,54.3 121.3,61 
	122.4,61 122.3,100.4 91.7,100.4 91.7,102.7 97.7,102.7 "/>
<path class="st2" d="M129.5,17.6c0,0,2.1-0.3,2.8-0.3s2.8,0.3,2.8,0.3"/>
<path class="st2" d="M135,17.6c0.2,0,0.4,0.1,0.6,0.2c0.2,0.2,0.3,0.3,0.4,0.5l0.1,0.6"/>
<path class="st2" d="M126.2,17.7c0,0,1.7-0.6,2.3-0.7c0.8-0.2,1.6-0.3,2.4-0.3c0.6,0,1.8,0,2.4,0c0.8,0.1,1.6,0.2,2.4,0.3
	c0.6,0.1,2.4,0.7,2.4,0.7"/>
<path class="st2" d="M128.3,19l0.1-0.6c0.1-0.2,0.3-0.4,0.4-0.5c0.2-0.1,0.4-0.2,0.6-0.2"/>
<path class="st2" d="M138.3,35.9l-0.5,1.6c0,0-0.8,1.1-1.1,1.4c-0.4,0.4-0.8,0.8-1.3,1.1s-1,0.5-1.6,0.6c-0.5,0.1-1.1,0.2-1.6,0.2
	c-0.6,0-1.1-0.1-1.7-0.2c-0.5-0.2-1-0.4-1.5-0.6c-0.5-0.3-1-0.7-1.4-1.1c-0.4-0.4-0.7-0.9-1-1.4l-0.5-1.6"/>
<path class="st2" d="M126.2,35.9V17.7 M125.7,41.3V15.6 M136.2,30.3V19 M138.3,17.7v18.1 M138.9,41.3V15.6"/>
<path class="st2" d="M136.2,30.3c0,0.4-0.1,0.9-0.2,1.3c-0.2,0.4-0.4,0.7-0.6,1.1c-0.3,0.4-0.6,0.7-1,1c-0.4,0.2-0.8,0.4-1.2,0.5
	s-0.9,0.1-1.3,0.1c-0.4-0.1-0.9-0.2-1.3-0.3c-0.2-0.1-0.4-0.2-0.6-0.3c-0.3-0.3-0.6-0.6-0.9-1c-0.2-0.3-0.5-0.7-0.6-1.1
	s-0.2-0.8-0.2-1.3V19"/>
<path class="st2" d="M126.6,37.2c0,0,1.3-0.8,1.7-1c0.6-0.3,1.3-0.5,1.9-0.6c1.3-0.1,2.6-0.1,3.9,0c0.7,0.2,1.3,0.4,1.9,0.6
	c0.5,0.2,1.8,1,1.8,1"/>
<circle class="st2" cx="132.1" cy="19.3" r="0.7"/>
<circle class="st2" cx="132.1" cy="19.3" r="0.4"/>
<line class="st2" x1="125.7" y1="41.3" x2="139" y2="41.3"/>
<path class="st2" d="M111,15.6h6.7c0.2,0,0.4,0.2,0.4,0.4v2.5c0,0.2-0.2,0.4-0.4,0.4H111c-0.2,0-0.4-0.2-0.4-0.4V16
	C110.5,15.7,110.7,15.6,111,15.6z"/>
<ellipse class="st2" cx="114.3" cy="23.8" rx="2.4" ry="2.8"/>
<ellipse class="st2" cx="114.3" cy="23.8" rx="2.4" ry="2.8"/>
<path class="st2" d="M117.2,23.8c0.4,1.6-0.6,3.2-2.2,3.6s-3.2-0.6-3.6-2.2c-0.1-0.5-0.1-0.9,0-1.4c0-1.1,0.3-2.2,0.7-3.1
	c0.5-0.8,1.3-0.5,2.2-0.5s1.7-0.4,2.2,0.3C117,21.5,117.2,22.7,117.2,23.8z"/>
<path class="st2" d="M111.9,19c0.2,0.5,0.3,1.1,0.2,1.7"/>
<path class="st2" d="M116.8,19c-0.2,0.5-0.3,1.1-0.2,1.7"/>
<circle class="st2" cx="114.3" cy="22.3" r="0.7"/>
<circle class="st2" cx="114.3" cy="22.3" r="0.4"/>
<polyline class="st2" points="125.8,15.6 126,15.4 126.2,15.3 138.6,15.3 "/>
<polyline class="st2" points="138.6,15.3 138.9,15.4 139,15.6 "/>
<polyline class="st2" points="142.9,15.3 142.6,15.4 142.5,15.6 "/>
<path class="st2" d="M53.2,87.1v-3.2 M53.6,80.9v-2.5"/>
<line class="st2" x1="53.2" y1="80.9" x2="53.2" y2="77.7"/>
<path class="st2" d="M53.2,87.2L53.2,87.2 M53.2,87.3v-3.4"/>
<polyline class="st2" points="53.2,87.3 53.1,87.4 52.7,87.4 52.7,77.5 53.1,77.5 53.1,87.4 "/>
<rect x="62.3" y="77.6" class="st2" width="0.8" height="9.7"/>
<rect x="53" y="77.6" class="st2" width="9.4" height="9.7"/>
<polygon class="st2" points="63.2,80.9 63.1,80.6 62.8,80.5 62.6,80.6 62.5,80.9 62.6,81.1 62.8,81.2 63.1,81.1 "/>
<polygon class="st2" points="63.2,85.6 63.1,85.4 62.8,85.3 62.6,85.4 62.5,85.6 62.6,85.8 62.8,85.9 63.1,85.8 "/>
<polygon class="st2" points="63,85.6 62.9,85.5 62.8,85.4 62.7,85.5 62.7,85.7 62.8,85.8 62.9,85.7 "/>
<polygon class="st2" points="63.2,82.4 63.1,82.2 62.8,82.1 62.6,82.2 62.5,82.4 62.6,82.7 62.8,82.8 63.1,82.7 "/>
<polygon class="st2" points="63.2,84 63.1,83.8 62.8,83.7 62.6,83.8 62.5,84 62.6,84.3 62.8,84.4 63.1,84.3 "/>
<polygon class="st2" points="63,84 62.9,83.9 62.7,83.9 62.7,84 62.7,84.1 62.8,84.2 62.9,84.1 "/>
<polygon class="st2" points="63,82.4 62.9,82.3 62.7,82.3 62.7,82.4 62.7,82.6 62.8,82.6 62.9,82.6 "/>
<polygon class="st2" points="63.2,79.3 63.1,79.1 62.8,79 62.6,79.1 62.5,79.3 62.6,79.6 62.8,79.7 63.1,79.6 "/>
<polygon class="st2" points="63,79.3 62.9,79.2 62.8,79.1 62.7,79.2 62.7,79.4 62.8,79.6 62.9,79.4 "/>
<polygon class="st2" points="63,80.9 62.9,80.8 62.8,80.7 62.7,80.8 62.7,81 62.8,81 62.9,81 "/>
<polyline class="st2" points="62.1,88.1 62.1,76.8 53.4,76.8 53.4,77.5 "/>
<polyline class="st2" points="61.9,88 61.9,77 53.6,77 53.6,77.5 "/>
<polyline class="st2" points="61.9,88 53.6,88 53.6,87.4 "/>
<polyline class="st2" points="62.1,88.1 53.4,88.1 53.4,87.4 "/>
<polyline class="st2" points="60.4,87.4 60.4,77.5 60.2,77.7 60.2,87.1 60.4,87.4 53.1,87.4 "/>
<line class="st2" x1="60.4" y1="77.5" x2="54.9" y2="77.5"/>
<polyline class="st2" points="60.2,87.1 59.8,86.6 59.8,78.4 60.2,77.7 53.2,77.7 53.6,78.4 59.8,78.4 59.7,78.6 59.7,86.4 
	59.8,86.6 53.6,86.6 53.6,83.9 "/>
<polyline class="st2" points="57.9,83.7 57.8,83.9 57.8,80.9 57.9,81.2 "/>
<polyline class="st2" points="57.8,83.9 53.1,83.9 53.1,80.9 57.8,80.9 "/>
<polyline class="st2" points="53.6,86.6 53.2,87.1 60.2,87.1 "/>
<polyline class="st2" points="53.2,80.9 53.2,77.6 53.1,77.5 60.4,77.5 "/>
<rect x="52.7" y="92.7" class="st2" width="10.1" height="8.7"/>
<rect x="64.2" y="93.5" class="st2" width="0.1" height="2"/>
<polygon class="st2" points="63.2,101.4 63.6,101.4 64,101.3 64.2,101 64.2,93.1 64,92.8 63.6,92.7 63.2,92.7 "/>
<rect x="62.8" y="93.1" class="st2" width="0.4" height="7.9"/>
<path class="st2" d="M59.6,96.9h-3.8 M57.7,95v3.8 M56.3,95.4l2.7,3.1 M59,95.4l-2.8,3.1"/>
<path class="st2" d="M52.7,101.4L52.7,101.4z"/>
<polyline class="st2" points="80.8,81.7 80.8,71.6 63.2,71.6 63.2,92.7 "/>
<polyline class="st2" points="91.3,81.7 91.3,61 52.7,61 52.7,101.4 "/>
<path class="st2" d="M88.9,67.2v5.2 M91.3,81.7H80.8"/>
<polyline class="st2" points="89.1,67.2 89.1,72.4 88.9,72.4 "/>
<path class="st2" d="M87.2,67.2L87.2,67.2 M88,67.2h0.2 M88.9,67.2h0.2"/>
<line class="st2" x1="86.8" y1="74.4" x2="86.8" y2="74.3"/>
<polyline class="st2" points="86.8,74.4 87,74.6 87,74.8 "/>
<polyline class="st2" points="87.2,74.9 87.1,74.9 87,74.8 "/>
<path class="st2" d="M89.2,73.2l-2.4,1.2 M89.4,73.7l-2.3,1.2"/>
<line class="st2" x1="89.3" y1="73.4" x2="89" y2="73.6"/>
<polyline class="st2" points="88.9,73.6 89,73.7 89.3,73.5 "/>
<polygon class="st2" points="89.5,73.1 89.7,73.2 89.8,73.4 89.7,73.5 89.5,73.6 89.3,73.5 89.3,73.2 "/>
<polyline class="st2" points="89.2,73.5 89.2,73.2 89.5,72.9 89.7,73.1 89.9,73.3 89.8,73.6 89.5,73.7 89.2,73.6 "/>
<polyline class="st2" points="89.2,73.4 89.3,73.2 89.5,73.1 89.7,73.1 89.8,73.3 89.7,73.6 89.5,73.7 89.3,73.6 "/>
<path class="st2" d="M82.1,67.2v5.2 M87.2,67.2v5.2 M87.3,67.2v5.2 M88,67.2v5.2 M88.2,67.2v5.2 M89,73.9l0.2,0.5 M88,72.4h0.2
	 M87.2,72.4L87.2,72.4"/>
<polyline class="st2" points="81.8,67.2 81.8,72.4 82.1,72.4 "/>
<path class="st2" d="M85.4,72.4h0.2 M84.5,72.4h0.2 M83.7,72.4L83.7,72.4 M82.7,72.4h0.2 M86.2,72.4h0.2 M82.7,67.2h0.2 M83.7,67.2
	L83.7,67.2 M84.5,67.2h0.2 M85.4,67.2h0.2 M86.2,67.2h0.2 M81.8,67.2H82"/>
<polyline class="st2" points="81.8,74.4 82.1,74 82.5,73.8 "/>
<path class="st2" d="M85.6,67.2v5.2 M85.4,67.2v5.2 M84.7,67.2v5.2 M86.2,67.2v5.2 M84.5,67.2v5.2 M86.4,67.2v5.2 M83.8,67.2v5.2
	 M83.7,67.2v5.2 M82.9,67.2v5.2 M82.7,67.2v5.2"/>
<polyline class="st2" points="81.7,73.4 81.7,67.1 81.9,66.8 82.3,66.6 89.4,66.6 89.8,66.8 90.1,67.2 90.1,73.4 "/>
<path class="st2" d="M81.4,66.3h9.1 M82.5,73.8H88"/>
<line class="st2" x1="86.8" y1="74.5" x2="86.8" y2="74.3"/>
<polyline class="st2" points="86.8,74.5 86.8,74.6 86.8,74.9 "/>
<line class="st2" x1="87.1" y1="74.9" x2="86.8" y2="74.9"/>
<polyline class="st2" points="89.2,79.3 89,79.9 88.6,80.1 "/>
<polygon class="st2" points="85.6,76.5 85.8,76.6 86,76.9 85.8,77.2 85.6,77.3 85.3,77.2 85,76.9 85.3,76.6 "/>
<line class="st2" x1="84.5" y1="77.7" x2="82.6" y2="79.3"/>
<polyline class="st2" points="82.5,80.1 82.1,79.9 81.8,79.3 "/>
<polygon class="st2" points="85.6,76.2 86,76.5 86.2,76.9 86,77.4 85.6,77.6 85,77.4 84.8,76.9 85,76.5 "/>
<path class="st2" d="M81.7,73.4v6.3 M88.4,79.3l-1.9-1.6 M88.5,80.1h-6 M90.5,80.5h-9.1"/>
<polyline class="st2" points="82.3,80.2 81.9,80.1 81.7,79.7 "/>
<line class="st2" x1="82.3" y1="80.2" x2="89.4" y2="80.2"/>
<polyline class="st2" points="90.1,79.7 89.8,80.1 89.4,80.2 "/>
<path class="st2" d="M52.7,61v31.7 M81.9,79.3v-4.9 M84.5,76l-1.9-1.6 M89.2,74.4v4.9 M88.5,74.4l-2,1.6 M81.4,80.5V66.3 M90.5,66.3
	v14.2 M90,79.7v-6.3"/>
<path class="st3" d="M122.4,61v5.2 M152,89.1v84.7 M148.5,89.1v77.7"/>
<polyline class="st3" points="126,83.8 126,85.6 152,85.6 "/>
<polyline class="st4" points="93.8,61 93.8,79.7 105.3,79.7 105.3,81.7 91.8,81.7 91.8,61 "/>
<polyline class="st2" points="105.4,35.5 106.5,35.1 107.5,34.9 108.6,35.1 109.6,35.7 110.4,36.4 110.9,37.3 111,38.4 "/>
<polyline class="st2" points="110.7,38.4 110.6,37.9 110.4,37.3 110.2,36.8 109.8,36.3 109.3,36 108.8,35.7 108.2,35.4 107.6,35.3 
	107,35.4 "/>
<polyline class="st2" points="110.7,38.4 110.6,39.1 110.4,39.6 110.2,40.1 109.8,40.7 109.3,41 108.8,41.3 108.2,41.5 107.6,41.6 
	107,41.5 "/>
<polyline class="st2" points="105.4,41.4 105.3,41.2 105.8,41.4 "/>
<line class="st2" x1="106.7" y1="38.7" x2="106.3" y2="41.1"/>
<polyline class="st2" points="106.6,39.8 106.7,41.2 107,41.5 "/>
<polyline class="st2" points="106.3,41.1 106.1,41.3 105.8,41.4 "/>
<line class="st2" x1="105.6" y1="38.7" x2="107.1" y2="38.6"/>
<polyline class="st2" points="105.4,35.5 105.3,35.9 105.8,35.7 "/>
<polyline class="st2" points="105.5,38.6 105.5,38.2 105.6,38.2 "/>
<path class="st2" d="M106.6,37.1l0.1-1.4 M106.3,36l0.3,2.2"/>
<polyline class="st2" points="107.2,38.5 107.2,38.3 107.1,38.2 "/>
<path class="st2" d="M105.6,38.2h1.5 M106.7,35.8l0.3-0.3 M107.2,38.3L107.2,38.3"/>
<polyline class="st2" points="105.8,35.7 106.1,35.8 106.3,36 "/>
<line class="st2" x1="105.3" y1="35.9" x2="105.3" y2="41.2"/>
<polyline class="st2" points="107,38.2 107.3,37.9 107.7,38 108.1,38.2 107.9,38.7 107.7,39 107.3,39 107,38.7 "/>
<polyline class="st2" points="107.2,38.3 107.4,38.1 107.7,38.2 107.8,38.4 107.6,38.7 107.4,38.7 107.2,38.6 "/>
<polyline class="st2" points="105.6,38.7 105.5,38.7 105.5,38.6 "/>
<polyline class="st2" points="107.2,38.5 107.2,38.6 107.1,38.6 "/>
<polyline class="st2" points="111,38.4 110.9,39.6 110.4,40.5 109.6,41.3 108.6,41.8 107.5,42 106.5,41.8 105.4,41.4 "/>
<path class="st3" d="M126,66.2h-3.5 M126,83.8h-3.5"/>
<path class="st5" d="M101.8,100.5v2.1 M117.9,100.5v2.1"/>
<path class="st3" d="M101.6,8.6v45.7 M105.1,15.3v39 M139,15.3v39 M142.5,8.6V61"/>
<polyline class="st5" points="50.2,173.9 50.2,194.9 150.8,194.9 150.8,173.9 "/>
<polyline class="st5" points="52.3,173.9 52.3,192.8 148.5,192.8 148.5,173.9 "/>
<path class="st5" d="M143.9,171.7h-26.3 M118.1,173.9h25.4 M143.9,166.9h-26.3"/>
<polyline class="st5" points="117.5,170.9 143.9,170.9 142.6,170.9 142.6,171.7 143.9,171.7 143.9,170.9 "/>
<rect x="117.5" y="170.9" class="st5" width="1.3" height="0.9"/>
<rect x="130.1" y="170.9" class="st5" width="1.3" height="0.9"/>
<path class="st5" d="M62.7,171.7h10.6 M62.7,170.9h10.5 M62.7,166.8h26.4 M63.2,173.8h25.4 M71.9,171.7v-0.9 M73.2,173.8v-7
	 M64,171.7v-0.9"/>
<polygon class="st4" points="74.9,160.6 74.5,161.4 88.7,167.6 89.1,166.8 "/>
<polyline class="st5" points="73.2,166.8 73.3,164.9 73.8,163.1 74.5,161.4 "/>
<path class="st5" d="M49.3,54.3h1.8"/>
<polygon class="st4" points="101.8,102.2 115.7,110.3 116.2,109.7 102.1,101.6 "/>
<polyline class="st5" points="117.9,102.2 117.7,105.1 116.9,107.8 115.7,110.3 "/>
<polyline class="st4" points="122.4,89.1 122.4,100.5 117.9,100.5 117.9,102.2 117.9,102.7 124.6,102.7 124.6,89.1 "/>
<polyline class="st4" points="97.7,166.8 97.7,102.7 92.7,102.7 92.7,100.5 101.8,100.5 101.8,102.2 101.8,102.7 99.8,102.7 
	99.8,166.8 "/>
<polygon class="st4" points="107.3,59.4 119.3,66.3 119.8,65.7 107.7,58.8 "/>
<polyline class="st5" points="119.3,66.3 120.4,64.1 121.1,61.9 121.3,59.4 "/>
<path class="st5" d="M121.3,59.4v-1.8 M107.3,59.4v-1.8"/>
<polygon class="st5" points="126,83.8 134.8,68.6 134.1,68.2 125.3,83.5 "/>
<polyline class="st5" points="134.8,68.6 132,67.3 129.1,66.6 126,66.2 "/>
<path class="st5" d="M126,66.2h-1.7 M126,83.8h-1.7"/>
<line class="st6" x1="52.7" y1="61" x2="52.7" y2="166.8"/>
<line class="st6" x1="52.7" y1="54.3" x2="52.7" y2="54.3"/>
<path class="st6" d="M52.7,54.3H46"/>
<path class="st6" d="M121.3,61v-6.7 M107.3,61v-6.7"/>
<line class="st6" x1="63.2" y1="171.7" x2="46.3" y2="171.7"/>
<line class="st6" x1="63.2" y1="173.9" x2="46.3" y2="173.9"/>
<line class="st6" x1="118.1" y1="171.7" x2="88.6" y2="171.7"/>
<line class="st6" x1="118.1" y1="173.9" x2="88.6" y2="173.9"/>
<line class="st6" x1="152" y1="171.7" x2="143.4" y2="171.7"/>
<line class="st6" x1="152" y1="173.9" x2="143.4" y2="173.9"/>
<line class="st6" x1="62.7" y1="171.2" x2="46.3" y2="171.2"/>
<line class="st6" x1="62.7" y1="166.8" x2="52.7" y2="166.8"/>
<line class="st6" x1="117.5" y1="171.2" x2="89.1" y2="171.2"/>
<line class="st6" x1="117.5" y1="166.8" x2="89.1" y2="166.8"/>
<line class="st6" x1="151.7" y1="171.2" x2="143.9" y2="171.2"/>
<line class="st6" x1="151.7" y1="166.8" x2="143.9" y2="166.8"/>
<polyline class="st6" points="118.1,173.9 118.1,171.7 117.5,171.7 117.5,166.8 "/>
<polyline class="st6" points="143.4,173.9 143.4,171.7 143.9,171.7 143.9,166.8 "/>
<polyline class="st6" points="63.2,173.9 63.2,171.7 62.7,171.7 62.7,166.8 "/>
<polyline class="st6" points="88.6,173.9 88.6,171.7 89.1,171.7 89.1,166.8 "/>
<path class="st6" d="M116.7,15.3h25.8 M101.6,15.3h10.3 M101.6,8.6h40.9"/>
<polyline class="st6" points="111.9,15.3 111.9,13.1 116.7,13.1 116.7,15.3 "/>
<line class="st6" x1="121.3" y1="61" x2="142.5" y2="61"/>
<line class="st6" x1="52.7" y1="61" x2="107.3" y2="61"/>
<line class="st6" x1="121.3" y1="54.3" x2="142.5" y2="54.3"/>
<line class="st6" x1="52.7" y1="54.3" x2="107.3" y2="54.3"/>
<line class="st6" x1="46" y1="61" x2="46" y2="54.3"/>
<line class="st6" x1="46" y1="61" x2="46" y2="166.8"/>
<line class="st6" x1="46" y1="54.3" x2="46" y2="54.3"/>
<polyline class="st3" points="122.4,83.8 122.4,89.1 148.4,89.1 "/>
<line class="st3" x1="126" y1="61" x2="126" y2="66.2"/>
<line class="st3" x1="152" y1="85.6" x2="152" y2="89.1"/>
<path class="st7" d="M116.5,135.2H132c2.3,0,4.1,1.8,4.1,4.1v24.8c0,0.7-0.6,1.3-1.3,1.3l0,0h-21.3c-0.6,0-1.2-0.5-1.2-1.2l0,0
	v-24.9C112.4,137.1,114.3,135.3,116.5,135.2z"/>
<path class="st8" d="M114.9,158.5h7c0.5,0,0.9,0.4,0.9,0.9v4.2c0,0.5-0.4,0.9-0.9,0.9h-7c-0.5,0-0.9-0.4-0.9-0.9v-4.2
	C114,158.9,114.4,158.5,114.9,158.5z"/>
<path class="st8" d="M126.2,158.3h7c0.5,0,0.9,0.4,0.9,0.9v4.2c0,0.5-0.4,0.9-0.9,0.9h-7c-0.5,0-0.9-0.4-0.9-0.9v-4.2
	C125.3,158.7,125.7,158.3,126.2,158.3z"/>
<line class="st9" x1="112.4" y1="150.5" x2="136.2" y2="150.5"/>
<polygon class="st7" points="132.5,151.5 136.2,152.2 133.7,154.9 "/>
<line class="st9" x1="133.7" y1="154.9" x2="112.4" y2="154.9"/>
<path class="st9" d="M110.2,96h7.8c1.5,0,2.7-1.5,2.6-3.3v-5.6c0-1.8-1.2-3.3-2.7-3.3h-7.8c-1.4,0-2.6,1.5-2.6,3.3v5.7
	C107.5,94.6,108.7,96.1,110.2,96z"/>
<path class="st9" d="M110.5,95.5h7.1c1.3,0,2.4-1.4,2.4-3v-5.2c0-1.7-1.1-3-2.4-3h-7.1c-1.3,0-2.4,1.4-2.4,3v5.2
	C108.1,94.1,109.2,95.5,110.5,95.5z"/>
<path class="st9" d="M115.7,90.9c0.5-0.2,0.8-1.3,0.5-2.6s-0.9-2.1-1.4-2s-0.8,1.3-0.5,2.6S115.2,91,115.7,90.9z"/>
<path class="st9" d="M116.2,88.2c-0.4,1.1-1.1,1.3-1.9,0.6"/>
<path class="st9" d="M112.4,93.1c0.5,0.2,1.2-0.5,1.6-1.7s0.2-2.4-0.3-2.6s-1.2,0.6-1.6,1.8S111.9,92.9,112.4,93.1z"/>
<path class="st9" d="M114,91.2c-0.9,0.6-1.5,0.3-1.8-0.9"/>
<path class="st7" d="M75.3,123.5v-2c0-0.2,0.2-0.4,0.4-0.4H81c0.1,0,0.2,0.1,0.2,0.2v2.2c0,1.2-1,2.2-2.2,2.2h-1.4
	C76.3,125.8,75.3,124.7,75.3,123.5z"/>
<path class="st9" d="M75.3,123.5c2.1,1.7,4.1,1.7,6,0"/>
<path class="st7" d="M81.8,123.6v-2c0-0.2,0.2-0.4,0.4-0.4h5.4c0.1,0,0.2,0.1,0.2,0.2v2.2c0,1.2-1,2.3-2.3,2.3l0,0h-1.4
	C82.8,125.9,81.8,124.8,81.8,123.6z"/>
<path class="st9" d="M81.8,123.6c2.1,1.7,4.1,1.7,6,0"/>
<path class="st7" d="M88.6,123.6v-2c0-0.2,0.2-0.4,0.4-0.4h5.4c0.1,0,0.2,0.1,0.2,0.2v2.2c0,1.2-1,2.3-2.3,2.3h-1.4
	C89.6,125.9,88.6,124.9,88.6,123.6z"/>
<path class="st9" d="M88.6,123.6c2.1,1.7,4.1,1.7,6,0"/>
<path class="st7" d="M75.5,108.9v2c0,0.2,0.2,0.4,0.4,0.4h5.4c0.1,0,0.2-0.1,0.2-0.2v-2.2c0-1.2-1-2.3-2.3-2.3h-1.4
	C76.5,106.6,75.5,107.6,75.5,108.9L75.5,108.9z"/>
<path class="st9" d="M75.5,108.9c2.1-1.7,4.1-1.7,6,0"/>
<path class="st7" d="M82,108.8v2c0,0.2,0.2,0.4,0.4,0.4h5.4c0.1,0,0.2-0.1,0.2-0.2v-2.2c0-1.2-1-2.3-2.3-2.3l0,0h-1.3
	C83.1,106.4,82,107.5,82,108.8C82,108.7,82,108.8,82,108.8z"/>
<path class="st9" d="M82,108.8c2.1-1.7,4.1-1.7,5.9,0"/>
<path class="st7" d="M88.9,108.7v2c0,0.2,0.2,0.4,0.4,0.4h5.4c0.1,0,0.2-0.1,0.2-0.2v-2.2c0-1.2-1-2.3-2.3-2.3h-1.4
	C89.9,106.4,88.9,107.4,88.9,108.7z"/>
<path class="st9" d="M88.9,108.7c2.1-1.7,4.1-1.7,6,0"/>
<path class="st8" d="M75.6,109.5h18.6c1.1,0,1.9,0.9,1.9,1.9v9c0,1.1-0.9,1.9-1.9,1.9H75.6c-1.1,0-1.9-0.9-1.9-1.9v-9
	C73.6,110.4,74.5,109.5,75.6,109.5z"/>
<path class="st8" d="M56.5,132h7.9c1.7,0,3.1,1.4,3.1,3.1v27c0,1.7-1.4,3.1-3.1,3.1h-7.9c-1.7,0-3.1-1.4-3.1-3.1v-27
	C53.4,133.4,54.8,132,56.5,132z"/>
<path class="st8" d="M55.2,132h9.3c0.5,0,1,0.4,1,1v1.3c0,0.5-0.4,1-1,1h-9.3c-0.5,0-1-0.4-1-1V133C54.3,132.4,54.7,132,55.2,132z"
	/>
<path class="st8" d="M55.3,162.2h9.3c0.5,0,1,0.4,1,1v1.3c0,0.5-0.4,1-1,1h-9.3c-0.5,0-1-0.4-1-1v-1.3
	C54.3,162.6,54.7,162.2,55.3,162.2z"/>
<path class="st8" d="M55.4,132.3H57c0.6,0,1.1,0.5,1.1,1.1v30.4c0,0.6-0.5,1.1-1.1,1.1h-1.6c-0.6,0-1.1-0.5-1.1-1.1v-30.4
	C54.2,132.8,54.8,132.3,55.4,132.3z"/>
<path class="st8" d="M55.5,134.6h1.3c0.5,0,1,0.4,1,1v26.1c0,0.5-0.4,1-1,1h-1.3c-0.5,0-1-0.4-1-1v-26.1
	C54.5,135,55,134.6,55.5,134.6z"/>
<line class="st9" x1="67.4" y1="148.6" x2="58.1" y2="148.6"/>
<rect x="91.2" y="137.2" class="st8" width="5.2" height="21.2"/>
<rect x="92.3" y="140.9" class="st8" width="3.4" height="12.7"/>
<rect x="93.2" y="139" class="st8" width="1.1" height="17.4"/>
<path class="st8" d="M102.2,154.9h8.3c0.4,0,0.8,0.4,0.8,0.8v8.1c0,0.4-0.4,0.8-0.8,0.8h-8.3c-0.4,0-0.8-0.4-0.8-0.8v-8.1
	C101.4,155.2,101.7,154.9,102.2,154.9z"/>
<path class="st10" d="M128.9,103.1h8.5c3.6,0,6.4,2.9,6.4,6.4v16.1c0,3.6-2.9,6.4-6.4,6.4h-8.5c-3.6,0-6.4-2.9-6.4-6.4v-16.1
	C122.5,106,125.4,103.1,128.9,103.1z"/>
<text transform="matrix(1 0 0 1 126.5659 110.91)" class="st11 st12 st13">11,3</text>
<text transform="matrix(1 0 0 1 126.3064 128.2817)" class="st11 st12 st13">34,6</text>
<text transform="matrix(1 0 0 1 125.3331 119.6814)" class="st14 st12 st15">36,3</text>
<text transform="matrix(1 0 0 1 96.8901 76.78)" class="st16 st12 st17" style="text-decoration: underline;">3,6</text>
<text transform="matrix(1 0 0 1 72.7798 156.3098)" class="st16 st12 st17" style="text-decoration: underline;">15,0</text>
<text transform="matrix(1 0 0 1 104.0698 128.9127)" class="st16 st12 st17" style="text-decoration: underline;">11,3</text>
<text transform="matrix(1 0 0 1 127.2299 51.4199)" class="st16 st12 st17" style="text-decoration: underline;">4,7</text>
<text transform="matrix(1 0 0 1 83.65 185.6499)" class="st16 st12 st17" style="text-decoration: underline;">5,6х0,3=1,7</text>
<line class="st6" x1="46" y1="166.8" x2="46" y2="173.9"/>
</svg>
