<?xml version="1.0" encoding="utf-8"?>
<!-- Generator: Adobe Illustrator 25.0.0, SVG Export Plug-In . SVG Version: 6.00 Build 0)  -->
<svg version="1.1" id="Слой_1" xmlns="http://www.w3.org/2000/svg" xmlns:xlink="http://www.w3.org/1999/xlink" x="0px" y="0px"
	 viewBox="0 0 200 200" style="enable-background:new 0 0 200 200;" xml:space="preserve">
<style type="text/css">
	.st0{fill:#FFF18D;}
	.st1{fill:none;stroke:#666666;stroke-width:0.2;stroke-linecap:round;stroke-linejoin:round;}
	.st2{fill:none;stroke:#333333;stroke-width:0.4;stroke-linecap:round;stroke-linejoin:round;}
	.st3{fill:none;stroke:#333333;stroke-width:0.6;stroke-linecap:round;stroke-linejoin:round;}
	.st4{fill:#FFFFFF;stroke:#333333;stroke-width:0.4;stroke-linecap:round;stroke-linejoin:round;}
	.st5{fill:none;stroke:#333333;stroke-width:0.8;stroke-linecap:round;stroke-linejoin:round;}
	.st6{fill-rule:evenodd;clip-rule:evenodd;fill:#FFF18D;stroke:#666666;stroke-width:0.2;stroke-miterlimit:22.93;}
	.st7{fill:#FFF18D;stroke:#666666;stroke-width:0.2;stroke-miterlimit:22.93;}
	.st8{fill:none;stroke:#666666;stroke-width:0.2;stroke-miterlimit:22.93;}
	.st9{fill:#FFFFFF;}
	.st10{fill:#1A1A18;}
	.st11{font-family:'ArialMT';}
	.st12{font-size:8px;}
	.st13{fill:#E43622;}
	.st14{font-size:9px;}
	.st15{fill:#666666;}
</style>
<rect x="32.3" y="43.2" class="st0" width="144.9" height="87.7"/>
<rect x="30.2" y="138.4" class="st0" width="148.8" height="21.8"/>
<path class="st1" d="M51.7,43.3h7.5c0.3,0,0.5,0.2,0.5,0.5v2.8c0,0.3-0.2,0.5-0.5,0.5h-7.5c-0.3,0-0.5-0.2-0.5-0.5v-2.8
	C51.2,43.6,51.5,43.3,51.7,43.3z"/>
<ellipse class="st1" cx="55.5" cy="52.7" rx="2.7" ry="3.1"/>
<ellipse class="st1" cx="55.5" cy="52.7" rx="2.7" ry="3.1"/>
<path class="st1" d="M58.8,52.6c0.1,2-1.3,3.7-3.3,3.8c-2-0.2-3.4-1.9-3.3-3.8c0-1.2,0.3-2.4,0.8-3.5c0.6-0.8,1.5-0.5,2.5-0.5
	s1.9-0.4,2.5,0.4C58.5,50.1,58.8,51.4,58.8,52.6z"/>
<path class="st1" d="M52.8,47.2c0.2,0.6,0.3,1.3,0.2,1.9"/>
<path class="st1" d="M58.3,47.2c-0.2,0.6-0.3,1.3-0.2,1.9"/>
<circle class="st1" cx="55.5" cy="51" r="0.8"/>
<circle class="st1" cx="55.5" cy="51" r="0.4"/>
<path class="st1" d="M37.2,45.8c0,0,2.3-0.4,3.1-0.4s3.1,0.4,3.1,0.4"/>
<path class="st1" d="M43.4,45.8c0.2,0.1,0.5,0.1,0.7,0.2c0.2,0.2,0.3,0.4,0.5,0.6l0.1,0.7"/>
<path class="st1" d="M33.5,45.9c0,0,2-0.7,2.6-0.8c0.9-0.2,1.8-0.3,2.8-0.4c0.9-0.1,1.8-0.1,2.8,0c0.9,0.1,1.8,0.2,2.8,0.4
	c0.7,0.2,2.8,0.8,2.8,0.8"/>
<path class="st1" d="M35.9,47.3l0.1-0.7c0.1-0.2,0.3-0.4,0.5-0.6c0.2-0.1,0.5-0.2,0.7-0.2"/>
<path class="st1" d="M47.2,66.3l-0.6,1.8c0,0-0.9,1.2-1.2,1.6c-0.4,0.4-0.9,0.8-1.4,1.2c-0.6,0.3-1.2,0.5-1.8,0.7
	c-0.6,0.1-1.2,0.2-1.8,0.2s-1.3-0.1-1.9-0.2c-0.6-0.2-1.1-0.4-1.7-0.7c-0.6-0.3-1.1-0.7-1.6-1.2c-0.4-0.5-0.8-1-1.1-1.6l-0.6-1.8"/>
<path class="st1" d="M33.5,66.3V45.9 M32.9,72.4V43.5 M44.8,60V47.3 M47.2,45.9v20.4 M47.8,72.4V43.5"/>
<path class="st1" d="M44.8,60c0,0.5-0.1,1-0.2,1.4c-0.2,0.4-0.4,0.8-0.7,1.2s-0.7,0.8-1.1,1.1c-0.4,0.3-0.9,0.5-1.3,0.6
	c-0.5,0.1-1,0.1-1.4,0.1c-0.5-0.1-1-0.2-1.4-0.4c-0.3-0.1-0.5-0.2-0.7-0.4c-0.4-0.3-0.7-0.7-1-1.1c-0.3-0.4-0.5-0.8-0.7-1.2
	c-0.1-0.5-0.2-1-0.2-1.4V47.3"/>
<path class="st1" d="M34,67.8c0,0,1.4-0.9,1.9-1.1c0.7-0.3,1.4-0.6,2.1-0.8c0.8-0.1,1.5-0.1,2.3-0.1c0.7,0,1.4,0,2.2,0.1
	c0.7,0.2,1.5,0.4,2.2,0.7c0.5,0.2,2,1.1,2,1.1"/>
<circle class="st1" cx="40.1" cy="47.7" r="0.8"/>
<circle class="st1" cx="40.1" cy="47.7" r="0.4"/>
<line class="st1" x1="47.8" y1="72.4" x2="32.9" y2="72.4"/>
<polyline class="st1" points="24.8,43.3 25,43.4 25.1,43.7 "/>
<polyline class="st1" points="25.1,72.6 25,72.8 24.8,72.9 "/>
<polyline class="st1" points="32.7,43.7 32.8,43.4 33,43.3 47.1,43.3 "/>
<polyline class="st1" points="47.1,43.3 47.5,43.4 47.6,43.7 "/>
<polyline class="st1" points="33,72.9 32.8,72.8 32.7,72.6 "/>
<line class="st1" x1="33" y1="72.9" x2="47.1" y2="72.9"/>
<polyline class="st1" points="47.6,72.6 47.5,72.8 47.1,72.9 "/>
<polyline class="st1" points="69.9,43.5 70.5,44.7 70.6,45.9 70.5,47.1 69.9,48.2 69.1,49.2 67.8,49.8 66.7,49.9 "/>
<polyline class="st1" points="66.7,49.5 67.4,49.4 68,49.2 68.6,48.9 69.1,48.5 69.5,48 69.9,47.4 70.1,46.8 70.1,45.3 "/>
<polyline class="st1" points="66.7,49.5 66.1,49.4 65.3,49.2 64.7,48.9 64.2,48.5 63.8,48 63.5,47.4 63.3,46.8 63.2,46.1 63.2,45.3 
	"/>
<polyline class="st1" points="63.4,43.5 63.7,43.4 63.4,44 "/>
<line class="st1" x1="66.4" y1="45" x2="63.8" y2="44.6"/>
<polyline class="st1" points="65.2,44.9 63.7,45 63.2,45.3 "/>
<polyline class="st1" points="63.8,44.6 63.4,44.4 63.4,44 "/>
<line class="st1" x1="66.4" y1="43.8" x2="66.4" y2="45.5"/>
<polyline class="st1" points="69.9,43.5 69.7,43.4 69.9,44 "/>
<polyline class="st1" points="66.5,43.7 67,43.7 67,43.8 "/>
<path class="st1" d="M66.8,45.6h-0.2 M68.2,44.9l1.6,0.1 M69.5,44.6L67,45"/>
<polyline class="st1" points="66.9,45.5 66.9,45.6 66.8,45.6 "/>
<path class="st1" d="M67,43.8l-0.1,1.7 M69.8,45l0.4,0.4"/>
<polyline class="st1" points="69.9,44 69.8,44.4 69.5,44.6 "/>
<line class="st1" x1="69.7" y1="43.4" x2="63.7" y2="43.4"/>
<polyline class="st1" points="66.9,45.3 67.2,45.7 67.2,46.2 66.9,46.5 66.4,46.4 66.1,46.2 66.1,45.7 66.4,45.3 "/>
<polyline class="st1" points="66.9,45.6 67,45.8 66.9,46.2 66.7,46.3 66.4,46.2 66.3,45.8 66.5,45.6 "/>
<polyline class="st1" points="66.4,43.8 66.4,43.7 66.5,43.7 "/>
<line class="st1" x1="66.5" y1="45.6" x2="66.4" y2="45.5"/>
<polyline class="st1" points="66.7,49.9 65.4,49.8 64.4,49.2 63.5,48.2 62.9,47.1 62.7,45.9 62.9,44.7 63.4,43.5 "/>
<polyline class="st2" points="30.2,162.5 181.1,162.5 181.1,138.7 "/>
<polyline class="st2" points="179,138.7 179,160.1 30.2,160.1 "/>
<line class="st3" x1="177.2" y1="43.3" x2="177.2" y2="130.8"/>
<line class="st3" x1="181.1" y1="39.8" x2="181.1" y2="138.7"/>
<line class="st3" x1="181.1" y1="39.3" x2="98" y2="39.3"/>
<line class="st3" x1="78.2" y1="39.3" x2="32.7" y2="39.3"/>
<line class="st2" x1="76.6" y1="50.7" x2="74.2" y2="50.7"/>
<line class="st2" x1="76.6" y1="66.5" x2="74.2" y2="66.5"/>
<line class="st2" x1="81.2" y1="72.9" x2="81.2" y2="75.3"/>
<line class="st2" x1="99.4" y1="72.9" x2="99.4" y2="75.3"/>
<line class="st2" x1="109.5" y1="50.7" x2="111.9" y2="50.7"/>
<line class="st3" x1="78.2" y1="43.3" x2="78.2" y2="39.3"/>
<path class="st2" d="M124.5,136.3h29.8 M153.6,138.7H125 M124.5,130.8h29.8"/>
<polyline class="st2" points="154.2,135.3 124.5,135.3 126.1,135.3 126.1,136.3 124.5,136.3 124.5,135.3 "/>
<rect x="152.7" y="135.3" class="st2" width="1.6" height="1"/>
<rect x="138.6" y="135.3" class="st2" width="1.4" height="1"/>
<path class="st2" d="M55,136.3h11.9 M55,135.3h11.9 M55,130.8h29.8 M55.6,138.7h28.6 M65.4,136.3v-1 M66.9,138.7v-7.9 M56.6,136.3
	v-1"/>
<polygon class="st4" points="68.8,123.8 68.3,124.7 84.3,131.6 84.8,130.8 "/>
<polyline class="st2" points="66.9,130.8 67,128.6 67.5,126.6 68.3,124.7 "/>
<polygon class="st2" points="98,41.3 80.8,31.4 80.4,32.1 97.6,42 "/>
<polyline class="st2" points="78.2,41.3 78.5,37.9 79.4,34.5 80.8,31.4 "/>
<path class="st2" d="M78.2,41.3v2 M98,41.3v2"/>
<polygon class="st4" points="109.5,50.7 100.4,66.6 101.1,66.9 110.2,51.2 "/>
<polyline class="st2" points="109.5,69 106.4,68.7 103.2,67.9 100.4,66.6 "/>
<polyline class="st4" points="109.5,43.3 109.5,50.7 111.4,50.7 111.9,50.7 111.9,43.3 "/>
<polygon class="st4" points="76.2,50.7 84.1,64.3 83.3,64.8 75.5,51.2 "/>
<polyline class="st2" points="84.1,64.3 81.5,65.5 79,66.2 76.2,66.5 "/>
<polyline class="st4" points="74.2,43.3 74.2,50.7 76.2,50.7 76.6,50.7 76.6,43.3 "/>
<polygon class="st4" points="99.4,75 83.6,84 83.2,83.3 98.9,74.1 "/>
<polyline class="st2" points="83.6,84 82.2,81.1 81.4,78.1 81.2,75 "/>
<polyline class="st4" points="32.7,72.9 74.2,72.9 74.2,66.5 76.2,66.5 76.6,66.5 76.6,72.9 81.2,72.9 81.2,75 81.2,75.3 32.7,75.3 
	"/>
<polyline class="st4" points="111.9,130.8 111.9,69 109.5,69 109.5,72.9 99.4,72.9 99.4,75 99.4,75.3 109.5,75.3 109.5,130.8 "/>
<polyline class="st1" points="32.7,117.5 32.7,75.3 55,75.3 "/>
<path class="st1" d="M33.3,113.7v-3.6 M33.8,106.8v-3"/>
<polyline class="st1" points="33.3,106.8 33.3,103.2 33.2,103.1 "/>
<path class="st1" d="M33.2,113.7L33.2,113.7 M33.2,113.9v-3.7"/>
<polyline class="st1" points="33.2,113.9 33.2,114 32.7,114 32.7,102.9 33.2,102.9 33.2,114 "/>
<rect x="55" y="75.3" class="st1" width="10" height="11.4"/>
<line class="st1" x1="38.5" y1="78.1" x2="44.5" y2="78.1"/>
<polyline class="st1" points="38.5,77.9 44.5,77.9 44.5,78.1 "/>
<path class="st1" d="M38.5,80L38.5,80 M38.5,79.1L38.5,79.1 M38.5,78.1v-0.2"/>
<line class="st1" x1="46.7" y1="80.4" x2="46.5" y2="80.4"/>
<polyline class="st1" points="46.7,80.4 46.8,80.3 47.1,80.3 "/>
<line class="st1" x1="47.1" y1="80" x2="47.1" y2="80.3"/>
<path class="st1" d="M45.7,78L45.7,78 M45.4,77.6l0.2,0.5 M45.3,77.8l1.3,2.8 M45.9,77.5l1.3,2.6"/>
<polyline class="st1" points="45.8,78.1 45.8,78 45.7,77.6 "/>
<polygon class="st1" points="45,77.4 45.2,77.1 45.4,77 45.7,77.1 45.8,77.4 45.7,77.6 45.2,77.6 "/>
<polyline class="st1" points="45.5,77.7 45.2,77.7 44.9,77.5 45,77.1 45.4,76.9 45.8,77 45.9,77.4 45.7,77.7 "/>
<polyline class="st1" points="45.5,77.7 45.2,77.6 45,77.4 45.2,77.1 45.4,77 45.7,77.1 45.8,77.4 45.7,77.6 "/>
<path class="st1" d="M38.5,85.8h6 M38.5,80h6 M38.5,79.9h6 M38.5,79.1h6 M38.5,78.9h6 M46.1,77.9l0.6-0.2 M44.5,79L44.5,79 M44.5,80
	L44.5,80"/>
<polyline class="st1" points="38.5,86 44.5,86 44.5,85.8 "/>
<path class="st1" d="M44.5,82.1v-0.2 M44.5,83L44.5,83 M44.5,84L44.5,84 M44.5,85.1v-0.2 M44.5,81.1v-0.2 M38.5,85.1v-0.2 M38.5,84
	L38.5,84 M38.5,83L38.5,83 M38.5,82.1v-0.2 M38.5,81.1v-0.2 M38.5,86v-0.2"/>
<polyline class="st1" points="46.7,86 46.1,85.8 45.9,85.3 "/>
<path class="st1" d="M38.5,81.8h6 M38.5,82.1h6 M38.5,82.9h6 M38.5,81.1h6 M38.5,83h6 M38.5,80.9h6 M38.5,83.9h6 M38.5,84h6
	 M38.5,84.8h6 M38.5,85.1h6"/>
<polyline class="st1" points="45.5,86.1 38.5,86.1 38,86 37.8,85.5 37.8,77.5 38,77 38.5,76.8 45.5,76.8 "/>
<path class="st1" d="M37.5,86.5V76.3 M45.9,85.3v-6.2"/>
<line class="st1" x1="46.7" y1="80.5" x2="46.6" y2="80.5"/>
<polyline class="st1" points="46.7,80.5 47,80.5 47.1,80.4 "/>
<polyline class="st1" points="47.2,80.1 47.2,80.3 47.1,80.4 "/>
<polyline class="st1" points="52.1,77.7 52.7,78 53,78.6 "/>
<polygon class="st1" points="48.9,81.9 49.1,81.6 49.5,81.3 49.8,81.6 50,81.9 49.8,82.3 49.5,82.4 49.1,82.3 "/>
<line class="st1" x1="50.5" y1="83.1" x2="52.1" y2="85.2"/>
<polyline class="st1" points="53,85.3 52.7,85.8 52.1,86 "/>
<polygon class="st1" points="48.7,81.9 48.9,81.3 49.5,81.1 50,81.3 50.2,81.9 50,82.4 49.5,82.7 48.9,82.4 "/>
<path class="st1" d="M45.5,86.1h7.1 M52.1,78.6l-1.7,2.2 M53,78.6v6.7 M53.5,76.3v10.2"/>
<polyline class="st1" points="53.2,85.5 53,86 52.6,86.1 "/>
<line class="st1" x1="53.2" y1="85.5" x2="53.2" y2="77.5"/>
<polyline class="st1" points="52.5,76.8 53,77 53.2,77.5 "/>
<path class="st1" d="M52.1,86h-5.4 M48.4,83.1l-1.7,2 M46.7,77.7h5.4 M46.7,78.5l1.7,2.2 M53.4,86.4h-16 M37.4,76.2h16 M52.4,76.7
	h-7"/>
<rect x="43.6" y="103.1" class="st1" width="1" height="10.8"/>
<rect x="32.9" y="103.1" class="st1" width="10.7" height="10.8"/>
<polygon class="st1" points="43.7,106.7 43.7,106.4 44.1,106.3 44.3,106.4 44.5,106.7 44.3,106.9 44.1,107 43.7,106.9 "/>
<polygon class="st1" points="43.7,111.9 43.7,111.7 44.1,111.6 44.3,111.7 44.5,111.9 44.3,112.3 44.1,112.4 43.7,112.3 "/>
<polygon class="st1" points="43.8,111.9 44,111.8 44.2,111.8 44.2,111.9 44.2,112.1 44.1,112.2 44,112.1 "/>
<polygon class="st1" points="43.7,108.5 43.7,108.2 44.1,108.1 44.3,108.2 44.5,108.5 44.3,108.7 44.1,108.8 43.7,108.7 "/>
<polygon class="st1" points="43.7,110.3 43.7,109.9 44.1,109.8 44.3,109.9 44.5,110.3 44.3,110.5 44.1,110.6 43.7,110.5 "/>
<polygon class="st1" points="43.8,110.3 44,110 44.2,110 44.2,110.3 44.2,110.4 44.1,110.4 44,110.4 "/>
<polygon class="st1" points="43.8,108.5 44,108.3 44.1,108.2 44.2,108.3 44.2,108.6 44.1,108.7 44,108.6 "/>
<polygon class="st1" points="43.7,104.9 43.7,104.6 44.1,104.5 44.3,104.6 44.5,104.9 44.3,105.2 44.1,105.3 43.7,105.2 "/>
<polygon class="st1" points="43.8,104.9 44,104.7 44.2,104.7 44.2,104.9 44.2,105.1 44.1,105.1 44,105.1 "/>
<polygon class="st1" points="43.8,106.7 44,106.5 44.2,106.5 44.2,106.7 44.2,106.8 44.1,106.9 44,106.8 "/>
<rect x="61.7" y="88.2" class="st1" width="2.3" height="0.1"/>
<line class="st1" x1="55" y1="87.2" x2="55" y2="87.7"/>
<polyline class="st1" points="55.5,88.2 55.2,88.1 55,87.7 "/>
<line class="st1" x1="55.5" y1="88.2" x2="64.5" y2="88.2"/>
<polyline class="st1" points="65,87.7 64.8,88.1 64.5,88.2 "/>
<polyline class="st1" points="65,87.7 65,87.2 55,87.2 "/>
<rect x="55.5" y="86.7" class="st1" width="9" height="0.5"/>
<path class="st1" d="M60,83.1v-4.3 M62.2,80.8h-4.3 M61.7,79.3l-3.4,3.2 M61.7,82.5l-3.4-3.2"/>
<polyline class="st1" points="55,75.3 55,87.2 44.6,87.2 44.6,117.5 "/>
<polyline class="st1" points="43.4,114.8 43.4,102.1 33.5,102.1 33.5,102.9 "/>
<polyline class="st1" points="43.1,114.6 43.1,102.3 33.8,102.3 33.8,102.9 "/>
<polyline class="st1" points="43.1,114.6 33.8,114.6 33.8,114 "/>
<polyline class="st1" points="43.4,114.8 33.5,114.8 33.5,114 "/>
<polyline class="st1" points="41.5,114 41.5,102.9 41.2,103.2 41.2,113.7 41.5,114 33.2,114 "/>
<line class="st1" x1="41.5" y1="102.9" x2="35.1" y2="102.9"/>
<polyline class="st1" points="41.2,113.7 40.7,113.1 40.7,103.8 41.2,103.2 33.3,103.2 33.8,103.8 40.7,103.8 40.6,104 40.6,112.8 
	40.7,113.1 33.8,113.1 33.8,110.1 "/>
<polyline class="st1" points="38.6,109.8 38.3,110.1 38.3,106.8 38.6,107 "/>
<polyline class="st1" points="38.3,110.1 33.2,110.1 33.2,106.8 38.3,106.8 "/>
<polyline class="st1" points="33.8,113.1 33.3,113.7 41.2,113.7 "/>
<polyline class="st1" points="33.2,106.8 33.2,102.9 41.5,102.9 "/>
<line class="st1" x1="44.6" y1="117.5" x2="32.7" y2="117.5"/>
<rect x="27.8" y="138.7" class="st5" width="2.4" height="23.8"/>
<line class="st5" x1="25.1" y1="138.4" x2="25.4" y2="138.4"/>
<line class="st5" x1="49.8" y1="138.7" x2="24.8" y2="138.7"/>
<line class="st5" x1="98" y1="43.3" x2="98" y2="39.3"/>
<line class="st5" x1="153.6" y1="136.3" x2="181.1" y2="136.3"/>
<line class="st5" x1="153.6" y1="138.7" x2="181.1" y2="138.7"/>
<line class="st5" x1="84.2" y1="136.3" x2="125.1" y2="136.3"/>
<line class="st5" x1="84.2" y1="138.7" x2="125.1" y2="138.7"/>
<line class="st5" x1="24.8" y1="136.3" x2="55.6" y2="136.3"/>
<line class="st5" x1="24.8" y1="138.7" x2="55.6" y2="138.7"/>
<line class="st5" x1="154.2" y1="135.7" x2="181.1" y2="135.7"/>
<line class="st5" x1="154.2" y1="130.8" x2="181.1" y2="130.8"/>
<line class="st5" x1="84.8" y1="135.7" x2="124.5" y2="135.7"/>
<line class="st5" x1="84.8" y1="130.8" x2="124.5" y2="130.8"/>
<line class="st5" x1="25.4" y1="135.7" x2="55" y2="135.7"/>
<line class="st5" x1="32.7" y1="130.8" x2="55" y2="130.8"/>
<polyline class="st5" points="84.2,138.7 84.2,136.3 84.8,136.3 84.8,130.8 "/>
<polyline class="st5" points="55.6,138.7 55.6,136.3 55,136.3 55,130.8 "/>
<polyline class="st5" points="153.6,138.7 153.6,136.3 154.2,136.3 154.2,130.8 "/>
<polyline class="st5" points="125.1,138.7 125.1,136.3 124.5,136.3 124.5,130.8 "/>
<path class="st5" d="M25.1,39.3h7.6 M32.7,50.1v80.6 M32.7,39.3v5.5 M25.1,57.9v80.4 M25.1,39.4v13.2"/>
<polyline class="st5" points="25.1,52.5 27.8,52.5 27.8,57.9 25.1,57.9 "/>
<polyline class="st5" points="32.7,50.1 30.2,50.1 30.2,44.9 32.7,44.9 "/>
<line class="st3" x1="78.2" y1="43.3" x2="32.7" y2="43.3"/>
<line class="st3" x1="177.2" y1="43.3" x2="98" y2="43.3"/>
<line class="st3" x1="181.1" y1="39.8" x2="181.1" y2="39.8"/>
<path class="st6" d="M146.9,121.9v-17.5c0-2.6-2.1-4.6-4.6-4.6h-27.9c-0.8,0-1.4,0.6-1.4,1.4v24c0,0.7,0.6,1.3,1.3,1.3l0,0h28
	C144.9,126.6,146.9,124.5,146.9,121.9z"/>
<path class="st7" d="M115,114.8h4.7c0.6,0,1,0.5,1,1v7.9c0,0.6-0.5,1-1,1H115c-0.6,0-1-0.5-1-1v-7.9
	C114,115.3,114.5,114.8,115,114.8z"/>
<path class="st7" d="M115.2,102.1h4.7c0.6,0,1,0.5,1,1v7.9c0,0.6-0.5,1-1,1h-4.7c-0.6,0-1-0.5-1-1v-7.9
	C114.2,102.6,114.7,102.1,115.2,102.1z"/>
<line class="st8" x1="129.7" y1="126.6" x2="129.7" y2="99.8"/>
<polygon class="st6" points="128.6,104 127.9,99.8 124.8,102.7 "/>
<line class="st8" x1="124.8" y1="102.7" x2="124.8" y2="126.6"/>
<path class="st8" d="M84.4,58.6h9.1c1.7,0,3.1-1.7,3.1-3.8v-6.4c0-2.1-1.4-3.8-3.1-3.8h-9.1c-1.7,0-3.1,1.7-3.1,3.8v6.4
	C81.3,56.9,82.7,58.6,84.4,58.6z"/>
<path class="st8" d="M84.8,58h8.3c1.6,0,2.8-1.5,2.8-3.4v-5.8c0.1-1.7-1.1-3.2-2.8-3.4h-8.3c-1.5,0-2.8,1.5-2.8,3.4v5.8
	C82,56.4,83.2,58,84.8,58z"/>
<path class="st8" d="M90.8,52.8c0.6-0.2,0.9-1.5,0.6-2.9s-1-2.4-1.6-2.2s-0.9,1.5-0.6,2.9S90.2,53,90.8,52.8z"/>
<path class="st8" d="M91.4,49.8c-0.5,1.3-1.2,1.5-2.2,0.7"/>
<path class="st8" d="M86.9,55.3c0.6,0.3,1.4-0.6,1.8-2s0.3-2.7-0.3-2.9s-1.4,0.6-1.8,2S86.3,55,86.9,55.3z"/>
<path class="st8" d="M88.8,53.2c-1,0.7-1.7,0.4-2.1-1"/>
<path class="st6" d="M101.6,112.2h-2.3c-0.2,0-0.4-0.2-0.4-0.4v-6.1c0-0.1,0.1-0.2,0.2-0.2l0,0h2.5c1.4,0,2.5,1.1,2.6,2.5v1.6
	C104.2,111,103.1,112.1,101.6,112.2z"/>
<path class="st8" d="M101.6,112.2c1.9-2.4,1.9-4.6,0-6.7"/>
<path class="st6" d="M101.8,104.8h-2.3c-0.2,0-0.4-0.2-0.4-0.4v-6.1c0-0.1,0.1-0.2,0.2-0.2l0,0h2.5c1.4,0,2.6,1.1,2.6,2.5l0,0v1.6
	C104.3,103.6,103.2,104.8,101.8,104.8z"/>
<path class="st8" d="M101.8,104.8c1.9-2.4,1.9-4.6,0-6.7"/>
<path class="st6" d="M101.8,97.1h-2.3c-0.2,0-0.4-0.2-0.4-0.4l0,0v-6.1c0-0.1,0.1-0.2,0.2-0.2l0,0h2.5c1.4,0,2.6,1.1,2.6,2.5l0,0
	v1.6C104.4,96,103.2,97.1,101.8,97.1z"/>
<path class="st8" d="M101.8,97.1c1.9-2.4,1.9-4.6,0-6.7"/>
<path class="st7" d="M88.1,88.7h10.1c1.2,0,2.2,1,2.2,2.2v20.9c0,1.2-1,2.2-2.2,2.2H88.1c-1.2,0-2.2-1-2.2-2.2V90.9
	C85.9,89.7,86.9,88.7,88.1,88.7z"/>
<path class="st7" d="M130.3,44.5h30.4c1.9,0,3.5,1.5,3.5,3.5v8.8c0,1.9-1.6,3.5-3.5,3.5h-30.3c-1.9,0-3.5-1.6-3.5-3.5V48
	C126.9,46.1,128.4,44.5,130.3,44.5z"/>
<path class="st7" d="M127.8,45.5h1.5c0.6,0,1.1,0.5,1.1,1.1v10.5c0,0.6-0.5,1.1-1.1,1.1h-1.5c-0.6,0-1.1-0.5-1.1-1.1V46.6
	C126.8,46,127.2,45.5,127.8,45.5z"/>
<path class="st7" d="M161.8,45.6h1.5c0.6,0,1.1,0.5,1.1,1.1v10.5c0,0.6-0.5,1.1-1.1,1.1h-1.5c-0.6,0-1.1-0.5-1.1-1.1V46.7
	C160.8,46,161.2,45.6,161.8,45.6z"/>
<path class="st7" d="M128.4,45.5h34.2c0.7,0,1.3,0.6,1.3,1.3v1.8c0,0.7-0.6,1.3-1.3,1.3h-34.2c-0.7,0-1.3-0.6-1.3-1.3v-1.8
	C127.1,46.1,127.7,45.5,128.4,45.5z"/>
<path class="st7" d="M130.8,45.8h29.5c0.6,0,1.1,0.5,1.1,1.1v1.5c0,0.6-0.5,1.1-1.1,1.1h-29.5c-0.6,0-1.1-0.5-1.1-1.1v-1.5
	C129.7,46.3,130.2,45.8,130.8,45.8z"/>
<line class="st8" x1="145.5" y1="60.4" x2="145.5" y2="49.8"/>
<rect x="169.4" y="73.2" class="st7" width="5.8" height="23.9"/>
<rect x="170.6" y="77.5" class="st7" width="3.8" height="14.3"/>
<rect x="171.6" y="75.3" class="st7" width="1.2" height="19.6"/>
<path class="st7" d="M114.2,88.6h9.3c0.5,0,0.9,0.4,0.9,0.9v9.1c0,0.5-0.4,0.9-0.9,0.9h-9.3c-0.5,0-0.9-0.4-0.9-0.9v-9.1
	C113.4,89,113.8,88.6,114.2,88.6z"/>
<path class="st9" d="M140.6,63.6h9.6c4,0,7.2,3.2,7.2,7.2v18.1c0,4-3.2,7.2-7.2,7.2h-9.6c-4,0-7.2-3.2-7.2-7.2V70.8
	C133.4,66.8,136.6,63.6,140.6,63.6z"/>
<text transform="matrix(1 0 0 1 137.6002 71.8823)" class="st10 st11 st12">14,7</text>
<text transform="matrix(1 0 0 1 137.6008 92.5369)" class="st10 st11 st12">31,7</text>
<text transform="matrix(1 0 0 1 136.6271 82.6203)" class="st13 st11 st14">34,2</text>
<text transform="matrix(1 0 0 1 58.3498 70.1799)" class="st15 st11 st12" style="text-decoration: underline;">3,3</text>
<text transform="matrix(1 0 0 1 87.2101 70.1799)" class="st15 st11 st12" style="text-decoration: underline;">2,6</text>
<text transform="matrix(1 0 0 1 91.5099 126.95)" class="st15 st11 st12" style="text-decoration: underline;">11,1</text>
<text transform="matrix(1 0 0 1 158.89 126.95)" class="st15 st11 st12" style="text-decoration: underline;">14,7</text>
<text transform="matrix(1 0 0 1 84.54 151.99)" class="st15 st11 st12" style="text-decoration: underline;">8,2х0,3=2,5</text>
</svg>
