<?xml version="1.0" encoding="utf-8"?>
<!-- Generator: Adobe Illustrator 25.0.0, SVG Export Plug-In . SVG Version: 6.00 Build 0)  -->
<svg version="1.1" id="Слой_1" xmlns="http://www.w3.org/2000/svg" xmlns:xlink="http://www.w3.org/1999/xlink" x="0px" y="0px"
	 viewBox="0 0 200 200" style="enable-background:new 0 0 200 200;" xml:space="preserve">
<style type="text/css">
	.st0{fill:#FFF18D;}
	.st1{fill-rule:evenodd;clip-rule:evenodd;fill:#FFF18D;}
	.st2{fill:none;stroke:#666666;stroke-width:0.2;stroke-linecap:round;stroke-linejoin:round;}
	.st3{fill:none;stroke:#333333;stroke-width:0.4;stroke-linecap:round;stroke-linejoin:round;}
	.st4{fill:#FFFFFF;stroke:#333333;stroke-width:0.4;stroke-linecap:round;stroke-linejoin:round;}
	.st5{fill:none;stroke:#333333;stroke-width:0.6;stroke-linecap:round;stroke-linejoin:round;}
	.st6{fill:none;stroke:#333333;stroke-width:0.8;stroke-linecap:round;stroke-linejoin:round;}
	.st7{fill:none;stroke:#666666;stroke-width:0.2;stroke-miterlimit:22.93;}
	.st8{fill:#FFF18D;stroke:#666666;stroke-width:0.2;stroke-miterlimit:22.9288;}
	.st9{fill:#FFF18D;stroke:#666666;stroke-width:0.2;stroke-miterlimit:22.93;}
	.st10{fill-rule:evenodd;clip-rule:evenodd;fill:#FFF18D;stroke:#666666;stroke-width:0.2;stroke-miterlimit:22.93;}
	.st11{fill:#FFFFFF;}
	.st12{fill:#1A1A18;}
	.st13{font-family:'ArialMT';}
	.st14{font-size:8px;}
	.st15{fill:#E43622;}
	.st16{font-size:9px;}
	.st17{fill:#666666;}
</style>
<rect x="65.4" y="56.5" class="st0" width="55.7" height="61.5"/>
<polygon class="st1" points="18.8,160.1 58.4,160.3 58.4,150 65.9,150 65.9,160.3 120.5,160.1 120.5,116.2 65.7,116.2 65.9,134.1 
	58.4,134.1 58.4,116.4 18.8,116.2 "/>
<polygon class="st1" points="174.8,160 122.8,160 122.8,152.8 110.7,152.8 110.7,134.8 122.8,134.8 122.8,56.8 174.8,56.8 "/>
<rect x="117.3" y="27.9" class="st0" width="56.7" height="20.7"/>
<path class="st2" d="M23.9,118.8c0,0,2.3-0.4,3.1-0.4s3.1,0.4,3.1,0.4"/>
<path class="st2" d="M30.2,118.8c0.2,0.1,0.5,0.1,0.7,0.2c0.2,0.2,0.3,0.4,0.5,0.6l0.1,0.7"/>
<path class="st2" d="M20.2,119c0,0,2-0.7,2.6-0.8c0.9-0.2,1.8-0.3,2.8-0.4c0.7,0,2.1,0,2.8,0s2.1,0.2,2.8,0.4S34,119,34,119"/>
<path class="st2" d="M22.6,120.4l0.1-0.7c0.1-0.2,0.3-0.4,0.5-0.6c0.2-0.1,0.5-0.2,0.7-0.2"/>
<path class="st2" d="M33.9,139.4l-0.6,1.8c0,0-0.9,1.2-1.2,1.6c-0.4,0.4-0.9,0.8-1.4,1.2c-0.6,0.3-1.2,0.5-1.8,0.7
	c-0.6,0.1-1.2,0.2-1.8,0.2c-0.6,0-1.3-0.1-1.9-0.2c-0.6-0.2-1.1-0.4-1.7-0.7s-1.1-0.7-1.6-1.2c-0.4-0.5-0.8-1-1.1-1.6l-0.6-1.8"/>
<path class="st2" d="M20.2,139.4V119 M19.6,145.5v-29 M31.5,133.1v-12.7 M33.9,119v20.4 M34.5,145.5v-29"/>
<path class="st2" d="M31.5,133.1c0,0.5-0.1,1-0.2,1.4c-0.2,0.4-0.4,0.8-0.7,1.2c-0.3,0.4-0.7,0.8-1.1,1.1s-0.9,0.5-1.3,0.6
	c-0.5,0.1-1,0.1-1.4,0.1c-0.5-0.1-1-0.2-1.4-0.4c-0.3-0.1-0.5-0.2-0.7-0.4c-0.4-0.3-0.7-0.7-1-1.1c-0.3-0.4-0.5-0.8-0.7-1.2
	c-0.1-0.5-0.2-1-0.2-1.4v-12.7"/>
<path class="st2" d="M20.7,140.9c0,0,1.4-0.9,1.9-1.1c0.7-0.3,1.4-0.5,2.2-0.7c0.8-0.1,1.5-0.1,2.3-0.1c0.7,0,1.4,0,2.2,0.1
	c0.7,0.2,1.5,0.4,2.2,0.7c0.5,0.2,2,1.1,2,1.1"/>
<circle class="st2" cx="26.8" cy="120.8" r="0.8"/>
<circle class="st2" cx="26.8" cy="120.8" r="0.4"/>
<line class="st2" x1="34.5" y1="145.5" x2="19.4" y2="145.5"/>
<line class="st2" x1="15.3" y1="145.7" x2="15.3" y2="116.7"/>
<path class="st2" d="M44.2,116.7h7.5c0.3,0,0.5,0.2,0.5,0.5v2.8c0,0.3-0.2,0.5-0.5,0.5h-7.5c-0.3,0-0.5-0.2-0.5-0.5v-2.8
	C43.7,116.9,43.9,116.7,44.2,116.7z"/>
<ellipse class="st2" cx="47.9" cy="126" rx="2.7" ry="3.1"/>
<ellipse class="st2" cx="47.9" cy="126" rx="2.7" ry="3.1"/>
<path class="st2" d="M51.2,126c0.1,2-1.3,3.6-3.3,3.8c-2-0.1-3.4-1.8-3.3-3.8c0-1.2,0.3-2.4,0.8-3.6c0.6-0.8,1.5-0.5,2.5-0.5
	s1.9-0.4,2.5,0.4C51,123.5,51.3,124.7,51.2,126z"/>
<path class="st2" d="M45.2,120.5c0.2,0.6,0.3,1.3,0.2,1.9"/>
<path class="st2" d="M50.8,120.5c-0.2,0.6-0.3,1.3-0.2,1.9"/>
<circle class="st2" cx="47.9" cy="124.3" r="0.8"/>
<circle class="st2" cx="47.9" cy="124.3" r="0.4"/>
<polyline class="st2" points="15.1,116.4 15.3,116.5 15.4,116.7 "/>
<polyline class="st2" points="34.3,116.7 34.1,116.5 33.9,116.4 19.9,116.4 "/>
<polyline class="st2" points="19.9,116.4 19.5,116.5 19.4,116.7 "/>
<line class="st2" x1="171.8" y1="148.4" x2="171.8" y2="142.5"/>
<path class="st2" d="M174.1,106.5v3.6 M173.6,113.5v3"/>
<line class="st2" x1="174.1" y1="113.5" x2="174.1" y2="117.2"/>
<path class="st2" d="M174.1,106.5h0.1 M174.1,106.4v3.7"/>
<polyline class="st2" points="174.1,106.4 174.1,106.3 174.5,106.3 174.5,117.3 174.1,117.3 174.1,106.3 "/>
<polyline class="st2" points="172,148.4 172,142.5 171.8,142.5 "/>
<path class="st2" d="M169.9,148.4h0.1 M170.8,148.4h0.2 M171.8,148.4h0.2"/>
<polyline class="st2" points="169.5,140.3 169.5,140.4 169.6,140.4 "/>
<polyline class="st2" points="169.5,140.3 169.6,140 169.7,139.9 "/>
<polyline class="st2" points="169.9,139.8 169.7,139.8 169.7,139.9 "/>
<path class="st2" d="M171.9,141.1l0.4,0.2 M171.9,141.2h0.1 M171.8,141.2l0.1-0.1 M171.9,141.2h0.1 M172.2,141.5l-0.4-0.1
	 M172.1,141.7l-2.8-1.3 M172.4,141.1l-2.6-1.3"/>
<polygon class="st2" points="172.5,141.8 172.7,141.7 172.9,141.6 172.7,141.3 172.5,141.2 172.4,141.3 172.3,141.6 172.4,141.7 "/>
<polyline class="st2" points="172.1,141.5 172.1,141.8 172.5,141.9 172.9,141.8 173,141.6 172.9,141.2 172.5,141.1 172.1,141.2 "/>
<polyline class="st2" points="172.1,141.5 172.3,141.7 172.5,141.8 172.7,141.8 172.9,141.6 172.7,141.3 172.5,141.2 172.3,141.3 
	"/>
<path class="st2" d="M164.1,148.4v-5.9 M169.9,148.4v-5.9 M170,148.4v-5.9 M170.8,148.4v-5.9 M171.1,148.4v-5.9 M171.9,140.9
	l0.2-0.6 M170.8,142.5h0.2 M169.9,142.5h0.1"/>
<polyline class="st2" points="163.9,148.4 163.9,142.5 164.1,142.5 "/>
<path class="st2" d="M167.8,142.5h0.2 M166.9,142.5h0.2 M165.9,142.5L165.9,142.5 M164.9,142.5h0.1 M168.9,142.5h0.1 M164.9,148.4
	h0.1 M165.9,148.4h0.1 M166.8,148.4h0.2 M167.8,148.4h0.2 M168.9,148.4h0.1 M163.8,148.4h0.2"/>
<polyline class="st2" points="164,140.3 164.1,140.7 164.6,141 "/>
<path class="st2" d="M168.1,148.4v-5.9 M167.8,148.4v-5.9 M167.1,148.4v-5.9 M168.9,148.4v-5.9 M166.9,148.4v-5.9 M169.1,148.4v-5.9
	 M166.1,148.4v-5.9 M165.9,148.4v-5.9 M165.1,148.4v-5.9 M165,148.4v-5.9"/>
<polyline class="st2" points="163.7,141.5 163.7,148.5 164,148.9 164.3,149.1 172.5,149.1 172.9,148.9 173.1,148.4 173.1,141.5 "/>
<path class="st2" d="M163.4,149.5h10.2 M164.6,141h6.2"/>
<line class="st2" x1="169.4" y1="140.1" x2="169.4" y2="140.4"/>
<polyline class="st2" points="169.4,140.1 169.5,140 169.5,139.8 "/>
<line class="st2" x1="169.7" y1="139.8" x2="169.5" y2="139.8"/>
<polyline class="st2" points="172.1,134.7 171.9,134.1 171.4,133.9 "/>
<polygon class="st2" points="168.1,138 168.4,137.9 168.5,137.5 168.4,137.1 168.1,137 167.7,137.1 167.6,137.5 167.7,137.9 "/>
<line class="st2" x1="166.9" y1="136.5" x2="164.7" y2="134.7"/>
<polyline class="st2" points="164.6,133.9 164.1,134.1 164,134.7 "/>
<polygon class="st2" points="168.1,138.3 168.5,138.1 168.8,137.5 168.5,136.9 168.1,136.7 167.5,136.9 167.2,137.5 167.5,138.1 "/>
<path class="st2" d="M163.7,141.5v-7.1 M171.3,134.7l-2,1.8 M171.5,133.9h-6.8 M173.6,133.4h-10.2"/>
<polyline class="st2" points="164.3,133.8 164,134 163.7,134.4 "/>
<line class="st2" x1="164.3" y1="133.8" x2="172.5" y2="133.8"/>
<polyline class="st2" points="173.1,134.4 172.9,134 172.5,133.8 "/>
<path class="st2" d="M164,134.7v5.5 M166.9,138.5l-2.2,1.8 M172.2,140.3v-5.5 M171.3,140.3l-2-1.8 M163.4,133.5v16 M173.6,149.5
	v-16.1 M173.2,134.4v7.1"/>
<rect x="162.7" y="106.4" class="st2" width="1.1" height="10.8"/>
<rect x="163.7" y="106.4" class="st2" width="10.6" height="10.8"/>
<polygon class="st2" points="163.3,113.3 162.9,113.3 162.8,113.6 162.9,113.9 163.3,114 163.5,113.9 163.6,113.6 163.5,113.3 "/>
<polygon class="st2" points="163.3,107.9 162.9,108 162.8,108.3 162.9,108.6 163.3,108.7 163.5,108.6 163.6,108.3 163.5,108 "/>
<polygon class="st2" points="163.3,108.1 163,108.1 163,108.3 163,108.5 163.3,108.5 163.4,108.5 163.4,108.3 163.4,108.1 "/>
<polygon class="st2" points="163.3,111.5 162.9,111.6 162.8,111.8 162.9,112.1 163.3,112.2 163.5,112.1 163.6,111.8 163.5,111.6 "/>
<polygon class="st2" points="163.3,109.7 162.9,109.8 162.8,110 162.9,110.4 163.3,110.5 163.5,110.4 163.6,110 163.5,109.8 "/>
<polygon class="st2" points="163.3,109.9 163,109.9 163,110 163,110.3 163.3,110.3 163.4,110.3 163.4,110 163.4,109.9 "/>
<polygon class="st2" points="163.3,111.6 163,111.7 163,111.9 163.3,112.1 163.4,111.9 163.4,111.7 "/>
<polygon class="st2" points="163.3,114.9 162.9,115.1 162.8,115.4 162.9,115.7 163.3,115.8 163.5,115.7 163.6,115.4 163.5,115.1 "/>
<polygon class="st2" points="163.3,115.2 163,115.2 163,115.4 163,115.5 163.3,115.5 163.4,115.5 163.4,115.4 163.4,115.2 "/>
<polygon class="st2" points="163.3,113.4 163,113.5 163,113.7 163.3,113.7 163.4,113.7 163.4,113.6 163.4,113.5 "/>
<polyline class="st2" points="164,105.5 164,118.2 173.7,118.2 173.7,117.3 "/>
<polyline class="st2" points="164.2,105.7 164.2,117.9 173.6,117.9 173.6,117.3 "/>
<polyline class="st2" points="164.2,105.7 173.6,105.7 173.6,106.3 "/>
<polyline class="st2" points="164,105.5 173.7,105.5 173.7,106.3 "/>
<polyline class="st2" points="165.8,106.3 165.8,117.3 166.1,117.1 166.1,106.5 165.8,106.3 174.2,106.3 "/>
<line class="st2" x1="165.8" y1="117.3" x2="172.1" y2="117.3"/>
<polyline class="st2" points="166.1,106.5 166.6,107.1 166.6,116.5 166.1,117.1 174.1,117.1 173.6,116.5 166.6,116.5 166.7,116.3 
	166.7,107.5 166.6,107.1 173.6,107.1 173.6,110.1 "/>
<polyline class="st2" points="168.7,110.4 168.9,110.1 168.9,113.5 168.7,113.3 "/>
<polyline class="st2" points="168.9,110.1 174.1,110.1 174.1,113.5 168.9,113.5 "/>
<polyline class="st2" points="173.6,107.1 174.1,106.5 166.1,106.5 "/>
<polyline class="st2" points="174.1,113.5 174.1,117.3 165.8,117.3 "/>
<rect x="140.9" y="148.9" class="st2" width="9.8" height="11.4"/>
<rect x="141.9" y="147.3" class="st2" width="2.3" height="0.1"/>
<polygon class="st2" points="150.8,148.4 150.8,147.9 150.7,147.6 150.3,147.5 141.4,147.5 141.1,147.6 140.9,147.9 140.9,148.4 "/>
<rect x="141.4" y="148.4" class="st2" width="8.9" height="0.5"/>
<path class="st2" d="M145.9,152.5v4.3 M143.6,154.7h4.4 M144.2,156.3l3.4-3.2 M144.2,153.1l3.4,3.2"/>
<polyline class="st2" points="150.8,160.3 150.8,148.4 150.8,160.3 174.5,160.3 174.5,104.9 "/>
<polyline class="st2" points="150.8,148.4 162.7,148.4 162.7,104.9 174.5,104.9 "/>
<line class="st3" x1="62.7" y1="150" x2="60.8" y2="150"/>
<polyline class="st3" points="60.8,134.1 62.7,134.1 70.6,147.9 "/>
<polyline class="st4" points="62.7,134.1 61.9,134.7 69.8,148.4 70.6,147.9 "/>
<polyline class="st3" points="69.8,148.4 67.6,149.3 65.2,149.9 62.7,150 "/>
<polyline class="st2" points="40.7,159.9 40.1,158.7 40,157.5 40.3,156.3 40.7,155.3 41.7,154.3 42.8,153.8 44,153.6 "/>
<polyline class="st2" points="44,153.9 43.3,154.1 42.7,154.3 42.1,154.5 41.6,155 41.1,155.5 40.7,156.1 40.6,156.8 40.5,157.4 
	40.5,158.1 "/>
<polyline class="st2" points="44,153.9 44.7,154.1 45.3,154.3 45.9,154.5 46.4,155 46.9,155.5 47.2,156.1 47.3,156.8 47.5,157.4 
	47.5,158.1 "/>
<polyline class="st2" points="47.2,159.9 47,160.1 47.2,159.5 "/>
<line class="st2" x1="44.2" y1="158.5" x2="47" y2="158.9"/>
<polyline class="st2" points="45.5,158.6 47.1,158.5 47.5,158.1 "/>
<polyline class="st2" points="47,158.9 47.2,159.1 47.2,159.5 "/>
<line class="st2" x1="44.3" y1="159.7" x2="44.2" y2="158"/>
<polyline class="st2" points="40.7,159.9 41.1,160.1 40.9,159.5 "/>
<polyline class="st2" points="44.1,159.8 43.7,159.8 43.9,159.8 "/>
<path class="st2" d="M43.9,157.9h0.2 M42.4,158.6l-1.4-0.1 M41.1,158.9l2.6-0.4 M43.8,159.8l-0.1-0.1"/>
<polyline class="st2" points="43.7,158 43.7,157.9 43.9,157.9 "/>
<path class="st2" d="M43.6,159.7l0.1-1.7 M41,158.5l-0.5-0.4"/>
<polyline class="st2" points="40.9,159.5 40.9,159.1 41.1,158.9 "/>
<line class="st2" x1="41.1" y1="160.1" x2="47" y2="160.1"/>
<polyline class="st2" points="43.7,158.1 43.4,157.8 43.4,157.3 43.7,157.1 44.2,157.1 44.6,157.3 44.6,157.9 44.2,158.1 "/>
<polyline class="st2" points="43.7,157.9 43.6,157.7 43.7,157.3 44,157.3 44.2,157.4 44.3,157.7 44.2,157.9 "/>
<polyline class="st2" points="44.3,159.7 44.2,159.8 44.1,159.8 "/>
<polyline class="st2" points="44.1,157.9 44.2,157.9 44.2,158 "/>
<polyline class="st2" points="44,153.6 45.2,153.8 46.3,154.3 47.2,155.3 47.7,156.3 47.9,157.5 47.8,158.7 47.2,159.9 "/>
<line class="st3" x1="123.2" y1="152.7" x2="123.2" y2="160.3"/>
<line class="st3" x1="123.2" y1="57" x2="123.2" y2="134.6"/>
<line class="st3" x1="120.8" y1="152.7" x2="120.8" y2="160.3"/>
<line class="st3" x1="120.8" y1="132.6" x2="120.8" y2="134.6"/>
<line class="st3" x1="120.8" y1="57" x2="120.8" y2="130.2"/>
<path class="st3" d="M89.8,132.6v-2.4 M108.1,132.6v-2.4 M120.8,152.7h2.4 M120.8,134.6h2.4"/>
<polyline class="st3" points="115.2,49.1 115.2,25.3 176.6,25.3 176.6,33.2 "/>
<polyline class="st3" points="117.3,49.1 117.3,27.7 174.2,27.7 174.2,33.2 "/>
<line class="st5" x1="15.4" y1="108.8" x2="15.4" y2="167.9"/>
<line class="st5" x1="19.4" y1="116.4" x2="19.4" y2="160.3"/>
<path class="st3" d="M164.7,51.5h-11.9 M164.7,52.5h-11.9 M164.7,57h-29.6 M164.1,49.1h-28.5 M154.3,51.5v1 M152.8,49.1V57
	 M163.3,51.5v1"/>
<polygon class="st4" points="151,63.9 151.5,63.1 135.5,56.1 135.1,57 "/>
<polyline class="st3" points="152.8,57 152.7,59.1 152.2,61.2 151.5,63.1 "/>
<path class="st3" d="M108.1,51.5H78.4 M79,49.1h28.4 M108.1,57H78.4"/>
<polyline class="st3" points="78.4,52.4 108.1,52.4 106.6,52.4 106.6,51.5 108.1,51.5 108.1,52.4 "/>
<rect x="78.4" y="51.5" class="st3" width="1.4" height="1"/>
<rect x="92.5" y="51.5" class="st3" width="1.6" height="1"/>
<polyline class="st3" points="102.9,177 85.7,167.1 85.4,167.9 102.4,177.7 "/>
<path class="st3" d="M105.1,167.9v-2 M85.4,167.9v-2"/>
<polygon class="st4" points="108.1,130.2 92.3,121.2 91.9,121.9 107.7,131 "/>
<polyline class="st3" points="89.8,130.2 90.2,127.1 91,124.1 92.3,121.2 "/>
<polyline class="st4" points="65.9,130.2 89.8,130.2 89.8,132.2 89.8,132.6 65.9,132.6 "/>
<polyline class="st4" points="120.8,130.2 108.1,130.2 108.1,132.2 108.1,132.6 120.8,132.6 "/>
<polygon class="st4" points="122.9,152.7 132.1,137 131.3,136.5 122.2,152.4 "/>
<polyline class="st3" points="132.1,137 129.2,135.7 126.1,134.9 122.9,134.6 "/>
<path class="st3" d="M122.9,134.6h-2 M122.9,152.7h-2"/>
<line class="st6" x1="182.1" y1="36.2" x2="177.2" y2="36.2"/>
<line class="st6" x1="182.1" y1="41.1" x2="182.1" y2="41.1"/>
<line class="st6" x1="182.1" y1="33.2" x2="182.1" y2="167.9"/>
<line class="st6" x1="182.1" y1="35.6" x2="176.6" y2="35.6"/>
<line class="st6" x1="182.1" y1="33.2" x2="174.2" y2="33.2"/>
<line class="st6" x1="58.5" y1="57" x2="58.4" y2="49.1"/>
<path class="st6" d="M65.9,134.1h-7.6 M65.9,150h-7.6 M85.4,167.9v-7.6 M105.1,167.9v-7.6"/>
<path class="st6" d="M164.1,51.5h12.5 M164.1,49.1h10.1 M107.5,51.5h28.1 M107.5,49.1h28.1 M58.5,49.1H79 M58.3,51.5H79 M164.7,52.1
	h12.5 M164.7,57h9.8 M108.1,52.1h27 M108.1,57h27 M58.5,52.1h20 M65.9,57h12.5"/>
<polyline class="st6" points="79,49.1 79,51.5 78.4,51.5 78.4,57 "/>
<polyline class="st6" points="107.5,49.1 107.5,51.5 108.1,51.5 108.1,57 "/>
<polyline class="st6" points="135.5,49.1 135.5,51.5 135.1,51.5 135.1,57 "/>
<polyline class="st6" points="164.1,49.1 164.1,51.5 164.7,51.5 164.7,57 "/>
<line class="st6" x1="177.2" y1="36.2" x2="177.2" y2="52.1"/>
<line class="st6" x1="176.6" y1="35.6" x2="176.6" y2="51.5"/>
<line class="st6" x1="174.2" y1="33.2" x2="174.2" y2="49.1"/>
<polyline class="st6" points="174.5,152.6 177.2,152.6 177.2,157.9 174.5,157.9 "/>
<line class="st6" x1="15.6" y1="116.4" x2="53.1" y2="116.4"/>
<line class="st6" x1="15.6" y1="108.8" x2="58.4" y2="108.8"/>
<polyline class="st6" points="58.4,116.4 50.9,116.4 50.9,113.9 45.5,113.9 45.5,116.4 "/>
<line class="st6" x1="58.4" y1="150" x2="58.4" y2="160.3"/>
<line class="st6" x1="58.4" y1="116.4" x2="58.4" y2="134.1"/>
<line class="st6" x1="58.4" y1="57" x2="58.4" y2="108.8"/>
<line class="st6" x1="65.9" y1="150" x2="65.9" y2="160.3"/>
<line class="st6" x1="65.9" y1="57" x2="65.9" y2="134.1"/>
<line class="st6" x1="105.1" y1="167.9" x2="182.1" y2="167.9"/>
<line class="st6" x1="15.1" y1="167.9" x2="85.4" y2="167.9"/>
<line class="st6" x1="105.1" y1="160.3" x2="174.5" y2="160.3"/>
<line class="st6" x1="65.9" y1="160.3" x2="85.4" y2="160.3"/>
<line class="st6" x1="15.1" y1="160.3" x2="58.4" y2="160.3"/>
<line class="st6" x1="174.5" y1="157.9" x2="174.5" y2="160.3"/>
<line class="st6" x1="174.5" y1="57" x2="174.5" y2="152.6"/>
<path class="st7" d="M88.7,142.6h11.1c2.1,0,3.8,1.7,3.8,3.8v6.4c0,2.1-1.7,3.8-3.8,3.8H88.7c-2.1,0-3.8-1.7-3.8-3.8v-6.4
	C85,144.3,86.6,142.6,88.7,142.6z"/>
<path class="st7" d="M89.2,143.3h10c1.9,0,3.4,1.5,3.4,3.4v5.8c0,1.9-1.5,3.4-3.4,3.4h-10c-1.9,0-3.4-1.5-3.4-3.4v-5.8
	C85.8,144.8,87.3,143.3,89.2,143.3z"/>
<path class="st7" d="M91.9,148.5c-0.7,0.2-1.1,1.5-0.7,2.9s1.2,2.4,2,2.2s1.1-1.5,0.7-2.9S92.7,148.3,91.9,148.5z"/>
<path class="st7" d="M91.3,151.5c0.6-1.3,1.5-1.5,2.7-0.7"/>
<path class="st7" d="M96.7,146c-0.7-0.3-1.7,0.6-2.2,2s-0.3,2.7,0.4,2.9s1.7-0.6,2.2-2S97.4,146.2,96.7,146z"/>
<path class="st7" d="M94.4,148.1c1.2-0.7,2.1-0.4,2.6,1"/>
<rect x="68.4" y="115" transform="matrix(9.758817e-02 -0.9952 0.9952 9.758817e-02 -47.6013 178.111)" class="st8" width="12" height="0.7"/>
<rect x="77.9" y="93.1" transform="matrix(0.3611 -0.9325 0.9325 0.3611 -42.4031 136.2563)" class="st8" width="0.7" height="12"/>
<rect x="67.5" y="94.9" class="st9" width="6.4" height="27.1"/>
<path class="st10" d="M155.7,133.6h-2.3c-0.2,0-0.4-0.2-0.4-0.4v-6.1c0-0.1,0.1-0.2,0.2-0.2l0,0h2.5c1.4,0,2.6,1.1,2.6,2.6l0,0v1.5
	C158.3,132.4,157.1,133.6,155.7,133.6L155.7,133.6z"/>
<path class="st7" d="M155.7,133.6c1.9-2.4,1.9-4.6,0-6.7"/>
<path class="st10" d="M155.8,126.3h-2.3c-0.2,0-0.4-0.2-0.4-0.4v-6.1c0-0.1,0.1-0.2,0.2-0.2l0,0h2.5c1.4,0,2.5,1.1,2.6,2.5v1.6
	C158.4,125.1,157.2,126.3,155.8,126.3z"/>
<path class="st7" d="M155.8,126.3c1.9-2.4,1.9-4.6,0-6.7"/>
<path class="st10" d="M155.9,118.6h-2.3c-0.2,0-0.4-0.2-0.4-0.4v-6.1c0-0.1,0.1-0.2,0.2-0.2l0,0h2.5c1.4,0,2.5,1.1,2.6,2.5v1.6
	C158.5,117.4,157.3,118.6,155.9,118.6L155.9,118.6z"/>
<path class="st7" d="M155.9,118.6c1.9-2.4,1.9-4.6,0-6.7"/>
<path class="st10" d="M139.3,133.3h2.3c0.2,0,0.4-0.2,0.4-0.4v-6.1c0-0.1-0.1-0.2-0.2-0.2l0,0h-2.5c-1.4,0-2.5,1.1-2.6,2.5v1.6
	C136.7,132.2,137.8,133.3,139.3,133.3z"/>
<path class="st7" d="M139.3,133.3c-1.9-2.4-1.9-4.6,0-6.7"/>
<path class="st10" d="M139.1,126h2.3c0.2,0,0.4-0.2,0.4-0.4l0,0v-6.1c0-0.1-0.1-0.2-0.2-0.2l0,0h-2.5c-1.4,0-2.5,1.1-2.6,2.5v1.6
	C136.6,124.8,137.7,126,139.1,126z"/>
<path class="st7" d="M139.1,126c-1.9-2.4-1.9-4.6,0-6.7"/>
<path class="st10" d="M139.1,118.3h2.3c0.2,0,0.4-0.2,0.4-0.4l0,0v-6.1c0-0.1-0.1-0.2-0.2-0.2l0,0H139c-1.4,0-2.5,1.1-2.6,2.5v1.6
	C136.5,117.2,137.6,118.3,139.1,118.3L139.1,118.3z"/>
<path class="st7" d="M139.1,118.3c-1.9-2.4-1.9-4.6,0-6.7"/>
<path class="st9" d="M142.1,110.2h10.1c1.2,0,2.2,1,2.2,2.2v20.9c0,1.2-1,2.2-2.2,2.2h-10.1c-1.2,0-2.2-1-2.2-2.2v-20.9
	C139.9,111.2,140.9,110.2,142.1,110.2z"/>
<path class="st9" d="M127,65h8.8c1.9,0,3.5,1.6,3.5,3.5l0,0v30.4c0,1.9-1.6,3.5-3.5,3.5l0,0H127c-1.9,0-3.5-1.6-3.5-3.5V68.5
	C123.5,66.6,125.1,65,127,65L127,65z"/>
<path class="st9" d="M125.6,98.8h10.5c0.6,0,1.1,0.5,1.1,1.1v1.5c0,0.6-0.5,1.1-1.1,1.1h-10.5c-0.6,0-1.1-0.5-1.1-1.1v-1.5
	C124.5,99.2,125,98.8,125.6,98.8z"/>
<path class="st9" d="M125.6,64.8h10.5c0.6,0,1.1,0.5,1.1,1.1v1.5c0,0.6-0.5,1.1-1.1,1.1h-10.5c-0.6,0-1.1-0.5-1.1-1.1v-1.5
	C124.5,65.2,125,64.8,125.6,64.8z"/>
<path class="st9" d="M125.8,65.3h1.8c0.7,0,1.3,0.6,1.3,1.3v34.3c0,0.7-0.6,1.3-1.3,1.3h-1.8c-0.7,0-1.3-0.6-1.3-1.3V66.6
	C124.5,65.9,125,65.3,125.8,65.3z"/>
<path class="st9" d="M125.9,67.9h1.5c0.6,0,1.1,0.5,1.1,1.1v29.5c0,0.6-0.5,1.1-1.1,1.1h-1.5c-0.6,0-1.1-0.5-1.1-1.1V69
	C124.8,68.4,125.3,67.9,125.9,67.9z"/>
<line class="st7" x1="139.4" y1="83.7" x2="128.8" y2="83.7"/>
<rect x="166.5" y="61.1" class="st9" width="5.8" height="23.9"/>
<rect x="167.7" y="65.4" class="st9" width="3.8" height="14.3"/>
<rect x="168.7" y="63.2" class="st9" width="1.2" height="19.6"/>
<path class="st9" d="M163.4,88.4h9.3c0.5,0,0.9,0.4,0.9,0.9v9.1c0,0.5-0.4,0.9-0.9,0.9h-9.3c-0.5,0-0.9-0.4-0.9-0.9v-9.1
	C162.6,88.8,163,88.4,163.4,88.4z"/>
<path class="st11" d="M92.6,65.9h9.6c4,0,7.2,3.2,7.2,7.2v18.1c0,4-3.2,7.2-7.2,7.2h-9.6c-4,0-7.2-3.2-7.2-7.2v-18
	C85.4,69.2,88.6,65.9,92.6,65.9z"/>
<text transform="matrix(1 0 0 1 89.9205 73.6299)" class="st12 st13 st14">11,0</text>
<text transform="matrix(1 0 0 1 89.6237 94.9003)" class="st12 st13 st14">35,4</text>
<text transform="matrix(1 0 0 1 88.6506 84.5096)" class="st15 st13 st16">36,3</text>
<text transform="matrix(1 0 0 1 26.39 157.0601)" class="st17 st13 st14" style="text-decoration: underline;">4,9</text>
<text transform="matrix(1 0 0 1 106.6599 156.7)" class="st17 st13 st14" style="text-decoration: underline;">4,7</text>
<text transform="matrix(1 0 0 1 104.0712 124.5413)" class="st17 st13 st14" style="text-decoration: underline;">11,0</text>
<text transform="matrix(1 0 0 1 138.3705 143.1829)" class="st17 st13 st14" style="text-decoration: underline;">14,8</text>
<text transform="matrix(1 0 0 1 124.93 41.1399)" class="st17 st13 st14" style="text-decoration: underline;">2,9х0,3=0,9</text>
<polyline class="st3" points="104.5,167.8 104.4,171.2 103.7,174.5 102.5,177.7 "/>
</svg>
