<?xml version="1.0" encoding="utf-8"?>
<!-- Generator: Adobe Illustrator 25.0.0, SVG Export Plug-In . SVG Version: 6.00 Build 0)  -->
<svg version="1.1" id="Слой_1" xmlns="http://www.w3.org/2000/svg" xmlns:xlink="http://www.w3.org/1999/xlink" x="0px" y="0px"
	 viewBox="0 0 200 200" style="enable-background:new 0 0 200 200;" xml:space="preserve">
<style type="text/css">
	.st0{fill:#FFF18D;}
	.st1{fill:none;stroke:#666666;stroke-width:0.2;stroke-linecap:round;stroke-linejoin:round;}
	.st2{fill:none;stroke:#333333;stroke-width:0.4;stroke-linecap:round;stroke-linejoin:round;}
	.st3{fill:none;stroke:#333333;stroke-width:0.6;stroke-linecap:round;stroke-linejoin:round;}
	.st4{fill:#FFFFFF;stroke:#333333;stroke-width:0.4;stroke-linecap:round;stroke-linejoin:round;}
	.st5{fill:none;stroke:#333333;stroke-width:0.8;stroke-linecap:round;stroke-linejoin:round;}
	.st6{fill-rule:evenodd;clip-rule:evenodd;fill:#FFF18D;stroke:#666666;stroke-width:0.2;stroke-miterlimit:22.93;}
	.st7{fill:#FFF18D;stroke:#666666;stroke-width:0.2;stroke-miterlimit:22.93;}
	.st8{fill:none;stroke:#666666;stroke-width:0.2;stroke-miterlimit:22.93;}
	.st9{fill:#FFF18D;stroke:#666666;stroke-width:0.2;stroke-miterlimit:22.9288;}
	.st10{fill:#FFFFFF;}
	.st11{fill:#1A1A18;}
	.st12{font-family:'ArialMT';}
	.st13{font-size:8px;}
	.st14{fill:#E43622;}
	.st15{font-size:9px;}
	.st16{fill:#666666;}
</style>
<rect x="27" y="52.8" class="st0" width="144.9" height="87.7"/>
<rect x="27.1" y="148" class="st0" width="146.7" height="21.8"/>
<path class="st1" d="M161,55.5c0,0,2.3-0.4,3.1-0.4s3.1,0.4,3.1,0.4"/>
<path class="st1" d="M167.2,55.5c0.2,0.1,0.5,0.1,0.7,0.2c0.2,0.2,0.3,0.4,0.5,0.6l0.1,0.7"/>
<path class="st1" d="M157.2,55.6c0,0,2-0.7,2.6-0.8c0.9-0.2,1.8-0.3,2.8-0.4c0.7,0,2.1,0,2.8,0s2.1,0.2,2.8,0.4s2.8,0.8,2.8,0.8"/>
<path class="st1" d="M159.6,57l0.1-0.7c0.1-0.2,0.3-0.4,0.5-0.6c0.2-0.1,0.5-0.2,0.7-0.2"/>
<path class="st1" d="M170.9,76l-0.6,1.8c0,0-0.9,1.2-1.2,1.6c-0.4,0.4-0.9,0.8-1.4,1.2c-0.6,0.3-1.2,0.5-1.8,0.7
	c-0.6,0.1-1.2,0.2-1.8,0.2s-1.3-0.1-1.9-0.2c-0.6-0.2-1.1-0.4-1.7-0.7c-0.6-0.3-1.1-0.7-1.6-1.2c-0.4-0.5-0.8-1-1.1-1.6l-0.6-1.8"/>
<path class="st1" d="M157.2,76V55.6 M156.6,82.1V53.2 M168.5,69.8V57 M170.9,55.6V76 M171.5,82.1V53.2"/>
<path class="st1" d="M168.5,69.8c0,0.5-0.1,1-0.2,1.4c-0.2,0.4-0.4,0.8-0.7,1.2c-0.3,0.4-0.7,0.8-1.1,1.1c-0.4,0.3-0.9,0.5-1.3,0.6
	c-0.5,0.1-1,0.1-1.4,0.1c-0.5-0.1-1-0.2-1.4-0.4c-0.3-0.1-0.5-0.2-0.7-0.4c-0.4-0.3-0.7-0.7-1-1.1s-0.5-0.8-0.7-1.2
	c-0.1-0.5-0.2-1-0.2-1.4V57"/>
<path class="st1" d="M157.7,77.6c0,0,1.4-0.8,1.9-1.1c0.7-0.3,1.4-0.5,2.2-0.7c0.8-0.1,1.5-0.1,2.3-0.1c0.7,0,1.4,0,2.2,0.1
	c0.7,0.2,1.5,0.4,2.2,0.7c0.5,0.2,2,1.1,2,1.1"/>
<circle class="st1" cx="163.8" cy="57.4" r="0.8"/>
<circle class="st1" cx="163.8" cy="57.4" r="0.4"/>
<line class="st1" x1="171.5" y1="82.1" x2="156.6" y2="82.1"/>
<path class="st1" d="M145.1,53.2h7.5c0.3,0,0.5,0.2,0.5,0.5v2.8c0,0.3-0.2,0.5-0.5,0.5h-7.5c-0.3,0-0.5-0.2-0.5-0.5v-2.8
	C144.6,53.4,144.8,53.2,145.1,53.2z"/>
<ellipse class="st1" cx="148.8" cy="62.5" rx="2.7" ry="3.1"/>
<ellipse class="st1" cx="148.8" cy="62.5" rx="2.7" ry="3.1"/>
<path class="st1" d="M152.1,62.5c0.2,1.8-1,3.5-2.8,3.7s-3.5-1-3.7-2.8c0-0.3,0-0.6,0-0.9c0-1.2,0.3-2.4,0.8-3.6
	c0.6-0.8,1.5-0.5,2.5-0.5s1.9-0.4,2.5,0.4C151.9,59.9,152.1,61.2,152.1,62.5z"/>
<path class="st1" d="M146.1,57c0.2,0.6,0.3,1.3,0.2,1.9"/>
<path class="st1" d="M151.6,57c-0.2,0.6-0.3,1.3-0.2,1.9"/>
<circle class="st1" cx="148.8" cy="60.8" r="0.8"/>
<circle class="st1" cx="148.8" cy="60.8" r="0.4"/>
<polyline class="st2" points="174.3,172.4 24.7,172.4 24.7,148.6 "/>
<polyline class="st2" points="27,148.6 27,170 174.3,170 "/>
<polyline class="st1" points="171.6,53.6 171.5,53.3 171.3,53.2 157.2,53.2 "/>
<polyline class="st1" points="157.2,53.2 157,53.3 156.9,53.6 "/>
<polyline class="st1" points="171.3,82.8 171.5,82.7 171.6,82.5 "/>
<line class="st1" x1="171.3" y1="82.8" x2="157.2" y2="82.8"/>
<polyline class="st1" points="171.6,127.4 171.6,85.2 149.3,85.2 "/>
<path class="st1" d="M171.1,123.6V120 M170.7,116.6v-3"/>
<line class="st1" x1="171.1" y1="116.7" x2="171.1" y2="113"/>
<path class="st1" d="M171.1,123.6h0.1 M171.1,123.8V120"/>
<rect x="139.5" y="85.2" class="st1" width="9.8" height="11.4"/>
<line class="st1" x1="165.9" y1="88" x2="160" y2="88"/>
<polyline class="st1" points="165.9,87.8 160,87.8 160,88 "/>
<path class="st1" d="M165.9,89.9L165.9,89.9 M165.9,89L165.9,89 M165.9,88v-0.2"/>
<line class="st1" x1="157.7" y1="90.3" x2="157.8" y2="90.3"/>
<polyline class="st1" points="157.7,90.3 157.5,90.2 157.4,90.2 "/>
<polyline class="st1" points="157.2,89.9 157.2,90 157.4,90.2 "/>
<path class="st1" d="M158.7,87.9h0.1 M158.9,87.5l-0.2,0.5 M159.1,87.6l-1.3,2.8 M158.5,87.4l-1.3,2.6"/>
<polyline class="st1" points="158.7,88 158.6,87.9 158.8,87.5 "/>
<polygon class="st1" points="159.3,87.3 159.1,87 158.9,86.9 158.8,87 158.7,87.3 158.8,87.5 159.1,87.5 "/>
<polyline class="st1" points="158.8,87.6 159.1,87.6 159.4,87.4 159.3,87 159,86.8 158.7,86.9 158.6,87.3 158.7,87.6 "/>
<polyline class="st1" points="158.9,87.6 159.1,87.5 159.3,87.3 159.3,87 159,86.9 158.7,87 158.7,87.5 "/>
<path class="st1" d="M165.9,95.7H160 M165.9,89.9H160 M165.9,89.8H160 M165.9,89H160 M165.9,88.8H160 M158.3,87.8l-0.6-0.2 M160,89
	L160,89 M160,90v-0.2"/>
<polyline class="st1" points="165.9,95.9 160,95.9 160,95.7 "/>
<path class="st1" d="M160,92v-0.2 M160,93v-0.2 M160,93.9L160,93.9 M160,95v-0.2 M160,91v-0.2 M165.9,95v-0.2 M165.9,93.9
	L165.9,93.9 M165.9,92.9L165.9,92.9 M165.9,92v-0.2 M165.9,91v-0.2 M165.9,95.9v-0.2"/>
<polyline class="st1" points="157.7,95.9 158.2,95.7 158.4,95.2 "/>
<path class="st1" d="M165.9,91.7H160 M165.9,92H160 M165.9,92.8H160 M165.9,91H160 M165.9,92.9H160 M165.9,90.8H160 M165.9,93.8H160
	 M165.9,93.9H160 M165.9,94.7H160 M165.9,95H160"/>
<polyline class="st1" points="158.9,96 166,96 166.4,95.9 166.6,95.4 166.6,87.4 166.4,86.9 165.9,86.7 158.9,86.7 "/>
<path class="st1" d="M166.8,96.4V86.2 M158.4,95.2V89"/>
<line class="st1" x1="157.6" y1="90.4" x2="157.8" y2="90.4"/>
<polyline class="st1" points="157.6,90.4 157.5,90.4 157.2,90.3 "/>
<line class="st1" x1="157.2" y1="90" x2="157.2" y2="90.3"/>
<polyline class="st1" points="152.2,87.6 151.6,87.9 151.4,88.5 "/>
<polygon class="st1" points="155.4,91.8 155.3,91.5 154.9,91.2 154.6,91.5 154.5,91.8 154.6,92.2 154.9,92.3 155.3,92.2 "/>
<line class="st1" x1="154" y1="93" x2="152.2" y2="95.1"/>
<polyline class="st1" points="151.4,95.2 151.6,95.7 152.2,95.9 "/>
<polygon class="st1" points="155.7,91.8 155.4,91.2 154.9,91 154.4,91.2 154.1,91.8 154.4,92.3 154.9,92.6 155.4,92.3 "/>
<path class="st1" d="M158.9,96h-7.1 M152.2,88.4l1.8,2.2 M151.4,88.4v6.8 M150.9,86.2v10.2"/>
<polyline class="st1" points="151.2,95.4 151.4,95.9 151.8,96 "/>
<line class="st1" x1="151.2" y1="95.4" x2="151.2" y2="87.4"/>
<polyline class="st1" points="151.8,86.7 151.5,86.9 151.2,87.4 "/>
<path class="st1" d="M152.2,95.9h5.5 M155.9,93l1.8,2 M157.7,87.6h-5.5 M157.7,88.4l-1.8,2.2 M150.9,96.3h16 M166.9,86.1h-16
	 M151.9,86.6h7.1"/>
<rect x="159.8" y="113" class="st1" width="1.1" height="10.8"/>
<rect x="160.8" y="113" class="st1" width="10.6" height="10.8"/>
<polygon class="st1" points="160.7,116.6 160.6,116.3 160.4,116.2 160,116.3 159.9,116.6 160,116.8 160.4,116.9 160.6,116.8 "/>
<polygon class="st1" points="160.7,121.8 160.6,121.6 160.4,121.5 160,121.6 159.9,121.8 160,122.2 160.4,122.3 160.6,122.2 "/>
<polygon class="st1" points="160.5,121.8 160.5,121.7 160.4,121.7 160.1,121.7 160.1,121.8 160.1,122 160.4,122.1 160.5,122 "/>
<polygon class="st1" points="160.7,118.4 160.6,118.1 160.4,118 160,118.1 159.9,118.4 160,118.6 160.4,118.7 160.6,118.6 "/>
<polygon class="st1" points="160.7,120.2 160.6,119.8 160.4,119.7 160,119.8 159.9,120.2 160,120.4 160.4,120.5 160.6,120.4 "/>
<polygon class="st1" points="160.5,120.2 160.5,119.9 160.4,119.9 160.1,119.9 160.1,120.2 160.1,120.3 160.4,120.3 160.5,120.3 "/>
<polygon class="st1" points="160.5,118.4 160.5,118.2 160.4,118.1 160.1,118.2 160.1,118.5 160.4,118.6 160.5,118.5 "/>
<polygon class="st1" points="160.7,114.8 160.6,114.5 160.4,114.4 160,114.5 159.9,114.8 160,115.1 160.4,115.2 160.6,115.1 "/>
<polygon class="st1" points="160.5,114.8 160.5,114.6 160.4,114.6 160.1,114.6 160.1,114.8 160.1,115 160.4,115 160.5,115 "/>
<polygon class="st1" points="160.5,116.6 160.5,116.4 160.4,116.4 160.1,116.4 160.1,116.6 160.1,116.7 160.4,116.8 160.5,116.7 "/>
<rect x="140.4" y="98.1" class="st1" width="2.3" height="0.1"/>
<line class="st1" x1="149.3" y1="97.1" x2="149.3" y2="97.6"/>
<polyline class="st1" points="148.8,98.1 149.2,98 149.3,97.6 "/>
<line class="st1" x1="148.8" y1="98.1" x2="139.9" y2="98.1"/>
<polyline class="st1" points="139.5,97.6 139.6,98 139.9,98.1 "/>
<polyline class="st1" points="139.5,97.6 139.5,97.1 149.3,97.1 "/>
<rect x="139.9" y="96.6" class="st1" width="8.9" height="0.5"/>
<path class="st1" d="M144.3,93v-4.3 M142.1,90.7h4.3 M142.6,89.2l3.5,3.2 M142.6,92.4l3.5-3.2"/>
<polyline class="st1" points="149.3,85.2 149.3,97.1 159.8,97.1 159.8,127.4 "/>
<polyline class="st1" points="161.1,124.7 161.1,112 170.8,112 170.8,112.8 "/>
<polyline class="st1" points="161.3,124.5 161.3,112.2 170.7,112.2 170.7,112.8 "/>
<polyline class="st1" points="161.3,124.5 170.7,124.5 170.7,123.9 "/>
<polyline class="st1" points="161.1,124.7 170.8,124.7 170.8,123.9 "/>
<polyline class="st1" points="162.9,123.9 162.9,112.8 163.2,113.1 163.2,123.6 162.9,123.9 171.3,123.9 "/>
<line class="st1" x1="162.9" y1="112.8" x2="169.2" y2="112.8"/>
<polyline class="st1" points="163.2,123.6 163.7,123 163.7,113.7 163.2,113.1 171.1,113.1 170.7,113.7 163.7,113.7 163.8,113.9 
	163.8,122.7 163.7,123 170.7,123 170.7,120 "/>
<polyline class="st1" points="165.8,119.7 166,120 166,116.7 165.8,116.9 "/>
<polyline class="st1" points="166,120 171.1,120 171.1,116.7 166,116.7 "/>
<polyline class="st1" points="170.7,123 171.1,123.6 163.2,123.6 "/>
<polyline class="st1" points="171.1,116.7 171.1,112.8 162.9,112.8 "/>
<polyline class="st1" points="171.1,123.8 171.1,123.9 171.6,123.9 171.6,112.8 171.1,112.8 171.1,123.9 "/>
<line class="st1" x1="159.8" y1="127.4" x2="171.6" y2="127.4"/>
<polyline class="st1" points="134.4,53.4 133.9,54.6 133.7,55.8 133.9,57 134.4,58.1 135.4,59.1 136.5,59.7 137.7,59.8 "/>
<polyline class="st1" points="137.7,59.4 137.1,59.3 136.4,59.1 135.8,58.8 135.3,58.4 134.8,57.9 134.6,57.3 134.3,56.7 134.2,56 
	134.2,55.2 "/>
<polyline class="st1" points="137.7,59.4 138.4,59.3 139,59.1 139.6,58.8 140.1,58.4 140.6,57.9 140.9,57.3 141,56.7 141.1,56 
	141.1,55.2 "/>
<polyline class="st1" points="140.9,53.4 140.7,53.3 140.9,53.9 "/>
<line class="st1" x1="137.9" y1="54.9" x2="140.7" y2="54.5"/>
<polyline class="st1" points="139.2,54.8 140.8,54.9 141.1,55.2 "/>
<polyline class="st1" points="140.7,54.5 140.9,54.3 140.9,53.9 "/>
<line class="st1" x1="138" y1="53.7" x2="137.9" y2="55.4"/>
<polyline class="st1" points="134.4,53.4 134.8,53.3 134.6,53.9 "/>
<polyline class="st1" points="137.9,53.6 137.4,53.6 137.6,53.6 "/>
<path class="st1" d="M137.6,55.5h0.2 M136.1,54.8l-1.4,0.1 M134.9,54.5l2.5,0.4 M137.4,53.6l-0.1,0.1"/>
<polyline class="st1" points="137.4,55.4 137.4,55.5 137.6,55.5 "/>
<path class="st1" d="M137.3,53.7l0.1,1.7 M134.7,54.9l-0.5,0.4"/>
<polyline class="st1" points="134.6,53.9 134.6,54.3 134.9,54.5 "/>
<line class="st1" x1="134.8" y1="53.3" x2="140.7" y2="53.3"/>
<polyline class="st1" points="137.4,55.2 137.1,55.6 137.1,56.1 137.4,56.4 137.9,56.3 138.3,56.1 138.3,55.6 137.9,55.2 "/>
<polyline class="st1" points="137.4,55.5 137.3,55.7 137.4,56.1 137.7,56.2 137.9,56.1 138,55.7 137.9,55.5 "/>
<line class="st1" x1="138" y1="53.7" x2="137.9" y2="53.6"/>
<polyline class="st1" points="137.8,55.5 137.9,55.5 137.9,55.4 "/>
<polyline class="st1" points="137.7,59.8 138.9,59.7 140.1,59.1 140.9,58.1 141.5,57 141.6,55.8 141.5,54.6 140.9,53.4 "/>
<line class="st3" x1="27.1" y1="53.2" x2="27.1" y2="140.7"/>
<line class="st3" x1="23.2" y1="53.2" x2="23.2" y2="140.7"/>
<line class="st3" x1="23.2" y1="49.2" x2="106.3" y2="49.2"/>
<line class="st3" x1="126.2" y1="49.2" x2="171.6" y2="49.2"/>
<line class="st2" x1="127.7" y1="60.6" x2="130.1" y2="60.6"/>
<line class="st2" x1="127.7" y1="76.4" x2="130.1" y2="76.4"/>
<line class="st2" x1="123.2" y1="82.8" x2="123.2" y2="85.2"/>
<line class="st2" x1="94.8" y1="60.6" x2="92.6" y2="60.6"/>
<polygon class="st4" points="105,85.2 105,82.8 94.8,82.8 94.8,78.9 92.6,78.9 92.6,140.7 94.8,140.7 94.8,85.2 "/>
<line class="st3" x1="126.2" y1="53.2" x2="126.2" y2="49.2"/>
<path class="st2" d="M79.8,146.2H50.2 M50.8,148.6h28.4 M79.8,140.7H50.2"/>
<polyline class="st2" points="50.2,145.2 79.8,145.2 78.4,145.2 78.4,146.2 79.8,146.2 79.8,145.2 "/>
<rect x="50.2" y="145.2" class="st2" width="1.4" height="1"/>
<rect x="64.2" y="145.2" class="st2" width="1.6" height="1"/>
<path class="st2" d="M149.3,146.2h-11.9 M149.3,145.2h-11.9 M149.3,140.6h-29.6 M148.7,148.6h-28.4 M138.9,146.2v-1 M137.4,148.5
	v-7.9 M147.9,146.1v-1"/>
<polygon class="st4" points="135.6,133.7 136.1,134.6 120.2,141.5 119.7,140.7 "/>
<polyline class="st2" points="137.4,140.7 137.3,138.5 136.8,136.5 136.1,134.6 "/>
<polygon class="st2" points="106.3,51.2 123.5,41.3 124,42 106.8,51.9 "/>
<polyline class="st2" points="126.2,51.2 125.9,47.8 124.9,44.4 123.5,41.3 "/>
<path class="st2" d="M126.2,51.2v2 M106.4,51.2v2"/>
<polygon class="st4" points="94.8,60.6 103.9,76.5 103.2,76.8 94.1,61.1 "/>
<polyline class="st2" points="94.8,78.9 98.1,78.6 101.1,77.8 103.9,76.5 "/>
<polyline class="st4" points="94.8,53.2 94.8,60.6 92.9,60.6 92.6,60.6 92.6,53.2 "/>
<polygon class="st4" points="128.1,60.6 120.3,74.2 121.1,74.7 128.9,61.1 "/>
<polyline class="st2" points="120.3,74.2 122.8,75.4 125.4,76.1 128.1,76.4 "/>
<polyline class="st4" points="127.7,53.2 127.7,60.6 128.1,60.6 130.1,60.6 130.1,53.2 "/>
<polygon class="st4" points="105,84.9 120.8,93.9 121.2,93.2 105.4,84 "/>
<polyline class="st2" points="120.8,93.9 122.1,91 122.9,88 123.2,84.9 "/>
<polyline class="st4" points="171.6,82.8 130.1,82.8 130.1,76.4 128.1,76.4 127.7,76.4 127.7,82.8 123.2,82.8 123.2,84.9 
	123.2,85.2 171.6,85.2 "/>
<rect x="174.3" y="148.6" class="st5" width="2.4" height="23.8"/>
<line class="st5" x1="154.5" y1="148.6" x2="179.4" y2="148.6"/>
<line class="st5" x1="179.2" y1="140.7" x2="178.9" y2="140.7"/>
<line class="st5" x1="106.3" y1="53.2" x2="106.3" y2="49.2"/>
<line class="st5" x1="50.8" y1="146.2" x2="23" y2="146.2"/>
<line class="st5" x1="50.8" y1="148.6" x2="23" y2="148.6"/>
<line class="st5" x1="120.3" y1="146.2" x2="79.2" y2="146.2"/>
<line class="st5" x1="120.3" y1="148.6" x2="79.2" y2="148.6"/>
<line class="st5" x1="179.4" y1="146.2" x2="148.7" y2="146.2"/>
<line class="st5" x1="179.4" y1="148.6" x2="148.7" y2="148.6"/>
<line class="st5" x1="50.2" y1="145.6" x2="23.4" y2="145.6"/>
<line class="st5" x1="50.2" y1="140.7" x2="23.4" y2="140.7"/>
<line class="st5" x1="119.7" y1="145.6" x2="79.8" y2="145.6"/>
<line class="st5" x1="119.7" y1="140.7" x2="79.8" y2="140.7"/>
<line class="st5" x1="178.9" y1="145.6" x2="149.3" y2="145.6"/>
<line class="st5" x1="171.6" y1="140.7" x2="149.3" y2="140.7"/>
<polyline class="st5" points="120.3,148.6 120.3,146.2 119.7,146.2 119.7,140.7 "/>
<polyline class="st5" points="148.7,148.6 148.7,146.2 149.3,146.2 149.3,140.7 "/>
<polyline class="st5" points="50.8,148.6 50.8,146.2 50.2,146.2 50.2,140.7 "/>
<polyline class="st5" points="79.2,148.6 79.2,146.2 79.8,146.2 79.8,140.7 "/>
<polyline class="st5" points="23,148.6 23,146.2 23.4,146.2 23.4,140.7 "/>
<path class="st5" d="M179.2,49.2h-7.6 M171.6,60v80.6 M171.6,49.2v5.5 M179.2,67.8v80.8 M179.2,49.2v13.2"/>
<polyline class="st5" points="179.2,62.4 176.7,62.4 176.7,67.8 179.2,67.8 "/>
<polyline class="st5" points="171.6,60 174.3,60 174.3,54.8 171.6,54.8 "/>
<line class="st3" x1="23.2" y1="49.2" x2="23.2" y2="53.2"/>
<line class="st3" x1="126.2" y1="53.2" x2="171.6" y2="53.2"/>
<line class="st3" x1="27.1" y1="53.2" x2="106.3" y2="53.2"/>
<path class="st6" d="M52.2,105.1h17.5c2.6,0,4.6,2.1,4.6,4.6v27.9c0,0.8-0.6,1.4-1.4,1.4h-24c-0.7,0-1.3-0.6-1.3-1.3l0,0v-28
	C47.6,107.2,49.6,105.2,52.2,105.1L52.2,105.1z"/>
<path class="st7" d="M50.4,131.3h7.9c0.6,0,1,0.5,1,1v4.7c0,0.6-0.5,1-1,1h-7.9c-0.6,0-1-0.5-1-1v-4.7
	C49.4,131.8,49.8,131.3,50.4,131.3z"/>
<path class="st7" d="M63.1,131.1H71c0.6,0,1,0.5,1,1v4.7c0,0.6-0.5,1-1,1h-7.9c-0.6,0-1-0.5-1-1v-4.7
	C62.1,131.6,62.6,131.1,63.1,131.1z"/>
<line class="st8" x1="47.6" y1="122.3" x2="74.4" y2="122.3"/>
<polygon class="st6" points="70.2,123.4 74.4,124.2 71.5,127.2 "/>
<line class="st8" x1="71.5" y1="127.2" x2="47.6" y2="127.2"/>
<rect x="50.6" y="54.8" class="st7" width="23.9" height="5.8"/>
<rect x="56" y="56" class="st7" width="14.3" height="3.8"/>
<rect x="52.9" y="57" class="st7" width="19.6" height="1.2"/>
<path class="st6" d="M134.4,105.6h2.3c0.2,0,0.4,0.2,0.4,0.4v6c0,0.1-0.1,0.2-0.2,0.2h-2.5c-1.4,0-2.5-1.1-2.5-2.6V108
	C131.8,106.8,132.9,105.6,134.4,105.6z"/>
<path class="st8" d="M134.4,105.6c-1.9,2.4-1.9,4.7,0,6.7"/>
<path class="st6" d="M134.2,113h2.3c0.2,0,0.4,0.2,0.4,0.4l0,0v6c0,0.1-0.1,0.2-0.2,0.2l0,0h-2.5c-1.4,0-2.5-1.1-2.6-2.6v-1.6
	C131.7,114.1,132.8,113,134.2,113z"/>
<path class="st8" d="M134.2,113c-1.9,2.4-1.9,4.6,0,6.7"/>
<path class="st6" d="M134.2,120.7h2.3c0.2,0,0.4,0.2,0.4,0.4l0,0v6c0,0.1-0.1,0.2-0.2,0.2l0,0h-2.5c-1.4,0-2.5-1.1-2.6-2.6v-1.6
	C131.6,121.8,132.8,120.7,134.2,120.7z"/>
<path class="st8" d="M134.2,120.7c-1.9,2.4-1.9,4.6,0,6.7"/>
<path class="st6" d="M150.8,105.9h-2.3c-0.2,0-0.4,0.2-0.4,0.4l0,0v6.1c0,0.1,0.1,0.2,0.2,0.2l0,0h2.5c1.4,0,2.5-1.1,2.6-2.6v-1.6
	C153.4,107.1,152.2,105.9,150.8,105.9z"/>
<path class="st8" d="M150.8,105.9c1.9,2.4,1.9,4.6,0,6.7"/>
<path class="st6" d="M150.9,113.3h-2.3c-0.2,0-0.4,0.2-0.4,0.4v6.1c0,0.1,0.1,0.2,0.2,0.2l0,0h2.6c1.4,0,2.5-1.1,2.6-2.6v-1.6
	C153.5,114.4,152.4,113.3,150.9,113.3L150.9,113.3z"/>
<path class="st8" d="M150.9,113.3c1.9,2.4,1.9,4.6,0,6.7"/>
<path class="st6" d="M151,120.9h-2.3c-0.2,0-0.4,0.2-0.4,0.4v6.1c0,0.1,0.1,0.2,0.2,0.2l0,0h2.5c1.4,0,2.5-1.1,2.6-2.6v-1.6
	C153.5,122.1,152.4,121,151,120.9z"/>
<path class="st8" d="M151,120.9c1.9,2.4,1.9,4.6,0,6.7"/>
<path class="st7" d="M137.8,103.8h10.1c1.2,0,2.2,1,2.2,2.2v20.9c0,1.2-1,2.2-2.2,2.2h-10.1c-1.2,0-2.2-1-2.2-2.2V106
	C135.6,104.8,136.6,103.8,137.8,103.8z"/>
<path class="st7" d="M99.5,101.8h8.8c1.9,0,3.5,1.6,3.5,3.5v30.3c0,1.9-1.6,3.5-3.5,3.5l0,0h-8.8c-1.9,0-3.5-1.5-3.5-3.4l0,0v-30.3
	C96,103.3,97.6,101.7,99.5,101.8C99.5,101.7,99.5,101.7,99.5,101.8z"/>
<path class="st7" d="M98.1,135.5h10.5c0.6,0,1.1,0.5,1.1,1.1v1.5c0,0.6-0.5,1.1-1.1,1.1H98.1c-0.6,0-1.1-0.5-1.1-1.1v-1.5
	C97,136,97.5,135.5,98.1,135.5z"/>
<path class="st7" d="M98.1,101.5h10.5c0.6,0,1.1,0.5,1.1,1.1v1.5c0,0.6-0.5,1.1-1.1,1.1H98.1c-0.6,0-1.1-0.5-1.1-1.1v-1.5
	C97.1,102,97.5,101.5,98.1,101.5z"/>
<path class="st7" d="M98.3,102h1.8c0.7,0,1.3,0.6,1.3,1.3v34.2c0,0.7-0.6,1.3-1.3,1.3h-1.8c-0.7,0-1.3-0.6-1.3-1.3v-34.2
	C97,102.6,97.6,102,98.3,102z"/>
<path class="st7" d="M98.4,104.6h1.5c0.6,0,1.1,0.5,1.1,1.1v29.5c0,0.6-0.5,1.1-1.1,1.1h-1.5c-0.6,0-1.1-0.5-1.1-1.1v-29.5
	C97.3,105.1,97.8,104.6,98.4,104.6z"/>
<line class="st8" x1="111.9" y1="120.4" x2="101.3" y2="120.4"/>
<path class="st7" d="M98.6,88.9h9.3c0.5,0,0.9,0.4,0.9,0.9v9.1c0,0.5-0.4,0.9-0.9,0.9h-9.3c-0.5,0-0.9-0.4-0.9-0.9v-9.1
	C97.7,89.3,98.1,88.9,98.6,88.9z"/>
<path class="st7" d="M35.6,128h9.3c0.5,0,0.9,0.4,0.9,0.9v9.1c0,0.5-0.4,0.9-0.9,0.9h-9.3c-0.5,0-0.9-0.4-0.9-0.9v-9.1
	C34.7,128.4,35.1,128,35.6,128z"/>
<path class="st8" d="M109,54.5h11.1c2.1,0,3.8,1.7,3.8,3.8v6.4c0,2.1-1.7,3.8-3.8,3.8H109c-2.1,0-3.8-1.7-3.8-3.8v-6.4
	C105.3,56.2,106.9,54.5,109,54.5z"/>
<path class="st8" d="M109.5,55.1h10c1.9,0,3.4,1.5,3.4,3.4v5.8c0,1.9-1.5,3.4-3.4,3.4h-10c-1.9,0-3.4-1.5-3.4-3.4v-5.8
	C106.1,56.7,107.6,55.1,109.5,55.1z"/>
<path class="st8" d="M116.9,62.6c0.7-0.2,1.1-1.5,0.7-2.9s-1.2-2.4-2-2.2s-1.1,1.5-0.7,2.9S116.1,62.7,116.9,62.6z"/>
<path class="st8" d="M117.6,59.5c-0.6,1.3-1.5,1.5-2.7,0.7"/>
<path class="st8" d="M112.1,65.1c0.7,0.3,1.7-0.6,2.2-2s0.3-2.7-0.4-3s-1.7,0.6-2.2,2S111.4,64.8,112.1,65.1z"/>
<path class="st8" d="M114.4,62.9c-1.2,0.7-2.1,0.4-2.6-1"/>
<rect x="30.4" y="87.6" transform="matrix(9.758817e-02 -0.9952 0.9952 9.758817e-02 -54.6901 115.6374)" class="st9" width="12" height="0.7"/>
<rect x="40" y="65.7" transform="matrix(0.3611 -0.9325 0.9325 0.3611 -41.1404 83.4424)" class="st9" width="0.7" height="12"/>
<rect x="29.6" y="67.5" class="st7" width="6.4" height="27.1"/>
<path class="st10" d="M59.1,66.2h9.6c4,0,7.2,3.2,7.2,7.2v18.1c0,4-3.2,7.2-7.2,7.2h-9.6c-4,0-7.2-3.2-7.2-7.2v-18
	C51.9,69.5,55.1,66.2,59.1,66.2z"/>
<text transform="matrix(1 0 0 1 56.1405 74.6998)" class="st11 st12 st13">14,7</text>
<text transform="matrix(1 0 0 1 56.1403 95.2118)" class="st11 st12 st13">31,3</text>
<text transform="matrix(1 0 0 1 55.1669 85.2003)" class="st14 st12 st15">33,8</text>
<text transform="matrix(1 0 0 1 75.59 137.29)" class="st16 st12 st13" style="text-decoration: underline;">14,7</text>
<text transform="matrix(1 0 0 1 106.78 78.8799)" class="st16 st12 st13" style="text-decoration: underline;">2,6</text>
<text transform="matrix(1 0 0 1 143.21 78.8799)" class="st16 st12 st13" style="text-decoration: underline;">3,2</text>
<text transform="matrix(1 0 0 1 152.2698 137.29)" class="st16 st12 st13" style="text-decoration: underline;">10,8</text>
<text transform="matrix(1 0 0 1 79.49 161.8899)" class="st16 st12 st13" style="text-decoration: underline;">8,4х0,3=2,5</text>
</svg>
