<?xml version="1.0" encoding="utf-8"?>
<!-- Generator: Adobe Illustrator 25.0.0, SVG Export Plug-In . SVG Version: 6.00 Build 0)  -->
<svg version="1.1" id="Слой_1" xmlns="http://www.w3.org/2000/svg" xmlns:xlink="http://www.w3.org/1999/xlink" x="0px" y="0px"
	 viewBox="0 0 200 200" style="enable-background:new 0 0 200 200;" xml:space="preserve">
<style type="text/css">
	.st0{fill:#A3C98F;}
	.st1{fill:none;stroke:#666666;stroke-width:0.2;stroke-linecap:round;stroke-linejoin:round;}
	.st2{fill:none;stroke:#333333;stroke-width:0.4;stroke-linecap:round;stroke-linejoin:round;}
	.st3{fill:#FFFFFF;stroke:#333333;stroke-width:0.4;stroke-linecap:round;stroke-linejoin:round;}
	.st4{fill:none;stroke:#333333;stroke-width:0.8;stroke-linecap:round;stroke-linejoin:round;}
	.st5{fill:none;stroke:#333333;stroke-width:0.6;stroke-linecap:round;stroke-linejoin:round;}
	.st6{fill:none;stroke:#666666;stroke-width:0.2;stroke-miterlimit:22.93;}
	.st7{fill:#A3C98F;stroke:#666666;stroke-width:0.2;stroke-miterlimit:22.93;}
	.st8{fill:#666666;}
	.st9{font-family:'ArialMT';}
	.st10{font-size:8px;}
	.st11{fill:#FFFFFF;}
	.st12{fill:#1A1A18;}
	.st13{fill:#E43622;}
	.st14{font-size:9px;}
</style>
<rect x="59" y="49.5" class="st0" width="76.5" height="119.2"/>
<rect x="70.5" y="20.5" class="st0" width="60.6" height="21.2"/>
<path class="st1" d="M131.8,159.4h2.8c0.3,0,0.5,0.2,0.5,0.5v7.5c0,0.3-0.2,0.5-0.5,0.5h-2.8c-0.3,0-0.5-0.2-0.5-0.5v-7.5
	C131.3,159.6,131.5,159.4,131.8,159.4z"/>
<ellipse class="st1" cx="125.8" cy="163.7" rx="3.1" ry="2.7"/>
<ellipse class="st1" cx="125.8" cy="163.7" rx="3.1" ry="2.7"/>
<path class="st1" d="M125.8,167c-1.8,0.3-3.5-1-3.8-2.8s1-3.5,2.8-3.8c0.3-0.1,0.7-0.1,1,0c1.2,0,2.4,0.3,3.6,0.8
	c0.9,0.6,0.5,1.5,0.5,2.5s0.4,1.9-0.4,2.5C128.4,166.7,127.1,167,125.8,167z"/>
<path class="st1" d="M131.3,161c-0.6,0.2-1.3,0.3-1.9,0.2"/>
<path class="st1" d="M131.3,166.5c-0.6-0.2-1.3-0.3-1.9-0.2"/>
<circle class="st1" cx="127.5" cy="163.7" r="0.8"/>
<circle class="st1" cx="127.5" cy="163.7" r="0.4"/>
<path class="st1" d="M133.8,136.9c0,0,0.4,2.3,0.4,3.1s-0.4,3.1-0.4,3.1"/>
<path class="st1" d="M133.8,143.1c-0.1,0.2-0.1,0.5-0.2,0.7c-0.2,0.2-0.4,0.3-0.6,0.5l-0.7,0.1"/>
<path class="st1" d="M133.7,133.2c0,0,0.7,2,0.8,2.6c0.2,0.9,0.3,1.8,0.4,2.8c0.1,0.9,0.1,1.8,0,2.8c-0.1,0.9-0.2,1.8-0.4,2.8
	c-0.1,0.7-0.8,2.8-0.8,2.8"/>
<path class="st1" d="M132.3,135.6l0.7,0.1c0.2,0.1,0.4,0.3,0.6,0.5c0.1,0.2,0.2,0.5,0.2,0.7"/>
<path class="st1" d="M113.3,146.9l-1.8-0.6c0,0-1.2-0.9-1.6-1.2c-0.4-0.4-0.8-0.9-1.2-1.4c-0.3-0.6-0.5-1.2-0.7-1.8
	c-0.1-0.6-0.2-1.2-0.2-1.8s0.1-1.3,0.2-1.9c0.2-0.6,0.4-1.1,0.7-1.7c0.3-0.6,0.7-1.1,1.2-1.6c0.5-0.4,1-0.8,1.6-1.1l1.8-0.6"/>
<path class="st1" d="M113.3,133.2h20.4 M107.2,132.6h28.9 M119.6,144.5h12.7 M133.7,146.9h-20.4 M107.2,147.5h28.9"/>
<path class="st1" d="M119.6,144.5c-0.5,0-1-0.1-1.4-0.2c-0.4-0.2-0.8-0.4-1.2-0.7c-0.4-0.3-0.8-0.7-1.1-1.1
	c-0.6-0.8-0.8-1.8-0.7-2.8c0.1-0.5,0.2-1,0.4-1.4c0.1-0.3,0.2-0.5,0.4-0.7c0.3-0.4,0.7-0.7,1.1-1s0.8-0.5,1.2-0.7
	c0.5-0.1,1-0.2,1.4-0.2h12.7"/>
<path class="st1" d="M111.8,133.7c0,0,0.9,1.4,1.1,1.9c0.3,0.7,0.5,1.4,0.7,2.2c0.2,1.5,0.2,3,0,4.4c-0.2,0.7-0.4,1.5-0.7,2.2
	c-0.2,0.5-1.1,2-1.1,2"/>
<circle class="st1" cx="131.9" cy="139.8" r="0.8"/>
<circle class="st1" cx="131.9" cy="139.8" r="0.4"/>
<line class="st1" x1="107.2" y1="147.5" x2="107.2" y2="132.6"/>
<polyline class="st1" points="144,121.9 144,125.5 143.9,125.6 "/>
<line class="st1" x1="143.4" y1="168.7" x2="143.4" y2="113.3"/>
<polyline class="st2" points="133.9,41.6 133.9,17.9 68.5,17.9 68.5,41.6 "/>
<polyline class="st2" points="131.5,41.6 131.5,20.3 70.9,20.3 70.9,41.6 "/>
<path class="st2" d="M123.9,44H112 M123.9,45H112 M123.9,49.6H94.3 M123.3,41.6H94.9 M113.6,44v1 M112.1,41.6v7.9 M122.5,44v1"/>
<polygon class="st3" points="110.3,56.5 110.7,55.7 94.8,48.7 94.3,49.5 "/>
<polyline class="st2" points="112.2,49.5 111.9,51.7 111.5,53.7 110.7,55.7 "/>
<polygon class="st2" points="97.4,172.7 80.3,182.6 79.9,181.8 97.1,171.9 "/>
<polyline class="st2" points="77.6,172.7 78,176.1 78.8,179.4 80.3,182.6 "/>
<path class="st2" d="M77.6,172.7v-1.9 M97.4,172.7v-1.9"/>
<polyline class="st1" points="135.5,147.6 135.7,147.5 135.8,147.1 135.8,133.1 "/>
<polyline class="st1" points="135.8,133.1 135.7,132.8 135.5,132.7 "/>
<polyline class="st1" points="135.3,167 135.6,167 135.7,166.9 135.8,166.8 135.8,166.5 "/>
<polyline class="st1" points="135.6,149.4 134.5,148.8 133.2,148.7 132,148.9 130.9,149.4 130.1,150.3 129.5,151.4 129.2,152.6 "/>
<polyline class="st1" points="129.7,152.6 129.7,152 129.9,151.3 130.3,150.7 130.7,150.2 131.3,149.7 131.7,149.5 132.5,149.3 
	133.1,149.1 133.8,149.1 "/>
<polyline class="st1" points="129.7,152.6 129.7,153.3 129.9,153.9 130.3,154.5 130.7,155 131.3,155.5 131.7,155.9 132.5,156 
	133.1,156.1 133.8,156.1 "/>
<polyline class="st1" points="135.6,155.9 135.8,155.6 135.1,155.9 "/>
<line class="st1" x1="134.3" y1="152.9" x2="134.6" y2="155.6"/>
<polyline class="st1" points="134.4,154.2 134.3,155.7 133.8,156.1 "/>
<polyline class="st1" points="134.6,155.6 134.7,155.9 135.1,155.9 "/>
<line class="st1" x1="135.3" y1="153" x2="133.7" y2="152.9"/>
<polyline class="st1" points="135.6,149.4 135.8,149.7 135.1,149.5 "/>
<polyline class="st1" points="135.5,152.9 135.5,152.4 135.5,152.5 "/>
<path class="st1" d="M133.5,152.5v0.2 M134.4,151.1l-0.1-1.4 M134.5,149.7l-0.2,2.6 M135.5,152.4l-0.1-0.1"/>
<polyline class="st1" points="133.7,152.4 133.5,152.4 133.5,152.5 "/>
<path class="st1" d="M135.3,152.3l-1.7,0.1 M134.3,149.6l-0.5-0.5"/>
<polyline class="st1" points="135.1,149.5 134.7,149.5 134.5,149.7 "/>
<line class="st1" x1="135.8" y1="149.7" x2="135.8" y2="155.6"/>
<polyline class="st1" points="133.9,152.4 133.5,152 133.1,152 132.7,152.4 132.7,152.9 133.1,153.2 133.5,153.2 133.9,152.9 "/>
<polyline class="st1" points="133.5,152.4 133.3,152.3 133.1,152.4 132.9,152.6 133.1,152.9 133.3,153 133.5,152.9 "/>
<line class="st1" x1="135.3" y1="153" x2="135.5" y2="152.9"/>
<polyline class="st1" points="133.5,152.7 133.5,152.9 133.7,152.9 "/>
<polyline class="st1" points="129.2,152.6 129.5,153.8 130.1,155 130.9,155.9 132,156.5 133.2,156.6 134.5,156.5 135.6,155.9 "/>
<path class="st2" d="M99.8,163.8h2.4 M99.8,148.2h2.4"/>
<polyline class="st1" points="135.8,88.2 135.8,130.3 113.5,130.3 "/>
<rect x="103.5" y="118.9" class="st1" width="10" height="11.4"/>
<line class="st1" x1="130.1" y1="127.5" x2="124.2" y2="127.5"/>
<polyline class="st1" points="130.1,127.8 124.2,127.8 124.2,127.5 "/>
<path class="st1" d="M130.1,125.6L130.1,125.6 M130.1,126.6L130.1,126.6 M130.1,127.5v0.2"/>
<line class="st1" x1="121.9" y1="125.3" x2="122" y2="125.3"/>
<polyline class="st1" points="121.9,125.3 121.7,125.4 121.5,125.4 "/>
<polyline class="st1" points="121.4,125.6 121.4,125.5 121.5,125.4 "/>
<path class="st1" d="M122.9,127.7L122.9,127.7 M123.1,128l-0.2-0.5 M123.4,127.9l-1.4-2.8 M122.8,128.1l-1.3-2.6"/>
<polyline class="st1" points="122.9,127.5 122.7,127.7 122.9,128 "/>
<polygon class="st1" points="123.5,128.3 123.3,128.5 123.1,128.6 122.9,128.5 122.9,128 123.1,127.9 123.3,128 "/>
<polyline class="st1" points="123,127.9 123.3,127.9 123.6,128.1 123.5,128.5 123.1,128.7 122.9,128.6 122.7,128.3 122.9,127.9 "/>
<polyline class="st1" points="123.1,127.9 123.3,128 123.5,128.3 123.3,128.5 123.1,128.6 122.9,128.5 122.7,128.3 122.9,128 "/>
<path class="st1" d="M130.1,119.9h-5.9 M130.1,125.6h-5.9 M130.1,125.7h-5.9 M130.1,126.6h-5.9 M130.1,126.7h-5.9 M122.5,127.7
	l-0.6,0.2 M124.2,126.6L124.2,126.6 M124.2,125.7L124.2,125.7"/>
<polyline class="st1" points="130.1,119.6 124.2,119.6 124.2,119.9 "/>
<path class="st1" d="M124.2,123.6v0.2 M124.2,122.6L124.2,122.6 M124.2,121.7L124.2,121.7 M124.2,120.6v0.2 M124.2,124.5v0.2
	 M130.1,120.6v0.2 M130.1,121.7L130.1,121.7 M130.1,122.6L130.1,122.6 M130.1,123.6v0.2 M130.1,124.5v0.2 M130.1,119.6v0.2"/>
<polyline class="st1" points="121.9,119.6 122.4,119.9 122.6,120.3 "/>
<path class="st1" d="M130.1,123.8h-5.9 M130.1,123.6h-5.9 M130.1,122.7h-5.9 M130.1,124.5h-5.9 M130.1,122.6h-5.9 M130.1,124.8h-5.9
	 M130.1,121.8h-5.9 M130.1,121.7h-5.9 M130.1,120.8h-5.9 M130.1,120.6h-5.9"/>
<polyline class="st1" points="123.1,119.5 130.2,119.5 130.5,119.6 130.8,120.1 130.8,128.1 130.5,128.6 130.1,128.9 123.1,128.9 
	"/>
<path class="st1" d="M131,119.1v10.2 M122.6,120.3v6.2"/>
<line class="st1" x1="121.8" y1="125.1" x2="121.9" y2="125.1"/>
<polyline class="st1" points="121.8,125.1 121.7,125.1 121.4,125.3 "/>
<polyline class="st1" points="121.4,125.5 121.3,125.4 121.4,125.3 "/>
<polyline class="st1" points="116.4,127.9 115.8,127.7 115.5,127.1 "/>
<polygon class="st1" points="119.6,123.7 119.5,124.1 119.1,124.3 118.8,124.1 118.7,123.7 118.8,123.3 119.1,123.2 119.5,123.3 "/>
<line class="st1" x1="118.1" y1="122.5" x2="116.4" y2="120.5"/>
<polyline class="st1" points="115.5,120.3 115.8,119.9 116.4,119.6 "/>
<polygon class="st1" points="119.9,123.7 119.6,124.3 119.1,124.5 118.5,124.3 118.3,123.7 118.5,123.2 119.1,123 119.6,123.2 "/>
<path class="st1" d="M123.1,119.5H116 M116.4,127.1l1.7-2.2 M115.5,127.1v-6.7 M115,129.3v-10.2"/>
<polyline class="st1" points="115.4,120.1 115.5,119.6 116,119.5 "/>
<line class="st1" x1="115.4" y1="120.1" x2="115.4" y2="128.1"/>
<polyline class="st1" points="116,128.9 115.5,128.6 115.4,128.1 "/>
<path class="st1" d="M116.4,119.6h5.5 M120.1,122.5l1.8-2 M121.9,127.9h-5.5 M121.9,127.1l-1.8-2.2 M115.1,119.2h16 M131.1,129.4
	h-16 M116.1,128.9h7.1"/>
<rect x="123.9" y="91.8" class="st1" width="1.1" height="10.8"/>
<rect x="125" y="91.8" class="st1" width="10.6" height="10.8"/>
<polygon class="st1" points="124.9,99 124.8,99.2 124.4,99.3 124.2,99.2 124.1,99 124.2,98.6 124.8,98.6 "/>
<polygon class="st1" points="124.9,93.7 124.8,93.9 124.4,94.1 124.2,93.9 124.1,93.7 124.2,93.3 124.4,93.2 124.8,93.3 "/>
<polygon class="st1" points="124.7,93.7 124.7,93.8 124.4,93.8 124.3,93.8 124.3,93.7 124.3,93.4 124.4,93.4 124.7,93.4 "/>
<polygon class="st1" points="124.9,97.2 124.8,97.4 124.4,97.5 124.2,97.4 124.1,97.2 124.2,96.9 124.4,96.8 124.8,96.9 "/>
<polygon class="st1" points="124.9,95.4 124.8,95.7 124.4,95.9 124.2,95.7 124.1,95.4 124.2,95.1 124.4,95 124.8,95.1 "/>
<polygon class="st1" points="124.7,95.4 124.7,95.6 124.4,95.6 124.3,95.6 124.3,95.4 124.3,95.3 124.4,95.3 124.7,95.3 "/>
<polygon class="st1" points="124.7,97.2 124.7,97.3 124.4,97.4 124.3,97.3 124.3,97.1 124.4,96.9 124.7,97.1 "/>
<polygon class="st1" points="124.9,100.8 124.8,101 124.4,101.1 124.2,101 124.1,100.8 124.2,100.4 124.4,100.3 124.8,100.4 "/>
<polygon class="st1" points="124.7,100.8 124.7,100.9 124.4,100.9 124.3,100.9 124.3,100.8 124.3,100.5 124.4,100.5 124.7,100.5 "/>
<polygon class="st1" points="124.7,99 124.7,99.1 124.4,99.1 124.3,99.1 124.3,99 124.3,98.9 124.4,98.7 124.7,98.9 "/>
<rect x="104.6" y="117.3" class="st1" width="2.3" height="0.1"/>
<line class="st1" x1="113.5" y1="118.4" x2="113.5" y2="117.9"/>
<polyline class="st1" points="113,117.4 113.4,117.6 113.5,117.9 "/>
<line class="st1" x1="113" y1="117.5" x2="104.1" y2="117.5"/>
<polyline class="st1" points="103.5,117.9 103.8,117.6 104.1,117.4 "/>
<polyline class="st1" points="103.5,117.9 103.5,118.4 113.5,118.4 "/>
<rect x="104.1" y="118.4" class="st1" width="8.9" height="0.5"/>
<path class="st1" d="M108.5,122.5v4.3 M106.3,124.8h4.3 M106.8,126.4l3.4-3.2 M106.8,123.1l3.4,3.2"/>
<polyline class="st1" points="113.5,130.3 113.5,118.4 123.9,118.4 123.9,88.2 "/>
<polyline class="st1" points="125.3,90.8 125.3,103.5 135,103.5 135,102.7 "/>
<polyline class="st1" points="125.4,91.1 125.4,103.3 134.9,103.3 134.9,102.7 "/>
<polyline class="st1" points="125.4,91.1 134.9,91.1 134.9,91.7 "/>
<polyline class="st1" points="125.3,90.8 135,90.8 135,91.7 "/>
<polyline class="st1" points="127.1,91.7 127.1,102.7 127.4,102.4 127.4,91.9 127.1,91.7 135.5,91.7 "/>
<line class="st1" x1="127.1" y1="102.7" x2="133.4" y2="102.7"/>
<polyline class="st1" points="127.4,91.9 127.9,92.5 127.9,101.9 127.4,102.4 135.3,102.4 134.9,101.9 127.9,101.9 128,101.6 
	128,92.9 127.9,92.5 134.9,92.5 134.9,95.5 "/>
<polyline class="st1" points="129.9,95.9 130.2,95.5 130.2,98.9 129.9,98.6 "/>
<polyline class="st1" points="130.2,95.5 135.3,95.5 135.3,98.9 130.2,98.9 "/>
<polyline class="st1" points="134.9,92.5 135.3,91.9 127.4,91.9 "/>
<path class="st1" d="M135.3,91.9v3.6 M134.9,98.9v3"/>
<line class="st1" x1="135.3" y1="98.9" x2="135.3" y2="102.6"/>
<path class="st1" d="M135.3,91.9h0.1 M135.3,91.8v3.7"/>
<polyline class="st1" points="135.3,98.9 135.3,102.7 127.1,102.7 "/>
<polyline class="st1" points="135.3,91.8 135.3,91.7 135.8,91.7 135.8,102.7 135.3,102.7 135.3,91.7 "/>
<line class="st1" x1="123.9" y1="88.2" x2="135.8" y2="88.2"/>
<line class="st2" x1="74.3" y1="140.4" x2="74.3" y2="138"/>
<line class="st2" x1="92.5" y1="140.4" x2="92.5" y2="138"/>
<polygon class="st3" points="92.5,138 76.8,129 76.3,129.7 92,138.8 "/>
<polyline class="st2" points="74.3,138 74.6,134.9 75.3,131.9 76.8,129 "/>
<polyline class="st3" points="59,138 74.3,138 74.3,140 74.3,140.4 59,140.4 "/>
<polygon class="st3" points="100.2,163.8 92.4,150.2 93.1,149.7 101,163.3 "/>
<polyline class="st2" points="100.2,148.2 97.5,148.4 94.9,149 92.4,150.2 "/>
<line class="st2" x1="100.2" y1="148.2" x2="102.2" y2="148.2"/>
<line class="st4" x1="77.6" y1="176.3" x2="55.1" y2="176.3"/>
<line class="st4" x1="135.8" y1="176.3" x2="97.4" y2="176.3"/>
<line class="st4" x1="77.6" y1="168.7" x2="55.1" y2="168.7"/>
<line class="st4" x1="143.4" y1="176.3" x2="135.8" y2="176.3"/>
<path class="st4" d="M97.4,176.3v-7.6 M77.6,176.3v-7.6"/>
<polyline class="st4" points="135.8,161 138.5,161 138.5,166.3 135.8,166.3 "/>
<line class="st4" x1="140.9" y1="60.5" x2="140.9" y2="44.6"/>
<line class="st4" x1="141.3" y1="59.9" x2="141.3" y2="44"/>
<line class="st4" x1="143.7" y1="57.5" x2="143.7" y2="41.6"/>
<line class="st4" x1="135.8" y1="65.4" x2="135.8" y2="49.5"/>
<path class="st4" d="M94.9,44H55.1 M94.9,41.6H55.1 M141.3,44h-18 M143.7,41.6h-20.4 M94.3,44.6H55.1 M94.3,49.5H55.1 M140.9,44.6
	H124 M135.8,49.5h-11.9"/>
<polyline class="st4" points="123.3,41.6 123.3,44 123.9,44 123.9,49.5 "/>
<polyline class="st4" points="94.9,41.6 94.9,44 94.3,44 94.3,49.5 "/>
<line class="st4" x1="144" y1="59.9" x2="141.3" y2="59.9"/>
<line class="st4" x1="143.7" y1="59.9" x2="143.7" y2="57.5"/>
<line class="st4" x1="144" y1="60.5" x2="140.9" y2="60.5"/>
<line class="st4" x1="143.4" y1="60.5" x2="143.4" y2="65.4"/>
<polyline class="st3" points="102.2,168.7 102.2,163.8 100.2,163.8 99.8,163.8 99.8,168.7 "/>
<polygon class="st3" points="99.8,148.2 99.8,140.4 92.5,140.4 92.5,140 92.5,138 99.8,138 99.8,117.4 102.2,117.4 102.2,130.3 
	135.8,130.3 135.8,132.7 102.2,132.7 102.2,148.2 "/>
<line class="st4" x1="143.4" y1="168.7" x2="143.4" y2="176.3"/>
<line class="st4" x1="143.4" y1="65.4" x2="143.4" y2="168.7"/>
<line class="st4" x1="135.8" y1="176.3" x2="135.8" y2="176.3"/>
<line class="st4" x1="135.8" y1="166.3" x2="135.8" y2="168.7"/>
<line class="st4" x1="135.8" y1="65.4" x2="135.8" y2="161"/>
<path class="st5" d="M59,49.5v119.2 M55,41.6v134.6"/>
<line class="st4" x1="135.8" y1="168.7" x2="97.4" y2="168.7"/>
<path class="st6" d="M77.4,153.1h11.1c2.1,0,3.8,1.7,3.8,3.8v6.4c0,2.1-1.7,3.8-3.8,3.8H77.4c-2.1,0-3.8-1.7-3.8-3.8v-6.4
	C73.6,154.8,75.3,153.1,77.4,153.1z"/>
<path class="st6" d="M77.9,153.8h10c1.9,0,3.4,1.5,3.4,3.4v5.8c0,1.9-1.5,3.4-3.4,3.4h-10c-1.9,0-3.4-1.5-3.4-3.4v-5.8
	C74.5,155.3,76,153.8,77.9,153.8z"/>
<path class="st6" d="M85.2,158.9c0.7,0.2,1.1,1.5,0.7,2.9s-1.2,2.4-2,2.2s-1.1-1.5-0.7-2.9S84.5,158.8,85.2,158.9z"/>
<path class="st6" d="M85.9,162c-0.6-1.3-1.5-1.5-2.7-0.7"/>
<path class="st6" d="M80.5,156.4c0.7-0.3,1.7,0.6,2.2,2s0.3,2.7-0.4,2.9s-1.7-0.6-2.2-2S79.8,156.7,80.5,156.4z"/>
<path class="st6" d="M82.8,158.6c-1.2-0.7-2.1-0.4-2.6,1"/>
<path class="st7" d="M64.9,54.7h8.8c1.9,0,3.5,1.6,3.5,3.5v30.4c0,1.9-1.6,3.5-3.5,3.5l0,0h-8.8c-1.9,0-3.5-1.6-3.5-3.5V58.2
	C61.4,56.2,63,54.7,64.9,54.7L64.9,54.7L64.9,54.7z"/>
<path class="st7" d="M63.5,54.6H74c0.6,0,1.1,0.5,1.1,1.1v1.5c0,0.6-0.5,1.1-1.1,1.1H63.5c-0.6,0-1.1-0.5-1.1-1.1v-1.5
	C62.4,55.1,62.9,54.6,63.5,54.6z"/>
<path class="st7" d="M63.5,88.6H74c0.6,0,1.1,0.5,1.1,1.1v1.5c0,0.6-0.5,1.1-1.1,1.1H63.5c-0.6,0-1.1-0.5-1.1-1.1v-1.5
	C62.5,89.1,62.9,88.6,63.5,88.6z"/>
<path class="st7" d="M63.7,54.9h1.8c0.7,0,1.3,0.6,1.3,1.3v34.2c0,0.7-0.6,1.3-1.3,1.3h-1.8c-0.7,0-1.3-0.6-1.3-1.3V56.2
	C62.4,55.5,63,54.9,63.7,54.9z"/>
<path class="st7" d="M63.8,57.5h1.5c0.6,0,1.1,0.5,1.1,1.1v29.5c0,0.6-0.5,1.1-1.1,1.1h-1.5c-0.6,0-1.1-0.5-1.1-1.1V58.6
	C62.7,58,63.2,57.5,63.8,57.5z"/>
<line class="st6" x1="77.2" y1="73.3" x2="66.7" y2="73.3"/>
<text transform="matrix(1 0 0 1 106.89 165.1001)" class="st8 st9 st10" style="text-decoration: underline;">3,4</text>
<text transform="matrix(1 0 0 1 61.6603 150.0637)" class="st8 st9 st10" style="text-decoration: underline;">3,3</text>
<text transform="matrix(1 0 0 1 65.7499 117.4364)" class="st8 st9 st10" style="text-decoration: underline;">16,6</text>
<rect x="123.9" y="56.1" class="st7" width="5.8" height="23.9"/>
<rect x="125.1" y="60.3" class="st7" width="3.8" height="14.3"/>
<rect x="126.2" y="58.1" class="st7" width="1.2" height="19.6"/>
<path class="st11" d="M92.5,76.6h9.6c4,0,7.2,3.2,7.2,7.2V102c0,4-3.2,7.2-7.2,7.2h-9.6c-4,0-7.2-3.2-7.2-7.2V83.9
	C85.3,79.9,88.5,76.6,92.5,76.6z"/>
<text transform="matrix(1 0 0 1 90.04 84.54)" class="st12 st9 st10">16,6</text>
<text transform="matrix(1 0 0 1 89.24 95.3401)" class="st13 st9 st14">24,3</text>
<text transform="matrix(1 0 0 1 90.17 104.9399)" class="st12 st9 st10">23,3</text>
<text transform="matrix(1 0 0 1 82.13 32.8)" class="st8 st9 st10" style="text-decoration: underline;">3,4х0,3=1,0</text>
</svg>
