<?xml version="1.0" encoding="utf-8"?>
<!-- Generator: Adobe Illustrator 25.0.0, SVG Export Plug-In . SVG Version: 6.00 Build 0)  -->
<svg version="1.1" id="Слой_1" xmlns="http://www.w3.org/2000/svg" xmlns:xlink="http://www.w3.org/1999/xlink" x="0px" y="0px"
	 viewBox="0 0 200 200" style="enable-background:new 0 0 200 200;" xml:space="preserve">
<style type="text/css">
	.st0{fill:#FFF18D;}
	.st1{fill-rule:evenodd;clip-rule:evenodd;fill:#FFF18D;}
	.st2{fill:none;stroke:#666666;stroke-width:0.2;stroke-linecap:round;stroke-linejoin:round;}
	.st3{fill:none;stroke:#333333;stroke-width:0.4;stroke-linecap:round;stroke-linejoin:round;}
	.st4{fill:#FFFFFF;stroke:#333333;stroke-width:0.4;stroke-linecap:round;stroke-linejoin:round;}
	.st5{fill:none;stroke:#333333;stroke-width:0.6;stroke-linecap:round;stroke-linejoin:round;}
	.st6{fill:none;stroke:#333333;stroke-width:0.8;stroke-linecap:round;stroke-linejoin:round;}
	.st7{fill:none;stroke:#666666;stroke-width:0.2;stroke-miterlimit:22.93;}
	.st8{fill:#FFF18D;stroke:#666666;stroke-width:0.2;stroke-miterlimit:22.93;}
	.st9{fill-rule:evenodd;clip-rule:evenodd;fill:#FFF18D;stroke:#666666;stroke-width:0.2;stroke-miterlimit:22.93;}
	.st10{fill:#FFF18D;stroke:#666666;stroke-width:0.201;stroke-miterlimit:23.0427;}
	.st11{fill:#FFF18D;stroke:#666666;stroke-width:0.2;stroke-miterlimit:22.9288;}
	.st12{fill:#666666;}
	.st13{font-family:'ArialMT';}
	.st14{font-size:8px;}
	.st15{fill:#FFFFFF;}
	.st16{fill:#1A1A18;}
	.st17{fill:#E43622;}
	.st18{font-size:9px;}
</style>
<rect x="81.2" y="56.2" class="st0" width="54.9" height="61.5"/>
<polygon class="st1" points="81,159.8 136.1,159.8 136.1,149.5 143.5,149.5 143.5,159.8 182.8,159.8 182.8,115.9 143.5,115.9 
	143.5,133.6 136.1,133.6 136.2,115.9 81,115.9 81,134.2 77.9,134.2 77.9,152.3 81,152.3 "/>
<rect x="26.7" y="56.4" class="st0" width="52" height="103.3"/>
<rect x="27.6" y="27.2" class="st0" width="52.8" height="21.5"/>
<path class="st2" d="M149.9,116.1h7.5c0.3,0,0.5,0.2,0.5,0.5v2.8c0,0.3-0.2,0.5-0.5,0.5h-7.5c-0.3,0-0.5-0.2-0.5-0.5v-2.8
	C149.4,116.3,149.6,116.1,149.9,116.1z"/>
<ellipse class="st2" cx="153.7" cy="125.4" rx="2.7" ry="3.1"/>
<ellipse class="st2" cx="153.7" cy="125.4" rx="2.7" ry="3.1"/>
<path class="st2" d="M157,125.4c0.3,1.8-1,3.5-2.8,3.8s-3.5-1-3.8-2.8c-0.1-0.3-0.1-0.7,0-1c0-1.2,0.3-2.4,0.8-3.6
	c0.6-0.8,1.5-0.5,2.5-0.5s1.9-0.4,2.5,0.4C156.7,122.8,157,124.1,157,125.4z"/>
<path class="st2" d="M151,119.9c0.2,0.6,0.3,1.3,0.2,1.9"/>
<path class="st2" d="M156.5,119.9c-0.2,0.6-0.3,1.3-0.2,1.9"/>
<circle class="st2" cx="153.7" cy="123.7" r="0.8"/>
<circle class="st2" cx="153.7" cy="123.7" r="0.4"/>
<path class="st2" d="M171.8,118.3c0,0,2.3-0.4,3.1-0.4s3.1,0.4,3.1,0.4"/>
<path class="st2" d="M178,118.3c0.2,0.1,0.5,0.1,0.7,0.2c0.2,0.2,0.3,0.4,0.5,0.6l0.1,0.7"/>
<path class="st2" d="M168.1,118.4c0,0,2-0.7,2.6-0.8c0.9-0.2,1.8-0.3,2.8-0.4c0.9-0.1,1.8-0.1,2.8,0c0.9,0.1,1.8,0.2,2.8,0.4
	c0.7,0.2,2.8,0.8,2.8,0.8"/>
<path class="st2" d="M170.5,119.9l0.1-0.7c0.1-0.2,0.3-0.4,0.5-0.6c0.2-0.1,0.5-0.2,0.7-0.2"/>
<path class="st2" d="M181.8,138.8l-0.6,1.8c0,0-0.9,1.2-1.2,1.6c-0.9,1-2,1.6-3.2,1.9c-0.6,0.1-1.2,0.2-1.8,0.2s-1.3-0.1-1.9-0.2
	c-0.6-0.2-1.1-0.4-1.7-0.7c-0.6-0.3-1.1-0.7-1.6-1.2c-0.4-0.5-0.8-1-1.1-1.6l-0.6-1.8"/>
<path class="st2" d="M168.1,138.8v-20.4 M167.5,145v-29 M179.4,132.6v-12.7 M181.8,118.4v20.4 M182.4,145v-29"/>
<path class="st2" d="M179.4,132.6c0,0.5-0.1,1-0.2,1.4c-0.2,0.4-0.4,0.8-0.7,1.2s-0.7,0.8-1.1,1.1c-0.8,0.6-1.8,0.8-2.8,0.7
	c-0.5-0.1-1-0.2-1.4-0.4c-0.3-0.1-0.5-0.2-0.7-0.4c-0.4-0.3-0.7-0.7-1-1.1c-0.3-0.4-0.5-0.8-0.7-1.2c-0.1-0.5-0.2-1-0.2-1.4v-12.7"
	/>
<path class="st2" d="M168.6,140.4c0,0,1.4-0.9,1.9-1.1c0.7-0.3,1.4-0.5,2.2-0.7c0.8-0.1,1.5-0.1,2.3-0.1c0.7,0,1.4,0,2.2,0.1
	c0.7,0.2,1.5,0.4,2.2,0.7c0.5,0.2,2,1.1,2,1.1"/>
<circle class="st2" cx="174.7" cy="120.2" r="0.8"/>
<circle class="st2" cx="174.7" cy="120.2" r="0.4"/>
<line class="st2" x1="182.4" y1="145" x2="167.5" y2="145"/>
<polyline class="st2" points="28,113 28,116.6 27.9,116.7 "/>
<path class="st2" d="M27.9,106H28 M27.9,105.9v3.7"/>
<polyline class="st2" points="27.9,105.9 27.9,105.8 27.4,105.8 27.4,116.8 27.9,116.8 27.9,105.8 "/>
<line class="st2" x1="30.1" y1="147.9" x2="30.1" y2="142"/>
<polyline class="st2" points="29.9,147.9 29.9,142 30.1,142 "/>
<path class="st2" d="M32.2,147.9H32 M31.1,147.9L31.1,147.9 M30.2,147.9H30"/>
<line class="st2" x1="32.4" y1="139.7" x2="32.4" y2="139.9"/>
<polyline class="st2" points="32.4,139.7 32.4,139.5 32.3,139.4 "/>
<polyline class="st2" points="32,139.3 32.2,139.3 32.3,139.4 "/>
<path class="st2" d="M29.8,140.9l0.4-0.1 M29.8,141.2l2.8-1.3 M29.5,140.6l2.8-1.3"/>
<line class="st2" x1="30.1" y1="140.7" x2="30.1" y2="140.6"/>
<path class="st2" d="M30,140.6l-0.4,0.2 M30,140.7h0.1"/>
<polygon class="st2" points="29.4,141.3 29.2,141.2 29.2,140.8 29.4,140.7 29.6,140.8 29.8,141.1 29.6,141.2 "/>
<polyline class="st2" points="29.9,140.9 29.8,141.3 29.5,141.4 29.2,141.3 28.9,141.1 29.2,140.7 29.4,140.6 29.8,140.7 "/>
<polyline class="st2" points="29.8,140.9 29.6,141.2 29.4,141.3 29.2,141.3 29,141.1 29.2,140.8 29.4,140.7 29.6,140.8 "/>
<path class="st2" d="M37.8,147.9V142 M32.2,147.9V142 M31.9,147.9V142 M31.1,147.9V142 M31,147.9V142 M30,140.3l-0.1-0.6 M31.1,142
	L31.1,142 M32.2,142H32"/>
<polyline class="st2" points="38,147.9 38,142 37.8,142 "/>
<path class="st2" d="M34.1,142h-0.2 M35,142L35,142 M36.1,142h-0.2 M37.1,142h-0.2 M33.1,142h-0.2 M37.1,147.9h-0.2 M36.1,147.9
	h-0.2 M35,147.9L35,147.9 M34.1,147.9h-0.2 M33.1,147.9h-0.2 M38,147.9h-0.2"/>
<polyline class="st2" points="38,139.7 37.9,140.2 37.3,140.5 "/>
<path class="st2" d="M33.8,147.9V142 M34.1,147.9V142 M34.9,147.9V142 M33.1,147.9V142 M35,147.9V142 M32.9,147.9V142 M35.9,147.9
	V142 M36.1,147.9V142 M36.9,147.9V142 M37.1,147.9V142"/>
<polyline class="st2" points="38.2,140.9 38.2,148 38,148.4 37.6,148.6 29.5,148.6 29,148.4 28.8,147.9 28.8,140.9 "/>
<path class="st2" d="M38.5,149H28.3 M37.3,140.5h-6.2"/>
<line class="st2" x1="32.5" y1="139.6" x2="32.5" y2="139.9"/>
<polyline class="st2" points="32.5,139.6 32.5,139.5 32.4,139.3 "/>
<line class="st2" x1="32.3" y1="139.3" x2="32.4" y2="139.3"/>
<polyline class="st2" points="29.9,134.2 30,133.6 30.6,133.4 "/>
<polygon class="st2" points="34,137.5 33.6,137.3 33.5,137 33.6,136.6 34,136.5 34.3,136.6 34.5,137 34.3,137.3 "/>
<line class="st2" x1="35.2" y1="136" x2="37.2" y2="134.2"/>
<polyline class="st2" points="37.3,133.4 37.8,133.6 38,134.2 "/>
<polygon class="st2" points="34,137.8 33.4,137.6 33.1,137 33.4,136.4 34,136.1 34.5,136.4 34.7,137 34.5,137.6 "/>
<path class="st2" d="M38.2,140.9v-7.1 M30.6,134.2l2.2,1.8 M30.6,133.4h6.7 M28.3,132.9h10.2"/>
<polyline class="st2" points="37.6,133.3 38,133.5 38.2,133.9 "/>
<line class="st2" x1="37.6" y1="133.3" x2="29.5" y2="133.3"/>
<polyline class="st2" points="28.8,133.9 29,133.5 29.5,133.3 "/>
<path class="st2" d="M38,134.2v5.5 M35.2,137.9l2,1.8 M29.8,139.7v-5.5 M30.6,139.7l2.2-1.8 M38.5,132.9V149 M28.3,149v-16.1
	 M28.8,133.9v7.1"/>
<rect x="38.3" y="105.9" class="st2" width="1" height="10.8"/>
<rect x="27.6" y="105.9" class="st2" width="10.7" height="10.8"/>
<polygon class="st2" points="38.8,112.7 39,112.7 39.1,113.1 39,113.3 38.8,113.5 38.4,113.3 38.4,112.7 "/>
<polygon class="st2" points="38.8,107.3 39,107.5 39.1,107.8 39,108.1 38.8,108.2 38.4,108.1 38.4,107.5 "/>
<polygon class="st2" points="38.8,107.6 38.9,107.6 38.9,107.8 38.9,107.9 38.8,107.9 38.7,107.9 38.5,107.8 38.7,107.6 "/>
<polygon class="st2" points="38.8,110.9 39,111.1 39.1,111.3 39,111.5 38.8,111.7 38.4,111.5 38.4,111.1 "/>
<polygon class="st2" points="38.8,109.1 39,109.3 39.1,109.5 39,109.9 38.8,110 38.4,109.9 38.4,109.3 "/>
<polygon class="st2" points="38.8,109.4 38.9,109.4 38.9,109.5 38.9,109.7 38.8,109.7 38.7,109.7 38.5,109.5 38.7,109.4 "/>
<polygon class="st2" points="38.8,111.1 38.9,111.2 38.9,111.4 38.8,111.5 38.7,111.4 38.5,111.3 38.7,111.2 "/>
<polygon class="st2" points="38.8,114.4 39,114.5 39.1,114.9 39,115.1 38.8,115.3 38.4,115.1 38.4,114.5 "/>
<polygon class="st2" points="38.8,114.7 38.9,114.7 38.9,114.9 38.9,115 38.8,115 38.7,115 38.5,114.9 38.7,114.7 "/>
<polygon class="st2" points="38.8,112.9 38.9,113 38.9,113.2 38.8,113.2 38.7,113.2 38.5,113.1 38.7,113 "/>
<polyline class="st2" points="38,104.9 38,117.7 28.2,117.7 28.2,116.8 "/>
<polyline class="st2" points="37.8,105.2 37.8,117.4 28.5,117.4 28.5,116.8 "/>
<polyline class="st2" points="37.8,105.2 28.5,105.2 28.5,105.8 "/>
<polyline class="st2" points="38,104.9 28.2,104.9 28.2,105.8 "/>
<polyline class="st2" points="36.1,105.8 36.1,116.8 35.9,116.6 35.9,106 36.1,105.8 27.9,105.8 "/>
<line class="st2" x1="36.1" y1="116.8" x2="29.8" y2="116.8"/>
<polyline class="st2" points="35.9,106 35.4,106.6 35.4,116 35.9,116.6 28,116.6 28.5,116 35.4,116 35.3,115.7 35.3,107 35.4,106.6 
	28.5,106.6 28.5,109.6 "/>
<polyline class="st2" points="33.2,109.9 33,109.6 33,113 33.2,112.7 "/>
<polyline class="st2" points="33,109.6 27.9,109.6 27.9,113 33,113 "/>
<polyline class="st2" points="28.5,106.6 28,106 35.9,106 "/>
<path class="st2" d="M28,106v3.6 M28.5,113v3"/>
<polyline class="st2" points="27.9,113 27.9,116.8 36.1,116.8 "/>
<rect x="51.1" y="148.4" class="st2" width="9.8" height="11.4"/>
<rect x="57.7" y="146.8" class="st2" width="2.3" height="0.1"/>
<polygon class="st2" points="51.1,147.9 51.1,147.4 51.2,147.1 51.6,146.9 60.5,146.9 60.8,147.1 61,147.4 61,147.9 "/>
<rect x="51.6" y="147.9" class="st2" width="8.9" height="0.5"/>
<path class="st2" d="M56.2,152v4.3 M58.3,154.2H54 M57.8,155.8l-3.5-3.2 M57.8,152.6l-3.5,3.2"/>
<polyline class="st2" points="51.1,159.8 51.1,147.9 51.1,159.8 27.4,159.8 27.4,104.3 "/>
<polyline class="st2" points="51.1,147.9 39.2,147.9 39.2,104.3 27.4,104.3 "/>
<line class="st3" x1="139.2" y1="149.5" x2="141.1" y2="149.5"/>
<polyline class="st3" points="141.1,133.6 139.2,133.6 131.3,147.4 "/>
<polyline class="st4" points="139.2,133.6 140.1,134.2 132.1,147.9 131.3,147.4 "/>
<polyline class="st3" points="132.1,147.9 134.4,148.7 136.8,149.3 139.2,149.5 "/>
<line class="st3" x1="78.8" y1="152.2" x2="78.8" y2="159.8"/>
<line class="st3" x1="81.2" y1="152.2" x2="81.2" y2="159.8"/>
<polyline class="st3" points="82.9,48.5 82.9,24.8 25.3,24.8 25.3,32.7 "/>
<polyline class="st3" points="80.4,48.5 80.4,27.2 27.7,27.2 27.7,32.7 "/>
<line class="st5" x1="186.5" y1="108.3" x2="186.5" y2="167.3"/>
<line class="st5" x1="182.5" y1="115.9" x2="182.5" y2="159.8"/>
<path class="st3" d="M37.2,50.9h11.9 M37.2,51.9h11.9 M37.2,56.5H67 M37.8,48.5h28.6 M47.7,50.9v1 M49.1,48.6v7.9 M38.8,50.9v1"/>
<polygon class="st4" points="51,63.4 50.5,62.6 66.5,55.6 67,56.5 "/>
<polyline class="st3" points="49.1,56.5 49.2,58.6 49.7,60.7 50.5,62.6 "/>
<path class="st3" d="M93.8,50.9h29.8 M123,48.5H94.4 M93.8,56.5h29.8"/>
<polyline class="st3" points="123.6,51.9 93.8,51.9 95.4,51.9 95.4,50.9 93.8,50.9 93.8,51.9 "/>
<rect x="122.1" y="50.9" class="st3" width="1.6" height="1"/>
<rect x="108" y="50.9" class="st3" width="1.4" height="1"/>
<polygon class="st3" points="116.7,167.3 99.5,177.2 99,176.5 116.2,166.6 "/>
<polyline class="st3" points="99.5,177.2 98.1,174.1 97.1,170.7 96.8,167.3 "/>
<path class="st3" d="M96.8,167.3v-2 M116.6,167.3v-2"/>
<polygon class="st4" points="93.8,129.7 109.7,120.7 110.1,121.4 94.3,130.5 "/>
<polyline class="st3" points="112.1,129.7 111.8,126.5 111,123.5 109.7,120.7 "/>
<polyline class="st4" points="136.1,129.7 112.1,129.7 112.1,131.7 112.1,132.1 136.1,132.1 "/>
<polygon class="st4" points="79,152.2 70,136.5 70.7,136 79.8,151.9 "/>
<polyline class="st3" points="70,136.5 72.8,135.2 75.8,134.3 79,134.1 "/>
<polyline class="st4" points="78.8,56.5 78.8,134.1 79,134.1 81,134.1 81.2,134.1 81.2,132.1 93.8,132.1 93.8,131.7 93.8,129.7 
	81.2,129.7 81.2,56.5 "/>
<line class="st3" x1="79" y1="152.2" x2="81" y2="152.2"/>
<polyline class="st2" points="19.5,138.7 19.7,138.5 19.8,138.2 19.8,124.1 "/>
<polyline class="st2" points="19.8,124.1 19.7,123.9 19.5,123.8 "/>
<polyline class="st2" points="19.3,158.1 19.6,158.1 19.7,158 19.8,157.9 19.8,157.6 "/>
<polyline class="st2" points="19.5,143.9 19.5,143.5 19.5,143.6 "/>
<line class="st2" x1="19.8" y1="140.8" x2="19.8" y2="146.7"/>
<line class="st2" x1="19.3" y1="144.1" x2="19.5" y2="143.9"/>
<polyline class="st2" points="186.9,115.9 186.6,116 186.5,116.2 "/>
<polyline class="st2" points="167.6,116.2 167.8,116 168.1,115.9 182.2,115.9 "/>
<polyline class="st2" points="182.2,115.9 182.4,116 182.5,116.2 "/>
<polyline class="st2" points="161.2,159.4 161.8,158.2 161.9,157 161.8,155.8 161.2,154.7 160.3,153.8 159.2,153.3 157.9,153.1 "/>
<polyline class="st2" points="157.9,153.4 158.6,153.5 159.2,153.8 159.9,154 160.4,154.5 160.8,155 161.2,155.6 161.4,156.3 
	161.4,157.6 "/>
<polyline class="st2" points="157.9,153.4 157.3,153.5 156.6,153.8 156.1,154 155.5,154.5 155.2,155 154.8,155.6 154.6,156.3 
	154.4,156.9 154.6,157.6 "/>
<polyline class="st2" points="154.7,159.4 154.9,159.5 154.7,158.9 "/>
<line class="st2" x1="157.7" y1="158" x2="155.1" y2="158.3"/>
<polyline class="st2" points="156.5,158.1 154.9,158 154.6,157.6 "/>
<polyline class="st2" points="155.1,158.3 154.7,158.6 154.7,158.9 "/>
<line class="st2" x1="157.7" y1="159.2" x2="157.7" y2="157.5"/>
<polyline class="st2" points="161.2,159.4 160.9,159.5 161.2,158.9 "/>
<polyline class="st2" points="157.8,159.3 158.3,159.3 158.3,159.2 "/>
<path class="st2" d="M158.1,157.4H158 M159.5,158.1l1.6-0.1 M160.8,158.3l-2.5-0.4"/>
<polyline class="st2" points="158.2,157.5 158.2,157.4 158.1,157.4 "/>
<path class="st2" d="M158.3,159.2l-0.1-1.7 M161.1,158l0.4-0.4"/>
<polyline class="st2" points="161.2,158.9 161.1,158.6 160.8,158.3 "/>
<line class="st2" x1="160.9" y1="159.5" x2="154.9" y2="159.5"/>
<polyline class="st2" points="158.3,157.6 158.5,157.3 158.5,156.8 158.2,156.5 157.7,156.5 157.3,156.8 157.3,157.4 157.7,157.6 
	"/>
<polyline class="st2" points="158.2,157.4 158.3,157.1 158.3,156.8 157.9,156.8 157.7,156.9 157.6,157.1 157.8,157.4 "/>
<polyline class="st2" points="157.7,159.2 157.7,159.3 157.8,159.3 "/>
<polyline class="st2" points="157.9,157.4 157.8,157.4 157.7,157.5 "/>
<polyline class="st2" points="157.9,153.1 156.7,153.3 155.6,153.8 154.8,154.7 154.2,155.8 154,157 154.2,158.2 154.7,159.4 "/>
<line class="st6" x1="27.4" y1="167.3" x2="19.8" y2="167.3"/>
<polyline class="st6" points="19.8,152.1 22.5,152.1 22.5,157.4 19.8,157.4 "/>
<line class="st6" x1="24.9" y1="51.5" x2="24.9" y2="35.7"/>
<line class="st6" x1="25.3" y1="50.9" x2="25.3" y2="35.1"/>
<line class="st6" x1="27.7" y1="48.5" x2="27.7" y2="32.7"/>
<line class="st6" x1="19.8" y1="56.5" x2="19.8" y2="40.6"/>
<line class="st6" x1="25.3" y1="35.1" x2="19.8" y2="35.1"/>
<line class="st6" x1="27.7" y1="32.7" x2="19.8" y2="32.7"/>
<line class="st6" x1="24.9" y1="35.7" x2="19.8" y2="35.7"/>
<line class="st6" x1="19.8" y1="32.7" x2="19.8" y2="40.6"/>
<line class="st6" x1="143.5" y1="51.5" x2="123.6" y2="51.5"/>
<line class="st6" x1="143.5" y1="149.5" x2="143.5" y2="159.8"/>
<line class="st6" x1="143.5" y1="115.9" x2="143.5" y2="133.6"/>
<line class="st6" x1="143.5" y1="48.5" x2="143.5" y2="108.3"/>
<line class="st6" x1="136.1" y1="149.5" x2="136.1" y2="159.8"/>
<line class="st6" x1="136.1" y1="56.5" x2="136.1" y2="133.6"/>
<line class="st6" x1="96.8" y1="167.3" x2="27.4" y2="167.3"/>
<line class="st6" x1="186.5" y1="167.3" x2="116.7" y2="167.3"/>
<line class="st6" x1="96.8" y1="159.8" x2="27.4" y2="159.8"/>
<line class="st6" x1="136.1" y1="159.8" x2="116.7" y2="159.8"/>
<line class="st6" x1="186.5" y1="159.8" x2="143.5" y2="159.8"/>
<path class="st6" d="M136.1,133.6h7.4 M136.1,149.5h7.4 M116.7,167.3v-7.6 M96.9,167.3v-7.6"/>
<path class="st6" d="M37.8,50.9H25.3 M37.8,48.5H27.7 M94.4,50.9h-28 M94.5,48.5H66.4 M143.9,50.9H123 M143.5,48.5H123 M143.5,48.5
	l-106.3,3H24.9 M37.2,56.5h-9.8 M93.9,51.5H67 M93.9,56.5H67 M136.1,56.5h-12.5"/>
<polyline class="st6" points="123,48.5 123,50.9 123.6,50.9 123.6,56.5 "/>
<polyline class="st6" points="94.4,48.5 94.4,50.9 93.8,50.9 93.8,56.5 "/>
<polyline class="st6" points="66.4,48.5 66.4,50.9 67,50.9 67,56.5 "/>
<polyline class="st6" points="37.8,48.5 37.8,50.9 37.2,50.9 37.2,56.5 "/>
<line class="st6" x1="186.5" y1="115.9" x2="156.4" y2="115.9"/>
<line class="st6" x1="186.5" y1="108.3" x2="143.5" y2="108.3"/>
<polyline class="st6" points="143.5,115.9 151.1,115.9 151.1,113.3 156.4,113.3 156.4,115.9 "/>
<line class="st6" x1="27.4" y1="167.3" x2="27.4" y2="167.3"/>
<line class="st6" x1="27.4" y1="56.5" x2="27.4" y2="159.8"/>
<line class="st6" x1="19.8" y1="159.8" x2="19.8" y2="167.3"/>
<line class="st6" x1="19.8" y1="157.4" x2="19.8" y2="159.8"/>
<line class="st6" x1="19.8" y1="56.5" x2="19.8" y2="152.1"/>
<path class="st7" d="M101.3,144.2h11.1c2.1,0,3.8,1.7,3.8,3.8v6.4c0,2.1-1.7,3.8-3.8,3.8h-11.1c-2.1,0-3.8-1.7-3.8-3.8V148
	C97.6,145.9,99.2,144.2,101.3,144.2z"/>
<path class="st7" d="M101.8,144.8h10c1.9,0,3.4,1.5,3.4,3.4v5.8c0,1.9-1.5,3.4-3.4,3.4h-10c-1.9,0-3.4-1.5-3.4-3.4v-5.8
	C98.4,146.4,99.9,144.8,101.8,144.8z"/>
<path class="st7" d="M109.2,150c0.7,0.2,1.1,1.5,0.7,2.9s-1.2,2.4-2,2.2s-1.1-1.5-0.7-2.9S108.4,149.8,109.2,150z"/>
<path class="st7" d="M109.8,153.1c-0.6-1.3-1.5-1.5-2.7-0.7"/>
<path class="st7" d="M104.4,147.5c0.7-0.3,1.7,0.6,2.2,2s0.3,2.7-0.4,2.9s-1.7-0.6-2.2-2S103.7,147.8,104.4,147.5z"/>
<path class="st7" d="M106.7,149.6c-1.2-0.7-2.1-0.4-2.6,1"/>
<path class="st8" d="M65.7,68.5h8.8c1.9,0,3.5,1.6,3.5,3.5c0,0,0,0,0,0.1v30.3c0,1.9-1.6,3.5-3.5,3.5h-8.8c-1.9,0-3.5-1.6-3.5-3.5
	V72C62.2,70.1,63.8,68.5,65.7,68.5L65.7,68.5z"/>
<path class="st8" d="M65.5,68.4H76c0.6,0,1.1,0.5,1.1,1.1V71c0,0.6-0.5,1.1-1.1,1.1H65.5c-0.6,0-1.1-0.5-1.1-1.1v-1.5
	C64.4,68.9,64.9,68.4,65.5,68.4z"/>
<path class="st8" d="M65.4,102.4H76c0.6,0,1.1,0.5,1.1,1.1v1.5c0,0.6-0.5,1.1-1.1,1.1H65.4c-0.6,0-1.1-0.5-1.1-1.1v-1.5
	C64.4,102.9,64.8,102.4,65.4,102.4z"/>
<path class="st8" d="M74.1,68.7h1.8c0.7,0,1.3,0.6,1.3,1.3v34.3c0,0.7-0.6,1.3-1.3,1.3h-1.8c-0.7,0-1.3-0.6-1.3-1.3V70
	C72.8,69.3,73.4,68.7,74.1,68.7z"/>
<path class="st8" d="M74.2,71.3h1.5c0.6,0,1.1,0.5,1.1,1.1v29.5c0,0.6-0.5,1.1-1.1,1.1h-1.5c-0.6,0-1.1-0.5-1.1-1.1V72.4
	C73.1,71.8,73.6,71.3,74.2,71.3z"/>
<line class="st7" x1="62.2" y1="87.1" x2="72.8" y2="87.1"/>
<path class="st9" d="M49.1,76h2.3c0.2,0,0.4,0.2,0.4,0.4l0,0v6.1c0,0.1-0.1,0.2-0.2,0.2l0,0H49c-1.4,0-2.5-1.1-2.5-2.6l0,0v-1.5
	C46.5,77.2,47.7,76,49.1,76L49.1,76z"/>
<path class="st7" d="M49.1,76c-1.9,2.4-1.9,4.7,0,6.7"/>
<path class="st9" d="M49,83.4h2.3c0.2,0,0.4,0.2,0.4,0.4v6.1c0,0.1-0.1,0.2-0.2,0.2l0,0H49c-1.4,0-2.5-1.1-2.5-2.5V86
	C46.4,84.6,47.5,83.4,49,83.4L49,83.4z"/>
<path class="st7" d="M49,83.4c-1.9,2.4-1.9,4.6,0,6.7"/>
<path class="st9" d="M48.9,91.1h2.3c0.2,0,0.4,0.2,0.4,0.4v6.1c0,0.1-0.1,0.2-0.2,0.2l0,0h-2.5c-1.4,0-2.5-1.1-2.5-2.5l0,0v-1.6
	C46.3,92.2,47.5,91.1,48.9,91.1z"/>
<path class="st7" d="M48.9,91.1c-1.9,2.4-1.9,4.6,0,6.7"/>
<path class="st8" d="M52.5,74.2h10.1c1.2,0,2.2,1,2.2,2.2v20.9c0,1.2-1,2.2-2.2,2.2H52.5c-1.2,0-2.2-1-2.2-2.2V76.4
	C50.3,75.1,51.3,74.2,52.5,74.2z"/>
<rect x="30.2" y="73.7" class="st8" width="5.8" height="23.9"/>
<rect x="31.5" y="77.9" class="st8" width="3.8" height="14.3"/>
<rect x="32.5" y="75.7" class="st8" width="1.2" height="19.6"/>
<rect x="84.7" y="118.9" transform="matrix(9.951104e-02 -0.995 0.995 9.951104e-02 -37.0212 197.6635)" class="st10" width="12" height="0.7"/>
<rect x="93.4" y="97.3" transform="matrix(0.3611 -0.9325 0.9325 0.3611 -36.4127 153.459)" class="st11" width="0.7" height="12"/>
<rect x="83.1" y="99" class="st8" width="6.4" height="27.1"/>
<text transform="matrix(1 0 0 1 117.2898 126.1799)" class="st12 st13 st14" style="text-decoration: underline;">11,0</text>
<text transform="matrix(1 0 0 1 50.2851 129.621)" class="st12 st13 st14" style="text-decoration: underline;">14,4</text>
<text transform="matrix(1 0 0 1 119.9698 156.6299)" class="st12 st13 st14" style="text-decoration: underline;">4,7</text>
<text transform="matrix(1 0 0 1 167.3698 156.6299)" class="st12 st13 st14" style="text-decoration: underline;">4,9</text>
<path class="st15" d="M103.9,67.8h9.6c4,0,7.2,3.2,7.2,7.2v18.1c0,4-3.2,7.2-7.2,7.2h-9.6c-4,0-7.2-3.2-7.2-7.2v-18
	C96.7,71.1,99.9,67.8,103.9,67.8z"/>
<text transform="matrix(1 0 0 1 101.5 75.74)" class="st16 st13 st14">11,0</text>
<text transform="matrix(1 0 0 1 100.53 86.54)" class="st17 st13 st18">35,9</text>
<text transform="matrix(1 0 0 1 101.47 96.1399)" class="st16 st13 st14">35,0</text>
<text transform="matrix(1 0 0 1 33.22 39.78)" class="st12 st13 st14" style="text-decoration: underline;">2,9х0,3=0,9</text>
</svg>
