<?xml version="1.0" encoding="utf-8"?>
<!-- Generator: Adobe Illustrator 25.0.0, SVG Export Plug-In . SVG Version: 6.00 Build 0)  -->
<svg version="1.1" id="Слой_1" xmlns="http://www.w3.org/2000/svg" xmlns:xlink="http://www.w3.org/1999/xlink" x="0px" y="0px"
	 viewBox="0 0 200 200" style="enable-background:new 0 0 200 200;" xml:space="preserve">
<style type="text/css">
	.st0{fill:#A3C98F;}
	.st1{fill-rule:evenodd;clip-rule:evenodd;fill:#A3C98F;}
	.st2{fill:none;stroke:#666666;stroke-width:0.2;stroke-linecap:round;stroke-linejoin:round;}
	.st3{fill:none;stroke:#333333;stroke-width:0.4;stroke-linecap:round;stroke-linejoin:round;}
	.st4{fill:#FFFFFF;stroke:#333333;stroke-width:0.4;stroke-linecap:round;stroke-linejoin:round;}
	.st5{fill:none;stroke:#333333;stroke-width:0.6;stroke-linecap:round;stroke-linejoin:round;}
	.st6{fill:none;stroke:#333333;stroke-width:0.8;stroke-linecap:round;stroke-linejoin:round;}
	.st7{fill-rule:evenodd;clip-rule:evenodd;fill:#A3C98F;stroke:#666666;stroke-width:0.2;stroke-miterlimit:22.93;}
	.st8{fill:#A3C98F;stroke:#666666;stroke-width:0.2;stroke-miterlimit:22.93;}
	.st9{fill:none;stroke:#666666;stroke-width:0.2;stroke-miterlimit:22.93;}
	.st10{fill:#A3C98F;stroke:#666666;stroke-width:0.2;stroke-miterlimit:22.9288;}
	.st11{fill:#666666;}
	.st12{font-family:'ArialMT';}
	.st13{font-size:8px;}
	.st14{fill:#FFFFFF;}
	.st15{fill:#1A1A18;}
	.st16{fill:#E43622;}
	.st17{font-size:9px;}
</style>
<rect x="48.3" y="19.4" class="st0" width="119.4" height="108.2"/>
<polygon class="st1" points="167.9,186.2 64.3,186.2 64.3,135.2 144.3,135.2 144.3,122.8 162.8,122.8 162.8,135.2 167.9,135.2 "/>
<rect x="19.2" y="20.8" class="st0" width="21.2" height="60.5"/>
<rect x="35" y="135.5" class="st0" width="21.2" height="45.6"/>
<path class="st2" d="M149.9,19.6h7.5c0.3,0,0.5,0.2,0.5,0.5V23c0,0.3-0.2,0.5-0.5,0.5h-7.5c-0.3,0-0.5-0.2-0.5-0.5v-2.8
	C149.4,19.8,149.6,19.6,149.9,19.6z"/>
<ellipse class="st2" cx="153.6" cy="28.9" rx="2.7" ry="3.1"/>
<ellipse class="st2" cx="153.6" cy="28.9" rx="2.7" ry="3.1"/>
<path class="st2" d="M156.9,28.9c0.3,1.8-1,3.5-2.8,3.8s-3.5-1-3.8-2.8c-0.1-0.3-0.1-0.7,0-1c0-1.2,0.3-2.4,0.8-3.5
	c0.6-0.9,1.5-0.5,2.5-0.5s1.9-0.4,2.5,0.4C156.7,26.4,157,27.6,156.9,28.9z"/>
<path class="st2" d="M150.9,23.5c0.2,0.6,0.3,1.3,0.2,1.9"/>
<path class="st2" d="M156.5,23.5c-0.2,0.6-0.3,1.3-0.2,1.9"/>
<circle class="st2" cx="153.6" cy="27.2" r="0.8"/>
<circle class="st2" cx="153.6" cy="27.2" r="0.4"/>
<path class="st2" d="M134.7,22c0,0,2.3-0.4,3.1-0.4S141,22,141,22"/>
<path class="st2" d="M141,22c0.2,0.1,0.5,0.1,0.7,0.2c0.2,0.2,0.3,0.4,0.5,0.6l0.1,0.7"/>
<path class="st2" d="M131,22.1c0,0,2-0.7,2.6-0.8c0.9-0.2,1.8-0.3,2.8-0.4c0.7,0,2.1,0,2.8,0c0.9,0.1,1.8,0.2,2.8,0.4
	c0.7,0.1,2.8,0.8,2.8,0.8"/>
<path class="st2" d="M133.4,23.5l0.1-0.7c0.1-0.2,0.3-0.4,0.5-0.6c0.2-0.1,0.5-0.2,0.7-0.2"/>
<path class="st2" d="M144.7,42.5l-0.6,1.8c0,0-0.9,1.2-1.2,1.6c-0.4,0.4-0.9,0.9-1.4,1.2c-0.6,0.3-1.2,0.5-1.8,0.7
	c-0.6,0.1-1.2,0.2-1.8,0.2s-1.3-0.1-1.9-0.2c-0.6-0.2-1.1-0.4-1.7-0.7c-0.6-0.3-1.1-0.7-1.6-1.2c-0.4-0.5-0.8-1-1.1-1.6l-0.6-1.8"/>
<path class="st2" d="M131,42.5V22.1 M130.4,48.6V19.7 M142.3,36.2V23.5 M144.7,22.1v20.4 M145.3,48.6V19.7"/>
<path class="st2" d="M142.3,36.2c0,0.5-0.1,1-0.2,1.4c-0.2,0.4-0.4,0.8-0.7,1.2s-0.7,0.8-1.1,1.1c-0.4,0.3-0.9,0.5-1.3,0.6
	c-0.5,0.1-1,0.1-1.4,0.1c-0.5-0.1-1-0.2-1.4-0.4c-0.3-0.1-0.5-0.2-0.7-0.4c-0.4-0.3-0.7-0.7-1-1.1c-0.3-0.4-0.5-0.8-0.7-1.2
	c-0.1-0.5-0.2-1-0.2-1.4V23.5"/>
<path class="st2" d="M131.5,44c0,0,1.4-0.9,1.9-1.1c0.7-0.3,1.4-0.5,2.2-0.7c0.8-0.1,1.5-0.1,2.3-0.1c0.7,0,1.4,0,2.2,0.1
	c0.7,0.2,1.5,0.4,2.2,0.7c0.5,0.2,2,1.1,2,1.1"/>
<circle class="st2" cx="137.6" cy="23.9" r="0.8"/>
<circle class="st2" cx="137.6" cy="23.9" r="0.4"/>
<line class="st2" x1="145.3" y1="48.6" x2="130.4" y2="48.6"/>
<polyline class="st2" points="175.8,8.7 175.5,8.8 175.4,9.1 "/>
<polyline class="st2" points="175.4,48.6 175.5,48.8 175.8,49 "/>
<polyline class="st2" points="145.1,19.7 144.9,19.5 144.7,19.3 130.7,19.3 "/>
<polyline class="st2" points="130.7,19.3 130.4,19.5 130.3,19.7 "/>
<line class="st2" x1="144.7" y1="49" x2="130.7" y2="49"/>
<polyline class="st2" points="130.3,48.6 130.4,48.8 130.7,49 "/>
<rect x="116.5" y="37.7" class="st2" width="11.4" height="10"/>
<line class="st2" x1="121.9" y1="22.1" x2="116" y2="22.1"/>
<polyline class="st2" points="121.9,22 116,22 116,22.1 "/>
<path class="st2" d="M121.9,24.1v-0.2 M121.9,23.2V23 M121.9,22.1L121.9,22.1"/>
<polyline class="st2" points="113.7,24.5 113.9,24.5 113.9,24.4 "/>
<polyline class="st2" points="113.7,24.5 113.5,24.4 113.4,24.2 "/>
<polyline class="st2" points="113.3,24.1 113.3,24.2 113.4,24.2 "/>
<path class="st2" d="M115.2,21.9l-1.3,2.6 M114.6,21.5l-1.3,2.8"/>
<polyline class="st2" points="114.9,21.7 114.7,22.1 114.6,22.1 "/>
<line class="st2" x1="114.6" y1="22" x2="114.8" y2="21.6"/>
<polygon class="st2" points="115.3,21.5 115.2,21.2 114.9,21.1 114.8,21.2 114.7,21.5 114.8,21.6 114.9,21.7 115.2,21.6 "/>
<polyline class="st2" points="114.9,21.9 115.2,21.9 115.4,21.5 115.3,21.1 115.1,21 114.7,21.1 114.6,21.5 114.7,21.7 "/>
<polyline class="st2" points="114.9,21.7 115.2,21.7 115.3,21.5 115.3,21.2 115.1,21.1 114.7,21.1 114.7,21.5 114.8,21.7 "/>
<path class="st2" d="M121.9,29.9H116 M121.9,24.1H116 M121.9,23.9H116 M121.9,23.2H116 M121.9,22.9H116 M114.3,22.1l-0.6-0.2
	 M116,23.2V23 M116,24.1v-0.2"/>
<polyline class="st2" points="121.9,30 116,30 116,29.9 "/>
<path class="st2" d="M116,26v-0.1 M116,27.1v-0.2 M116,28.1v-0.2 M116,29.1V29 M116,25.1L116,25.1 M121.9,29.1V29 M121.9,28.1v-0.2
	 M121.9,27.2V27 M121.9,26.1V26 M121.9,25.1V25 M121.9,30v-0.1"/>
<polyline class="st2" points="113.7,30 114.2,29.9 114.5,29.4 "/>
<path class="st2" d="M121.9,25.9H116 M121.9,26.1H116 M121.9,26.9H116 M121.9,25.1H116 M121.9,27.1H116 M121.9,25H116 M121.9,27.9
	H116 M121.9,28.1H116 M121.9,29H116 M121.9,29.1H116"/>
<polyline class="st2" points="114.9,30.2 122,30.2 122.4,30 122.6,29.6 122.6,21.5 122.4,21 121.9,20.9 114.9,20.9 "/>
<path class="st2" d="M122.9,30.5V20.4 M114.5,29.4v-6.2"/>
<polyline class="st2" points="113.6,24.6 113.7,24.6 113.9,24.5 "/>
<polyline class="st2" points="113.6,24.6 113.5,24.5 113.3,24.4 113.3,24.2 "/>
<line class="st2" x1="113.3" y1="24.4" x2="113.4" y2="24.4"/>
<polyline class="st2" points="108.2,21.9 107.6,22.1 107.4,22.6 "/>
<polygon class="st2" points="111.5,25.9 111.3,25.6 111,25.5 110.6,25.6 110.5,25.9 110.6,26.3 111,26.4 111.3,26.3 "/>
<line class="st2" x1="110" y1="27.1" x2="108.2" y2="29.3"/>
<polyline class="st2" points="107.4,29.3 107.6,29.9 108.2,30 "/>
<polygon class="st2" points="111.7,25.9 111.6,25.3 111,25.2 110.4,25.3 110.1,25.9 110.4,26.5 111,26.8 111.6,26.5 "/>
<path class="st2" d="M114.9,30.2h-7.1 M108.2,22.7l1.8,2 M107.4,22.5v6.7 M106.9,20.4v10.1"/>
<polyline class="st2" points="107.3,29.6 107.4,30 107.9,30.2 "/>
<line class="st2" x1="107.3" y1="29.6" x2="107.3" y2="21.5"/>
<polyline class="st2" points="107.9,20.9 107.5,21 107.3,21.5 "/>
<path class="st2" d="M108.2,30h5.5 M111.9,27.1l1.8,2.2 M113.7,21.8h-5.5 M113.7,22.7l-1.8,2 M106.9,30.4h16 M122.9,20.4h-16
	 M107.9,20.8h7.1"/>
<rect x="89.4" y="30.2" class="st2" width="10.8" height="1"/>
<rect x="89.4" y="19.6" class="st2" width="10.8" height="10.7"/>
<polygon class="st2" points="96.5,31.1 96.2,31 96.1,30.7 96.2,30.4 96.5,30.2 96.8,30.4 96.9,30.7 96.8,31 "/>
<polygon class="st2" points="91.2,31.1 90.9,31 90.8,30.7 90.9,30.4 91.2,30.2 91.5,30.4 91.7,30.7 91.5,31 "/>
<polygon class="st2" points="91.2,30.9 91.1,30.9 91.1,30.7 91.1,30.6 91.2,30.5 91.3,30.6 91.4,30.7 91.3,30.9 "/>
<polygon class="st2" points="94.8,31.1 94.4,31 94.3,30.7 94.4,30.4 94.8,30.2 95,30.4 95.1,30.7 95,31 "/>
<polygon class="st2" points="93,31.1 92.7,31 92.6,30.7 92.7,30.4 93,30.2 93.2,30.4 93.3,30.7 93.2,31 "/>
<polygon class="st2" points="93,30.9 92.9,30.9 92.7,30.7 92.9,30.6 93,30.5 93.1,30.6 93.2,30.7 93.1,30.9 "/>
<polygon class="st2" points="94.8,30.9 94.7,30.9 94.5,30.7 94.7,30.6 94.8,30.5 94.9,30.6 94.9,30.9 "/>
<polygon class="st2" points="98.3,31.1 98,31 97.9,30.7 98,30.4 98.3,30.2 98.6,30.4 98.6,31 "/>
<polygon class="st2" points="98.3,30.9 98.1,30.9 98.1,30.7 98.1,30.6 98.3,30.5 98.4,30.6 98.5,30.7 98.4,30.9 "/>
<polygon class="st2" points="96.5,30.9 96.3,30.9 96.3,30.7 96.3,30.6 96.5,30.5 96.7,30.6 96.7,30.9 "/>
<rect x="114.9" y="44.4" class="st2" width="0.1" height="2.3"/>
<line class="st2" x1="116" y1="37.7" x2="115.5" y2="37.7"/>
<polyline class="st2" points="115.1,38.2 115.2,37.9 115.5,37.7 "/>
<line class="st2" x1="115.1" y1="38.2" x2="115.1" y2="47.2"/>
<polyline class="st2" points="115.5,47.7 115.2,47.5 115.1,47.2 "/>
<polyline class="st2" points="115.5,47.7 116,47.7 116,37.7 "/>
<rect x="116" y="38.2" class="st2" width="0.5" height="9"/>
<path class="st2" d="M120.1,42.7h4.3 M122.3,44.9v-4.3 M123.9,44.4l-3.2-3.4 M120.7,44.4l3.2-3.4"/>
<polyline class="st2" points="127.9,37.7 116,37.7 116,31.2 85.8,31.2 "/>
<polyline class="st2" points="85.8,19.3 127.9,19.3 127.9,37.7 "/>
<polyline class="st2" points="88.4,30 101.1,30 101.1,20.2 100.3,20.2 "/>
<polyline class="st2" points="88.7,29.8 100.9,29.8 100.9,20.4 100.3,20.4 "/>
<polyline class="st2" points="88.7,29.8 88.7,20.4 89.3,20.4 "/>
<polyline class="st2" points="88.4,30 88.4,20.2 89.3,20.2 "/>
<polyline class="st2" points="89.3,28.1 100.3,28.1 100.1,27.9 89.5,27.9 89.3,28.1 89.3,19.8 "/>
<line class="st2" x1="100.3" y1="28.1" x2="100.3" y2="21.7"/>
<polyline class="st2" points="89.5,27.9 90.1,27.4 99.3,27.4 100.1,27.9 100.1,19.9 99.3,20.4 99.3,27.4 99.1,27.2 90.3,27.2 
	90.1,27.4 90.1,20.4 93.1,20.4 "/>
<polyline class="st2" points="93.3,25.2 93.1,25 96.5,25 96.1,25.2 "/>
<polyline class="st2" points="93.1,25 93.1,19.8 96.5,19.8 96.5,25 "/>
<polyline class="st2" points="90.1,20.4 89.5,19.9 89.5,27.9 "/>
<path class="st2" d="M89.5,19.9h3.6 M96.5,20.4h2.9"/>
<polyline class="st2" points="96.5,19.9 100.1,19.9 100.1,19.8 "/>
<path class="st2" d="M89.4,19.8l0.1,0.1 M89.3,19.8h3.8"/>
<polyline class="st2" points="96.5,19.8 100.3,19.8 100.3,28.1 "/>
<rect x="89.3" y="19.3" class="st2" width="11" height="0.5"/>
<line class="st2" x1="85.8" y1="31.2" x2="85.8" y2="19.3"/>
<polyline class="st2" points="167.6,38.9 166.4,38.3 165.2,38.2 164,38.3 162.9,38.9 162,39.7 161.4,40.8 161.3,42.1 "/>
<polyline class="st2" points="161.6,42.1 161.7,41.4 162,40.8 162.2,40.2 162.7,39.7 163.2,39.2 163.8,38.9 164.4,38.7 165.8,38.7 
	"/>
<polyline class="st2" points="161.6,42.1 161.7,42.7 162,43.5 162.2,44 162.7,44.5 163.2,45 163.8,45.2 164.4,45.5 165.1,45.6 
	165.8,45.6 "/>
<polyline class="st2" points="167.6,45.4 167.7,45.1 167.1,45.4 "/>
<line class="st2" x1="166.2" y1="42.4" x2="166.5" y2="45"/>
<polyline class="st2" points="166.3,43.6 166.2,45.1 165.8,45.6 "/>
<polyline class="st2" points="166.5,45 166.8,45.4 167.1,45.4 "/>
<line class="st2" x1="167.4" y1="42.4" x2="165.7" y2="42.4"/>
<polyline class="st2" points="167.6,38.9 167.7,39.1 167.1,38.9 "/>
<polyline class="st2" points="167.5,42.2 167.5,41.8 167.4,41.8 "/>
<path class="st2" d="M165.5,42v0.2 M166.3,40.6l-0.1-1.6 M166.5,39.2l-0.4,2.5"/>
<polyline class="st2" points="165.7,41.9 165.6,41.9 165.5,42 "/>
<path class="st2" d="M167.4,41.8l-1.7,0.1 M166.2,39l-0.4-0.4"/>
<polyline class="st2" points="167.1,38.9 166.8,39 166.5,39.2 "/>
<line class="st2" x1="167.7" y1="39.1" x2="167.7" y2="45.1"/>
<polyline class="st2" points="165.8,41.9 165.5,41.5 165,41.5 164.6,41.9 164.6,42.4 165,42.7 165.5,42.7 165.8,42.4 "/>
<polyline class="st2" points="165.6,41.9 165.3,41.8 165,41.9 164.9,42.1 165,42.4 165.3,42.5 165.6,42.2 "/>
<polyline class="st2" points="167.4,42.4 167.5,42.4 167.5,42.2 "/>
<polyline class="st2" points="165.5,42.2 165.6,42.2 165.7,42.4 "/>
<polyline class="st2" points="161.3,42.1 161.4,43.3 162,44.4 162.9,45.2 164,45.8 165.2,46.1 166.4,45.8 167.6,45.4 "/>
<polyline class="st3" points="56.6,183.4 32.9,183.4 32.9,133.1 40.8,133.1 "/>
<polyline class="st3" points="56.6,181 35.3,181 35.3,135.5 40.8,135.5 "/>
<polyline class="st3" points="40.8,83.7 17,83.7 17,18.4 40.8,18.4 "/>
<polyline class="st3" points="40.8,81.2 19.4,81.2 19.4,20.8 40.8,20.8 "/>
<path class="st3" d="M43.2,85.2V115 M40.8,114.4V85.8 M48.7,85.2V115"/>
<polyline class="st3" points="44.1,115 44.1,85.2 44.1,86.8 43.2,86.8 43.2,85.2 44.1,85.2 "/>
<rect x="43.2" y="113.4" class="st3" width="1" height="1.6"/>
<rect x="43.2" y="99.4" class="st3" width="1" height="1.4"/>
<path class="st3" d="M43.2,60.8V49 M44.2,60.9V49 M48.7,60.8V31.2 M40.8,60.2V31.8 M43.2,50.5h1 M40.8,49h7.9 M43.2,59.4h1"/>
<polygon class="st4" points="55.7,47.2 54.8,47.7 47.9,31.7 48.7,31.2 "/>
<polyline class="st3" points="48.7,49.1 50.7,48.8 52.8,48.4 54.8,47.7 "/>
<path class="st3" d="M59,145v9.4 M60,145v9.4 M64.5,145v27.1 M56.6,145.6v25.9 M59,152.8h1 M56.6,154.3h7.9"/>
<polygon class="st4" points="71.5,156.1 70.7,155.6 63.7,171.6 64.5,172.1 "/>
<polyline class="st3" points="70.7,155.6 68.6,154.9 66.6,154.4 64.5,154.3 "/>
<line class="st3" x1="144.1" y1="100.1" x2="141.7" y2="100.1"/>
<line class="st3" x1="144.1" y1="81.8" x2="141.7" y2="81.8"/>
<line class="st3" x1="162.9" y1="51.4" x2="162.9" y2="49"/>
<line class="st3" x1="147.2" y1="51.4" x2="147.2" y2="49"/>
<polygon class="st4" points="162.9,51 149.4,58.8 148.9,58.1 162.5,50.3 "/>
<polyline class="st3" points="149.4,58.8 148.2,56.3 147.5,53.7 147.2,51 "/>
<polyline class="st4" points="130.3,19.3 130.3,49 147.2,49 147.2,51 147.2,51.4 127.9,51.4 127.9,19.3 "/>
<polyline class="st4" points="167.9,49 162.9,49 162.9,51 162.9,51.4 167.9,51.4 "/>
<polygon class="st4" points="128.3,69.6 119.1,53.8 119.9,53.4 129,69.1 "/>
<polyline class="st3" points="128.3,51.4 125.1,51.6 122,52.5 119.1,53.8 "/>
<line class="st3" x1="128.3" y1="51.4" x2="130.3" y2="51.4"/>
<polygon class="st4" points="142.2,81.8 133.1,97.7 133.8,98.1 142.9,82.3 "/>
<polyline class="st3" points="133.1,97.7 135.9,99 138.9,99.8 142.2,100.1 "/>
<polyline class="st4" points="144.1,127.6 144.1,100.1 142.2,100.1 141.7,100.1 141.7,127.6 "/>
<polyline class="st4" points="48.7,74.2 141.7,74.2 141.7,81.8 142.2,81.8 144.1,81.8 144.1,71.8 130.3,71.8 130.3,69.6 127.9,69.6 
	127.9,71.8 48.7,71.8 "/>
<polygon class="st3" points="173,91.2 183,108.2 182.1,108.7 172.3,91.6 "/>
<polyline class="st3" points="183,108.2 179.9,109.8 176.5,110.7 173,111 "/>
<path class="st3" d="M173,111h-1.9 M173,91.2h-1.9"/>
<path class="st5" d="M167.9,186.6H64.5 M167.9,190.6H64.5"/>
<polygon class="st4" points="162.9,133.3 147.1,142.4 146.7,141.7 162.5,132.6 "/>
<polyline class="st3" points="147.1,142.4 145.8,139.6 144.9,136.4 144.7,133.3 "/>
<path class="st3" d="M144.7,133.3v-2 M162.9,133.3v-2"/>
<line class="st6" x1="59" y1="133.1" x2="43.2" y2="133.1"/>
<line class="st6" x1="56.6" y1="135.5" x2="40.8" y2="135.5"/>
<line class="st6" x1="59.6" y1="132.5" x2="43.8" y2="132.5"/>
<line class="st6" x1="160.2" y1="19.3" x2="48.7" y2="19.3"/>
<line class="st6" x1="175.4" y1="11.8" x2="43.8" y2="11.8"/>
<line class="st6" x1="175.4" y1="11.2" x2="43.2" y2="11.2"/>
<line class="st6" x1="175.4" y1="8.9" x2="40.8" y2="8.9"/>
<line class="st6" x1="144.7" y1="127.6" x2="48.7" y2="127.6"/>
<line class="st6" x1="167.9" y1="127.6" x2="162.9" y2="127.6"/>
<line class="st6" x1="144.7" y1="135.1" x2="64.5" y2="135.1"/>
<line class="st6" x1="167.9" y1="135.1" x2="162.9" y2="135.1"/>
<line class="st6" x1="175.4" y1="135.1" x2="175.4" y2="190.2"/>
<line class="st6" x1="167.9" y1="135.1" x2="167.9" y2="190.2"/>
<path class="st6" d="M59,145.6v-12.5 M56.6,145.6v-10.1 M59,190.6v-19.1 M56.6,190.6v-19.1 M43.2,114.4v18.7 M40.8,114.4v21.1
	 M43.2,60.2v25.6 M40.8,60.2v25.6 M43.2,11.2v20.6 M40.8,8.9v22.9 M59.6,145v-12.5 M64.5,145v-9.8 M59.6,190.6v-18.5 M64.5,190.6
	v-18.5 M43.8,115v17.5 M48.7,115v12.6 M43.8,60.8v24.4 M48.7,60.8v24.4 M43.8,11.8v19.4 M48.7,19.3v11.9"/>
<polyline class="st6" points="40.8,31.8 43.2,31.8 43.2,31.2 48.7,31.2 "/>
<polyline class="st6" points="40.8,60.2 43.2,60.2 43.2,60.8 48.7,60.8 "/>
<polyline class="st6" points="40.8,85.8 43.2,85.8 43.2,85.2 48.7,85.2 "/>
<polyline class="st6" points="40.8,114.4 43.2,114.4 43.2,115 48.7,115 "/>
<polyline class="st6" points="56.6,145.6 59,145.6 59,145 64.5,145 "/>
<polyline class="st6" points="56.6,171.5 59,171.5 59,172.1 64.5,172.1 "/>
<line class="st6" x1="175.4" y1="8.7" x2="175.4" y2="91.2"/>
<line class="st6" x1="167.9" y1="111" x2="167.9" y2="127.6"/>
<line class="st6" x1="167.9" y1="19.3" x2="167.9" y2="91.2"/>
<line class="st6" x1="175.4" y1="135.1" x2="175.4" y2="127.6"/>
<line class="st6" x1="175.4" y1="127.6" x2="175.4" y2="127.6"/>
<line class="st6" x1="175.4" y1="135.1" x2="175.4" y2="135.1"/>
<polyline class="st6" points="175.4,127.6 175.4,111 167.9,111 "/>
<line class="st6" x1="167.9" y1="91.2" x2="175.4" y2="91.2"/>
<path class="st6" d="M167.9,19.3h-2.4 M175.5,8.7L175.5,8.7"/>
<polyline class="st6" points="160.2,19.3 160.2,16.8 165.5,16.8 165.5,19.3 "/>
<path class="st6" d="M167.9,127.6H163 M167.9,135.1H163"/>
<line class="st6" x1="144.7" y1="127.6" x2="144.7" y2="135.1"/>
<line class="st6" x1="162.9" y1="127.6" x2="162.9" y2="135.1"/>
<line class="st6" x1="167.9" y1="190.2" x2="175.4" y2="190.2"/>
<line class="st6" x1="56.6" y1="190.6" x2="64.5" y2="190.6"/>
<path class="st7" d="M90.8,170.7h17.5c2.6,0,4.6-2.1,4.6-4.6v-27.9c0-0.8-0.6-1.4-1.4-1.4h-24c-0.7,0-1.3,0.6-1.3,1.3v28.1
	C86.2,168.6,88.3,170.7,90.8,170.7z"/>
<path class="st8" d="M89,137.8h7.9c0.6,0,1,0.5,1,1v4.7c0,0.6-0.5,1-1,1H89c-0.6,0-1-0.5-1-1v-4.7C88,138.3,88.4,137.8,89,137.8z"/>
<path class="st8" d="M101.7,138h7.9c0.6,0,1,0.5,1,1v4.7c0,0.6-0.5,1-1,1h-7.9c-0.6,0-1-0.5-1-1V139
	C100.7,138.5,101.2,138,101.7,138z"/>
<line class="st9" x1="86.2" y1="153.5" x2="112.9" y2="153.5"/>
<polygon class="st7" points="108.8,152.4 112.9,151.6 110.1,148.6 "/>
<line class="st9" x1="110.1" y1="148.6" x2="86.2" y2="148.6"/>
<path class="st9" d="M154.7,91.1h6.4c2.1,0,3.8,1.7,3.8,3.8V106c0,2.1-1.7,3.8-3.8,3.8h-6.4c-2.1,0-3.8-1.7-3.8-3.8V94.8
	C151,92.7,152.6,91.1,154.7,91.1z"/>
<path class="st9" d="M155,91.9h5.8c1.9,0,3.4,1.5,3.4,3.4v10c0,1.9-1.5,3.4-3.4,3.4H155c-1.9,0-3.4-1.5-3.4-3.4v-10
	C151.6,93.4,153.1,91.9,155,91.9z"/>
<path class="st9" d="M156.8,102.7c0.2,0.8,1.5,1.1,2.9,0.7s2.4-1.2,2.2-2s-1.5-1.1-2.9-0.7S156.6,101.9,156.8,102.7z"/>
<path class="st9" d="M159.8,103.3c-1.3-0.6-1.5-1.5-0.7-2.7"/>
<path class="st9" d="M154.3,97.9c-0.3,0.7,0.6,1.7,2,2.2s2.7,0.3,2.9-0.4s-0.6-1.7-2-2.2S154.6,97.2,154.3,97.9z"/>
<path class="st9" d="M156.4,100.2c-0.7-1.2-0.4-2.1,1-2.6"/>
<path class="st8" d="M68.3,54.1h30.4c1.9,0,3.5,1.6,3.5,3.5v8.8c0,1.9-1.6,3.5-3.5,3.5H68.3c-1.9,0-3.5-1.6-3.5-3.5v-8.8
	C64.8,55.6,66.4,54.1,68.3,54.1z"/>
<path class="st8" d="M65.8,56.2h1.5c0.6,0,1.1,0.5,1.1,1.1v10.5c0,0.6-0.5,1.1-1.1,1.1h-1.5c-0.6,0-1.1-0.5-1.1-1.1V57.3
	C64.7,56.7,65.2,56.2,65.8,56.2z"/>
<path class="st8" d="M99.8,56.2h1.5c0.6,0,1.1,0.5,1.1,1.1v10.5c0,0.6-0.5,1.1-1.1,1.1h-1.5c-0.6,0-1.1-0.5-1.1-1.1V57.3
	C98.7,56.7,99.2,56.2,99.8,56.2z"/>
<path class="st8" d="M66.3,64.6h34.3c0.7,0,1.3,0.6,1.3,1.3v1.8c0,0.7-0.6,1.3-1.3,1.3H66.3c-0.7,0-1.3-0.6-1.3-1.3v-1.8
	C65.1,65.2,65.6,64.6,66.3,64.6z"/>
<path class="st8" d="M68.7,64.9h29.5c0.6,0,1.1,0.5,1.1,1.1v1.5c0,0.6-0.5,1.1-1.1,1.1H68.7c-0.6,0-1.1-0.5-1.1-1.1V66
	C67.6,65.4,68.1,64.9,68.7,64.9z"/>
<line class="st9" x1="83.5" y1="54.1" x2="83.5" y2="64.6"/>
<path class="st7" d="M72.3,40.9v2.3c0,0.2,0.2,0.4,0.4,0.4l0,0h6c0.1,0,0.2-0.1,0.2-0.2l0,0v-2.5c0-1.4-1.1-2.5-2.6-2.5H75
	C73.6,38.3,72.4,39.4,72.3,40.9C72.4,40.9,72.4,40.9,72.3,40.9z"/>
<path class="st9" d="M72.3,40.9c2.4-1.9,4.7-1.9,6.7,0"/>
<path class="st7" d="M79.7,40.8v2.3c0,0.2,0.2,0.4,0.4,0.4h6.1c0.1,0,0.2-0.1,0.2-0.2l0,0v-2.5c0-1.4-1.1-2.5-2.6-2.5h-1.6
	C80.9,38.2,79.7,39.4,79.7,40.8z"/>
<path class="st9" d="M79.7,40.8c2.4-1.9,4.6-1.9,6.7,0"/>
<path class="st7" d="M87.4,40.7V43c0,0.2,0.2,0.4,0.4,0.4h6.1c0.1,0,0.2-0.1,0.2-0.2v-2.5c0-1.4-1.1-2.5-2.6-2.5H90
	C88.6,38.1,87.4,39.3,87.4,40.7L87.4,40.7z"/>
<path class="st9" d="M87.4,40.7c2.4-1.9,4.6-1.9,6.7,0"/>
<path class="st8" d="M72.7,42.2h20.9c1.2,0,2.2,1,2.2,2.2v10.1c0,1.2-1,2.2-2.2,2.2H72.7c-1.2,0-2.2-1-2.2-2.2V44.3
	C70.5,43.1,71.5,42.2,72.7,42.2z"/>
<path class="st8" d="M74.1,136.4h9.3c0.5,0,0.9,0.4,0.9,0.9v9.1c0,0.5-0.4,0.9-0.9,0.9h-9.3c-0.5,0-0.9-0.4-0.9-0.9v-9.1
	C73.2,136.7,73.6,136.4,74.1,136.4z"/>
<path class="st8" d="M58.8,76.4h30.3c1.9,0,3.5,1.6,3.5,3.5v8.8c0,1.9-1.6,3.5-3.5,3.5H58.8c-1.9,0-3.5-1.6-3.5-3.5v-8.8
	C55.3,78,56.9,76.4,58.8,76.4z"/>
<path class="st8" d="M56.3,77.4h1.5c0.6,0,1.1,0.5,1.1,1.1V89c0,0.6-0.5,1.1-1.1,1.1h-1.5c-0.6,0-1.1-0.5-1.1-1.1V78.5
	C55.2,77.9,55.7,77.4,56.3,77.4z"/>
<path class="st8" d="M90.3,77.4h1.5c0.6,0,1.1,0.5,1.1,1.1V89c0,0.6-0.5,1.1-1.1,1.1h-1.5c-0.6,0-1.1-0.5-1.1-1.1V78.5
	C89.2,77.9,89.7,77.4,90.3,77.4z"/>
<path class="st8" d="M56.8,77.3h34.3c0.7,0,1.3,0.6,1.3,1.3v1.8c0,0.7-0.6,1.3-1.3,1.3H56.8c-0.7,0-1.3-0.6-1.3-1.3v-1.8
	C55.6,77.9,56.1,77.3,56.8,77.3z"/>
<path class="st8" d="M59.2,77.7h29.5c0.6,0,1.1,0.5,1.1,1.1v1.5c0,0.6-0.5,1.1-1.1,1.1H59.2c-0.6,0-1.1-0.5-1.1-1.1v-1.5
	C58.2,78.1,58.6,77.7,59.2,77.7z"/>
<line class="st9" x1="74" y1="92.2" x2="74" y2="81.7"/>
<rect x="63.5" y="111.5" class="st8" width="23.9" height="5.8"/>
<rect x="68.8" y="112.7" class="st8" width="14.3" height="3.8"/>
<rect x="65.7" y="113.7" class="st8" width="19.6" height="1.2"/>
<path class="st8" d="M115.4,136.6h9.3c0.5,0,0.9,0.4,0.9,0.9v9.1c0,0.5-0.4,0.9-0.9,0.9h-9.3c-0.5,0-0.9-0.4-0.9-0.9v-9.1
	C114.6,137,115,136.6,115.4,136.6z"/>
<rect x="88.3" y="178" class="st8" width="23.9" height="5.8"/>
<rect x="93.7" y="179.2" class="st8" width="14.3" height="3.8"/>
<rect x="90.6" y="180.2" class="st8" width="19.6" height="1.2"/>
<rect x="158.5" y="159.4" transform="matrix(0.9952 -9.758820e-02 9.758820e-02 0.9952 -15.3824 16.2909)" class="st10" width="0.7" height="12"/>
<rect x="149" y="148.9" transform="matrix(0.9325 -0.3611 0.3611 0.9325 -43.4345 66.0413)" class="st10" width="12" height="0.7"/>
<rect x="159.2" y="145" class="st8" width="6.4" height="27.1"/>
<text transform="matrix(1 0 0 1 148.05 46.6899)" class="st11 st12 st13" style="text-decoration: underline;">3,2</text>
<text transform="matrix(1 0 0 1 150.5498 124.51)" class="st11 st12 st13" style="text-decoration: underline;">5,4</text>
<text transform="matrix(1 0 0 1 123.1698 123.9099)" class="st11 st12 st13" style="text-decoration: underline;">13,1</text>
<text transform="matrix(1 0 0 1 105.9598 68.24)" class="st11 st12 st13" style="text-decoration: underline;">10,8</text>
<text transform="matrix(1 0 0 1 148.3298 183.54)" class="st11 st12 st13" style="text-decoration: underline;">15,0</text>
<path class="st14" d="M103.9,86.1h9.6c4,0,7.2,3.2,7.2,7.2v18.1c0,4-3.2,7.2-7.2,7.2h-9.6c-4,0-7.2-3.2-7.2-7.2v-18
	C96.7,89.4,99.9,86.1,103.9,86.1z"/>
<text transform="matrix(1 0 0 1 101.0707 95.2467)" class="st15 st12 st13">28,1</text>
<text transform="matrix(1 0 0 1 100.6999 115.1818)" class="st15 st12 st13">47,5</text>
<text transform="matrix(1 0 0 1 99.5502 105.5308)" class="st16 st12 st17">49,3</text>
<text transform="matrix(6.123234e-17 -1 1 6.123234e-17 33.1 70.4404)" class="st11 st12 st13" style="text-decoration: underline;">3,4х0,3=1,0</text>
<text transform="matrix(6.123234e-17 -1 1 6.123234e-17 47.86 179.0303)" class="st11 st12 st13" style="text-decoration: underline;">2,5х0,3=0,8</text>
</svg>
