<?xml version="1.0" encoding="utf-8"?>
<!-- Generator: Adobe Illustrator 25.0.0, SVG Export Plug-In . SVG Version: 6.00 Build 0)  -->
<svg version="1.1" id="Слой_1" xmlns="http://www.w3.org/2000/svg" xmlns:xlink="http://www.w3.org/1999/xlink" x="0px" y="0px"
	 viewBox="0 0 200 200" style="enable-background:new 0 0 200 200;" xml:space="preserve">
<style type="text/css">
	.st0{fill-rule:evenodd;clip-rule:evenodd;fill:#A3C98F;}
	.st1{fill:#A3C98F;}
	.st2{fill:none;stroke:#666666;stroke-width:0.2;stroke-linecap:round;stroke-linejoin:round;}
	.st3{fill:none;stroke:#333333;stroke-width:0.6;stroke-linecap:round;stroke-linejoin:round;}
	.st4{fill:#FFFFFF;stroke:#333333;stroke-width:0.4;stroke-linecap:round;stroke-linejoin:round;}
	.st5{fill:none;stroke:#333333;stroke-width:0.4;stroke-linecap:round;stroke-linejoin:round;}
	.st6{fill:none;stroke:#333333;stroke-width:0.8;stroke-linecap:round;stroke-linejoin:round;}
	.st7{fill-rule:evenodd;clip-rule:evenodd;fill:#A3C98F;stroke:#666666;stroke-width:0.2;stroke-miterlimit:22.93;}
	.st8{fill:none;stroke:#666666;stroke-width:0.2;stroke-miterlimit:22.93;}
	.st9{fill:#A3C98F;stroke:#666666;stroke-width:0.2;stroke-miterlimit:22.93;}
	.st10{fill:#A3C98F;stroke:#666666;stroke-width:0.2;stroke-miterlimit:22.9288;}
	.st11{fill:#FFFFFF;}
	.st12{fill:#1A1A18;}
	.st13{font-family:'ArialMT';}
	.st14{font-size:7px;}
	.st15{fill:#E43622;}
	.st16{font-size:8px;}
	.st17{fill:#666666;}
	.st18{font-size:6.78px;}
</style>
<polygon class="st0" points="144,159.4 52.8,159.4 52.8,85.2 77.4,85.2 77.4,58.5 79.1,58.5 79.1,48.4 91.7,48.4 91.7,58.5 
	144.3,58.5 144.3,85.2 144,85.2 "/>
<rect x="53.2" y="166.1" class="st1" width="91.2" height="17.9"/>
<rect x="61.4" y="14.8" class="st1" width="32.6" height="37.6"/>
<path class="st2" d="M82.1,15h6.4c0.2,0,0.4,0.2,0.4,0.4v2.4c0,0.2-0.2,0.4-0.4,0.4h-6.4c-0.2,0-0.4-0.2-0.4-0.4v-2.4
	C81.7,15.2,81.8,15,82.1,15z"/>
<ellipse class="st2" cx="85.3" cy="22.9" rx="2.3" ry="2.6"/>
<ellipse class="st2" cx="85.3" cy="22.9" rx="2.3" ry="2.6"/>
<path class="st2" d="M88.1,22.9c0.2,1.5-0.8,3-2.4,3.2c-1.5,0.2-3-0.8-3.2-2.4c0-0.3,0-0.5,0-0.8c0-1,0.2-2.1,0.7-3
	c0.5-0.7,1.2-0.4,2.1-0.4s1.6-0.3,2.1,0.3C87.8,20.7,88.1,21.8,88.1,22.9z"/>
<path class="st2" d="M83,18.3c0.2,0.5,0.2,1.1,0.2,1.6"/>
<path class="st2" d="M87.7,18.3c-0.2,0.5-0.2,1.1-0.2,1.6"/>
<circle class="st2" cx="85.3" cy="21.5" r="0.7"/>
<circle class="st2" cx="85.3" cy="21.5" r="0.4"/>
<path class="st2" d="M65.1,16.8c0,0,2-0.3,2.6-0.3s2.7,0.3,2.7,0.3"/>
<path class="st2" d="M70.4,16.8c0.2,0.1,0.4,0.1,0.6,0.2c0.2,0.2,0.3,0.3,0.4,0.5l0.1,0.6"/>
<path class="st2" d="M62,16.9c0,0,1.7-0.6,2.2-0.7c0.8-0.1,1.6-0.2,2.3-0.3c1.6-0.1,3.1,0,4.7,0.3c0.6,0.1,2.3,0.7,2.3,0.7"/>
<path class="st2" d="M64,18.1l0.1-0.6c0.1-0.2,0.3-0.3,0.4-0.5c0.2-0.1,0.4-0.2,0.6-0.2"/>
<path class="st2" d="M73.6,34.1L73,35.7c0,0-0.7,1-1,1.3c-0.4,0.4-0.8,0.7-1.2,1c-0.5,0.3-1,0.5-1.5,0.6s-1,0.2-1.5,0.2
	s-1.1-0.1-1.6-0.2c-0.5-0.2-1-0.4-1.4-0.6c-0.5-0.3-0.9-0.6-1.3-1c-0.3-0.4-0.6-0.9-0.9-1.3L62,34.1"/>
<path class="st2" d="M62,34.1V16.9 M61.5,39.3V14.8 M71.6,28.8V18.1 M73.6,16.9v17.3 M74.1,39.3V14.8"/>
<path class="st2" d="M71.5,28.9c0,0.4-0.1,0.8-0.2,1.2c-0.2,0.4-0.4,0.7-0.6,1c-0.3,0.3-0.6,0.6-0.9,0.9c-0.3,0.2-0.7,0.4-1.1,0.5
	s-0.8,0.1-1.2,0.1c-0.4-0.1-0.8-0.2-1.2-0.3c-0.2-0.1-0.4-0.2-0.6-0.3c-0.3-0.3-0.6-0.6-0.8-0.9c-0.2-0.3-0.4-0.6-0.6-1
	c-0.1-0.4-0.2-0.8-0.2-1.2V18.1"/>
<path class="st2" d="M62.4,35.5c0,0,1.2-0.7,1.6-0.9c0.6-0.3,1.2-0.5,1.8-0.6c0.6-0.1,1.3-0.1,1.9-0.1s1.2,0,1.8,0.1
	c0.6,0.1,1.2,0.4,1.8,0.6c0.4,0.2,1.7,0.9,1.7,0.9"/>
<circle class="st2" cx="67.6" cy="18.4" r="0.7"/>
<circle class="st2" cx="67.6" cy="18.4" r="0.4"/>
<line class="st2" x1="74.1" y1="39.3" x2="61.5" y2="39.3"/>
<rect x="134.3" y="74.2" class="st2" width="0.9" height="9.2"/>
<rect x="135.2" y="74.2" class="st2" width="8.9" height="9.2"/>
<polygon class="st2" points="134.4,77.4 134.5,77.1 134.7,77 135,77.1 135.1,77.4 135,77.6 134.7,77.7 134.5,77.6 "/>
<polygon class="st2" points="134.4,81.9 134.5,81.7 134.7,81.6 135,81.7 135.1,81.9 135,82.1 134.7,82.2 134.5,82.1 "/>
<polygon class="st2" points="134.6,81.9 134.6,81.8 134.7,81.7 134.9,81.8 134.9,82 134.7,82.1 134.6,82 "/>
<polygon class="st2" points="134.4,78.8 134.5,78.6 134.7,78.5 135,78.6 135.1,78.8 135,79.1 134.7,79.2 134.5,79.1 "/>
<polygon class="st2" points="134.4,80.3 134.5,80.2 134.7,80.1 135,80.2 135.1,80.3 135,80.7 134.7,80.8 134.5,80.7 "/>
<polygon class="st2" points="134.6,80.3 134.6,80.2 134.7,80.2 134.9,80.2 134.9,80.3 134.9,80.4 134.7,80.6 134.6,80.4 "/>
<polygon class="st2" points="134.6,78.8 134.6,78.7 134.7,78.7 134.9,78.7 134.9,78.8 134.9,79 134.7,79 134.6,79 "/>
<polygon class="st2" points="134.4,75.9 134.5,75.7 134.7,75.6 135,75.7 135.1,75.9 135,76.1 134.7,76.2 134.5,76.1 "/>
<polygon class="st2" points="134.6,75.9 134.6,75.8 134.7,75.7 134.9,75.8 134.9,76 134.7,76.1 134.6,76 "/>
<polygon class="st2" points="134.6,77.4 134.6,77.3 134.7,77.2 134.9,77.3 134.9,77.5 134.7,77.5 134.6,77.5 "/>
<polyline class="st2" points="135.4,84.2 135.4,73.4 143.6,73.4 143.6,74.2 "/>
<polyline class="st2" points="135.5,84.1 135.5,73.6 143.5,73.6 143.5,74.2 "/>
<polyline class="st2" points="135.5,84.1 143.5,84.1 143.5,83.6 "/>
<polyline class="st2" points="135.4,84.2 143.6,84.2 143.6,83.6 "/>
<polyline class="st2" points="136.9,83.6 136.9,74.2 137.2,74.3 137.2,83.3 136.9,83.6 144,83.6 "/>
<line class="st2" x1="136.9" y1="74.2" x2="142.3" y2="74.2"/>
<polyline class="st2" points="137.2,83.3 137.6,82.8 137.6,75 137.2,74.3 143.9,74.3 143.5,75 137.6,75 137.6,75.2 137.6,82.8 
	143.5,82.8 143.5,80.2 "/>
<polyline class="st2" points="139.4,80.1 139.6,80.2 139.6,77.4 139.4,77.7 "/>
<polyline class="st2" points="139.6,80.2 143.9,80.2 143.9,77.4 139.6,77.4 "/>
<polyline class="st2" points="143.5,82.8 143.9,83.3 137.2,83.3 "/>
<path class="st2" d="M143.9,83.3v-3 M143.5,77.5V75"/>
<line class="st2" x1="143.9" y1="77.4" x2="143.9" y2="74.3"/>
<path class="st2" d="M143.9,83.4L143.9,83.4 M143.9,83.5v-3.2"/>
<polyline class="st2" points="143.9,77.4 143.9,74.2 136.9,74.2 "/>
<polyline class="st2" points="143.9,83.5 143.9,83.6 144.3,83.6 144.3,74.2 143.9,74.2 143.9,83.6 "/>
<rect x="134.7" y="88.6" class="st2" width="9.7" height="8.3"/>
<rect x="133.4" y="89.4" class="st2" width="0.1" height="1.9"/>
<polygon class="st2" points="134.3,96.9 133.9,96.9 133.6,96.8 133.4,96.5 133.4,89 133.6,88.7 133.9,88.6 134.3,88.6 "/>
<rect x="134.3" y="89" class="st2" width="0.4" height="7.5"/>
<path class="st2" d="M137.7,92.7h3.8 M139.6,90.8v3.7 M141,91.2l-2.8,3 M138.2,91.2l2.8,3"/>
<path class="st2" d="M144.3,96.9L144.3,96.9z"/>
<polyline class="st2" points="117.5,78.1 117.5,68.4 134.3,68.4 134.3,88.6 "/>
<polyline class="st2" points="107.4,78.1 107.4,58.4 144.3,58.4 144.3,96.9 "/>
<path class="st2" d="M109.9,64.3v5 M107.4,78.1h10.1"/>
<polyline class="st2" points="109.7,64.3 109.7,69.3 109.9,69.3 "/>
<path class="st2" d="M111.5,64.3h-0.2 M110.7,64.3h-0.2 M109.9,64.3h-0.2"/>
<line class="st2" x1="111.8" y1="71.2" x2="111.7" y2="71.1"/>
<polyline class="st2" points="111.8,71.2 111.7,71.4 111.6,71.5 "/>
<polyline class="st2" points="111.5,71.6 111.6,71.6 111.6,71.5 "/>
<path class="st2" d="M109.6,70l2.2,1.1 M109.2,70.5l2.3,1.1"/>
<polyline class="st2" points="109.5,70.2 109.8,70.4 109.8,70.5 "/>
<line class="st2" x1="109.7" y1="70.5" x2="109.3" y2="70.3"/>
<polygon class="st2" points="109.2,69.9 109.1,70 108.9,70.2 109.1,70.3 109.2,70.4 109.4,70.3 109.5,70.2 109.4,70 "/>
<polyline class="st2" points="109.6,70.3 109.6,70 109.2,69.8 108.9,69.9 108.8,70.1 108.9,70.4 109.2,70.5 109.5,70.4 "/>
<polyline class="st2" points="109.5,70.2 109.5,70 109.2,69.9 109.1,69.9 108.9,70.1 108.9,70.4 109.2,70.4 109.5,70.4 "/>
<path class="st2" d="M116.4,64.3v5 M111.5,64.3v5 M111.3,64.3v5 M110.7,64.3v5 M110.5,64.3v5 M109.8,70.7l-0.2,0.5 M110.7,69.3h-0.2
	 M111.5,69.3h-0.2"/>
<polyline class="st2" points="116.5,64.3 116.5,69.3 116.4,69.3 "/>
<path class="st2" d="M113.1,69.3L113.1,69.3 M114,69.3h-0.2 M114.8,69.3h-0.2 M115.6,69.3L115.6,69.3 M112.2,69.3L112.2,69.3
	 M115.6,64.3L115.6,64.3 M114.8,64.3h-0.2 M114,64.3h-0.2 M113.1,64.3L113.1,64.3 M112.3,64.3L112.3,64.3 M116.4,64.3L116.4,64.3"/>
<polyline class="st2" points="116.5,71.2 116.4,70.8 116,70.6 "/>
<path class="st2" d="M113,64.3v5 M113.1,64.3v5 M113.8,64.3v5 M112.3,64.3v5 M114,64.3v5 M112.2,64.3v5 M114.6,64.3v5 M114.8,64.3v5
	 M115.5,64.3v5 M115.6,64.3v5"/>
<polyline class="st2" points="116.7,70.2 116.7,64.2 116.5,63.9 116.2,63.7 109.2,63.7 108.8,63.9 108.8,64.3 108.8,70.2 "/>
<path class="st2" d="M116.9,63.5h-8.5 M116,70.6h-5.3"/>
<polyline class="st2" points="111.9,71.3 111.9,71.2 111.8,71.1 "/>
<polyline class="st2" points="111.9,71.3 111.8,71.4 111.7,71.6 111.6,71.6 "/>
<line class="st2" x1="111.7" y1="71.6" x2="111.8" y2="71.6"/>
<polyline class="st2" points="109.6,75.9 109.8,76.4 110.2,76.6 "/>
<polygon class="st2" points="113,73.1 112.7,73.2 112.6,73.5 112.7,73.8 113,73.9 113.3,73.8 113.4,73.5 113.3,73.2 "/>
<line class="st2" x1="114" y1="74.3" x2="115.9" y2="75.9"/>
<polyline class="st2" points="115.9,76.6 116.4,76.4 116.5,75.9 "/>
<polygon class="st2" points="113,72.9 112.6,73.1 112.4,73.5 112.6,74.1 113,74.2 113.5,74.1 113.7,73.5 113.5,73.1 "/>
<path class="st2" d="M116.7,70.2v6 M110.3,75.9l1.7-1.5 M110.2,76.6h5.7 M108.3,77h8.5"/>
<polyline class="st2" points="116.2,76.7 116.5,76.6 116.7,76.2 "/>
<line class="st2" x1="116.2" y1="76.7" x2="109.2" y2="76.7"/>
<polyline class="st2" points="108.8,76.2 108.8,76.6 109.2,76.7 "/>
<path class="st2" d="M144.3,58.4v30.2 M116.5,75.9v-4.7 M114,72.7l1.8-1.5 M109.5,71.2v4.7 M110.2,71.2l1.8,1.5 M116.9,77V63.5
	 M108.3,63.5V77 M108.7,76.2v-6"/>
<path class="st3" d="M77.4,58.4v5 M49.3,82.1v84 M52.6,85.2v74.1"/>
<polyline class="st3" points="74.1,80.2 74.1,81.9 49.3,81.9 "/>
<polyline class="st4" points="104.8,58.4 104.8,76.2 93.9,76.2 93.9,78.1 106.8,78.1 106.8,58.4 "/>
<path class="st3" d="M74.1,63.4h3.4 M74.1,80.2h3.4"/>
<path class="st5" d="M97.3,96.1v2 M81.8,96.1v2"/>
<path class="st3" d="M97.4,8.4V52 M94,14.8V52 M61.7,14.8V52 M58.3,8.4v50"/>
<polyline class="st5" points="146.4,166.1 146.4,186.2 50.7,186.2 50.7,166.1 "/>
<polyline class="st5" points="144.3,166.1 144.3,184.2 52.8,184.2 52.8,166.1 "/>
<path class="st5" d="M57,164h25.1 M81.6,166H57.5 M57,159.4h25.1"/>
<polyline class="st5" points="82.1,163.2 57,163.2 58.2,163.2 58.2,164 57,164 57,163.2 "/>
<rect x="80.9" y="163.2" class="st5" width="1.2" height="0.8"/>
<rect x="68.9" y="163.2" class="st5" width="1.3" height="0.8"/>
<path class="st5" d="M134.5,164h-10.1 M134.5,163.2h-10.1 M134.5,159.3h-25.1 M134,166.1h-24.2 M125.7,164.1v-0.8 M124.4,166.1v-6.7
	 M133.3,164.1v-0.8"/>
<polygon class="st4" points="122.9,153.4 123.3,154.2 109.8,160.1 109.4,159.4 "/>
<polyline class="st5" points="124.4,159.4 124.3,157.5 123.9,155.8 123.3,154.2 "/>
<polygon class="st4" points="97.3,97.7 83.8,105.5 83.5,104.8 96.8,97.1 "/>
<polyline class="st5" points="81.8,97.7 82,100.5 82.7,103 83.8,105.5 "/>
<polyline class="st4" points="77.4,85.2 77.4,96.1 81.8,96.1 81.8,97.7 81.8,98.1 75.4,98.1 75.4,85.2 "/>
<polyline class="st4" points="101.1,159.4 101.1,98.1 105.8,98.1 105.8,96.1 97.3,96.1 97.3,97.7 97.3,98.1 99.1,98.1 99.1,159.4 
	"/>
<polygon class="st4" points="91.9,56.9 80.4,63.5 80.1,62.9 91.5,56.2 "/>
<polyline class="st5" points="80.4,63.5 79.5,61.3 78.8,59.2 78.7,56.9 "/>
<path class="st5" d="M78.7,56.9v-1.7 M91.9,56.9v-1.7"/>
<polygon class="st5" points="74.1,80.2 65.7,65.6 66.3,65.3 74.7,79.8 "/>
<polyline class="st5" points="65.7,65.6 68.4,64.4 71.2,63.7 74.1,63.4 "/>
<path class="st5" d="M74.1,63.4h1.7 M74.1,80.2h1.7"/>
<polyline class="st2" points="74.3,15.1 74.2,14.9 74,14.8 62,14.8 "/>
<polyline class="st2" points="62,14.8 61.8,14.9 61.7,15.1 "/>
<polyline class="st2" points="93.7,34.1 92.8,33.7 91.8,33.5 90.7,33.7 89.7,34.2 89,34.9 88.5,35.8 88.3,36.8 "/>
<polyline class="st2" points="88.7,36.8 88.7,36.3 88.9,35.8 89.2,35.3 89.5,34.8 90,34.5 90.6,34.2 91.1,34 91.7,33.9 92.2,34 "/>
<polyline class="st2" points="88.7,36.8 88.7,37.4 88.9,38 89.2,38.5 89.5,39 90,39.3 90.6,39.6 91.1,39.8 91.7,39.9 92.2,39.8 "/>
<polyline class="st2" points="93.7,39.7 93.9,39.5 93.3,39.7 "/>
<line class="st2" x1="92.6" y1="37.1" x2="92.9" y2="39.4"/>
<polyline class="st2" points="92.7,38.2 92.6,39.5 92.2,39.8 "/>
<polyline class="st2" points="92.9,39.4 93,39.6 93.3,39.7 "/>
<line class="st2" x1="93.5" y1="37.1" x2="92.1" y2="37"/>
<polyline class="st2" points="93.7,34.1 93.9,34.4 93.3,34.2 "/>
<polyline class="st2" points="93.6,37 93.6,36.6 93.5,36.6 "/>
<path class="st2" d="M92.7,35.6l-0.1-1.3 M92.8,34.5l-0.2,2.1"/>
<polyline class="st2" points="92,36.9 92,36.7 92.1,36.6 "/>
<path class="st2" d="M93.5,36.6h-1.4 M92.6,34.3L92.2,34 M92,36.7L92,36.7"/>
<polyline class="st2" points="93.3,34.2 93,34.3 92.8,34.5 "/>
<line class="st2" x1="93.9" y1="34.4" x2="93.9" y2="39.5"/>
<polyline class="st2" points="92.3,36.6 92,36.3 91.6,36.4 91.3,36.6 91.3,37.1 91.6,37.3 92,37.3 92.3,37.1 "/>
<polyline class="st2" points="92,36.7 91.8,36.5 91.6,36.6 91.5,36.8 91.6,37.1 91.8,37.1 92,37 "/>
<polyline class="st2" points="93.5,37.1 93.6,37.1 93.6,37 "/>
<polyline class="st2" points="92,36.9 92,37 92.1,37 "/>
<polyline class="st2" points="88.3,36.8 88.5,38 89,38.9 89.7,39.6 90.7,40.1 91.8,40.3 92.8,40.1 93.7,39.7 "/>
<polyline class="st2" points="58,14.8 58.2,14.9 58.3,15.1 "/>
<line class="st6" x1="78.7" y1="58.4" x2="58.3" y2="58.4"/>
<line class="st6" x1="144" y1="58.4" x2="91.9" y2="58.4"/>
<line class="st6" x1="78.7" y1="52" x2="58.3" y2="52"/>
<line class="st6" x1="150.4" y1="52" x2="91.9" y2="52"/>
<line class="st6" x1="150.4" y1="52" x2="150.4" y2="166.1"/>
<line class="st6" x1="144" y1="58.4" x2="144" y2="159.4"/>
<path class="st6" d="M78.7,58.4V52 M91.9,58.4V52"/>
<line class="st6" x1="134" y1="164" x2="150.4" y2="164"/>
<line class="st6" x1="134" y1="166.1" x2="150.4" y2="166.1"/>
<line class="st6" x1="81.6" y1="164" x2="109.8" y2="164"/>
<line class="st6" x1="81.6" y1="166.1" x2="109.8" y2="166.1"/>
<line class="st6" x1="49.4" y1="164" x2="57.5" y2="164"/>
<line class="st6" x1="49.4" y1="166.1" x2="57.5" y2="166.1"/>
<line class="st6" x1="134.5" y1="163.5" x2="150.2" y2="163.5"/>
<line class="st6" x1="134.5" y1="159.4" x2="144" y2="159.4"/>
<line class="st6" x1="82.1" y1="163.5" x2="109.3" y2="163.5"/>
<line class="st6" x1="82.1" y1="159.4" x2="109.3" y2="159.4"/>
<line class="st6" x1="49.5" y1="163.5" x2="57" y2="163.5"/>
<line class="st6" x1="49.5" y1="159.4" x2="57" y2="159.4"/>
<polyline class="st6" points="81.6,166.1 81.6,164 82.1,164 82.1,159.4 "/>
<polyline class="st6" points="57.5,166.1 57.5,164 57,164 57,159.4 "/>
<polyline class="st6" points="134,166.1 134,164 134.5,164 134.5,159.4 "/>
<polyline class="st6" points="109.8,166.1 109.8,164 109.4,164 109.4,159.4 "/>
<path class="st6" d="M83.1,14.8H58.3 M97.3,14.8h-9.7 M97.3,8.4h-39"/>
<polyline class="st6" points="87.5,14.8 87.5,12.6 83,12.6 83,14.8 "/>
<path class="st3" d="M74.1,58.4v5"/>
<polyline class="st3" points="77.4,80.2 77.4,85.2 52.6,85.2 "/>
<path class="st7" d="M82,153.8V140c-0.1-2.1-1.8-3.7-3.9-3.6H54.4c-0.7,0-1.2,0.5-1.2,1.1l0,0v18.9c0,0.6,0.5,1,1.1,1h23.8
	C80.1,157.5,81.9,155.9,82,153.8z"/>
<path class="st7" d="M59.8,155.2V149c0-0.5-0.4-0.8-0.8-0.8h-4c-0.5,0-0.8,0.3-0.8,0.8v6.2c0,0.5,0.4,0.8,0.8,0.8h4
	C59.4,156.1,59.8,155.7,59.8,155.2L59.8,155.2z"/>
<path class="st7" d="M60,145.2V139c0-0.5-0.4-0.8-0.8-0.8h-4c-0.5,0-0.8,0.3-0.8,0.8v6.3c0,0.5,0.4,0.8,0.8,0.8h4
	C59.6,146.1,60,145.7,60,145.2L60,145.2z"/>
<line class="st8" x1="67.4" y1="157.4" x2="67.4" y2="136.4"/>
<polygon class="st7" points="66.5,139.6 65.8,136.4 63.3,138.6 "/>
<line class="st8" x1="63.3" y1="138.6" x2="63.3" y2="157.4"/>
<path class="st8" d="M90.7,67.5v7.8c-0.2,1.6-1.6,2.7-3.2,2.6h-5.4c-1.6,0.1-3-1.1-3.2-2.6v-7.8c0.2-1.6,1.6-2.7,3.2-2.6h5.4
	C89.2,64.8,90.5,65.9,90.7,67.5z"/>
<path class="st8" d="M90.2,67.8v7.1c-0.2,1.4-1.4,2.5-2.9,2.4h-4.9c-1.5,0.1-2.7-0.9-2.9-2.4v-7.1c0.2-1.5,1.4-2.5,2.9-2.4h4.9
	C88.8,65.3,90,66.4,90.2,67.8z"/>
<path class="st8" d="M85.8,73c-0.2,0.5-1.2,0.7-2.4,0.5s-2-0.9-1.9-1.4s1.2-0.7,2.4-0.5S86,72.5,85.8,73z"/>
<path class="st8" d="M83.2,73.5c1.1-0.4,1.3-1.1,0.6-1.9"/>
<path class="st8" d="M87.9,69.7c0.2,0.5-0.5,1.2-1.7,1.6S84,71.5,83.8,71s0.5-1.2,1.7-1.6S87.7,69.2,87.9,69.7z"/>
<path class="st8" d="M86.1,71.3c0.6-0.9,0.3-1.5-0.8-1.8"/>
<path class="st9" d="M131.7,125.4h7.5c1.6,0,3,1.3,3,3v25.7c0,1.6-1.3,3-3,3h-7.5c-1.6,0-3-1.3-3-3v-25.7
	C128.7,126.7,130,125.4,131.7,125.4z"/>
<path class="st9" d="M133.1,125.3h8.9c0.5,0,0.9,0.4,0.9,0.9v1.3c0,0.5-0.4,0.9-0.9,0.9h-8.9c-0.5,0-0.9-0.4-0.9-0.9v-1.3
	C132.2,125.7,132.6,125.3,133.1,125.3z"/>
<path class="st9" d="M133.1,154.1h8.9c0.5,0,0.9,0.4,0.9,0.9v1.3c0,0.5-0.4,0.9-0.9,0.9h-8.9c-0.5,0-0.9-0.4-0.9-0.9V155
	C132.2,154.5,132.6,154.1,133.1,154.1z"/>
<path class="st9" d="M140.4,125.6h1.5c0.6,0,1.1,0.5,1.1,1.1v29c0,0.6-0.5,1.1-1.1,1.1h-1.5c-0.6,0-1.1-0.5-1.1-1.1v-29
	C139.4,126.1,139.8,125.6,140.4,125.6z"/>
<path class="st9" d="M140.5,127.8h1.3c0.5,0,0.9,0.4,0.9,0.9v25c0,0.5-0.4,0.9-0.9,0.9h-1.3c-0.5,0-0.9-0.4-0.9-0.9v-25
	C139.6,128.2,140,127.8,140.5,127.8z"/>
<line class="st8" x1="130.4" y1="141.2" x2="139.4" y2="141.2"/>
<rect x="102.2" y="132.4" class="st9" width="4.9" height="20.3"/>
<rect x="103.2" y="136" class="st9" width="3.3" height="12.1"/>
<rect x="104" y="134.1" class="st9" width="1.1" height="16.6"/>
<path class="st7" d="M112.1,115.1v-1.9c0-0.2,0.2-0.4,0.4-0.4l0,0h5.1c0.1,0,0.2,0.1,0.2,0.2l0,0v2.1c0,1.2-1,2.2-2.2,2.2l0,0h-1.3
	C113,117.3,112.1,116.3,112.1,115.1z"/>
<path class="st8" d="M112.1,115.1c2,1.6,3.9,1.6,5.7,0"/>
<path class="st7" d="M118.3,115.2v-1.9c0-0.2,0.2-0.4,0.4-0.4l0,0h5.1c0.1,0,0.2,0.1,0.2,0.2l0,0v2.1c0,1.2-1,2.2-2.2,2.2l0,0h-1.3
	C119.3,117.4,118.3,116.4,118.3,115.2z"/>
<path class="st8" d="M118.3,115.2c2,1.6,3.9,1.6,5.7,0"/>
<path class="st7" d="M124.8,115.2v-1.9c0-0.2,0.2-0.4,0.4-0.4l0,0h5.1c0.1,0,0.2,0.1,0.2,0.2l0,0v2.1c0,1.2-1,2.1-2.1,2.2H127
	C125.8,117.4,124.8,116.5,124.8,115.2C124.8,115.3,124.8,115.3,124.8,115.2z"/>
<path class="st8" d="M124.8,115.2c2,1.6,3.9,1.6,5.7,0"/>
<path class="st7" d="M112.3,101.2v1.9c0,0.2,0.2,0.4,0.4,0.4l0,0h5.1c0.1,0,0.2-0.1,0.2-0.2l0,0v-2.1c0-1.2-1-2.1-2.2-2.1h-1.3
	C113.3,99,112.3,100,112.3,101.2z"/>
<path class="st8" d="M112.3,101.2c2-1.6,3.9-1.6,5.7,0"/>
<path class="st7" d="M118.5,101.1v1.9c0,0.2,0.2,0.4,0.4,0.4l0,0h5.1c0.1,0,0.2-0.1,0.2-0.2V101c0-1.2-1-2.1-2.2-2.2h-1.3
	C119.5,98.9,118.5,99.9,118.5,101.1z"/>
<path class="st8" d="M118.5,101.1c2-1.6,3.9-1.6,5.7,0"/>
<path class="st7" d="M125,101v1.9c0,0.2,0.2,0.4,0.4,0.4l0,0h5.1c0.1,0,0.2-0.1,0.2-0.2l0,0V101c0-1.2-1-2.2-2.2-2.2l0,0h-1.3
	C126,98.8,125,99.8,125,101z"/>
<path class="st8" d="M125,101c2-1.6,3.9-1.6,5.7,0"/>
<path class="st9" d="M112.3,101.8H130c1,0,1.9,0.8,1.9,1.9v8.6c0,1-0.8,1.9-1.9,1.9h-17.7c-1,0-1.9-0.8-1.9-1.9v-8.6
	C110.5,102.6,111.3,101.8,112.3,101.8z"/>
<path class="st9" d="M55.2,125.2h7.9c0.4,0,0.8,0.3,0.8,0.8v7.7c0,0.4-0.3,0.8-0.8,0.8h-7.9c-0.4,0-0.8-0.3-0.8-0.8V126
	C54.5,125.6,54.8,125.2,55.2,125.2z"/>
<rect x="55" y="104.3" transform="matrix(9.758817e-02 -0.9952 0.9952 9.758817e-02 -49.8678 154.1779)" class="st10" width="10.1" height="0.6"/>
<rect x="63.1" y="85.8" transform="matrix(0.3611 -0.9325 0.9325 0.3611 -44.2338 117.1876)" class="st10" width="0.6" height="10.1"/>
<rect x="54.3" y="87.3" class="st9" width="5.4" height="23"/>
<path class="st11" d="M79.4,109h8.1c3.4,0,6.1,2.7,6.1,6.1v15.3c0,3.4-2.7,6.1-6.1,6.1h-8.1c-3.4,0-6.1-2.7-6.1-6.1v-15.3
	C73.2,111.8,76,109,79.4,109z"/>
<text transform="matrix(1 0 0 1 76.8972 116.73)" class="st12 st13 st14">11,3</text>
<text transform="matrix(1 0 0 1 76.6374 132.8696)" class="st12 st13 st14">34,6</text>
<text transform="matrix(1 0 0 1 75.6642 125.1996)" class="st15 st13 st16">36,3</text>
<text transform="matrix(1 0 0 1 84.4899 156.1101)" class="st17 st13 st18" style="text-decoration: underline;">11,3</text>
<text transform="matrix(1 0 0 1 94.23 73.49)" class="st17 st13 st18" style="text-decoration: underline;">3,6</text>
<text transform="matrix(1 0 0 1 70.5801 49.3201)" class="st17 st13 st18" style="text-decoration: underline;">4,7</text>
<text transform="matrix(1 0 0 1 112.84 149.0599)" class="st17 st13 st18" style="text-decoration: underline;">15,0</text>
<text transform="matrix(1 0 0 1 80.5 177.3201)" class="st17 st13 st18" style="text-decoration: underline;">5,6х0,3=1,7</text>
</svg>
