<?xml version="1.0" encoding="utf-8"?>
<!-- Generator: Adobe Illustrator 25.0.0, SVG Export Plug-In . SVG Version: 6.00 Build 0)  -->
<svg version="1.1" id="Слой_1" xmlns="http://www.w3.org/2000/svg" xmlns:xlink="http://www.w3.org/1999/xlink" x="0px" y="0px"
	 viewBox="0 0 200 200" style="enable-background:new 0 0 200 200;" xml:space="preserve">
<style type="text/css">
	.st0{fill:#A3C98F;}
	.st1{fill:none;stroke:#666666;stroke-width:0.2;stroke-linecap:round;stroke-linejoin:round;}
	.st2{fill:none;stroke:#333333;stroke-width:0.6;stroke-linecap:round;stroke-linejoin:round;}
	.st3{fill:none;stroke:#333333;stroke-width:0.4;stroke-linecap:round;stroke-linejoin:round;}
	.st4{fill:#FFFFFF;stroke:#333333;stroke-width:0.4;stroke-linecap:round;stroke-linejoin:round;}
	.st5{fill:none;stroke:#333333;stroke-width:0.8;stroke-linecap:round;stroke-linejoin:round;}
	.st6{fill:#A3C98F;stroke:#666666;stroke-width:0.2;stroke-miterlimit:22.93;}
	.st7{fill:none;stroke:#666666;stroke-width:0.2;stroke-miterlimit:22.93;}
	.st8{fill-rule:evenodd;clip-rule:evenodd;fill:#A3C98F;stroke:#666666;stroke-width:0.2;stroke-miterlimit:22.93;}
	.st9{fill:#666666;}
	.st10{font-family:'ArialMT';}
	.st11{font-size:8px;}
	.st12{fill:#FFFFFF;}
	.st13{fill:#1A1A18;}
	.st14{fill:#E43622;}
	.st15{font-size:9px;}
</style>
<rect x="44.5" y="31" class="st0" width="87.8" height="130.9"/>
<rect x="139.8" y="28.6" class="st0" width="21.2" height="134.3"/>
<polyline class="st1" points="82.9,53.4 94.8,53.4 94.8,42.9 125,42.9 "/>
<rect x="82.9" y="53.4" class="st1" width="11.3" height="10"/>
<polyline class="st1" points="125,31 82.9,31 82.9,53.4 "/>
<path class="st1" d="M70.2,31.5h7.5c0.3,0,0.5,0.2,0.5,0.5v2.8c0,0.3-0.2,0.5-0.5,0.5h-7.5c-0.3,0-0.5-0.2-0.5-0.5V32
	C69.7,31.7,69.9,31.5,70.2,31.5z"/>
<ellipse class="st1" cx="74" cy="40.8" rx="2.7" ry="3.1"/>
<ellipse class="st1" cx="74" cy="40.8" rx="2.7" ry="3.1"/>
<path class="st1" d="M77.2,40.8c0.3,1.8-1,3.5-2.8,3.8s-3.5-1-3.8-2.8c-0.1-0.3-0.1-0.7,0-1c0-1.2,0.3-2.4,0.8-3.5
	c0.6-0.8,1.5-0.5,2.5-0.5s1.9-0.4,2.5,0.4C77,38.3,77.3,39.5,77.2,40.8z"/>
<path class="st1" d="M71.3,35.4c0.2,0.6,0.3,1.3,0.2,1.9"/>
<path class="st1" d="M76.8,35.4c-0.2,0.6-0.3,1.3-0.2,1.9"/>
<circle class="st1" cx="74" cy="39.2" r="0.8"/>
<circle class="st1" cx="74" cy="39.2" r="0.4"/>
<path class="st1" d="M48.7,33.4c0,0,2.3-0.4,3.1-0.4s3.1,0.4,3.1,0.4"/>
<path class="st1" d="M54.9,33.4c0.2,0.1,0.5,0.1,0.7,0.2c0.2,0.2,0.3,0.4,0.5,0.6l0.1,0.7"/>
<path class="st1" d="M45,33.5c0,0,2-0.7,2.6-0.8c0.9-0.2,1.8-0.3,2.8-0.4c0.9-0.1,1.8-0.1,2.8,0c0.9,0.1,1.8,0.2,2.8,0.4
	c0.7,0.2,2.8,0.8,2.8,0.8"/>
<path class="st1" d="M47.4,34.9l0.1-0.7c0.1-0.2,0.3-0.4,0.5-0.6c0.2-0.1,0.5-0.2,0.7-0.2"/>
<path class="st1" d="M58.7,53.9l-0.6,1.8c0,0-0.8,1.2-1.2,1.6c-0.4,0.5-0.9,0.9-1.4,1.2c-0.6,0.3-1.2,0.5-1.8,0.7
	c-0.6,0.1-1.2,0.2-1.8,0.2s-1.3-0.1-1.9-0.2c-1.2-0.4-2.3-1-3.2-1.9c-0.4-0.5-0.7-1-1.1-1.6L45,53.9"/>
<path class="st1" d="M45,53.9V33.5 M44.4,60V31.1 M56.3,47.7V34.9 M58.7,33.5v20.4 M59.3,60V31.1"/>
<path class="st1" d="M56.3,47.7c0,0.5-0.1,1-0.3,1.4s-0.4,0.8-0.7,1.2s-0.7,0.8-1.1,1.1c-0.4,0.3-0.9,0.5-1.3,0.6
	c-0.5,0.1-1,0.1-1.4,0.1c-0.5-0.1-1-0.2-1.4-0.4c-0.3-0.1-0.5-0.2-0.7-0.4c-0.4-0.3-0.7-0.7-1-1.1c-0.3-0.4-0.5-0.8-0.7-1.2
	c-0.1-0.5-0.2-1-0.2-1.4V34.9"/>
<path class="st1" d="M45.5,55.5c0,0,1.4-0.9,1.9-1.1c0.7-0.3,1.4-0.5,2.2-0.7c0.8-0.1,1.5-0.1,2.3-0.1c0.7,0,1.4,0,2.2,0.1
	c0.7,0.2,1.5,0.4,2.2,0.7c0.5,0.2,2,1.1,2,1.1"/>
<circle class="st1" cx="51.6" cy="35.3" r="0.8"/>
<circle class="st1" cx="51.6" cy="35.3" r="0.4"/>
<line class="st1" x1="59.3" y1="60" x2="44.4" y2="60"/>
<polyline class="st1" points="59.3,31.4 59.1,31.2 58.9,31 44.9,31 "/>
<polyline class="st1" points="44.9,31 44.6,31.2 44.5,31.4 "/>
<line class="st1" x1="58.9" y1="60.7" x2="44.9" y2="60.7"/>
<polyline class="st1" points="44.5,60.3 44.6,60.6 44.9,60.7 "/>
<polyline class="st1" points="60,31.3 59.4,32.4 59.3,33.7 59.4,34.9 60,36 60.8,36.8 62,37.4 63.2,37.6 "/>
<polyline class="st1" points="63.2,37.3 62.5,37.2 61.9,36.9 61.3,36.6 60.8,36.2 60.3,35.7 60,35.1 59.7,34.4 59.7,33.1 "/>
<polyline class="st1" points="63.2,37.3 63.8,37.2 64.5,36.9 65.1,36.6 65.6,36.2 66.1,35.7 66.3,35.1 66.6,34.4 66.7,33.8 
	66.7,33.1 "/>
<polyline class="st1" points="66.5,31.3 66.2,31 66.5,31.8 "/>
<line class="st1" x1="63.5" y1="32.6" x2="66.1" y2="32.2"/>
<polyline class="st1" points="64.7,32.6 66.2,32.6 66.7,33.1 "/>
<polyline class="st1" points="66.1,32.2 66.5,32.1 66.5,31.8 "/>
<line class="st1" x1="63.5" y1="31.5" x2="63.5" y2="33.2"/>
<polyline class="st1" points="60,31.3 60.2,31 60.1,31.8 "/>
<polyline class="st1" points="63.3,31.4 62.9,31.4 62.9,31.5 "/>
<path class="st1" d="M63.1,33.3h0.2 M61.7,32.6h-1.6 M60.3,32.4l2.5,0.2"/>
<polyline class="st1" points="63,33.2 63,33.3 63.1,33.3 "/>
<path class="st1" d="M62.9,31.5l0.1,1.7 M60.1,32.6l-0.4,0.5"/>
<polyline class="st1" points="60.1,31.8 60.1,32.1 60.3,32.4 "/>
<line class="st1" x1="60.2" y1="31" x2="66.2" y2="31"/>
<polyline class="st1" points="63,33 62.6,33.3 62.6,33.8 63,34.2 63.5,34.2 63.8,33.8 63.8,33.3 63.5,33 "/>
<polyline class="st1" points="63,33.3 62.9,33.6 63,33.8 63.2,33.9 63.5,33.8 63.6,33.6 63.5,33.3 "/>
<polyline class="st1" points="63.5,31.5 63.5,31.4 63.3,31.4 "/>
<line class="st1" x1="63.3" y1="33.3" x2="63.5" y2="33.2"/>
<polyline class="st1" points="63.2,37.6 64.4,37.4 65.5,36.8 66.5,36 66.9,34.9 67.2,33.7 66.9,32.4 66.5,31.3 "/>
<path class="st2" d="M44.5,161.5H132 M40.6,161.5L40.6,161.5"/>
<line class="st3" x1="51.9" y1="95.7" x2="51.9" y2="98.1"/>
<polyline class="st4" points="44.5,60.7 62.5,60.7 62.5,63.1 44.5,63.1 "/>
<polyline class="st4" points="82.9,31 82.9,72.6 80.5,72.6 80.5,63.1 78.1,63.1 78.1,60.7 80.5,60.7 80.5,31 "/>
<polyline class="st4" points="132,98.1 70.2,98.1 70.2,95.7 80.5,95.7 80.5,90.8 82.9,90.8 82.9,95.7 132,95.7 "/>
<line class="st2" x1="44.5" y1="70.6" x2="40.5" y2="70.6"/>
<polyline class="st3" points="163.7,26.1 163.7,165.4 139.9,165.4 "/>
<polyline class="st3" points="139.9,162.9 161.3,162.9 161.3,28.4 "/>
<line class="st2" x1="44.5" y1="90.4" x2="40.5" y2="90.4"/>
<path class="st3" d="M137.5,48.1V60 M136.5,48.1V60 M132,48.1v29.6 M139.9,48.7v28.4 M137.5,58.4h-1 M139.9,60H132 M137.5,49.6h-1"
	/>
<polygon class="st4" points="125,61.8 125.9,61.3 132.8,77.2 132,77.7 "/>
<polyline class="st3" points="132,59.8 129.8,60.1 127.8,60.6 125.9,61.3 "/>
<path class="st3" d="M137.5,114.9v29.8 M139.9,144.1v-28.6 M132,114.9v29.8"/>
<polyline class="st3" points="136.5,144.7 136.5,114.9 136.5,116.5 137.5,116.5 137.5,114.9 136.5,114.9 "/>
<rect x="136.5" y="143.1" class="st3" width="1" height="1.6"/>
<rect x="136.5" y="129.1" class="st3" width="1" height="1.4"/>
<polygon class="st4" points="51.9,97.8 67.8,106.8 68.1,106 52.4,96.9 "/>
<polyline class="st3" points="67.8,106.8 69.1,104 69.9,100.9 70.2,97.8 "/>
<polyline class="st4" points="44.5,95.7 51.9,95.7 51.9,97.8 51.9,98.1 44.5,98.1 "/>
<polygon class="st4" points="78.1,62.7 64.5,70.5 64.2,69.8 77.6,61.9 "/>
<polyline class="st3" points="64.5,70.5 63.5,68 62.7,65.4 62.5,62.7 "/>
<polygon class="st4" points="82.4,90.8 91.5,75 90.8,74.6 81.7,90.3 "/>
<polyline class="st3" points="91.5,75 88.7,73.6 85.7,72.8 82.4,72.6 "/>
<polygon class="st3" points="42.5,70.6 32.6,87.7 33.3,88.2 43.2,71 "/>
<polyline class="st3" points="42.5,90.4 39,90.1 35.7,89.2 32.6,87.7 "/>
<path class="st3" d="M42.5,90.4h2 M42.5,70.6h2"/>
<path class="st3" d="M40.5,163.4v2"/>
<line class="st1" x1="85.7" y1="36.8" x2="85.7" y2="42.8"/>
<polyline class="st1" points="85.4,36.8 85.4,42.8 85.7,42.8 "/>
<path class="st1" d="M87.6,36.8h-0.2 M86.6,36.8h-0.2 M85.7,36.8h-0.2"/>
<polyline class="st1" points="87.9,45.1 87.9,45 87.8,44.8 "/>
<polyline class="st1" points="87.9,45.1 87.8,45.2 87.7,45.4 87.6,45.4 "/>
<path class="st1" d="M85.3,43.5l2.8,1.5 M85.1,44.2l2.6,1.4 M87.7,45.5L87.7,45.5"/>
<polyline class="st1" points="85.2,43.8 85.5,44 85.5,44.1 85.2,44 "/>
<polygon class="st1" points="84.9,43.4 84.7,43.5 84.6,43.8 84.7,44 85.1,44 85.2,43.8 85.1,43.5 "/>
<polyline class="st1" points="85.3,43.9 85.3,43.5 84.9,43.3 84.6,43.4 84.5,43.8 84.6,44 84.9,44.1 85.3,44 "/>
<polyline class="st1" points="85.2,43.8 85.2,43.5 84.9,43.4 84.7,43.5 84.6,43.8 84.7,44 84.9,44.1 85.2,44 "/>
<path class="st1" d="M93.3,36.8v6 M87.6,36.8v6 M87.3,36.8v6 M86.6,36.8v6 M86.4,36.8v6 M85.5,44.5l-0.2,0.6 M86.6,42.8h-0.2
	 M87.6,42.8h-0.2"/>
<polyline class="st1" points="93.6,36.8 93.6,42.8 93.3,42.8 "/>
<path class="st1" d="M89.6,42.8h-0.2 M90.6,42.8h-0.2 M91.5,42.8h-0.2 M92.5,42.8L92.5,42.8 M88.5,42.8L88.5,42.8 M92.5,36.8
	L92.5,36.8 M91.5,36.8h-0.2 M90.6,36.8h-0.2 M89.6,36.8h-0.2 M88.5,36.8L88.5,36.8 M93.6,36.8h-0.2"/>
<polyline class="st1" points="93.5,45.1 93.3,44.5 92.9,44.2 "/>
<path class="st1" d="M89.4,36.8v6 M89.6,36.8v6 M90.3,36.8v6 M88.5,36.8v6 M90.5,36.8v6 M88.4,36.8v6 M91.3,36.8v6 M91.5,36.8v6
	 M92.3,36.8v6 M92.5,36.8v6"/>
<polyline class="st1" points="93.7,43.8 93.7,36.7 93.5,36.3 93.1,36.1 84.9,36.1 84.6,36.3 84.3,36.8 84.3,43.8 "/>
<path class="st1" d="M94.1,35.8H83.9 M92.9,44.2h-6.2"/>
<line class="st1" x1="88.1" y1="45.1" x2="88.1" y2="45"/>
<polyline class="st1" points="88.1,45.1 87.9,45.3 87.9,45.4 "/>
<polyline class="st1" points="87.7,45.6 87.8,45.6 87.9,45.4 "/>
<polyline class="st1" points="85.3,50.5 85.5,51.1 86,51.3 "/>
<polygon class="st1" points="89.4,47.2 89,47.4 88.9,47.7 89,48.1 89.4,48.3 89.7,48.1 89.9,47.7 89.7,47.4 "/>
<line class="st1" x1="90.6" y1="48.8" x2="92.7" y2="50.5"/>
<polyline class="st1" points="92.9,51.3 93.3,51.1 93.5,50.5 "/>
<polygon class="st1" points="89.4,47 88.9,47.2 88.7,47.7 88.9,48.3 89.4,48.6 90,48.3 90.2,47.7 90,47.2 "/>
<path class="st1" d="M93.7,43.8v7.1 M86.1,50.5l2-1.7 M86,51.3h6.8 M83.8,51.8H94"/>
<polyline class="st1" points="93.1,51.4 93.5,51.3 93.7,50.8 "/>
<line class="st1" x1="93.1" y1="51.4" x2="84.9" y2="51.4"/>
<polyline class="st1" points="84.3,50.8 84.6,51.3 84.9,51.4 "/>
<path class="st1" d="M93.5,50.5v-5.4 M90.6,46.8l2.2-1.7 M85.3,45.1v5.4 M86.1,45.1l2,1.7 M94,51.8v-16 M83.8,35.8v16 M84.3,50.8v-7
	"/>
<rect x="110.6" y="42" class="st1" width="10.8" height="1"/>
<rect x="110.6" y="31.3" class="st1" width="10.8" height="10.7"/>
<polygon class="st1" points="114.2,42 114,42.1 113.9,42.4 114,42.7 114.2,42.8 114.5,42.7 114.6,42.4 114.5,42.1 "/>
<polygon class="st1" points="119.5,42 119.3,42.1 119.1,42.4 119.3,42.7 119.5,42.8 119.7,42.7 119.9,42.4 119.7,42.1 "/>
<polygon class="st1" points="119.5,42.2 119.4,42.2 119.3,42.4 119.4,42.6 119.6,42.6 119.7,42.4 119.6,42.2 "/>
<polygon class="st1" points="116,42 115.7,42.1 115.5,42.4 115.7,42.7 116,42.8 116.3,42.7 116.4,42.4 116.3,42.1 "/>
<polygon class="st1" points="117.7,42 117.5,42.1 117.3,42.4 117.5,42.7 117.7,42.8 118.1,42.7 118.2,42.4 118.1,42.1 "/>
<polygon class="st1" points="117.7,42.2 117.6,42.2 117.6,42.4 117.6,42.6 117.7,42.6 117.9,42.6 117.9,42.4 117.9,42.2 "/>
<polygon class="st1" points="116,42.2 115.8,42.2 115.8,42.4 115.8,42.6 116,42.6 116.1,42.6 116.1,42.4 116.1,42.2 "/>
<polygon class="st1" points="112.4,42 112.2,42.1 112.1,42.4 112.2,42.7 112.4,42.8 112.7,42.7 112.8,42.4 112.7,42.1 "/>
<polygon class="st1" points="112.4,42.2 112.3,42.2 112.3,42.4 112.3,42.6 112.4,42.6 112.5,42.6 112.7,42.4 112.5,42.2 "/>
<polygon class="st1" points="114.2,42.2 114.1,42.2 114,42.4 114.1,42.6 114.3,42.6 114.5,42.4 114.3,42.2 "/>
<rect x="95.7" y="60" class="st1" width="0.1" height="2.3"/>
<line class="st1" x1="94.8" y1="53.4" x2="95.3" y2="53.4"/>
<polyline class="st1" points="95.7,53.8 95.6,53.5 95.3,53.4 "/>
<line class="st1" x1="95.7" y1="53.8" x2="95.7" y2="62.8"/>
<polyline class="st1" points="95.3,63.3 95.6,63.1 95.7,62.8 "/>
<polyline class="st1" points="95.3,63.3 94.8,63.3 94.8,53.4 "/>
<rect x="94.2" y="53.8" class="st1" width="0.6" height="9"/>
<path class="st1" d="M90.7,58.4h-4.4 M88.4,60.6v-4.3 M86.9,60.1l3.2-3.4 M90.1,60.1l-3.2-3.4"/>
<polyline class="st1" points="122.3,41.6 109.7,41.6 109.7,31.9 110.4,31.9 "/>
<polyline class="st1" points="122.1,41.5 109.8,41.5 109.8,32.1 110.4,32.1 "/>
<polyline class="st1" points="122.1,41.5 122.1,32.1 121.5,32.1 "/>
<polyline class="st1" points="122.3,41.6 122.3,31.9 121.5,31.9 "/>
<polyline class="st1" points="121.5,39.8 110.4,39.8 110.7,39.6 121.3,39.6 121.5,39.8 121.5,31.4 "/>
<line class="st1" x1="110.4" y1="39.8" x2="110.4" y2="33.4"/>
<polyline class="st1" points="121.3,39.6 120.6,39.1 111.3,39.1 110.7,39.6 110.7,31.5 111.3,32 111.3,39.1 111.6,39 120.3,39 
	120.6,39.1 120.6,32 117.7,32 "/>
<polyline class="st1" points="117.3,36.9 117.7,36.7 114.3,36.7 114.6,36.9 "/>
<polyline class="st1" points="117.7,36.7 117.7,31.5 114.3,31.5 114.3,36.7 "/>
<polyline class="st1" points="120.6,32 121.3,31.5 121.3,39.6 "/>
<path class="st1" d="M121.3,31.5h-3.6 M114.3,32h-3"/>
<line class="st1" x1="114.3" y1="31.5" x2="110.6" y2="31.5"/>
<path class="st1" d="M121.3,31.5L121.3,31.5 M121.4,31.5h-3.7"/>
<polyline class="st1" points="114.3,31.5 110.4,31.5 110.4,39.8 "/>
<polyline class="st1" points="121.4,31.5 121.5,31.5 121.5,31 110.4,31 110.4,31.5 121.5,31.5 "/>
<line class="st1" x1="125" y1="42.9" x2="125" y2="31"/>
<line class="st5" x1="139.9" y1="23.5" x2="40.5" y2="23.5"/>
<line class="st5" x1="61.4" y1="31" x2="40.5" y2="31"/>
<line class="st5" x1="132" y1="31" x2="66.8" y2="31"/>
<rect x="139.9" y="26.1" class="st5" width="23.8" height="2.3"/>
<polyline class="st5" points="139.9,77.1 137.5,77.1 137.5,77.7 132,77.7 "/>
<polyline class="st5" points="139.9,48.7 137.5,48.7 137.5,48.1 132,48.1 "/>
<polyline class="st5" points="139.9,144.1 137.5,144.1 137.5,144.7 132,144.7 "/>
<polyline class="st5" points="139.9,115.5 137.5,115.5 137.5,114.9 132,114.9 "/>
<line class="st5" x1="136.9" y1="165.1" x2="136.9" y2="144.7"/>
<line class="st5" x1="132" y1="165.1" x2="132" y2="144.7"/>
<line class="st5" x1="136.9" y1="114.9" x2="136.9" y2="77.7"/>
<line class="st5" x1="132" y1="114.9" x2="132" y2="77.7"/>
<line class="st5" x1="136.9" y1="48.1" x2="136.9" y2="23.8"/>
<line class="st5" x1="132" y1="48.1" x2="132" y2="23.8"/>
<line class="st5" x1="137.5" y1="165.1" x2="137.5" y2="144.1"/>
<line class="st5" x1="139.9" y1="165.1" x2="139.9" y2="144.1"/>
<line class="st5" x1="137.5" y1="115.5" x2="137.5" y2="77.1"/>
<line class="st5" x1="139.9" y1="115.5" x2="139.9" y2="77.1"/>
<line class="st5" x1="137.5" y1="48.7" x2="137.5" y2="23.8"/>
<line class="st5" x1="139.9" y1="48.7" x2="139.9" y2="23.8"/>
<polyline class="st5" points="61.4,31 61.4,28.4 66.8,28.4 66.8,31 "/>
<path class="st5" d="M40.5,31v-7.5"/>
<path class="st2" d="M44.5,31v39.6 M40.5,31v39.6"/>
<path class="st2" d="M44.5,90.4v71 M40.5,90.4v71 M40.5,161.4v4"/>
<line class="st2" x1="40.5" y1="165.4" x2="139.9" y2="165.4"/>
<path class="st6" d="M94.4,100.1h30.4c1.9,0,3.5,1.6,3.5,3.5v8.8c0,1.9-1.6,3.5-3.5,3.5H94.4c-1.9,0-3.5-1.6-3.5-3.5v-8.8
	C90.9,101.7,92.5,100.1,94.4,100.1z"/>
<path class="st6" d="M91.9,101.1h1.5c0.6,0,1.1,0.5,1.1,1.1v10.5c0,0.6-0.5,1.1-1.1,1.1h-1.5c-0.6,0-1.1-0.5-1.1-1.1v-10.5
	C90.8,101.6,91.3,101.1,91.9,101.1z"/>
<path class="st6" d="M125.9,101.1h1.5c0.6,0,1.1,0.5,1.1,1.1v10.5c0,0.6-0.5,1.1-1.1,1.1h-1.5c-0.6,0-1.1-0.5-1.1-1.1v-10.5
	C124.8,101.6,125.3,101.1,125.9,101.1z"/>
<path class="st6" d="M92.4,101.1h34.3c0.7,0,1.3,0.6,1.3,1.3v1.8c0,0.7-0.6,1.3-1.3,1.3H92.4c-0.7,0-1.3-0.6-1.3-1.3v-1.8
	C91.2,101.6,91.7,101.1,92.4,101.1z"/>
<path class="st6" d="M94.8,101.3h29.5c0.6,0,1.1,0.5,1.1,1.1v1.5c0,0.6-0.5,1.1-1.1,1.1H94.8c-0.6,0-1.1-0.5-1.1-1.1v-1.5
	C93.8,101.8,94.2,101.3,94.8,101.3z"/>
<line class="st7" x1="109.6" y1="115.9" x2="109.6" y2="105.3"/>
<path class="st7" d="M51.8,70.3h6.4c2.1,0,3.8,1.7,3.8,3.8v11.1c0,2.1-1.7,3.8-3.8,3.8h-6.4c-2.1,0-3.8-1.7-3.8-3.8V74.1
	C48,72,49.7,70.3,51.8,70.3z"/>
<path class="st7" d="M52,71.2h5.8c1.9,0,3.4,1.5,3.4,3.4v10c0,1.9-1.5,3.4-3.4,3.4H52c-1.9,0-3.4-1.5-3.4-3.4v-10
	C48.6,72.7,50.2,71.2,52,71.2z"/>
<path class="st7" d="M56.1,81.9c-0.2,0.8-1.5,1.1-2.9,0.7s-2.4-1.2-2.2-2s1.5-1.1,2.9-0.7S56.2,81.2,56.1,81.9z"/>
<path class="st7" d="M53,82.6c1.3-0.6,1.5-1.5,0.7-2.7"/>
<path class="st7" d="M58.6,77.2c0.3,0.7-0.6,1.7-2,2.2s-2.7,0.3-2.9-0.4s0.6-1.7,2-2.2S58.3,76.5,58.6,77.2z"/>
<path class="st7" d="M56.4,79.4c0.7-1.2,0.4-2.1-1-2.6"/>
<path class="st8" d="M52.4,126.1h17.5c2.6,0,4.6,2.1,4.6,4.6v27.9c0,0.8-0.6,1.4-1.4,1.4h-24c-0.7,0-1.3-0.6-1.3-1.3v-28
	C47.8,128.2,49.9,126.1,52.4,126.1z"/>
<path class="st6" d="M50.6,152.3h7.9c0.6,0,1,0.5,1,1v4.7c0,0.6-0.5,1-1,1h-7.9c-0.6,0-1-0.5-1-1v-4.7
	C49.6,152.8,50,152.3,50.6,152.3z"/>
<path class="st6" d="M63.3,152.1h7.9c0.6,0,1,0.5,1,1v4.7c0,0.6-0.5,1-1,1h-7.9c-0.6,0-1-0.5-1-1v-4.7
	C62.3,152.6,62.7,152.1,63.3,152.1z"/>
<line class="st7" x1="47.8" y1="143.3" x2="74.5" y2="143.3"/>
<polygon class="st8" points="70.3,144.4 74.5,145.2 71.7,148.2 "/>
<line class="st7" x1="71.7" y1="148.2" x2="47.8" y2="148.2"/>
<path class="st8" d="M102.5,69.8h2.3c0.2,0,0.4,0.2,0.4,0.4l0,0v6c0,0.1-0.1,0.2-0.2,0.2l0,0h-2.5c-1.4,0-2.5-1.1-2.6-2.6v-1.5
	C99.9,70.9,101.1,69.8,102.5,69.8z"/>
<path class="st7" d="M102.5,69.8c-1.9,2.4-1.9,4.6,0,6.7"/>
<path class="st8" d="M102.4,77.1h2.3c0.2,0,0.4,0.2,0.4,0.4v6.1c0,0.1-0.1,0.2-0.2,0.2l0,0h-2.5c-1.4,0-2.5-1.1-2.6-2.6v-1.6
	C99.8,78.3,101,77.1,102.4,77.1z"/>
<path class="st7" d="M102.4,77.1c-1.9,2.4-1.9,4.7,0,6.7"/>
<path class="st8" d="M102.3,84.8h2.3c0.2,0,0.4,0.2,0.4,0.4v6.1c0,0.1-0.1,0.2-0.2,0.2l0,0h-2.5c-1.4,0-2.5-1.1-2.5-2.6v-1.6
	C99.7,85.9,100.9,84.8,102.3,84.8z"/>
<path class="st7" d="M102.3,84.8c-1.9,2.4-1.9,4.6,0,6.7"/>
<path class="st8" d="M119,70.1h-2.3c-0.2,0-0.4,0.2-0.4,0.4v6.1c0,0.1,0.1,0.2,0.2,0.2l0,0h2.5c1.4,0,2.6-1.1,2.6-2.5l0,0v-1.6
	C121.5,71.2,120.4,70.1,119,70.1z"/>
<path class="st7" d="M119,70.1c1.9,2.4,1.9,4.6,0,6.7"/>
<path class="st8" d="M119.1,77.4h-2.3c-0.2,0-0.4,0.2-0.4,0.4v6.1c0,0.1,0.1,0.2,0.2,0.2l0,0h2.5c1.4,0,2.5-1.1,2.5-2.5l0,0V80
	C121.7,78.6,120.5,77.4,119.1,77.4L119.1,77.4z"/>
<path class="st7" d="M119.1,77.4c1.9,2.4,1.9,4.6,0,6.7"/>
<path class="st8" d="M119.2,85.1h-2.3c-0.2,0-0.4,0.2-0.4,0.4l0,0v6.1c0,0.1,0.1,0.2,0.2,0.2h2.5c1.4,0,2.5-1.1,2.6-2.5v-1.6
	C121.7,86.2,120.6,85.1,119.2,85.1z"/>
<path class="st7" d="M119.2,85.1c1.9,2.4,1.9,4.6,0,6.7"/>
<path class="st6" d="M106,67.9h10.1c1.2,0,2.2,1,2.2,2.2V91c0,1.2-1,2.2-2.2,2.2H106c-1.2,0-2.2-1-2.2-2.2V70.1
	C103.8,68.9,104.7,67.9,106,67.9z"/>
<text transform="matrix(1 0 0 1 112.5 157.3401)" class="st9 st10 st11" style="text-decoration: underline;">14,2</text>
<text transform="matrix(1 0 0 1 66.04 83.72)" class="st9 st10 st11" style="text-decoration: underline;">2,9</text>
<text transform="matrix(1 0 0 1 105.8705 58.3)" class="st9 st10 st11" style="text-decoration: underline;">8,2</text>
<text transform="matrix(1 0 0 1 64.34 55.3401)" class="st9 st10 st11" style="text-decoration: underline;">3,0</text>
<path class="st12" d="M92.4,119.1h9.6c4,0,7.2,3.2,7.2,7.2v18.1c0,4-3.2,7.2-7.2,7.2h-9.6c-4,0-7.2-3.2-7.2-7.2v-18.1
	C85.2,122.3,88.4,119.1,92.4,119.1z"/>
<text transform="matrix(1 0 0 1 89.4498 127.5231)" class="st13 st10 st11">14,2</text>
<text transform="matrix(1 0 0 1 89.4496 147.4256)" class="st13 st10 st11">28,3</text>
<text transform="matrix(1 0 0 1 88.4767 137.853)" class="st14 st10 st15">30,5</text>
<text transform="matrix(6.123234e-17 -1 1 6.123234e-17 151.78 118.7402)" class="st9 st10 st11" style="text-decoration: underline;">7,3х0,3=2,2</text>
</svg>
