<?xml version="1.0" encoding="utf-8"?>
<!-- Generator: Adobe Illustrator 25.0.0, SVG Export Plug-In . SVG Version: 6.00 Build 0)  -->
<svg version="1.1" id="Слой_1" xmlns="http://www.w3.org/2000/svg" xmlns:xlink="http://www.w3.org/1999/xlink" x="0px" y="0px"
	 viewBox="0 0 200 200" style="enable-background:new 0 0 200 200;" xml:space="preserve">
<style type="text/css">
	.st0{fill-rule:evenodd;clip-rule:evenodd;fill:#FFF18D;}
	.st1{fill:#FFF18D;}
	.st2{fill:none;stroke:#666666;stroke-width:0.2;stroke-linecap:round;stroke-linejoin:round;}
	.st3{fill:none;stroke:#333333;stroke-width:0.6;stroke-linecap:round;stroke-linejoin:round;}
	.st4{fill:none;stroke:#333333;stroke-width:0.4;stroke-linecap:round;stroke-linejoin:round;}
	.st5{fill:#FFFFFF;stroke:#333333;stroke-width:0.4;stroke-linecap:round;stroke-linejoin:round;}
	.st6{fill:none;stroke:#333333;stroke-width:0.8;stroke-linecap:round;stroke-linejoin:round;}
	.st7{fill:none;stroke:#666666;stroke-width:0.2;stroke-miterlimit:22.93;}
	.st8{fill-rule:evenodd;clip-rule:evenodd;fill:#FFF18D;stroke:#666666;stroke-width:0.2;stroke-miterlimit:22.93;}
	.st9{fill:#FFF18D;stroke:#666666;stroke-width:0.2;stroke-miterlimit:22.93;}
	.st10{fill:#FFF18D;stroke:#666666;stroke-width:0.2;stroke-miterlimit:22.9288;}
	.st11{fill:#666666;}
	.st12{font-family:'ArialMT';}
	.st13{font-size:6.42px;}
	.st14{fill:#FFFFFF;}
	.st15{fill:#1A1A18;}
	.st16{font-size:7px;}
	.st17{fill:#E43622;}
	.st18{font-size:8px;}
</style>
<polygon class="st0" points="161.4,176.6 66,176.6 66,81.2 80.4,81.2 80.4,74.3 98.5,74.3 98.5,81.2 161.4,81.2 "/>
<rect x="167.7" y="26.9" class="st1" width="17.3" height="106.1"/>
<polygon class="st0" points="59.9,75.1 15.6,75.1 15.6,39.5 59.9,39.5 59.9,56.6 65.8,56.6 65.8,26.9 161.3,26.9 161.3,75 65.8,75 
	65.8,69.2 59.9,69.2 "/>
<path class="st2" d="M48.8,39.9h6c0.2,0,0.4,0.2,0.4,0.4v2.3c0,0.2-0.2,0.4-0.4,0.4h-6c-0.2,0-0.4-0.2-0.4-0.4v-2.3
	C48.3,40.1,48.5,39.9,48.8,39.9z"/>
<ellipse class="st2" cx="51.8" cy="47.4" rx="2.2" ry="2.5"/>
<ellipse class="st2" cx="51.8" cy="47.4" rx="2.2" ry="2.5"/>
<path class="st2" d="M54.4,47.4c0.2,1.5-0.8,2.8-2.2,3s-2.8-0.8-3-2.2c0-0.3,0-0.5,0-0.8c0-1,0.2-2,0.7-2.8c0.5-0.7,1.2-0.4,2-0.4
	s1.5-0.3,2,0.3C54.2,45.4,54.4,46.4,54.4,47.4z"/>
<path class="st2" d="M49.6,43c0.2,0.5,0.2,1,0.2,1.5"/>
<path class="st2" d="M54,43c-0.2,0.5-0.2,1-0.2,1.5"/>
<circle class="st2" cx="51.8" cy="46.1" r="0.7"/>
<circle class="st2" cx="51.8" cy="46.1" r="0.3"/>
<polyline class="st2" points="39.5,42.4 39.5,39.7 15.7,39.7 15.7,63.5 18,63.5 "/>
<line class="st2" x1="59.8" y1="99" x2="59.8" y2="96.1"/>
<path class="st2" d="M59.8,104.7L59.8,104.7 M59.8,104.8v-3.1"/>
<polyline class="st2" points="59.8,104.8 59.8,104.9 60.1,104.9 60.1,95.9 59.8,95.9 59.8,104.9 "/>
<polyline class="st2" points="48,74.2 48.5,73.3 48.6,72.2 48.5,71.3 48,70.4 47.3,69.7 46.4,69.2 45.4,69.1 "/>
<polyline class="st2" points="45.4,69.4 46,69.4 46.5,69.6 47,69.9 47.3,70.2 47.7,70.6 48,71.1 48.1,71.7 48.2,72.1 48.2,72.7 "/>
<polyline class="st2" points="45.4,69.4 44.9,69.4 44.4,69.6 43.9,69.9 43.5,70.2 43.1,70.6 42.9,71.1 42.7,71.7 42.6,72.1 
	42.6,72.7 "/>
<polyline class="st2" points="42.8,74.2 43,74.4 42.8,73.8 "/>
<line class="st2" x1="45.2" y1="73.1" x2="43.1" y2="73.4"/>
<polyline class="st2" points="44.2,73.2 43,73.1 42.6,72.7 "/>
<polyline class="st2" points="43.1,73.4 42.8,73.5 42.8,73.8 "/>
<line class="st2" x1="45.2" y1="74" x2="45.2" y2="72.6"/>
<polyline class="st2" points="48,74.2 47.8,74.4 47.9,73.8 "/>
<polyline class="st2" points="45.3,74.1 45.6,74.1 45.7,74 "/>
<path class="st2" d="M45.5,72.5h-0.2 M46.7,73.2l1.2-0.1 M47.7,73.3l-2.1-0.2"/>
<polyline class="st2" points="45.6,72.6 45.6,72.5 45.5,72.5 "/>
<path class="st2" d="M45.7,74l-0.1-1.3 M47.9,73.1l0.3-0.4"/>
<polyline class="st2" points="47.9,73.8 47.9,73.5 47.7,73.3 "/>
<path class="st2" d="M47.2,72.3h-3.4 M47.8,74.3H43"/>
<polyline class="st2" points="45.6,72.8 45.9,72.5 45.9,72.1 45.6,71.8 45.2,71.8 44.9,72.1 44.9,72.5 45.2,72.8 "/>
<polyline class="st2" points="45.6,72.5 45.7,72.3 45.6,72.1 45.4,72.1 45.2,72.1 45.1,72.3 45.2,72.5 "/>
<polyline class="st2" points="45.2,74 45.2,74.1 45.3,74.1 "/>
<polyline class="st2" points="45.3,72.5 45.2,72.5 45.2,72.6 "/>
<polyline class="st2" points="45.4,69.1 44.5,69.2 43.6,69.7 42.8,70.4 42.4,71.3 42.2,72.2 42.4,73.3 42.8,74.2 "/>
<polygon class="st2" points="16.7,56.1 16.6,56.2 16.6,56.4 16.5,56.5 16.5,57.2 16.6,57.2 16.7,57.2 16.7,57.1 16.7,56.9 
	16.8,56.8 16.8,56.1 "/>
<polygon class="st2" points="23.3,63.9 23.1,63.9 23.1,64 22.6,64 22.5,63.9 22.1,63.9 22,63.8 22,63.7 22.1,63.7 23,63.7 
	23.1,63.8 23.2,63.8 23.2,63.9 "/>
<polygon class="st2" points="24.4,46.5 24.3,46.3 24.3,46.2 24.2,46 24.2,45.2 24.3,44.9 24.3,44.6 24.4,44.3 24.4,44 24.5,43.8 
	24.6,43.7 24.7,43.5 24.8,43.4 24.9,43.3 25,43.4 25.1,43.5 25.1,45 25,45.3 24.9,45.6 24.9,45.9 24.8,46.1 24.7,46.2 24.6,46.3 
	24.5,46.5 "/>
<polyline class="st2" points="17.7,60.5 17.1,59.2 16.9,57.7 16.9,56.3 17.4,54.9 18.1,53.7 19,52.6 20.3,51.7 21.6,51.3 23,51.1 
	24.4,51.2 "/>
<polyline class="st2" points="16.9,60 16.5,58.6 16.5,57.1 16.6,55.7 17.1,54.3 17.9,53.1 19,52.1 20.2,51.3 21.5,50.8 23,50.6 "/>
<polygon class="st2" points="19.9,63.4 19,63.5 18.2,63.4 17.4,62.9 16.7,62.3 16.4,61.5 16.2,60.6 16.5,59.7 17.6,60.4 18.6,61.3 
	19.3,62.2 "/>
<polyline class="st2" points="19.8,42.4 22.6,41.8 25.5,41.5 28.4,41.5 31.2,42 "/>
<polyline class="st2" points="21.2,43.5 22.4,44.4 23.3,45.8 23.8,47.2 "/>
<polyline class="st2" points="18.3,44.3 18.9,43.7 19.5,43.3 20.4,43.3 21.2,43.5 "/>
<polyline class="st2" points="17.5,52.8 17.1,50.7 17.1,48.5 17.5,46.3 18.3,44.3 "/>
<polyline class="st2" points="16.9,53.2 16.5,50.9 16.5,48.5 16.6,46.2 17.1,43.8 17.7,42.9 18.5,42.1 19.4,41.5 20.4,41.2 
	23.6,40.7 26.7,40.7 29.9,41 33,41.6 "/>
<polyline class="st2" points="29.7,58.7 30.5,57.2 31.6,55.9 32.8,54.8 34.2,54 35.8,53.5 "/>
<polyline class="st2" points="39.3,47.7 39.3,49.1 38.8,50.6 37.9,51.7 "/>
<polyline class="st2" points="39.9,47.3 39.9,48.7 39.7,50 39.2,51.3 38.3,52.3 "/>
<polyline class="st2" points="35.9,44.8 35.8,44.5 35.9,44.2 35.9,44 36.1,43.8 36.3,43.8 37,43.8 37.3,43.8 37.6,44 37.9,44.3 
	38.2,44.5 38.4,44.8 38.6,45.2 38.8,45.5 38.9,45.8 39,46.1 39,46.3 38.9,46.6 38.8,46.8 38.7,46.9 38.4,47 38.2,47.1 37.9,47 
	37.6,46.9 "/>
<polygon class="st2" points="35.1,44.4 34.9,44.1 35,43.8 35.2,43.4 36.1,42.5 36.5,42.3 37,42.3 37.2,42.5 40.2,46.1 40.3,46.5 
	40.3,46.8 40,47.2 39,47.9 38.6,48.1 38.2,48 37.9,47.8 "/>
<polyline class="st2" points="23,48.4 23.3,49 23.2,49.8 22.7,50.3 22,50.6 "/>
<line class="st2" x1="31.8" y1="50.8" x2="36.5" y2="46.8"/>
<polyline class="st2" points="32.3,51.3 37,47.4 36.5,46.8 "/>
<line class="st2" x1="32.3" y1="51.3" x2="31.8" y2="50.8"/>
<polyline class="st2" points="32.1,50.4 32.5,50.7 32.6,51 "/>
<path class="st2" d="M35.3,46L35.3,46 M35.2,46.1L35.2,46.1 M34.8,46.4L34.8,46.4 M35,46.3L35,46.3 M34.6,46.6L34.6,46.6 M34.4,46.7
	L34.4,46.7 M33.8,47.3L33.8,47.3 M33.9,47.2L33.9,47.2 M34.3,46.9L34.3,46.9 M34.1,47.1L34.1,47.1 M32.6,48.2L32.6,48.2 M32.8,48.1
	L32.8,48.1 M32.5,48.4L32.5,48.4 M32.3,48.6L32.3,48.6 M33,47.9L33,47.9 M33.1,47.8L33.1,47.8 M33.5,47.5L33.5,47.5 M33.4,47.6
	L33.4,47.6 M31.5,49.2h0.1 M31.7,49.1h0.1 M32.1,48.8L32.1,48.8 M31.9,48.9H32 M33,50.2L33,50.2 M33.2,50.1L33.2,50.1 M32.8,50.4
	L32.8,50.4 M32.6,50.5L32.6,50.5 M34.5,49L34.5,49 M34.6,48.9L34.6,48.9 M34.2,49.2L34.2,49.2 M34.1,49.3L34.1,49.3 M33.4,50
	L33.4,50 M33.6,49.9L33.6,49.9 M33.9,49.5L33.9,49.5 M33.8,49.7L33.8,49.7 M35.2,48.4L35.2,48.4 M35.4,48.2L35.4,48.2 M35.1,48.6
	L35.1,48.6 M34.9,48.7L34.9,48.7 M35.6,48.1L35.6,48.1 M35.8,47.9L35.8,47.9 M36.2,47.6L36.2,47.6 M36,47.7L36,47.7 M36.4,47.5
	L36.4,47.5 M36.5,47.4L36.5,47.4"/>
<polyline class="st2" points="31,49 31.4,49.2 31.5,49.6 "/>
<line class="st2" x1="30.7" y1="49.3" x2="31.2" y2="49.9"/>
<polyline class="st2" points="35.8,46.1 35.3,45.5 30.7,49.3 "/>
<line class="st2" x1="31.2" y1="49.9" x2="35.8" y2="46.1"/>
<polyline class="st2" points="29.4,57 29.6,58.6 29.2,60 "/>
<line class="st2" x1="29.4" y1="57" x2="30.5" y2="56.9"/>
<polyline class="st2" points="24.4,51.2 24.8,50.1 26.1,49.9 27.3,49.9 28.6,50.4 29.6,51.1 30.4,52 31,53.2 31.2,54.5 31,55.8 
	30.5,56.9 "/>
<polyline class="st2" points="21.5,50.8 23,50.7 24.5,51.2 "/>
<polyline class="st2" points="29.1,45.5 28.4,46.9 27.3,48.3 26,49.3 24.5,50.1 23,50.6 "/>
<line class="st2" x1="31.8" y1="58.5" x2="37.9" y2="51.7"/>
<polyline class="st2" points="29.5,59.5 28.9,60.9 28,62 26.8,63 25.5,63.7 24.1,64 22.6,64.1 21.2,63.8 19.8,63.2 "/>
<polyline class="st2" points="29.5,59.5 29.9,59 30.6,58.6 31.3,58.7 31.8,59 "/>
<path class="st2" d="M31.8,59l6.5-6.6 M23,48.4l7.7-5.1"/>
<polyline class="st2" points="30.7,43.3 31.9,42.6 33.3,42.3 34.6,42.3 36,42.6 "/>
<polyline class="st2" points="23.6,48.5 31.2,43.8 32.5,43.2 34,42.9 35.4,43.1 "/>
<polygon class="st2" points="19.2,60 19.4,59.5 19.9,59.3 20.4,59.5 20.6,60 20.4,60.5 19.9,60.7 19.4,60.5 "/>
<polyline class="st2" points="29.4,57 29.3,58.5 29,59.8 28.3,61.1 27.3,62.1 26.1,62.9 24.8,63.4 23.4,63.6 22,63.5 20.7,63.1 
	19.4,62.4 "/>
<polyline class="st2" points="30,61 29,62.2 27.6,63.3 26.2,64.2 24.5,64.6 22.9,64.8 21.2,64.7 19.5,64.2 18,63.5 "/>
<polyline class="st2" points="32,60.5 31.5,60.9 30.8,61.1 30,61 "/>
<polyline class="st2" points="39.5,42.4 40.2,44.2 40.5,46.2 40.5,48.3 40.1,50.2 39.5,52 38.4,53.8 37.1,55.3 32,60.5 "/>
<polyline class="st2" points="39.5,42.4 39.5,39.7 15.7,39.7 15.7,63.5 18,63.5 "/>
<line class="st2" x1="68.1" y1="115.9" x2="68.1" y2="111.1"/>
<polyline class="st2" points="67.9,115.9 67.9,111.1 68.1,111.1 "/>
<path class="st2" d="M69.7,115.9L69.7,115.9 M68.9,115.9h-0.2 M68.1,115.9h-0.2"/>
<line class="st2" x1="70" y1="109.3" x2="70" y2="109.5"/>
<polyline class="st2" points="70,109.3 69.9,109.2 69.9,109 "/>
<line class="st2" x1="69.7" y1="109" x2="69.9" y2="109"/>
<path class="st2" d="M67.8,110.4l2.2-1.1 M67.6,110.1l2.1-1.2"/>
<line class="st2" x1="67.7" y1="110.3" x2="68" y2="110.2"/>
<polyline class="st2" points="68.1,110.2 68,110.1 67.7,110.2 "/>
<polygon class="st2" points="67.6,110.6 67.4,110.5 67.3,110.3 67.4,110.2 67.6,110.1 67.7,110.2 67.7,110.5 "/>
<polyline class="st2" points="67.8,110.2 67.8,110.5 67.6,110.7 67.3,110.6 67.2,110.3 67.3,110.1 67.6,110 67.8,110.2 "/>
<polyline class="st2" points="67.8,110.2 67.7,110.5 67.6,110.6 67.4,110.5 67.3,110.3 67.4,110.2 67.6,110.1 67.7,110.2 "/>
<path class="st2" d="M74.3,115.9v-4.8 M69.7,115.9v-4.8 M69.6,115.9v-4.8 M68.9,115.9v-4.8 M68.7,115.9v-4.8 M68,109.8l-0.2-0.5
	 M68.9,111.1h-0.2 M69.7,111.1L69.7,111.1"/>
<polyline class="st2" points="74.5,115.9 74.5,111.1 74.3,111.1 "/>
<path class="st2" d="M71.3,111.1h-0.2 M72.1,111.1h-0.2 M72.9,111.1L72.9,111.1 M73.7,111.1L73.7,111.1 M70.5,111.1L70.5,111.1
	 M73.7,115.9L73.7,115.9 M72.9,115.9L72.9,115.9 M72.2,115.9H72 M71.4,115.9h-0.2 M70.5,115.9L70.5,115.9 M74.6,115.9h-0.2"/>
<polyline class="st2" points="74.5,109.3 74.3,109.8 73.9,110 "/>
<path class="st2" d="M71.1,115.9v-4.8 M71.3,115.9v-4.8 M71.9,115.9v-4.8 M70.4,115.9v-4.8 M72.1,115.9v-4.8 M70.3,115.9v-4.8
	 M72.8,115.9v-4.8 M72.8,115.9v-4.8 M73.5,115.9v-4.8 M73.6,115.9v-4.8"/>
<polyline class="st2" points="74.6,110.2 74.6,115.9 74.4,116.3 74.1,116.4 67.7,116.4 67.3,116.3 67.1,115.9 67.1,110.2 "/>
<path class="st2" d="M74.9,116.7h-8.2 M73.9,110h-5"/>
<line class="st2" x1="70.1" y1="109.3" x2="70.1" y2="109.4"/>
<polyline class="st2" points="70.1,109.3 70,109.1 70,109 "/>
<polyline class="st2" points="69.8,108.9 69.9,108.9 70,109 "/>
<polyline class="st2" points="67.8,105 68,104.5 68.4,104.3 "/>
<polygon class="st2" points="71.1,107.6 70.9,107.4 70.7,107.1 70.9,106.9 71.1,106.7 71.4,106.9 71.6,107.1 71.4,107.4 "/>
<line class="st2" x1="72.1" y1="106.3" x2="73.8" y2="105"/>
<polyline class="st2" points="73.9,104.3 74.3,104.5 74.5,105 "/>
<polygon class="st2" points="71.1,107.8 70.7,107.6 70.5,107.1 70.7,106.7 71.1,106.5 71.6,106.7 71.8,107.1 71.6,107.6 "/>
<path class="st2" d="M74.6,110.2v-5.7 M68.5,105l1.7,1.3 M68.4,104.3h5.5 M66.7,103.9h8.2"/>
<polyline class="st2" points="74.1,104.1 74.4,104.3 74.6,104.6 "/>
<line class="st2" x1="74.1" y1="104.1" x2="67.7" y2="104.1"/>
<polyline class="st2" points="67.1,104.7 67.3,104.3 67.7,104.1 "/>
<path class="st2" d="M74.5,105v4.3 M72.1,108l1.7,1.3 M67.8,109.3V105 M68.5,109.3l1.8-1.3 M74.9,104v12.8 M66.7,116.8v-12.9
	 M67.1,104.7v5.6"/>
<rect x="74.6" y="82.2" class="st2" width="0.9" height="8.8"/>
<rect x="66.1" y="82.2" class="st2" width="8.5" height="8.8"/>
<polygon class="st2" points="75.1,87.6 75.2,87.7 75.3,87.9 75.2,88.2 75.1,88.3 74.8,88.2 74.7,87.9 74.8,87.7 "/>
<polygon class="st2" points="75.1,83.4 75.2,83.5 75.3,83.7 75.2,83.9 75.1,84 74.8,83.9 74.7,83.7 74.8,83.5 "/>
<polygon class="st2" points="75.1,83.5 75.2,83.6 75.2,83.8 75.1,83.9 74.9,83.8 74.9,83.6 "/>
<polygon class="st2" points="75.1,86.2 75.2,86.3 75.3,86.6 75.2,86.8 75.1,86.9 74.8,86.8 74.7,86.6 74.8,86.3 "/>
<polygon class="st2" points="75.1,84.8 75.2,84.9 75.3,85.1 75.2,85.3 75.1,85.4 74.8,85.3 74.7,85.1 74.8,84.9 "/>
<polygon class="st2" points="75.1,84.9 75.2,85 75.2,85.2 75.1,85.2 74.9,85.2 74.9,85.1 74.9,85 "/>
<polygon class="st2" points="75.1,86.4 75.2,86.4 75.2,86.6 75.2,86.7 75.1,86.7 74.9,86.7 74.9,86.6 74.9,86.4 "/>
<polygon class="st2" points="75.1,89.1 75.2,89.2 75.3,89.4 75.2,89.6 75.1,89.7 74.8,89.6 74.7,89.4 74.8,89.2 "/>
<polygon class="st2" points="75.1,89.2 75.2,89.3 75.2,89.5 75.1,89.6 74.9,89.5 74.9,89.3 "/>
<polygon class="st2" points="75.1,87.8 75.2,87.8 75.2,87.9 75.2,88 75.1,88.1 74.9,88 74.9,87.8 "/>
<polyline class="st2" points="74.4,81.5 74.4,91.7 66.6,91.7 66.6,91 "/>
<polyline class="st2" points="74.3,81.6 74.3,91.5 66.7,91.5 66.7,91 "/>
<polyline class="st2" points="74.3,81.6 66.7,81.6 66.7,82.1 "/>
<polyline class="st2" points="74.4,81.5 66.6,81.5 66.6,82.1 "/>
<polyline class="st2" points="72.9,82.1 72.9,91 72.7,90.8 72.7,82.3 72.9,82.1 66.2,82.1 "/>
<line class="st2" x1="72.9" y1="91" x2="67.8" y2="91"/>
<polyline class="st2" points="72.7,82.3 72.3,82.8 72.3,90.2 72.7,90.8 66.3,90.8 66.7,90.2 72.3,90.2 72.2,90 72.2,83 72.3,82.8 
	66.7,82.8 66.7,85.2 "/>
<polyline class="st2" points="70.6,85.4 70.4,85.2 70.4,87.9 70.6,87.6 "/>
<polyline class="st2" points="70.4,85.2 66.3,85.2 66.3,87.9 70.4,87.9 "/>
<polyline class="st2" points="66.7,82.8 66.3,82.3 72.7,82.3 "/>
<path class="st2" d="M66.3,82.3v2.9 M66.7,87.9v2.3"/>
<line class="st2" x1="66.3" y1="87.9" x2="66.3" y2="90.8"/>
<path class="st2" d="M66.3,82.2L66.3,82.2 M66.3,82.1v3.1"/>
<polyline class="st2" points="66.3,87.9 66.3,91 72.9,91 "/>
<polyline class="st2" points="66.3,82.2 66.3,82.1 65.9,82.1 65.9,91 66.3,91 66.3,82.1 "/>
<rect x="85" y="116.3" class="st2" width="7.9" height="9.1"/>
<rect x="90.3" y="115" class="st2" width="1.8" height="0.1"/>
<polygon class="st2" points="85,115.9 85,115.4 85.1,115.3 85.4,115.1 92.5,115.1 92.8,115.3 92.9,115.4 92.9,115.9 "/>
<rect x="85.4" y="115.9" class="st2" width="7.1" height="0.4"/>
<path class="st2" d="M88.9,119.2v3.5 M90.8,120.9h-3.6 M90.3,122.2l-2.7-2.6 M90.3,119.6l-2.7,2.6"/>
<polyline class="st2" points="85,125.5 85,115.9 85,125.5 65.9,125.5 65.9,81 "/>
<polyline class="st2" points="85,115.9 75.4,115.9 75.4,81 65.9,81 "/>
<line class="st3" x1="15.7" y1="39.7" x2="15.7" y2="74.9"/>
<line class="st3" x1="12.5" y1="33.6" x2="12.5" y2="74.9"/>
<path class="st3" d="M91.3,24h76.5 M86.5,24h1.6 M59.9,24h10.8"/>
<line class="st4" x1="133.4" y1="127.3" x2="133.4" y2="125.5"/>
<line class="st4" x1="118.8" y1="127.3" x2="118.8" y2="125.5"/>
<line class="st4" x1="98.9" y1="54.1" x2="100.8" y2="54.1"/>
<line class="st4" x1="96" y1="127.3" x2="96" y2="125.5"/>
<line class="st4" x1="110.7" y1="127.3" x2="110.7" y2="125.5"/>
<polyline class="st5" points="100.8,74.9 100.8,68.8 98.9,68.8 98.9,74.9 "/>
<polyline class="st4" points="167.8,26.9 185,26.9 185,133.1 "/>
<polyline class="st4" points="167.8,25.1 186.9,25.1 186.9,135 167.8,135 "/>
<line class="st4" x1="167.8" y1="133.1" x2="185" y2="133.1"/>
<path class="st4" d="M165.9,40.4v9.5 M165.1,40.4v9.5 M161.5,40.4v23.8 M167.8,40.9v22.8 M165.9,48.7h-0.8 M167.8,49.9h-6.4
	 M165.9,41.5h-0.8"/>
<polygon class="st5" points="155.9,51.3 156.6,51 162.2,63.8 161.5,64.2 "/>
<polyline class="st4" points="161.5,49.8 159.8,50 158.1,50.4 156.6,51 "/>
<path class="st4" d="M76.5,181h23.9 M99.9,182.9H77 M76.5,176.6h23.9"/>
<polyline class="st4" points="100.4,180.2 76.5,180.2 77.8,180.2 77.8,181 76.5,181 76.5,180.2 "/>
<rect x="99.1" y="180.2" class="st4" width="1.2" height="0.8"/>
<rect x="87.9" y="180.2" class="st4" width="1.2" height="0.8"/>
<path class="st4" d="M126.1,181h23.8 M149.4,182.9h-22.8 M126.1,176.6h23.8"/>
<polyline class="st4" points="149.8,180.2 126.1,180.2 127.2,180.2 127.2,181 126.1,181 126.1,180.2 "/>
<rect x="148.7" y="180.2" class="st4" width="1.1" height="0.8"/>
<rect x="137.3" y="180.2" class="st4" width="1.2" height="0.8"/>
<path class="st4" d="M165.9,94v9.5 M165.1,94v9.5 M161.5,94v23.9 M167.8,94.5v22.9 M165.9,102.4h-0.8 M167.8,103.6h-6.4 M165.9,95.3
	h-0.8"/>
<polygon class="st5" points="155.9,105.1 156.6,104.6 162.2,117.4 161.5,117.9 "/>
<polyline class="st4" points="161.5,103.5 159.8,103.6 158.1,104 156.6,104.6 "/>
<polygon class="st4" points="86.5,25.6 72.8,17.7 72.5,18.2 86.1,26.1 "/>
<polyline class="st4" points="70.6,25.6 70.9,22.9 71.6,20.2 72.8,17.7 "/>
<path class="st4" d="M70.6,25.6v1.6 M86.5,25.6v1.6"/>
<polygon class="st5" points="99.2,68.8 91.9,56.1 92.5,55.8 99.8,68.4 "/>
<polyline class="st4" points="99.2,54.2 96.7,54.3 94.2,55 91.9,56.1 "/>
<polyline class="st5" points="100.8,27.2 100.8,54.2 99.2,54.2 98.9,54.2 98.9,27.2 "/>
<polygon class="st5" points="62.8,68.9 69.1,58.1 68.5,57.7 62.3,68.6 "/>
<polyline class="st4" points="69.1,58.1 67.2,57.1 65.1,56.5 62.8,56.4 "/>
<path class="st4" d="M62.8,56.4h-1.5 M62.8,68.9h-1.5"/>
<polygon class="st5" points="133.4,125.5 120.7,118.2 120.4,118.7 133,126 "/>
<polyline class="st4" points="118.8,125.5 118.9,122.9 119.6,120.5 120.7,118.2 "/>
<polyline class="st5" points="161.5,125.5 133.4,125.5 133.4,127 133.4,127.3 161.5,127.3 "/>
<polygon class="st5" points="96,125.5 108.7,118.2 109,118.7 96.4,126 "/>
<polyline class="st4" points="110.7,125.5 110.5,122.9 109.8,120.5 108.7,118.2 "/>
<polyline class="st5" points="112.7,176.6 112.7,127.3 110.7,127.3 110.7,127 110.7,125.5 118.8,125.5 118.8,127 118.8,127.3 
	114.6,127.3 114.6,176.6 "/>
<polyline class="st5" points="65.9,125.5 96,125.5 96,127 96,127.3 65.9,127.3 "/>
<line class="st4" x1="12.6" y1="79.6" x2="12.6" y2="77.9"/>
<polyline class="st2" points="48,74.2 48.5,73.3 48.6,72.2 48.5,71.3 48,70.4 47.3,69.7 46.4,69.2 45.4,69.1 "/>
<polyline class="st2" points="45.4,69.4 46,69.4 46.5,69.6 47,69.9 47.3,70.2 47.7,70.6 48,71.1 48.1,71.7 48.2,72.1 48.2,72.7 "/>
<polyline class="st2" points="45.4,69.4 44.9,69.4 44.4,69.6 43.9,69.9 43.5,70.2 43.1,70.6 42.9,71.1 42.7,71.7 42.6,72.1 
	42.6,72.7 "/>
<polyline class="st2" points="42.8,74.2 43,74.4 42.8,73.8 "/>
<line class="st2" x1="45.2" y1="73.1" x2="43.1" y2="73.4"/>
<polyline class="st2" points="44.2,73.2 43,73.1 42.6,72.7 "/>
<polyline class="st2" points="43.1,73.4 42.8,73.5 42.8,73.8 "/>
<line class="st2" x1="45.2" y1="74" x2="45.2" y2="72.6"/>
<polyline class="st2" points="48,74.2 47.8,74.4 47.9,73.8 "/>
<polyline class="st2" points="45.3,74.1 45.6,74.1 45.7,74 "/>
<path class="st2" d="M45.5,72.5h-0.2 M46.7,73.2l1.2-0.1 M47.7,73.3l-2.1-0.2"/>
<polyline class="st2" points="45.6,72.6 45.6,72.5 45.5,72.5 "/>
<path class="st2" d="M45.7,74l-0.1-1.3 M47.9,73.1l0.3-0.4"/>
<polyline class="st2" points="47.9,73.8 47.9,73.5 47.7,73.3 "/>
<line class="st2" x1="47.8" y1="74.4" x2="43" y2="74.4"/>
<polyline class="st2" points="45.6,72.8 45.9,72.5 45.9,72.1 45.6,71.8 45.2,71.8 44.9,72.1 44.9,72.5 45.2,72.8 "/>
<polyline class="st2" points="45.6,72.5 45.7,72.3 45.6,72.1 45.4,72.1 45.2,72.1 45.1,72.3 45.2,72.5 "/>
<polyline class="st2" points="45.2,74 45.2,74.1 45.3,74.1 "/>
<polyline class="st2" points="45.3,72.5 45.2,72.5 45.2,72.6 "/>
<polyline class="st2" points="45.4,69.1 44.5,69.2 43.6,69.7 42.8,70.4 42.4,71.3 42.2,72.2 42.4,73.3 42.8,74.2 "/>
<polygon class="st2" points="16.7,56.1 16.6,56.2 16.6,56.4 16.5,56.5 16.5,57.2 16.6,57.2 16.7,57.2 16.7,57.1 16.7,56.9 
	16.8,56.8 16.8,56.1 "/>
<polygon class="st2" points="23.3,63.9 23.1,63.9 23.1,64 22.6,64 22.5,63.9 22.1,63.9 22,63.8 22,63.7 22.1,63.7 23,63.7 
	23.1,63.8 23.2,63.8 23.2,63.9 "/>
<polygon class="st2" points="24.4,46.5 24.3,46.3 24.3,46.2 24.2,46 24.2,45.2 24.3,44.9 24.3,44.6 24.4,44.3 24.4,44 24.5,43.8 
	24.6,43.7 24.7,43.5 24.8,43.4 24.9,43.3 25,43.4 25.1,43.5 25.1,45 25,45.3 24.9,45.6 24.9,45.9 24.8,46.1 24.7,46.2 24.6,46.3 
	24.5,46.5 "/>
<polyline class="st2" points="17.7,60.5 17.1,59.2 16.9,57.7 16.9,56.3 17.4,54.9 18.1,53.7 19,52.6 20.3,51.7 21.6,51.3 23,51.1 
	24.4,51.2 "/>
<polyline class="st2" points="16.9,60 16.5,58.6 16.5,57.1 16.6,55.7 17.1,54.3 17.9,53.1 19,52.1 20.2,51.3 21.5,50.8 23,50.6 "/>
<polygon class="st2" points="19.9,63.4 19,63.5 18.2,63.4 17.4,62.9 16.7,62.3 16.4,61.5 16.2,60.6 16.5,59.7 17.6,60.4 18.6,61.3 
	19.3,62.2 "/>
<polyline class="st2" points="19.8,42.4 22.6,41.8 25.5,41.5 28.4,41.5 31.2,42 "/>
<polyline class="st2" points="21.2,43.5 22.4,44.4 23.3,45.8 23.8,47.2 "/>
<polyline class="st2" points="18.3,44.3 18.9,43.7 19.5,43.3 20.4,43.3 21.2,43.5 "/>
<polyline class="st2" points="17.5,52.8 17.1,50.7 17.1,48.5 17.5,46.3 18.3,44.3 "/>
<polyline class="st2" points="16.9,53.2 16.5,50.9 16.5,48.5 16.6,46.2 17.1,43.8 17.7,42.9 18.5,42.1 19.4,41.5 20.4,41.2 
	23.6,40.7 26.7,40.7 29.9,41 33,41.6 "/>
<polyline class="st2" points="29.7,58.7 30.5,57.2 31.6,55.9 32.8,54.8 34.2,54 35.8,53.5 "/>
<polyline class="st2" points="39.3,47.7 39.3,49.1 38.8,50.6 37.9,51.7 "/>
<polyline class="st2" points="39.9,47.3 39.9,48.7 39.7,50 39.2,51.3 38.3,52.3 "/>
<polyline class="st2" points="35.9,44.8 35.8,44.5 35.9,44.2 35.9,44 36.1,43.8 36.3,43.8 37,43.8 37.3,43.8 37.6,44 37.9,44.3 
	38.2,44.5 38.4,44.8 38.6,45.2 38.8,45.5 38.9,45.8 39,46.1 39,46.3 38.9,46.6 38.8,46.8 38.7,46.9 38.4,47 38.2,47.1 37.9,47 
	37.6,46.9 "/>
<polygon class="st2" points="35.1,44.4 34.9,44.1 35,43.8 35.2,43.4 36.1,42.5 36.5,42.3 37,42.3 37.2,42.5 40.2,46.1 40.3,46.5 
	40.3,46.8 40,47.2 39,47.9 38.6,48.1 38.2,48 37.9,47.8 "/>
<polyline class="st2" points="23,48.4 23.3,49 23.2,49.8 22.7,50.3 22,50.6 "/>
<line class="st2" x1="31.8" y1="50.8" x2="36.5" y2="46.8"/>
<polyline class="st2" points="32.3,51.3 37,47.4 36.5,46.8 "/>
<line class="st2" x1="32.3" y1="51.3" x2="31.8" y2="50.8"/>
<polyline class="st2" points="32.1,50.4 32.5,50.7 32.6,51 "/>
<path class="st2" d="M35.3,46L35.3,46 M35.2,46.1L35.2,46.1 M34.8,46.4L34.8,46.4 M35,46.3L35,46.3 M34.6,46.6L34.6,46.6 M34.4,46.7
	L34.4,46.7 M33.8,47.3L33.8,47.3 M33.9,47.2L33.9,47.2 M34.3,46.9L34.3,46.9 M34.1,47.1L34.1,47.1 M32.6,48.2L32.6,48.2 M32.8,48.1
	L32.8,48.1 M32.5,48.4L32.5,48.4 M32.3,48.6L32.3,48.6 M33,47.9L33,47.9 M33.1,47.8L33.1,47.8 M33.5,47.5L33.5,47.5 M33.4,47.6
	L33.4,47.6 M31.5,49.2h0.1 M31.7,49.1h0.1 M32.1,48.8L32.1,48.8 M31.9,48.9H32 M33,50.2L33,50.2 M33.2,50.1L33.2,50.1 M32.8,50.4
	L32.8,50.4 M32.6,50.5L32.6,50.5 M34.5,49L34.5,49 M34.6,48.9L34.6,48.9 M34.2,49.2L34.2,49.2 M34.1,49.3L34.1,49.3 M33.4,50
	L33.4,50 M33.6,49.9L33.6,49.9 M33.9,49.5L33.9,49.5 M33.8,49.7L33.8,49.7 M35.2,48.4L35.2,48.4 M35.4,48.2L35.4,48.2 M35.1,48.6
	L35.1,48.6 M34.9,48.7L34.9,48.7 M35.6,48.1L35.6,48.1 M35.8,47.9L35.8,47.9 M36.2,47.6L36.2,47.6 M36,47.7L36,47.7 M36.4,47.5
	L36.4,47.5 M36.5,47.4L36.5,47.4"/>
<polyline class="st2" points="31,49 31.4,49.2 31.5,49.6 "/>
<line class="st2" x1="30.7" y1="49.3" x2="31.2" y2="49.9"/>
<polyline class="st2" points="35.8,46.1 35.3,45.5 30.7,49.3 "/>
<line class="st2" x1="31.2" y1="49.9" x2="35.8" y2="46.1"/>
<polyline class="st2" points="29.4,57 29.6,58.6 29.2,60 "/>
<line class="st2" x1="29.4" y1="57" x2="30.5" y2="56.9"/>
<polyline class="st2" points="24.4,51.2 24.8,50.1 26.1,49.9 27.3,49.9 28.6,50.4 29.6,51.1 30.4,52 31,53.2 31.2,54.5 31,55.8 
	30.5,56.9 "/>
<polyline class="st2" points="21.5,50.8 23,50.7 24.5,51.2 "/>
<polyline class="st2" points="29.1,45.5 28.4,46.9 27.3,48.3 26,49.3 24.5,50.1 23,50.6 "/>
<line class="st2" x1="31.8" y1="58.5" x2="37.9" y2="51.7"/>
<polyline class="st2" points="29.5,59.5 28.9,60.9 28,62 26.8,63 25.5,63.7 24.1,64 22.6,64.1 21.2,63.8 19.8,63.2 "/>
<polyline class="st2" points="29.5,59.5 29.9,59 30.6,58.6 31.3,58.7 31.8,59 "/>
<path class="st2" d="M31.8,59l6.5-6.6 M23,48.4l7.7-5.1"/>
<polyline class="st2" points="30.7,43.3 31.9,42.6 33.3,42.3 34.6,42.3 36,42.6 "/>
<polyline class="st2" points="23.6,48.5 31.2,43.8 32.5,43.2 34,42.9 35.4,43.1 "/>
<polygon class="st2" points="19.2,60 19.4,59.5 19.9,59.3 20.4,59.5 20.6,60 20.4,60.5 19.9,60.7 19.4,60.5 "/>
<polyline class="st2" points="29.4,57 29.3,58.5 29,59.8 28.3,61.1 27.3,62.1 26.1,62.9 24.8,63.4 23.4,63.6 22,63.5 20.7,63.1 
	19.4,62.4 "/>
<polyline class="st2" points="30,61 29,62.2 27.6,63.3 26.2,64.2 24.5,64.6 22.9,64.8 21.2,64.7 19.5,64.2 18,63.5 "/>
<polyline class="st2" points="32,60.5 31.5,60.9 30.8,61.1 30,61 "/>
<polyline class="st2" points="39.5,42.4 40.2,44.2 40.5,46.2 40.5,48.3 40.1,50.2 39.5,52 38.4,53.8 37.1,55.3 32,60.5 "/>
<line class="st6" x1="59.8" y1="81" x2="12.6" y2="81"/>
<line class="st6" x1="80.2" y1="81" x2="65.9" y2="81"/>
<line class="st6" x1="161.5" y1="81" x2="98.9" y2="81"/>
<line class="st6" x1="59.8" y1="74.9" x2="12.6" y2="74.9"/>
<line class="st6" x1="80.2" y1="74.9" x2="65.9" y2="74.9"/>
<line class="st6" x1="161.5" y1="74.9" x2="98.9" y2="74.9"/>
<line class="st6" x1="65.9" y1="81" x2="65.9" y2="176.6"/>
<line class="st6" x1="65.9" y1="68.9" x2="65.9" y2="74.9"/>
<line class="st6" x1="65.9" y1="24" x2="65.9" y2="56.4"/>
<line class="st6" x1="59.8" y1="81" x2="59.8" y2="182.9"/>
<line class="st6" x1="59.8" y1="68.9" x2="59.8" y2="74.9"/>
<line class="st6" x1="59.8" y1="39.7" x2="59.8" y2="56.4"/>
<line class="st6" x1="59.8" y1="24" x2="59.8" y2="33.6"/>
<path class="st6" d="M59.8,56.4h6.1 M59.8,68.9h6.1"/>
<line class="st6" x1="12.6" y1="81" x2="12.6" y2="74.9"/>
<path class="st6" d="M98.9,74.9V81 M80.2,74.9V81"/>
<line class="st6" x1="165.9" y1="181" x2="165.9" y2="117.4"/>
<line class="st6" x1="167.8" y1="182.9" x2="167.8" y2="117.4"/>
<line class="st6" x1="165.4" y1="94" x2="165.4" y2="64.2"/>
<line class="st6" x1="161.5" y1="74.9" x2="161.5" y2="64.2"/>
<line class="st6" x1="161.5" y1="94" x2="161.5" y2="81"/>
<line class="st6" x1="165.4" y1="180.5" x2="165.4" y2="117.9"/>
<line class="st6" x1="161.5" y1="176.6" x2="161.5" y2="117.9"/>
<polyline class="st6" points="167.8,63.7 165.9,63.7 165.9,64.2 161.5,64.2 "/>
<polyline class="st6" points="167.8,40.9 165.9,40.9 165.9,40.4 161.5,40.4 "/>
<polyline class="st6" points="167.8,117.4 165.9,117.4 165.9,117.9 161.5,117.9 "/>
<polyline class="st6" points="167.8,94.5 165.9,94.5 165.9,94 161.5,94 "/>
<line class="st6" x1="165.4" y1="40.4" x2="165.4" y2="24.5"/>
<line class="st6" x1="161.5" y1="40.4" x2="161.5" y2="24.5"/>
<line class="st6" x1="165.9" y1="94.5" x2="165.9" y2="63.7"/>
<line class="st6" x1="167.8" y1="94.5" x2="167.8" y2="63.7"/>
<line class="st6" x1="165.9" y1="40.9" x2="165.9" y2="24.5"/>
<line class="st6" x1="167.8" y1="40.9" x2="167.8" y2="24.5"/>
<line class="st6" x1="149.4" y1="181" x2="165.9" y2="181"/>
<line class="st6" x1="149.4" y1="182.9" x2="167.8" y2="182.9"/>
<line class="st6" x1="99.9" y1="181" x2="126.6" y2="181"/>
<line class="st6" x1="99.9" y1="182.9" x2="126.6" y2="182.9"/>
<line class="st6" x1="60" y1="181" x2="77" y2="181"/>
<line class="st6" x1="60" y1="182.9" x2="77" y2="182.9"/>
<line class="st6" x1="149.8" y1="180.5" x2="165.4" y2="180.5"/>
<line class="st6" x1="149.8" y1="176.6" x2="161.5" y2="176.6"/>
<line class="st6" x1="100.4" y1="180.5" x2="126.1" y2="180.5"/>
<line class="st6" x1="100.4" y1="176.6" x2="126.1" y2="176.6"/>
<line class="st6" x1="65.9" y1="176.6" x2="76.5" y2="176.6"/>
<line class="st6" x1="60" y1="180.5" x2="76.5" y2="180.5"/>
<polyline class="st6" points="99.9,182.9 99.9,181 100.4,181 100.4,176.6 "/>
<polyline class="st6" points="77,182.9 77,181 76.5,181 76.5,176.6 "/>
<polyline class="st6" points="149.4,182.9 149.4,181 149.8,181 149.8,176.6 "/>
<polyline class="st6" points="126.6,182.9 126.6,181 126.1,181 126.1,176.6 "/>
<line class="st6" x1="49.5" y1="39.7" x2="12.4" y2="39.7"/>
<line class="st6" x1="59.8" y1="39.7" x2="53.8" y2="39.7"/>
<line class="st6" x1="59.8" y1="33.6" x2="12.6" y2="33.6"/>
<polyline class="st6" points="53.8,39.7 53.8,37.7 49.5,37.7 49.5,39.7 "/>
<line class="st3" x1="88.2" y1="24" x2="91.3" y2="24"/>
<line class="st3" x1="88.2" y1="24" x2="88.2" y2="24"/>
<line class="st3" x1="70.6" y1="24" x2="70.6" y2="27.2"/>
<line class="st3" x1="86.5" y1="24" x2="86.5" y2="27.2"/>
<path class="st3" d="M86.5,27.2h75 M65.9,27.2h4.7"/>
<path class="st7" d="M74.6,31.1h8.9c1.7,0,3,1.3,3,3v5.1c0,1.7-1.3,3-3,3h-8.9c-1.7,0-3-1.3-3-3v-5.1C71.6,32.5,72.9,31.1,74.6,31.1
	z"/>
<path class="st7" d="M75,31.6h8.1c1.5,0,2.7,1.2,2.7,2.7V39c0,1.5-1.2,2.7-2.7,2.7H75c-1.5,0-2.7-1.2-2.7-2.7v-4.6
	C72.3,32.8,73.5,31.6,75,31.6z"/>
<path class="st7" d="M77.2,37.6c-0.6-0.2-0.8-1.2-0.6-2.3s1-1.9,1.6-1.8s0.9,1.2,0.6,2.3S77.8,37.7,77.2,37.6z"/>
<path class="st7" d="M76.6,35.1c0.5,1,1.2,1.2,2.2,0.5"/>
<path class="st7" d="M81,39.6c-0.6,0.2-1.4-0.5-1.8-1.6s-0.3-2.2,0.3-2.4s1.4,0.5,1.8,1.6S81.6,39.4,81,39.6z"/>
<path class="st7" d="M79.2,37.9c1,0.6,1.7,0.3,2.1-0.8"/>
<path class="st8" d="M94.6,163.7v-14c0-2-1.7-3.7-3.7-3.7H68.5c-0.6,0-1.2,0.5-1.2,1.2v19.2c0,0.6,0.4,1,0.9,1.1h0.1h22.5
	C92.9,167.4,94.6,165.8,94.6,163.7L94.6,163.7z"/>
<path class="st9" d="M69,158h3.8c0.4,0,0.8,0.4,0.8,0.8v6.4c0,0.4-0.4,0.8-0.8,0.8H69c-0.4,0-0.8-0.4-0.8-0.8v-6.4
	C68.2,158.3,68.6,158,69,158z"/>
<path class="st9" d="M69.2,147.8H73c0.4,0,0.8,0.4,0.8,0.8v6.4c0,0.4-0.4,0.8-0.8,0.8h-3.8c-0.4,0-0.8-0.4-0.8-0.8v-6.4
	C68.4,148.1,68.7,147.8,69.2,147.8z"/>
<line class="st7" x1="80.8" y1="167.4" x2="80.8" y2="145.9"/>
<polygon class="st8" points="79.9,149.3 79.3,145.9 76.9,148.2 "/>
<line class="st7" x1="76.9" y1="148.2" x2="76.9" y2="167.4"/>
<rect x="106.7" y="145.2" class="st9" width="4.7" height="19.2"/>
<rect x="107.7" y="148.6" class="st9" width="3.1" height="11.5"/>
<rect x="108.5" y="146.8" class="st9" width="1" height="15.7"/>
<rect x="79.6" y="129.5" transform="matrix(9.758817e-02 -0.9952 0.9952 9.758817e-02 -61.6412 200.707)" class="st10" width="0.5" height="9.6"/>
<rect x="88" y="137.3" transform="matrix(0.3611 -0.9325 0.9325 0.3611 -68.9332 174.4394)" class="st10" width="9.6" height="0.5"/>
<rect x="74.5" y="128.9" class="st9" width="21.8" height="5.1"/>
<path class="st8" d="M130.3,149.2h14c2,0,3.7,1.7,3.7,3.7v22.4c0,0.6-0.5,1.2-1.2,1.2l0,0h-19.2c-0.6,0-1-0.4-1-1V153
	C126.6,150.9,128.3,149.2,130.3,149.2z"/>
<path class="st9" d="M128.8,170.1h6.4c0.4,0,0.8,0.4,0.8,0.8v3.8c0,0.4-0.4,0.8-0.8,0.8h-6.4c-0.4,0-0.8-0.4-0.8-0.8V171
	C128,170.5,128.4,170.1,128.8,170.1z"/>
<path class="st9" d="M139,170h6.4c0.4,0,0.8,0.4,0.8,0.8v3.8c0,0.4-0.4,0.8-0.8,0.8H139c-0.4,0-0.8-0.4-0.8-0.8v-3.8
	C138.2,170.4,138.6,170,139,170z"/>
<line class="st7" x1="126.6" y1="163" x2="148" y2="163"/>
<polygon class="st8" points="144.7,163.9 148,164.4 145.8,166.9 "/>
<line class="st7" x1="145.8" y1="166.9" x2="126.6" y2="166.9"/>
<path class="st9" d="M116.7,166.1h7.5c0.4,0,0.7,0.3,0.7,0.7v7.3c0,0.4-0.3,0.7-0.7,0.7h-7.5c-0.4,0-0.7-0.3-0.7-0.7v-7.3
	C115.9,166.4,116.3,166.1,116.7,166.1z"/>
<rect x="136.6" y="129.1" class="st9" width="19.2" height="4.6"/>
<rect x="140.9" y="130.1" class="st9" width="11.5" height="3.1"/>
<rect x="138.4" y="130.9" class="st9" width="15.7" height="1"/>
<path class="st8" d="M92.6,90.3h1.8c0.2,0,0.3,0.2,0.3,0.3v4.8c0,0.1-0.1,0.2-0.2,0.2l0,0h-2c-1.1,0-2-0.9-2-2v-1.3
	C90.6,91.2,91.5,90.3,92.6,90.3z"/>
<path class="st7" d="M92.6,90.3c-1.5,1.9-1.5,3.7,0,5.4"/>
<path class="st8" d="M92.5,96.1h1.8c0.2,0,0.3,0.2,0.3,0.3v4.9c0,0.1-0.1,0.2-0.2,0.2l0,0h-2c-1.1,0-2-0.9-2-2v-1.3
	C90.5,97.1,91.4,96.2,92.5,96.1z"/>
<path class="st7" d="M92.5,96.1c-1.5,1.9-1.5,3.7,0,5.4"/>
<path class="st8" d="M92.5,102.3h1.8c0.2,0,0.3,0.2,0.3,0.3v4.9c0,0.1-0.1,0.2-0.2,0.2h-2c-1.1,0-2-0.9-2-2v-1.3
	C90.4,103.3,91.3,102.3,92.5,102.3z"/>
<path class="st7" d="M92.5,102.3c-1.5,1.9-1.5,3.7,0,5.4"/>
<path class="st8" d="M105.8,90.5H104c-0.2,0-0.3,0.2-0.3,0.3v4.9c0,0.1,0.1,0.2,0.2,0.2l0,0h2c1.1,0,2-0.9,2-2v-1.3
	C107.8,91.4,106.9,90.5,105.8,90.5z"/>
<path class="st7" d="M105.8,90.5c1.5,1.9,1.5,3.7,0,5.4"/>
<path class="st8" d="M105.9,96.4h-1.8c-0.2,0-0.3,0.2-0.3,0.3v4.9c0,0.1,0.1,0.2,0.2,0.2l0,0h2c1.1,0,2-0.9,2-2.1v-1.2
	C107.9,97.3,107,96.4,105.9,96.4z"/>
<path class="st7" d="M105.9,96.4c1.5,1.9,1.5,3.7,0,5.4"/>
<path class="st8" d="M106,102.5h-1.8c-0.2,0-0.3,0.2-0.3,0.3v4.9c0,0.1,0.1,0.2,0.2,0.2l0,0h2c1.1,0,2-0.9,2.1-2v-1.2
	C108.1,103.5,107.2,102.6,106,102.5L106,102.5z"/>
<path class="st7" d="M106,102.5c1.5,1.9,1.5,3.7,0,5.4"/>
<path class="st9" d="M95.4,88.8h8.1c1,0,1.8,0.8,1.8,1.8v16.7c0,1-0.8,1.8-1.8,1.8h-8.1c-1,0-1.8-0.8-1.8-1.8V90.5
	C93.6,89.5,94.4,88.8,95.4,88.8z"/>
<path class="st9" d="M124,27.8h24.3c1.5,0,2.8,1.3,2.8,2.8v7.1c0,1.5-1.3,2.8-2.8,2.8H124c-1.5,0-2.8-1.3-2.8-2.8v-7.1
	C121.2,29,122.4,27.8,124,27.8z"/>
<path class="st9" d="M122,28.5h1.2c0.5,0,0.9,0.4,0.9,0.9v8.4c0,0.5-0.4,0.9-0.9,0.9H122c-0.5,0-0.9-0.4-0.9-0.9v-8.4
	C121.1,28.9,121.5,28.5,122,28.5z"/>
<path class="st9" d="M149.3,28.6h1.2c0.5,0,0.9,0.4,0.9,0.9v8.4c0,0.5-0.4,0.9-0.9,0.9h-1.2c-0.5,0-0.9-0.4-0.9-0.9v-8.4
	C148.4,29,148.8,28.6,149.3,28.6z"/>
<path class="st9" d="M122.4,28.5h27.5c0.6,0,1,0.5,1,1V31c0,0.6-0.5,1-1,1h-27.5c-0.6,0-1-0.5-1-1v-1.4
	C121.4,29,121.9,28.5,122.4,28.5z"/>
<path class="st9" d="M124.4,28.8H148c0.5,0,0.9,0.4,0.9,0.9v1.2c0,0.5-0.4,0.9-0.9,0.9h-23.6c-0.5,0-0.9-0.4-0.9-0.9v-1.2
	C123.5,29.1,123.9,28.8,124.4,28.8z"/>
<line class="st7" x1="136.2" y1="40.5" x2="136.2" y2="32"/>
<rect x="126.4" y="66.3" class="st9" width="19.2" height="4.7"/>
<rect x="130.7" y="67.3" class="st9" width="11.5" height="3.1"/>
<rect x="128.2" y="68.1" class="st9" width="15.7" height="1"/>
<rect x="125.3" y="42.5" class="st9" width="22.3" height="9.4"/>
<text transform="matrix(1 0 0 1 145.2198 122.6699)" class="st11 st12 st13" style="text-decoration: underline;">16,7</text>
<text transform="matrix(1 0 0 1 106.9675 61.5532)" class="st11 st12 st13" style="text-decoration: underline;">12,2</text>
<text transform="matrix(1 0 0 1 72.1901 71.6101)" class="st11 st12 st13" style="text-decoration: underline;">6,6</text>
<text transform="matrix(1 0 0 1 20.8902 71.6101)" class="st11 st12 st13" style="text-decoration: underline;">7,2</text>
<path class="st14" d="M125.9,86.4h7.7c3.2,0,5.8,2.6,5.8,5.8v14.5c0,3.2-2.6,5.8-5.8,5.8h-7.7c-3.2,0-5.8-2.6-5.8-5.8V92.2
	C120.1,89,122.7,86.4,125.9,86.4z"/>
<text transform="matrix(1 0 0 1 122.9735 93.7441)" class="st15 st12 st16">31,2</text>
<text transform="matrix(1 0 0 1 122.9731 110.0999)" class="st15 st12 st16">61,7</text>
<text transform="matrix(1 0 0 1 122.0007 102.4998)" class="st17 st12 st18">63,9</text>
<text transform="matrix(1 0 0 1 101.5399 173.8501)" class="st11 st12 st13" style="text-decoration: underline;">9,6</text>
<text transform="matrix(1 0 0 1 150.7299 173.8501)" class="st11 st12 st13" style="text-decoration: underline;">9,4</text>
<text transform="matrix(6.123234e-17 -1 1 6.123234e-17 178.85 99.5498)" class="st11 st12 st13" style="text-decoration: underline;">7,2х0,3=2,2</text>
</svg>
