<?xml version="1.0" encoding="utf-8"?>
<!-- Generator: Adobe Illustrator 25.0.0, SVG Export Plug-In . SVG Version: 6.00 Build 0)  -->
<svg version="1.1" id="Слой_1" xmlns="http://www.w3.org/2000/svg" xmlns:xlink="http://www.w3.org/1999/xlink" x="0px" y="0px"
	 viewBox="0 0 200 200" style="enable-background:new 0 0 200 200;" xml:space="preserve">
<style type="text/css">
	.st0{fill:#FFF18D;}
	.st1{fill-rule:evenodd;clip-rule:evenodd;fill:#FFF18D;}
	.st2{fill:none;stroke:#666666;stroke-width:0.2;stroke-linecap:round;stroke-linejoin:round;}
	.st3{fill:none;stroke:#333333;stroke-width:0.6;stroke-linecap:round;stroke-linejoin:round;}
	.st4{fill:none;stroke:#333333;stroke-width:0.4;stroke-linecap:round;stroke-linejoin:round;}
	.st5{fill:#FFFFFF;stroke:#333333;stroke-width:0.4;stroke-linecap:round;stroke-linejoin:round;}
	.st6{fill:none;stroke:#333333;stroke-width:0.8;stroke-linecap:round;stroke-linejoin:round;}
	.st7{fill:none;stroke:#666666;stroke-width:0.2;stroke-miterlimit:22.93;}
	.st8{fill-rule:evenodd;clip-rule:evenodd;fill:#FFF18D;stroke:#666666;stroke-width:0.2;stroke-miterlimit:22.93;}
	.st9{fill:#FFF18D;stroke:#666666;stroke-width:0.2;stroke-miterlimit:22.93;}
	.st10{fill:#FFF18D;stroke:#666666;stroke-width:0.2;stroke-miterlimit:22.9288;}
	.st11{fill:#FFF18D;stroke:#666666;stroke-width:0.2;stroke-miterlimit:22.9296;}
	.st12{fill:#FFFFFF;}
	.st13{fill:#1A1A18;}
	.st14{font-family:'ArialMT';}
	.st15{font-size:7px;}
	.st16{fill:#E43622;}
	.st17{font-size:8px;}
	.st18{fill:#666666;}
	.st19{font-size:6.57px;}
</style>
<rect x="37.2" y="78.3" class="st0" width="97.8" height="97.4"/>
<rect x="13.1" y="22.8" class="st0" width="17.4" height="108.3"/>
<polygon class="st1" points="135.2,72.1 37,72.1 37,22.8 135.2,22.8 135.2,52.7 140.9,52.7 140.9,35.7 186.6,35.7 186.6,72.1 
	140.9,72.1 140.9,65.4 135.2,65.4 "/>
<rect x="101.5" y="69.1" class="st0" width="18.7" height="16.8"/>
<path class="st2" d="M146.5,36h6.2c0.2,0,0.4,0.2,0.4,0.4v2.3c0,0.2-0.2,0.4-0.4,0.4h-6.2c-0.2,0-0.4-0.2-0.4-0.4v-2.3
	C146.1,36.2,146.3,36,146.5,36z"/>
<ellipse class="st2" cx="149.6" cy="43.7" rx="2.2" ry="2.6"/>
<ellipse class="st2" cx="149.6" cy="43.7" rx="2.2" ry="2.6"/>
<path class="st2" d="M152.3,43.6c0.2,1.5-0.8,2.9-2.3,3.1s-2.9-0.8-3.1-2.3c0-0.3,0-0.5,0-0.8c0-1,0.2-2,0.7-2.9
	c0.5-0.7,1.2-0.4,2-0.4s1.5-0.3,2,0.3C152,41.5,152.3,42.6,152.3,43.6z"/>
<path class="st2" d="M147.4,39.2c0.2,0.5,0.2,1,0.2,1.5"/>
<path class="st2" d="M151.9,39.2c-0.2,0.5-0.2,1-0.2,1.5"/>
<circle class="st2" cx="149.6" cy="42.3" r="0.7"/>
<circle class="st2" cx="149.6" cy="42.3" r="0.4"/>
<polyline class="st2" points="141.6,102.2 141.6,102.3 141.1,102.3 141.1,93.2 141.6,93.2 141.6,102.3 "/>
<polyline class="st2" points="153.3,70.9 152.9,70 152.7,68.9 152.9,67.9 153.4,67.1 154.1,66.4 154.9,65.9 155.9,65.7 "/>
<polyline class="st2" points="155.9,66.1 155.4,66.1 154.9,66.3 154.4,66.6 154,66.9 153.6,67.3 153.4,67.8 153.2,68.3 153.1,68.8 
	153.1,69.4 "/>
<polyline class="st2" points="155.9,66.1 156.5,66.1 157,66.3 157.5,66.6 157.9,66.9 158.3,67.3 158.6,67.8 158.8,68.3 158.8,69.4 
	"/>
<polyline class="st2" points="158.6,70.9 158.4,71.1 158.6,70.5 "/>
<line class="st2" x1="156.1" y1="69.8" x2="158.4" y2="70.1"/>
<polyline class="st2" points="157.2,69.9 158.5,69.8 158.8,69.4 "/>
<polyline class="st2" points="158.4,70.1 158.6,70.2 158.6,70.5 "/>
<line class="st2" x1="156.2" y1="70.7" x2="156.1" y2="69.3"/>
<polyline class="st2" points="153.3,70.9 153.6,71.1 153.4,70.5 "/>
<polyline class="st2" points="156.1,70.8 155.7,70.8 155.7,70.7 "/>
<path class="st2" d="M155.8,69.2h0.2 M154.7,69.9l-1.3-0.1 M153.6,70l2.1-0.2"/>
<polyline class="st2" points="155.7,69.3 155.7,69.2 155.8,69.2 "/>
<path class="st2" d="M155.7,70.7v-1.4 M153.5,69.8l-0.4-0.4"/>
<polyline class="st2" points="153.4,70.5 153.4,70.2 153.7,70 "/>
<line class="st2" x1="153.6" y1="71.1" x2="158.4" y2="71.1"/>
<polyline class="st2" points="155.7,69.5 155.4,69.2 155.4,68.8 155.7,68.5 156.1,68.5 156.4,68.8 156.4,69.2 156.1,69.5 "/>
<polyline class="st2" points="155.7,69.2 155.6,69 155.7,68.8 155.9,68.7 156.1,68.8 156.2,69 156.1,69.2 "/>
<polyline class="st2" points="156.2,70.7 156.2,70.8 156.1,70.8 "/>
<polyline class="st2" points="156,69.2 156.1,69.2 156.1,69.3 "/>
<polyline class="st2" points="155.9,65.7 156.9,65.9 157.9,66.4 158.6,67.1 159.1,67.9 159.2,68.9 159.1,70 158.6,70.9 "/>
<polygon class="st2" points="185.3,52.4 185.4,52.4 185.4,52.5 185.5,52.6 185.5,53.6 185.4,53.6 185.3,53.5 185.3,53.1 185.2,53 
	185.2,52.5 185.3,52.5 "/>
<polygon class="st2" points="178.7,60.4 178.8,60.4 178.9,60.5 179.3,60.5 179.4,60.4 179.8,60.4 179.9,60.3 180,60.3 179.9,60.2 
	178.9,60.2 178.9,60.3 178.7,60.3 "/>
<polygon class="st2" points="177.4,42.5 177.5,42.5 177.5,42.4 177.6,42.2 177.6,41 177.5,40.7 177.5,40.4 177.4,40.1 177.3,39.9 
	177.2,39.7 177.1,39.5 177.1,39.4 177,39.3 176.9,39.3 176.8,39.4 176.8,39.5 176.7,39.7 176.7,40.8 176.8,41 176.8,41.3 
	176.9,41.6 177,41.9 177.1,42.1 177.1,42.3 177.2,42.4 177.3,42.5 "/>
<polyline class="st2" points="184.3,56.9 184.9,55.5 185.2,54 185.1,52.6 184.7,51.2 183.9,49.9 182.9,48.8 181.8,47.9 180.4,47.5 
	178.9,47.2 177.4,47.3 "/>
<polyline class="st2" points="185.1,56.4 185.5,54.9 185.7,53.5 185.5,52 184.9,50.6 184.1,49.3 183.1,48.3 181.9,47.5 180.5,47 
	179,46.8 "/>
<polygon class="st2" points="182.1,59.9 183,60 183.9,59.9 184.7,59.4 185.3,58.8 185.7,57.9 185.8,57 185.6,56.1 184.5,56.8 
	183.4,57.7 182.6,58.7 "/>
<polyline class="st2" points="182.1,38.4 179.3,37.8 176.3,37.5 173.5,37.5 170.5,38 "/>
<polyline class="st2" points="180.8,39.5 179.5,40.5 178.6,41.8 178.1,43.3 "/>
<polyline class="st2" points="183.7,40.4 183.2,39.7 182.4,39.3 181.6,39.3 180.8,39.5 "/>
<polyline class="st2" points="184.6,49 185,46.9 185,44.6 184.5,42.4 183.7,40.4 "/>
<polyline class="st2" points="185.2,49.4 185.5,47.1 185.6,44.6 185.4,42.2 184.9,39.9 184.3,38.9 183.5,38.1 182.6,37.5 
	181.6,37.1 178.3,36.6 175.1,36.6 171.8,36.9 168.6,37.6 "/>
<polyline class="st2" points="172.1,55 171.2,53.6 170.2,52.2 168.9,51.1 167.4,50.2 165.8,49.7 "/>
<polyline class="st2" points="162.2,43.8 162.3,45.3 162.8,46.8 163.6,47.9 "/>
<polyline class="st2" points="161.6,43.4 161.6,44.8 161.9,46.2 162.4,47.5 163.2,48.5 "/>
<polyline class="st2" points="165.8,40.8 165.8,40.3 165.7,40.1 165.6,39.9 165.4,39.8 164.6,39.8 164.3,39.9 164,40.1 163.7,40.4 
	163.4,40.5 163.1,40.8 162.9,41.2 162.7,41.5 162.6,41.8 162.6,42.7 162.7,42.9 162.9,43 163.1,43.1 163.3,43.2 163.6,43.1 
	163.9,43 "/>
<polygon class="st2" points="166.5,40.5 166.7,40.2 166.7,39.8 166.5,39.4 165.5,38.5 165.1,38.3 164.7,38.3 164.3,38.5 161.4,42.1 
	161.2,42.5 161.3,42.9 161.5,43.3 162.5,44 162.9,44.2 163.3,44.1 163.6,43.9 "/>
<polyline class="st2" points="178.9,44.5 178.7,45.2 178.8,46 179.2,46.5 179.9,46.8 "/>
<line class="st2" x1="169.9" y1="47" x2="165.1" y2="42.9"/>
<polyline class="st2" points="169.4,47.5 164.6,43.5 165.1,42.9 "/>
<line class="st2" x1="169.4" y1="47.5" x2="169.9" y2="47"/>
<polyline class="st2" points="169.5,46.6 169.2,46.9 169,47.2 "/>
<path class="st2" d="M166.3,42h0.1 M166.4,42.1h0.1 M166.8,42.4h0.1 M166.7,42.3h0.1 M167.1,42.6h0.1 M167.2,42.7h0.1 M168,43.4h0.1
	 M167.8,43.2h0.1 M167.4,42.9h0.1 M167.6,43.1L167.6,43.1 M169,44.3h0.1 M168.9,44.2L168.9,44.2 M169.3,44.5h0.1 M169.4,44.7h0.1
	 M168.7,44h0.1 M168.5,43.9h0.1 M168.1,43.6h0.1 M168.3,43.7h0.1 M170.2,45.3L170.2,45.3 M170,45.2h0.1 M169.7,44.9h0.1 M169.8,45
	h0.1 M168.6,46.4h0.1 M168.5,46.3h0.1 M168.9,46.6L168.9,46.6 M169,46.7h0.1 M167.1,45.1h0.1 M167,45h0.1 M167.4,45.3h0.1
	 M167.6,45.4L167.6,45.4 M168.3,46.1L168.3,46.1 M168.2,46h0.1 M167.8,45.6h0.1 M168,45.8h0.1 M166.4,44.5h0.1 M166.3,44.3h0.1
	 M166.6,44.7h0.1 M166.8,44.8h0.1 M166,44.2h0.1 M165.9,44h0.1 M165.5,43.7L165.5,43.7 M165.6,43.8h0.1 M165.3,43.5h0.1 M165.1,43.4
	h0.1"/>
<polyline class="st2" points="170.7,45.2 170.3,45.4 170.2,45.8 "/>
<line class="st2" x1="171.1" y1="45.5" x2="170.6" y2="46.1"/>
<polyline class="st2" points="165.8,42.1 166.3,41.5 171.1,45.5 "/>
<line class="st2" x1="170.6" y1="46.1" x2="165.8" y2="42.1"/>
<polyline class="st2" points="172.3,53.4 172.2,54.9 172.5,56.4 "/>
<line class="st2" x1="172.3" y1="53.4" x2="171.3" y2="53.3"/>
<polyline class="st2" points="177.4,47.3 177.1,46.3 175.8,46.1 174.5,46.1 173.3,46.6 172.2,47.2 171.3,48.2 170.8,49.4 
	170.6,50.8 170.7,52.1 171.3,53.3 "/>
<polyline class="st2" points="180.5,47 178.9,46.9 177.4,47.3 "/>
<polyline class="st2" points="172.6,41.5 173.4,43 174.6,44.4 175.8,45.5 177.3,46.3 179,46.8 "/>
<line class="st2" x1="169.8" y1="54.8" x2="163.6" y2="47.9"/>
<polyline class="st2" points="172.2,55.9 172.9,57.3 173.8,58.5 175,59.5 176.3,60.2 177.8,60.5 179.3,60.6 180.8,60.3 182.1,59.7 
	"/>
<polyline class="st2" points="172.2,55.9 171.8,55.3 171.2,54.9 170.4,55 169.8,55.3 "/>
<path class="st2" d="M169.8,55.3l-6.6-6.8 M178.9,44.5l-7.9-5.3"/>
<polyline class="st2" points="171,39.3 169.8,38.6 168.4,38.3 167,38.3 165.6,38.6 "/>
<polyline class="st2" points="178.3,44.6 170.5,39.8 169.1,39.2 167.7,38.9 166.2,39.1 "/>
<polygon class="st2" points="182.7,56.4 182.6,55.9 182.1,55.7 181.6,55.9 181.4,56.4 181.6,56.9 182.1,57.1 182.6,56.9 "/>
<polyline class="st2" points="172.3,53.4 172.4,54.8 172.9,56.2 173.6,57.5 174.6,58.6 175.8,59.4 177.1,59.9 178.5,60.1 180,60 
	181.4,59.6 182.6,58.9 "/>
<polyline class="st2" points="171.7,57.4 172.8,58.7 174.2,59.8 175.6,60.7 177.3,61.2 179.1,61.3 180.8,61.2 182.4,60.8 184,60 "/>
<polyline class="st2" points="169.7,56.9 170.3,57.3 171,57.5 171.7,57.4 "/>
<polyline class="st2" points="162.1,38.4 161.4,40.3 161,42.3 161.1,44.4 161.4,46.4 162.1,48.2 163.1,50 164.4,51.6 169.7,56.9 "/>
<polyline class="st2" points="162.1,38.4 162.1,35.6 186.4,35.6 186.4,60 184,60 "/>
<line class="st2" x1="189.8" y1="54.7" x2="189.8" y2="59.6"/>
<line class="st3" x1="186.4" y1="35.6" x2="186.4" y2="71.7"/>
<line class="st3" x1="189.6" y1="29.4" x2="189.6" y2="71.7"/>
<path class="st3" d="M109,19.6H30.7 M113.8,19.6h-1.6 M135,19.6h-4.9"/>
<line class="st2" x1="132.8" y1="113.7" x2="132.8" y2="108.8"/>
<polyline class="st2" points="132.9,113.7 132.9,108.8 132.8,108.8 "/>
<polyline class="st2" points="133.1,108 132.8,107.8 132.8,107.7 "/>
<line class="st2" x1="132.9" y1="107.7" x2="133.2" y2="107.8"/>
<polygon class="st2" points="133.4,108.3 133.5,108.2 133.6,108 133.5,107.8 133.4,107.7 133.2,107.8 133.1,108 133.2,108.2 "/>
<polyline class="st2" points="133,107.9 133.1,108.2 133.3,108.4 133.6,108.3 133.7,108 133.6,107.7 133.3,107.6 133.1,107.8 "/>
<polyline class="st2" points="133.1,107.9 133.1,108.2 133.3,108.3 133.5,108.2 133.6,108 133.6,107.8 133.4,107.7 133.1,107.8 "/>
<polyline class="st2" points="133.8,102.2 133.7,101.8 133.3,101.6 "/>
<polygon class="st2" points="125.7,80.4 125.5,80.5 125.4,80.7 125.5,80.9 125.7,81 125.9,80.9 126,80.7 125.9,80.5 "/>
<polygon class="st2" points="125.7,80.5 125.6,80.6 125.5,80.7 125.6,80.8 125.7,80.9 125.8,80.8 125.9,80.7 125.8,80.6 "/>
<polyline class="st2" points="126.5,78.5 134.2,78.5 134.2,79 "/>
<polyline class="st2" points="126.3,78.4 134.4,78.4 134.4,79 "/>
<polyline class="st2" points="134.2,79.8 134.6,79.3 128,79.3 "/>
<path class="st2" d="M134.6,79.3v3 M134.2,85v2.4"/>
<line class="st2" x1="134.6" y1="85" x2="134.6" y2="88"/>
<path class="st2" d="M134.6,79.2L134.6,79.2 M134.6,79.1v3.2"/>
<polyline class="st2" points="134.6,79.1 134.6,79 135,79 135,88.2 134.6,88.2 134.6,79 "/>
<rect x="108.2" y="112.7" class="st2" width="1.8" height="0.1"/>
<path class="st2" d="M131.1,113.7h0.2 M131.9,113.7h0.2 M132.8,113.7L132.8,113.7"/>
<polyline class="st2" points="130.8,106.9 130.8,107 130.9,107.1 "/>
<polyline class="st2" points="130.8,106.9 130.9,106.8 131,106.6 131.1,106.6 "/>
<path class="st2" d="M133,108.1l-2.2-1.1 M133.3,107.7l-2.3-1.2 M131,106.6h0.1"/>
<path class="st2" d="M126.4,113.7v-4.9 M131.1,113.7v-4.9 M131.3,113.7v-4.9 M131.9,113.7v-4.9 M132.1,113.7v-4.9 M132.8,107.4
	l0.2-0.5 M131.9,108.8h0.2 M131.1,108.8h0.2"/>
<polyline class="st2" points="126.3,113.7 126.3,108.8 126.4,108.8 "/>
<path class="st2" d="M129.5,108.8h0.1 M128.6,108.8h0.2 M127.8,108.8h0.2 M127,108.8h0.2 M130.2,108.8h0.2 M126.9,113.7h0.2
	 M127.7,113.7h0.3 M128.6,113.7h0.2 M129.5,113.7h0.1 M130.3,113.7h0.2 M126.2,113.7L126.2,113.7"/>
<polyline class="st2" points="126.3,106.9 126.4,107.4 126.9,107.6 "/>
<path class="st2" d="M129.6,113.7v-4.9 M129.5,113.7v-4.9 M128.8,113.7v-4.9 M130.3,113.7v-4.9 M128.6,113.7v-4.9 M130.5,113.7v-4.9
	 M128,113.7v-4.9 M127.8,113.7v-4.9 M127.2,113.7v-4.9 M127,113.7v-4.9"/>
<polyline class="st2" points="126.1,107.9 126.1,113.7 126.3,114.1 126.6,114.2 133.3,114.2 133.7,114.1 133.8,113.7 133.8,107.9 
	"/>
<path class="st2" d="M125.9,114.5h8.3 M126.9,107.6h5"/>
<polyline class="st2" points="130.7,106.9 130.7,107 130.8,107 "/>
<polyline class="st2" points="130.7,106.9 130.8,106.7 130.9,106.6 "/>
<polyline class="st2" points="131,106.5 130.9,106.5 130.9,106.6 "/>
<polyline class="st2" points="133,102.4 132.9,101.9 132.4,101.8 "/>
<polygon class="st2" points="129.6,105.1 129.9,104.9 130,104.6 129.9,104.4 129.6,104.2 129.3,104.4 129.2,104.6 129.3,104.9 "/>
<line class="st2" x1="128.6" y1="103.8" x2="126.9" y2="102.4"/>
<polyline class="st2" points="126.9,101.8 126.4,101.9 126.3,102.4 "/>
<polygon class="st2" points="129.6,105.3 130.1,105.1 130.3,104.6 130.1,104.2 129.6,104 129.1,104.2 128.9,104.6 129.1,105.1 "/>
<path class="st2" d="M126.1,107.9v-5.8 M132.4,102.5l-1.8,1.4 M132.4,101.8h-5.5 M134.2,101.4h-8.3"/>
<polyline class="st2" points="126.6,101.6 126.3,101.8 126.1,102.1 "/>
<line class="st2" x1="126.6" y1="101.6" x2="133.3" y2="101.6"/>
<path class="st2" d="M126.3,102.4v4.4 M128.6,105.5l-1.8,1.4 M133,106.9v-4.4 M132.4,106.9l-1.8-1.4 M125.9,101.4v13.1 M134.2,114.5
	v-13.1 M133.8,102.2v5.7"/>
<rect x="125.3" y="79.1" class="st2" width="0.8" height="9"/>
<rect x="126.1" y="79.1" class="st2" width="8.7" height="9"/>
<polygon class="st2" points="125.7,84.7 125.5,84.8 125.4,85 125.5,85.3 125.7,85.4 125.9,85.3 126,85 125.9,84.8 "/>
<polygon class="st2" points="125.7,83.2 125.5,83.3 125.4,83.6 125.5,83.8 125.7,83.9 125.9,83.8 126,83.6 125.9,83.3 "/>
<polygon class="st2" points="125.7,81.8 125.5,81.9 125.4,82.1 125.5,82.3 125.7,82.4 125.9,82.3 126,82.1 125.9,81.9 "/>
<polygon class="st2" points="125.7,81.9 125.6,82 125.5,82.1 125.6,82.2 125.8,82.2 125.9,82.1 125.8,82 "/>
<polygon class="st2" points="125.7,83.4 125.6,83.4 125.5,83.6 125.6,83.7 125.8,83.7 125.9,83.6 125.8,83.4 "/>
<polygon class="st2" points="125.7,86.2 125.5,86.3 125.4,86.5 125.5,86.7 125.7,86.8 125.9,86.7 126,86.5 125.9,86.3 "/>
<polygon class="st2" points="125.7,86.3 125.6,86.4 125.5,86.5 125.6,86.6 125.7,86.7 125.8,86.6 125.9,86.5 125.8,86.4 "/>
<polygon class="st2" points="125.7,84.9 125.6,84.9 125.5,85 125.6,85.1 125.7,85.2 125.8,85.1 125.9,85 125.8,84.9 "/>
<polyline class="st2" points="126.3,78.4 126.3,88.8 134.4,88.8 134.4,88.2 "/>
<polyline class="st2" points="126.5,78.5 126.5,88.7 134.2,88.7 134.2,88.2 "/>
<polyline class="st2" points="127.8,79 127.8,88.2 128,88 128,79.3 127.8,79 134.6,79 "/>
<line class="st2" x1="127.8" y1="88.2" x2="133" y2="88.2"/>
<polyline class="st2" points="128,79.3 128.4,79.8 128.4,87.4 128,88 134.6,88 134.2,87.4 128.4,87.4 128.5,87.2 128.5,80 
	128.4,79.8 134.2,79.8 134.2,82.2 "/>
<polyline class="st2" points="130.2,82.4 130.4,82.2 130.4,85 130.2,84.7 "/>
<polyline class="st2" points="130.4,82.2 134.6,82.2 134.6,85 130.4,85 "/>
<polyline class="st2" points="134.6,85 134.6,88.1 134.6,88.2 127.8,88.2 "/>
<rect x="107.3" y="114.1" class="st2" width="8.2" height="9.4"/>
<polygon class="st2" points="115.5,113.7 115.5,113.2 115.4,113 115.1,112.8 107.7,112.8 107.6,113 107.3,113.2 107.3,113.7 "/>
<rect x="107.7" y="113.7" class="st2" width="7.4" height="0.4"/>
<path class="st2" d="M111.4,117v3.6 M109.6,118.8h3.6 M110,120.1l2.8-2.7 M110,117.4l2.8,2.7"/>
<polyline class="st2" points="115.5,123.4 115.5,113.7 115.5,123.4 135,123.4 135,77.9 "/>
<polyline class="st2" points="115.5,113.7 125.3,113.7 125.3,77.9 135,77.9 "/>
<path class="st4" d="M66,125.3v-1.9 M80.9,125.3v-1.9"/>
<line class="st4" x1="101.2" y1="50.4" x2="99.3" y2="50.4"/>
<line class="st4" x1="101.2" y1="65.4" x2="99.3" y2="65.4"/>
<line class="st4" x1="104.1" y1="125.3" x2="104.1" y2="123.4"/>
<line class="st4" x1="89.2" y1="125.3" x2="89.2" y2="123.4"/>
<polyline class="st4" points="30.7,22.8 13.1,22.8 13.1,131.2 "/>
<polyline class="st4" points="30.7,20.4 11.2,20.4 11.2,133.2 30.7,133.2 "/>
<line class="st4" x1="30.7" y1="131.2" x2="13.1" y2="131.2"/>
<path class="st4" d="M32.6,36.3v9.8 M33.4,36.3v9.8 M37.2,36.3v24.4 M30.7,36.8v23.4 M32.7,44.8h0.8 M30.7,46.1h6.5 M32.6,37.5h0.8"
	/>
<polygon class="st5" points="42.8,47.5 42.1,47.2 36.5,60.3 37.2,60.7 "/>
<polyline class="st4" points="37.2,46 38.8,46.2 40.5,46.6 42.1,47.2 "/>
<path class="st4" d="M124.1,180.3H99.8 M100.2,182.3h23.4 M124.1,175.8H99.8"/>
<polyline class="st4" points="99.8,179.5 124.1,179.5 122.9,179.5 122.9,180.3 124.1,180.3 124.1,179.5 "/>
<rect x="99.8" y="179.5" class="st4" width="1.2" height="0.8"/>
<rect x="111.3" y="179.5" class="st4" width="1.3" height="0.8"/>
<path class="st4" d="M73.4,180.3H49 M49.5,182.3H73 M73.5,175.8H49"/>
<polyline class="st4" points="49,179.5 73.4,179.5 72.2,179.5 72.2,180.3 73.4,180.3 73.4,179.5 "/>
<rect x="49" y="179.5" class="st4" width="1.3" height="0.8"/>
<rect x="60.6" y="179.5" class="st4" width="1.2" height="0.8"/>
<path class="st4" d="M32.6,91.2v9.8 M33.4,91.2v9.8 M37.2,91.2v24.4 M30.7,91.7v23.5 M32.7,99.8h0.8 M30.7,101h6.5 M32.6,92.5h0.8"
	/>
<polygon class="st5" points="42.8,102.5 42.1,102.1 36.5,115.2 37.2,115.7 "/>
<polyline class="st4" points="37.2,101 38.8,101.1 40.5,101.5 42.1,102.1 "/>
<polyline class="st4" points="128.3,13.6 114.2,21.7 113.8,21.1 127.9,13.1 "/>
<path class="st4" d="M130.1,21.1v1.7 M113.8,21.1v1.7"/>
<polygon class="st5" points="100.8,65.4 108.3,52.4 107.7,52.1 100.2,65 "/>
<polyline class="st4" points="100.8,50.4 103.5,50.6 106,51.3 108.3,52.4 "/>
<polyline class="st5" points="101.2,22.8 101.2,50.4 100.8,50.4 99.3,50.4 99.3,22.8 "/>
<polyline class="st5" points="99.3,71.7 99.3,65.4 100.8,65.4 101.2,65.4 101.2,71.7 "/>
<polygon class="st5" points="138.1,65.5 131.7,54.5 132.3,54 138.7,65.2 "/>
<polyline class="st4" points="131.7,54.5 133.7,53.5 135.8,52.9 138.1,52.7 "/>
<path class="st4" d="M138.1,52.7h1.7 M138.1,65.5h1.7"/>
<polygon class="st5" points="65.9,123.4 78.9,115.9 79.3,116.5 66.2,124 "/>
<polyline class="st4" points="80.8,123.4 80.6,120.8 79.9,118.3 78.9,115.9 "/>
<polyline class="st5" points="37.2,123.4 65.9,123.4 65.9,125 65.9,125.3 37.2,125.3 "/>
<polygon class="st5" points="104.1,123.4 91.2,115.9 90.8,116.5 103.8,124 "/>
<polyline class="st4" points="89.2,123.4 89.4,120.8 90.1,118.3 91.2,115.9 "/>
<polyline class="st5" points="87.1,175.8 87.1,125.3 89.2,125.3 89.2,125 89.2,123.4 80.8,123.4 80.8,125 80.8,125.3 85.1,125.3 
	85.1,175.8 "/>
<line class="st4" x1="189.6" y1="76.4" x2="189.6" y2="74.8"/>
<line class="st6" x1="135" y1="19.6" x2="135" y2="52.7"/>
<line class="st6" x1="141.1" y1="77.9" x2="141.1" y2="182.3"/>
<line class="st6" x1="141.1" y1="65.5" x2="141.1" y2="71.7"/>
<line class="st6" x1="141.1" y1="35.6" x2="141.1" y2="52.7"/>
<line class="st6" x1="141.1" y1="19.6" x2="141.1" y2="29.4"/>
<path class="st6" d="M141.1,52.7H135 M141.1,65.5H135"/>
<line class="st6" x1="189.6" y1="77.9" x2="189.6" y2="71.7"/>
<path class="st6" d="M101.2,71.7v6.2 M120.4,71.7v6.2"/>
<line class="st6" x1="32.6" y1="180.3" x2="32.6" y2="115.2"/>
<line class="st6" x1="30.7" y1="182.3" x2="30.7" y2="115.2"/>
<line class="st6" x1="33.1" y1="91.2" x2="33.1" y2="60.7"/>
<line class="st6" x1="37.2" y1="71.7" x2="37.2" y2="60.7"/>
<line class="st6" x1="37.2" y1="91.2" x2="37.2" y2="77.9"/>
<line class="st6" x1="33.1" y1="179.8" x2="33.1" y2="115.7"/>
<line class="st6" x1="37.2" y1="175.8" x2="37.2" y2="115.7"/>
<polyline class="st6" points="30.7,60.2 32.6,60.2 32.6,60.7 37.2,60.7 "/>
<polyline class="st6" points="30.7,36.8 32.6,36.8 32.6,36.3 37.2,36.3 "/>
<polyline class="st6" points="30.7,115.2 32.6,115.2 32.6,115.7 37.2,115.7 "/>
<polyline class="st6" points="30.7,91.7 32.6,91.7 32.6,91.2 37.2,91.2 "/>
<line class="st6" x1="33.1" y1="36.3" x2="33.1" y2="19.6"/>
<line class="st6" x1="37.2" y1="36.3" x2="37.2" y2="19.6"/>
<line class="st6" x1="32.6" y1="91.7" x2="32.6" y2="60.2"/>
<line class="st6" x1="30.7" y1="91.7" x2="30.7" y2="60.2"/>
<line class="st6" x1="32.6" y1="36.8" x2="32.6" y2="19.6"/>
<line class="st6" x1="30.7" y1="36.8" x2="30.7" y2="19.6"/>
<line class="st6" x1="49.5" y1="180.3" x2="32.6" y2="180.3"/>
<line class="st6" x1="49.5" y1="182.3" x2="30.7" y2="182.3"/>
<line class="st6" x1="100.2" y1="180.3" x2="72.9" y2="180.3"/>
<line class="st6" x1="100.2" y1="182.3" x2="72.9" y2="182.3"/>
<line class="st6" x1="141.1" y1="180.3" x2="123.6" y2="180.3"/>
<line class="st6" x1="141.1" y1="182.3" x2="123.6" y2="182.3"/>
<line class="st6" x1="49" y1="179.8" x2="33.1" y2="179.8"/>
<line class="st6" x1="49" y1="175.8" x2="37.2" y2="175.8"/>
<line class="st6" x1="99.8" y1="179.8" x2="73.4" y2="179.8"/>
<line class="st6" x1="99.8" y1="175.8" x2="73.4" y2="175.8"/>
<line class="st6" x1="135" y1="175.8" x2="124.1" y2="175.8"/>
<line class="st6" x1="141.1" y1="179.8" x2="124.1" y2="179.8"/>
<polyline class="st6" points="100.2,182.3 100.2,180.3 99.8,180.3 99.8,175.8 "/>
<polyline class="st6" points="123.6,182.3 123.6,180.3 124.1,180.3 124.1,175.8 "/>
<polyline class="st6" points="49.5,182.3 49.5,180.3 49,180.3 49,175.8 "/>
<polyline class="st6" points="72.9,182.3 72.9,180.3 73.4,180.3 73.4,175.8 "/>
<line class="st6" x1="151.8" y1="35.6" x2="189.6" y2="35.6"/>
<line class="st6" x1="141.1" y1="35.6" x2="147.4" y2="35.6"/>
<line class="st6" x1="141.1" y1="29.4" x2="189.6" y2="29.4"/>
<polyline class="st6" points="147.4,35.6 147.4,33.5 151.8,33.5 151.8,35.6 "/>
<path class="st3" d="M113.8,22.8H37.2 M135,22.8h-4.9"/>
<polyline class="st5" points="135,123.4 104.1,123.4 104.1,125 104.1,125.3 135,125.3 "/>
<line class="st6" x1="141.1" y1="77.9" x2="189.6" y2="77.9"/>
<line class="st6" x1="120.4" y1="77.9" x2="135" y2="77.9"/>
<line class="st6" x1="37.2" y1="77.9" x2="101.2" y2="77.9"/>
<line class="st6" x1="141.1" y1="71.7" x2="189.6" y2="71.7"/>
<line class="st6" x1="120.4" y1="71.7" x2="135" y2="71.7"/>
<line class="st6" x1="37.2" y1="71.7" x2="101.2" y2="71.7"/>
<line class="st6" x1="135" y1="77.9" x2="135" y2="175.8"/>
<line class="st6" x1="135" y1="65.5" x2="135" y2="71.7"/>
<line class="st3" x1="112.3" y1="19.6" x2="109" y2="19.6"/>
<line class="st3" x1="112.3" y1="19.6" x2="112.3" y2="19.6"/>
<line class="st3" x1="130.1" y1="19.6" x2="130.1" y2="22.8"/>
<line class="st3" x1="113.8" y1="19.6" x2="113.8" y2="22.8"/>
<path class="st7" d="M117.4,24.1h9.1c1.7,0,3.1,1.4,3.1,3.1v5.2c0,1.7-1.4,3.1-3.1,3.1h-9.1c-1.7,0-3.1-1.4-3.1-3.1v-5.2
	C114.3,25.5,115.7,24.1,117.4,24.1z"/>
<path class="st7" d="M117.8,24.6h8.3c1.5,0,2.8,1.3,2.8,2.8v4.8c0,1.5-1.3,2.8-2.8,2.8h-8.3c-1.5,0-2.8-1.3-2.8-2.8v-4.8
	C115,25.9,116.2,24.6,117.8,24.6z"/>
<path class="st7" d="M120,30.7c-0.6-0.1-0.9-1.2-0.6-2.4s1-2,1.6-1.8s0.9,1.2,0.6,2.4S120.6,30.9,120,30.7z"/>
<path class="st7" d="M119.4,28.2c0.5,1,1.2,1.2,2.2,0.5"/>
<path class="st7" d="M123.9,32.8c-0.6,0.2-1.4-0.5-1.8-1.6s-0.3-2.2,0.3-2.4s1.4,0.5,1.8,1.6S124.5,32.5,123.9,32.8z"/>
<path class="st7" d="M122,31c1,0.6,1.7,0.3,2.1-0.8"/>
<path class="st8" d="M53.7,147.5H68c2.1,0,3.8,1.7,3.8,3.8v22.9c0,0.7-0.5,1.2-1.2,1.2l0,0H50.9c-0.6,0-1.1-0.5-1.1-1.1v-23
	C49.9,149.3,51.5,147.5,53.7,147.5L53.7,147.5z"/>
<path class="st9" d="M52.2,169h6.5c0.5,0,0.8,0.4,0.8,0.8v3.9c0,0.5-0.4,0.8-0.8,0.8h-6.5c-0.5,0-0.8-0.4-0.8-0.8v-3.9
	C51.3,169.4,51.7,169,52.2,169z"/>
<path class="st9" d="M62.6,168.9h6.5c0.5,0,0.8,0.4,0.8,0.8v3.9c0,0.5-0.4,0.8-0.8,0.8h-6.5c-0.5,0-0.8-0.4-0.8-0.8v-3.9
	C61.8,169.2,62.2,168.9,62.6,168.9z"/>
<line class="st7" x1="49.9" y1="161.7" x2="71.8" y2="161.7"/>
<polygon class="st8" points="68.4,162.6 71.8,163.2 69.5,165.7 "/>
<line class="st7" x1="69.5" y1="165.7" x2="49.9" y2="165.7"/>
<path class="st8" d="M115.6,159.7v-14.4c0-2.1-1.7-3.8-3.8-3.8H88.9c-0.7,0-1.2,0.5-1.2,1.2v19.7c0,0.6,0.5,1.1,1.1,1.1l0,0h23
	C113.9,163.5,115.6,161.8,115.6,159.7L115.6,159.7z"/>
<path class="st9" d="M89.4,153.9h3.9c0.5,0,0.8,0.4,0.8,0.8v6.5c0,0.5-0.4,0.8-0.8,0.8h-3.9c-0.5,0-0.8-0.4-0.8-0.8v-6.5
	C88.6,154.2,89,153.9,89.4,153.9z"/>
<path class="st9" d="M89.6,143.4h3.9c0.5,0,0.8,0.4,0.8,0.8v6.5c0,0.5-0.4,0.8-0.8,0.8h-3.9c-0.5,0-0.8-0.4-0.8-0.8v-6.5
	C88.8,143.8,89.1,143.4,89.6,143.4z"/>
<line class="st7" x1="101.5" y1="163.5" x2="101.5" y2="141.5"/>
<polygon class="st8" points="100.6,145 100,141.5 97.5,143.9 "/>
<line class="st7" x1="97.5" y1="143.9" x2="97.5" y2="163.5"/>
<path class="st9" d="M40.2,166h7.6c0.4,0,0.7,0.3,0.7,0.7v7.5c0,0.4-0.3,0.7-0.7,0.7h-7.6c-0.4,0-0.7-0.3-0.7-0.7v-7.5
	C39.5,166.3,39.8,166,40.2,166z"/>
<path class="st9" d="M89.3,131.6H97c0.4,0,0.7,0.3,0.7,0.7v7.5c0,0.4-0.3,0.7-0.7,0.7h-7.6c-0.4,0-0.7-0.3-0.7-0.7v-7.5
	C88.6,131.9,88.9,131.6,89.3,131.6z"/>
<path class="st9" d="M89.3,164.9H97c0.4,0,0.7,0.3,0.7,0.7v7.5c0,0.4-0.3,0.7-0.7,0.7h-7.6c-0.4,0-0.7-0.3-0.7-0.7v-7.5
	C88.6,165.2,88.9,164.9,89.3,164.9z"/>
<rect x="45.4" y="126.9" transform="matrix(9.758817e-02 -0.9952 0.9952 9.758817e-02 -90.008 164.3296)" class="st10" width="0.5" height="9.8"/>
<rect x="54.1" y="134.8" transform="matrix(0.3611 -0.9325 0.9325 0.3611 -88.2652 141.3202)" class="st10" width="9.8" height="0.6"/>
<rect x="40.1" y="126.2" class="st9" width="22.3" height="5.3"/>
<rect x="127.7" y="139.3" transform="matrix(0.9952 -9.775861e-02 9.775861e-02 0.9952 -13.4835 13.2036)" class="st11" width="0.6" height="9.8"/>
<rect x="119.9" y="130.7" transform="matrix(0.9325 -0.3611 0.3611 0.9325 -38.8855 53.9042)" class="st10" width="9.8" height="0.6"/>
<rect x="128.3" y="127.5" class="st9" width="5.3" height="22.3"/>
<path class="st8" d="M49.2,91.1h1.9c0.2,0,0.3,0.2,0.3,0.3v5c0,0.1-0.1,0.2-0.2,0.2h-2.1c-1.2,0-2.1-0.9-2.1-2.1v-1.3
	C47.1,92.1,48,91.1,49.2,91.1z"/>
<path class="st7" d="M49.2,91.1c-1.6,2-1.6,3.8,0,5.5"/>
<path class="st8" d="M49.1,97.1H51c0.2,0,0.3,0.2,0.3,0.3v5c0,0.1-0.1,0.2-0.2,0.2H49c-1.2,0-2.1-0.9-2.1-2.1v-1.3
	C47,98.1,47.9,97.1,49.1,97.1z"/>
<path class="st7" d="M49.1,97.1c-1.5,2-1.5,3.8,0,5.5"/>
<path class="st8" d="M49,103.4h1.9c0.2,0,0.3,0.2,0.3,0.3v5c0,0.1-0.1,0.2-0.2,0.2l0,0h-2c-1.2,0-2.1-0.9-2.1-2.1v-1.3
	C46.9,104.4,47.8,103.4,49,103.4L49,103.4z"/>
<path class="st7" d="M49,103.4c-1.6,2-1.6,3.8,0,5.5"/>
<path class="st8" d="M62.7,91.3h-1.9c-0.2,0-0.3,0.1-0.3,0.3l0,0v5c0,0.1,0.1,0.2,0.2,0.2h2.1c1.2,0,2.1-0.9,2.1-2.1v-1.3
	C64.8,92.3,63.9,91.3,62.7,91.3z"/>
<path class="st7" d="M62.7,91.3c1.5,2,1.5,3.8,0,5.5"/>
<path class="st8" d="M62.8,97.4h-1.9c-0.2,0-0.3,0.2-0.3,0.3v5c0,0.1,0.1,0.2,0.2,0.2h2.1c1.2,0,2.1-0.9,2.1-2.1v-1.3
	C64.9,98.3,64,97.4,62.8,97.4z"/>
<path class="st7" d="M62.8,97.4c1.6,2,1.6,3.8,0,5.5"/>
<path class="st8" d="M62.8,103.7H61c-0.2,0-0.3,0.2-0.3,0.3v5c0,0.1,0.1,0.2,0.2,0.2l0,0H63c1.2,0,2.1-0.9,2.1-2.1l0,0v-1.3
	C65,104.6,64,103.7,62.8,103.7C62.9,103.7,62.9,103.7,62.8,103.7z"/>
<path class="st7" d="M62.8,103.7c1.6,2,1.6,3.8,0,5.5"/>
<path class="st9" d="M52,89.6h8.3c1,0,1.8,0.8,1.8,1.8v17.2c0,1-0.8,1.8-1.8,1.8H52c-1,0-1.8-0.8-1.8-1.8V91.4
	C50.2,90.4,51,89.6,52,89.6z"/>
<rect x="55.1" y="40.4" class="st9" width="22.8" height="9.6"/>
<path class="st9" d="M54,23.2h24.9c1.6,0,2.9,1.3,2.9,2.9v7.3c0,1.6-1.3,2.9-2.9,2.9H54c-1.6,0-2.9-1.3-2.9-2.9V26
	C51.1,24.4,52.4,23.2,54,23.2z"/>
<path class="st9" d="M79.7,24H81c0.5,0,0.9,0.4,0.9,0.9v8.6c0,0.5-0.4,0.9-0.9,0.9h-1.2c-0.5,0-0.9-0.4-0.9-0.9v-8.6
	C78.8,24.4,79.2,24,79.7,24z"/>
<path class="st9" d="M51.8,24H53c0.5,0,0.9,0.4,0.9,0.9v8.6c0,0.5-0.4,0.9-0.9,0.9h-1.2c-0.5,0-0.9-0.4-0.9-0.9v-8.6
	C50.9,24.4,51.3,24,51.8,24z"/>
<path class="st9" d="M52.4,23.9h28.1c0.6,0,1,0.5,1,1v1.5c0,0.6-0.5,1-1,1H52.4c-0.6,0-1-0.5-1-1V25C51.4,24.4,51.8,23.9,52.4,23.9z
	"/>
<path class="st9" d="M54.4,24.2h24.2c0.5,0,0.9,0.4,0.9,0.9v1.2c0,0.5-0.4,0.9-0.9,0.9H54.4c-0.5,0-0.9-0.4-0.9-0.9v-1.2
	C53.5,24.6,53.9,24.2,54.4,24.2z"/>
<line class="st7" x1="66.5" y1="36.2" x2="66.5" y2="27.5"/>
<rect x="92.8" y="35.8" transform="matrix(0.9952 -9.758820e-02 9.758820e-02 0.9952 -3.5273 9.2795)" class="st10" width="0.6" height="9.8"/>
<rect x="85" y="27.1" transform="matrix(0.9325 -0.3611 0.3611 0.9325 -3.8073 34.3066)" class="st10" width="9.8" height="0.5"/>
<rect x="93.4" y="23.9" class="st9" width="5.3" height="22.3"/>
<rect x="57.1" y="57" class="st9" width="19.6" height="4.8"/>
<rect x="61.5" y="58" class="st9" width="11.7" height="3.2"/>
<rect x="58.9" y="58.8" class="st9" width="16.1" height="1"/>
<path class="st12" d="M83.4,84.3h7.9c3.3,0,5.9,2.7,5.9,5.9v14.9c0,3.3-2.7,5.9-5.9,5.9h-7.9c-3.3,0-5.9-2.7-5.9-5.9V90.2
	C77.5,86.9,80.1,84.3,83.4,84.3z"/>
<text transform="matrix(1 0 0 1 80.5276 91.3)" class="st13 st14 st15">31,2</text>
<text transform="matrix(1 0 0 1 80.5279 107.95)" class="st13 st14 st15">61,7</text>
<text transform="matrix(1 0 0 1 79.5544 100)" class="st16 st14 st17">63,9</text>
<text transform="matrix(1 0 0 1 123.2799 68.74)" class="st18 st14 st19" style="text-decoration: underline;">6,6</text>
<text transform="matrix(1 0 0 1 83.3998 68.74)" class="st18 st14 st19" style="text-decoration: underline;">12,2</text>
<text transform="matrix(1 0 0 1 173.9298 69.1101)" class="st18 st14 st19" style="text-decoration: underline;">7,2</text>
<text transform="matrix(1 0 0 1 52.4399 120.5801)" class="st18 st14 st19" style="text-decoration: underline;">16,7</text>
<text transform="matrix(1 0 0 1 74.59 172.98)" class="st18 st14 st19" style="text-decoration: underline;">9,4</text>
<text transform="matrix(1 0 0 1 124.36 172.98)" class="st18 st14 st19" style="text-decoration: underline;">9,6</text>
<text transform="matrix(6.123234e-17 -1 1 6.123234e-17 24.62 92.1699)" class="st18 st14 st19" style="text-decoration: underline;">7,2х0,3=2,2</text>
<polyline class="st4" points="128.1,13 129.3,15.4 130,17.8 130.3,20.4 "/>
<line class="st6" x1="135" y1="19.6" x2="141.1" y2="19.6"/>
</svg>
