<?xml version="1.0" encoding="utf-8"?>
<!-- Generator: Adobe Illustrator 25.0.0, SVG Export Plug-In . SVG Version: 6.00 Build 0)  -->
<svg version="1.1" id="Слой_1" xmlns="http://www.w3.org/2000/svg" xmlns:xlink="http://www.w3.org/1999/xlink" x="0px" y="0px"
	 viewBox="0 0 200 200" style="enable-background:new 0 0 200 200;" xml:space="preserve">
<style type="text/css">
	.st0{fill:#A3C98F;}
	.st1{fill-rule:evenodd;clip-rule:evenodd;fill:#A3C98F;}
	.st2{fill:none;stroke:#666666;stroke-width:0.2;stroke-linecap:round;stroke-linejoin:round;}
	.st3{fill:none;stroke:#333333;stroke-width:0.4;stroke-linecap:round;stroke-linejoin:round;}
	.st4{fill:#FFFFFF;stroke:#333333;stroke-width:0.4;stroke-linecap:round;stroke-linejoin:round;}
	.st5{fill:none;stroke:#333333;stroke-width:0.6;stroke-linecap:round;stroke-linejoin:round;}
	.st6{fill:none;stroke:#333333;stroke-width:0.8;stroke-linecap:round;stroke-linejoin:round;}
	.st7{fill:none;stroke:#666666;stroke-width:0.2;stroke-miterlimit:22.93;}
	.st8{fill-rule:evenodd;clip-rule:evenodd;fill:#A3C98F;stroke:#666666;stroke-width:0.2;stroke-miterlimit:22.93;}
	.st9{fill:#A3C98F;stroke:#666666;stroke-width:0.2;stroke-miterlimit:22.93;}
	.st10{fill:#FFFFFF;}
	.st11{fill:#1A1A18;}
	.st12{font-family:'ArialMT';}
	.st13{font-size:8px;}
	.st14{fill:#E43622;}
	.st15{font-size:9px;}
	.st16{fill:#666666;}
</style>
<rect x="144.5" y="135.3" class="st0" width="21.2" height="45.6"/>
<polygon class="st1" points="33.4,187 136.5,187 136.5,135.1 56.9,135.1 56.9,122.4 38.5,122.4 38.5,135.1 33.4,135.1 "/>
<polygon class="st1" points="152.3,127.9 56.2,127.9 56.2,138.8 37.8,138.8 37.8,127.9 33.4,127.9 33.4,19.4 152.3,19.4 "/>
<rect x="160.1" y="21" class="st0" width="21.8" height="60.5"/>
<rect x="73.2" y="37.7" class="st2" width="11.3" height="10"/>
<line class="st2" x1="79.1" y1="22.1" x2="85.1" y2="22.1"/>
<polyline class="st2" points="79.1,21.9 85.1,21.9 85.1,22.1 "/>
<path class="st2" d="M79.1,24.1v-0.2 M79.1,23.1v-0.2 M79.1,22.1V22"/>
<polyline class="st2" points="87.4,24.5 87.3,24.5 87.1,24.3 "/>
<polyline class="st2" points="87.4,24.5 87.5,24.3 87.7,24.2 87.7,24.1 "/>
<path class="st2" d="M85.9,21.8l1.3,2.6 M86.4,21.5l1.4,2.8 M87.7,24.2L87.7,24.2"/>
<polyline class="st2" points="86.1,21.7 86.3,22.1 86.4,22.1 "/>
<line class="st2" x1="86.4" y1="21.9" x2="86.3" y2="21.6"/>
<polygon class="st2" points="85.7,21.5 85.8,21.2 86.1,21.1 86.3,21.2 86.3,21.6 86.1,21.7 85.8,21.6 "/>
<polyline class="st2" points="86.2,21.8 85.8,21.8 85.6,21.5 85.7,21.1 86.1,21 86.4,21.1 86.5,21.5 86.3,21.7 "/>
<polyline class="st2" points="86.1,21.7 85.8,21.7 85.7,21.5 85.8,21.2 86.1,21.1 86.3,21.1 86.4,21.5 86.3,21.7 "/>
<path class="st2" d="M79.1,29.9h6 M79.1,24.1h6 M79.1,23.9h6 M79.1,23.1h6 M79.1,22.9h6 M86.8,22.1l0.6-0.2 M85.1,23.1v-0.2
	 M85.1,24.1v-0.2"/>
<polyline class="st2" points="79.1,30 85.1,30 85.1,29.9 "/>
<path class="st2" d="M85.1,26v-0.1 M85.1,27.1v-0.2 M85.1,28.1v-0.2 M85.1,29v-0.1 M85.1,25.1V25 M79.1,29v-0.1 M79.1,28.1v-0.2
	 M79.1,27.1v-0.2 M79.1,26v-0.1 M79.1,25.1V25 M79.1,29.9v-0.1"/>
<polyline class="st2" points="87.4,30 86.8,29.9 86.5,29.4 "/>
<path class="st2" d="M79.1,25.9h6 M79.1,26h6 M79.1,26.9h6 M79.1,25.1h6 M79.1,27.1h6 M79.1,24.9h6 M79.1,27.8h6 M79.1,28h6
	 M79.1,28.9h6 M79.1,29h6"/>
<polyline class="st2" points="86.2,30.2 79.1,30.2 78.6,30 78.4,29.6 78.4,21.5 78.6,21 79.1,20.9 86.2,20.9 "/>
<path class="st2" d="M78.1,30.5V20.4 M86.5,29.4v-6.2"/>
<polyline class="st2" points="87.4,24.6 87.3,24.6 87.3,24.5 "/>
<polyline class="st2" points="87.4,24.6 87.6,24.5 87.7,24.3 "/>
<polyline class="st2" points="87.9,24.2 87.9,24.3 87.7,24.3 "/>
<polyline class="st2" points="92.8,21.8 93.4,22.1 93.6,22.5 "/>
<polygon class="st2" points="89.5,25.9 89.8,25.5 90.1,25.4 90.4,25.5 90.6,25.9 90.4,26.3 90.1,26.4 89.8,26.3 "/>
<line class="st2" x1="91.1" y1="27.1" x2="92.8" y2="29.3"/>
<polyline class="st2" points="93.6,29.3 93.4,29.9 92.8,30 "/>
<polygon class="st2" points="89.3,25.9 89.5,25.3 90.1,25.2 90.6,25.3 90.9,25.9 90.6,26.5 90.1,26.7 89.5,26.5 "/>
<path class="st2" d="M86.2,30.2h7.1 M92.8,22.7l-1.7,2 M93.6,22.5v6.7 M94.1,20.3v10.1"/>
<polyline class="st2" points="93.9,29.6 93.6,30 93.3,30.2 "/>
<line class="st2" x1="93.9" y1="29.6" x2="93.9" y2="21.5"/>
<polyline class="st2" points="93.1,20.9 93.6,21 93.9,21.5 "/>
<path class="st2" d="M92.8,30h-5.4 M89.1,27.1l-1.7,2.2 M87.4,21.8h5.4 M87.4,22.7l1.7,2 M94.1,30.4h-16 M78.1,20.4h16 M93.1,20.8
	h-7"/>
<rect x="100.9" y="30.2" class="st2" width="10.8" height="1"/>
<rect x="100.9" y="19.5" class="st2" width="10.8" height="10.7"/>
<polygon class="st2" points="104.5,31.1 104.8,30.9 104.9,30.7 104.8,30.3 104.5,30.2 104.3,30.3 104.2,30.7 104.3,30.9 "/>
<polygon class="st2" points="109.8,31.1 110.1,30.9 110.2,30.7 110.1,30.3 109.8,30.2 109.6,30.3 109.5,30.7 109.6,30.9 "/>
<polygon class="st2" points="109.8,30.8 109.9,30.8 110.1,30.7 109.9,30.6 109.8,30.5 109.7,30.6 109.6,30.7 109.7,30.8 "/>
<polygon class="st2" points="106.3,31.1 106.6,30.9 106.7,30.7 106.6,30.3 106.3,30.2 106,30.3 105.9,30.7 106,30.9 "/>
<polygon class="st2" points="108,31.1 108.4,30.9 108.5,30.7 108.4,30.3 108,30.2 107.8,30.3 107.7,30.7 107.8,30.9 "/>
<polygon class="st2" points="108,30.8 108.3,30.8 108.3,30.7 108.3,30.6 108,30.5 107.9,30.6 107.9,30.8 "/>
<polygon class="st2" points="106.3,30.8 106.5,30.8 106.5,30.7 106.5,30.6 106.3,30.5 106.1,30.6 106.1,30.8 "/>
<polygon class="st2" points="102.7,31.1 103.1,30.9 103.1,30.3 102.7,30.2 102.5,30.3 102.4,30.7 102.5,30.9 "/>
<polygon class="st2" points="102.7,30.8 102.9,30.8 103,30.7 102.9,30.6 102.7,30.5 102.6,30.6 102.6,30.8 "/>
<polygon class="st2" points="104.5,30.8 104.7,30.8 104.8,30.7 104.7,30.6 104.5,30.5 104.4,30.6 104.3,30.7 104.4,30.8 "/>
<rect x="86.1" y="44.4" class="st2" width="0.1" height="2.3"/>
<line class="st2" x1="85.1" y1="37.7" x2="85.6" y2="37.7"/>
<polyline class="st2" points="86.1,38.1 85.9,37.9 85.6,37.7 "/>
<line class="st2" x1="86.1" y1="38.1" x2="86.1" y2="47.1"/>
<polyline class="st2" points="85.6,47.6 85.9,47.5 86.1,47.1 "/>
<polyline class="st2" points="85.6,47.6 85.1,47.6 85.1,37.7 "/>
<rect x="84.5" y="38.1" class="st2" width="0.6" height="9"/>
<path class="st2" d="M81,42.7h-4.4 M78.7,44.9v-4.3 M77.2,44.4l3.2-3.4 M80.4,44.4L77.2,41"/>
<polyline class="st2" points="73.2,37.7 85.1,37.7 85.1,31.2 115.3,31.2 "/>
<polyline class="st2" points="112.6,30 100,30 100,20.1 100.7,20.1 "/>
<polyline class="st2" points="112.5,29.7 100.1,29.7 100.1,20.4 100.7,20.4 "/>
<polyline class="st2" points="112.5,29.7 112.5,20.4 111.9,20.4 "/>
<polyline class="st2" points="112.6,30 112.6,20.1 111.9,20.1 "/>
<polyline class="st2" points="111.9,28.1 100.7,28.1 101.1,27.8 111.6,27.8 111.9,28.1 111.9,19.8 "/>
<line class="st2" x1="100.7" y1="28.1" x2="100.7" y2="21.7"/>
<polyline class="st2" points="111.6,27.8 110.9,27.3 101.7,27.3 101.1,27.8 101.1,19.9 101.7,20.4 101.7,27.3 101.9,27.2 
	110.7,27.2 110.9,27.3 110.9,20.4 108,20.4 "/>
<polyline class="st2" points="107.7,25.2 108,24.9 104.7,24.9 104.9,25.2 "/>
<polyline class="st2" points="108,24.9 108,19.8 104.7,19.8 104.7,24.9 "/>
<polyline class="st2" points="110.9,20.4 111.6,19.9 111.6,27.8 "/>
<polyline class="st2" points="104.7,19.8 100.7,19.8 100.7,28.1 "/>
<line class="st2" x1="115.3" y1="31.2" x2="115.3" y2="19.3"/>
<path class="st2" d="M60.2,22.2c0,0,2.3-0.4,3.1-0.4s3.1,0.4,3.1,0.4"/>
<path class="st2" d="M66.5,22.2c0.2,0.1,0.5,0.1,0.7,0.2c0.2,0.2,0.3,0.4,0.5,0.6l0.1,0.7"/>
<path class="st2" d="M56.5,22.4c0,0,2-0.7,2.6-0.8c0.9-0.2,1.8-0.3,2.8-0.4c0.7,0,2.1,0,2.8,0c0.9,0.1,1.8,0.2,2.8,0.4
	c0.7,0.1,2.8,0.8,2.8,0.8"/>
<path class="st2" d="M58.9,23.8l0.1-0.7c0.1-0.2,0.3-0.4,0.5-0.6c0.2-0.1,0.5-0.2,0.7-0.2"/>
<path class="st2" d="M70.2,42.8l-0.6,1.8c0,0-0.9,1.2-1.2,1.6C68,46.6,67.5,47,67,47.4c-0.6,0.3-1.2,0.5-1.8,0.7
	c-0.6,0.1-1.2,0.2-1.8,0.2s-1.3-0.1-1.9-0.3c-0.6-0.2-1.1-0.4-1.7-0.7c-0.6-0.3-1.1-0.7-1.6-1.2c-0.4-0.5-0.8-1-1.1-1.6l-0.6-1.8"/>
<path class="st2" d="M56.5,42.8V22.4 M55.9,48.9V20 M67.8,36.5V23.8 M70.2,22.4v20.4 M70.8,48.9V20"/>
<path class="st2" d="M67.8,36.5c0,0.5-0.1,1-0.2,1.5c-0.2,0.4-0.4,0.8-0.7,1.2c-0.3,0.4-0.7,0.8-1.1,1.1s-0.9,0.5-1.3,0.6
	C64,41,63.5,41,63,41c-0.5-0.1-1-0.2-1.4-0.4c-0.3-0.1-0.5-0.2-0.7-0.4c-0.4-0.3-0.7-0.7-1-1.1c-0.3-0.4-0.5-0.8-0.7-1.2
	c-0.1-0.5-0.2-1-0.2-1.4V23.8"/>
<path class="st2" d="M57,44.3c0,0,1.4-0.9,1.9-1.1c0.7-0.3,1.4-0.5,2.2-0.7c0.8-0.1,1.5-0.1,2.3-0.1c0.7,0,1.4,0,2.2,0.1
	c0.7,0.2,1.5,0.4,2.2,0.7c0.5,0.2,2,1.1,2,1.1"/>
<circle class="st2" cx="63.1" cy="24.2" r="0.8"/>
<circle class="st2" cx="63.1" cy="24.2" r="0.4"/>
<path class="st2" d="M43,19.5h7.5c0.3,0,0.5,0.2,0.5,0.5v2.8c0,0.3-0.2,0.5-0.5,0.5H43c-0.3,0-0.5-0.2-0.5-0.5V20
	C42.5,19.7,42.8,19.5,43,19.5z"/>
<ellipse class="st2" cx="46.8" cy="28.8" rx="2.7" ry="3.1"/>
<ellipse class="st2" cx="46.8" cy="28.8" rx="2.7" ry="3.1"/>
<path class="st2" d="M50.1,28.8c0.1,2-1.3,3.7-3.3,3.8c-2-0.1-3.4-1.9-3.3-3.8c0-1.2,0.3-2.4,0.8-3.5c0.6-0.9,1.5-0.5,2.5-0.5
	s1.9-0.4,2.5,0.4C49.8,26.2,50.1,27.5,50.1,28.8z"/>
<path class="st2" d="M44.1,23.3c0.2,0.6,0.3,1.3,0.2,1.9"/>
<path class="st2" d="M49.6,23.3c-0.2,0.6-0.3,1.3-0.2,1.9"/>
<circle class="st2" cx="46.8" cy="27.1" r="0.8"/>
<circle class="st2" cx="46.8" cy="27.1" r="0.4"/>
<polyline class="st2" points="34.1,189.7 34.3,189.8 34.3,189.6 "/>
<polyline class="st3" points="144.4,183.3 168.1,183.3 168.1,133.1 160.2,133.1 "/>
<polyline class="st3" points="144.4,180.9 165.9,180.9 165.9,135.5 160.2,135.5 "/>
<polyline class="st3" points="160.2,83.6 184,83.6 184,18.3 160.2,18.3 "/>
<polyline class="st3" points="160.2,81.2 181.6,81.2 181.6,20.7 160.2,20.7 "/>
<path class="st3" d="M157.9,85.2V115 M160.2,114.3V85.8 M152.3,85.2V115"/>
<polyline class="st3" points="156.9,114.9 156.9,85.2 156.9,86.7 157.9,86.7 157.9,85.2 156.9,85.2 "/>
<rect x="156.9" y="113.4" class="st3" width="1.1" height="1.6"/>
<rect x="156.9" y="99.3" class="st3" width="1.1" height="1.4"/>
<path class="st3" d="M157.9,60.8V48.9 M156.9,60.8V48.9 M152.3,60.8V31.2 M160.2,60.2V31.8 M157.9,50.5h-1.1 M160.2,48.9h-7.9
	 M157.9,59.4h-1.1"/>
<polygon class="st4" points="145.5,47.1 146.3,47.6 153.3,31.7 152.3,31.2 "/>
<polyline class="st3" points="152.3,49.1 150.3,48.8 148.2,48.3 146.3,47.6 "/>
<polyline class="st2" points="25.2,8.7 25.6,8.8 25.7,9 "/>
<polyline class="st2" points="25.7,48.6 25.6,48.8 25.2,48.9 "/>
<line class="st3" x1="53.8" y1="51.3" x2="53.8" y2="48.9"/>
<line class="st3" x1="56.9" y1="100.1" x2="59.3" y2="100.1"/>
<line class="st3" x1="56.9" y1="81.8" x2="59.3" y2="81.8"/>
<line class="st3" x1="38.2" y1="51.3" x2="38.2" y2="48.9"/>
<polyline class="st2" points="55.9,19.7 56.1,19.4 56.3,19.3 70.3,19.3 "/>
<polyline class="st2" points="70.3,19.3 70.7,19.4 70.8,19.7 "/>
<path class="st2" d="M111.6,19.9H108 M104.6,20.4h-3"/>
<polyline class="st2" points="104.7,19.9 101.1,19.9 100.9,19.8 "/>
<path class="st2" d="M111.6,19.8v0.1 M111.7,19.8H108"/>
<polyline class="st2" points="111.7,19.8 111.9,19.8 111.9,19.3 100.7,19.3 100.7,19.8 111.9,19.8 "/>
<polyline class="st2" points="33.5,38.9 34.6,38.3 35.8,38.1 37.1,38.3 38.2,38.9 39,39.7 39.6,40.8 39.9,42.1 "/>
<polyline class="st2" points="39.4,42.1 39.4,41.4 39.1,40.8 38.8,40.2 38.4,39.7 37.8,39.2 37.2,38.9 36.6,38.6 35.3,38.6 "/>
<polyline class="st2" points="39.4,42.1 39.4,42.7 39.1,43.4 38.8,44 38.4,44.5 37.8,45 37.2,45.2 36.6,45.5 35.9,45.6 35.3,45.6 
	"/>
<polyline class="st2" points="33.5,45.3 33.3,45.1 33.9,45.3 "/>
<line class="st2" x1="34.8" y1="42.3" x2="34.5" y2="45"/>
<polyline class="st2" points="34.7,43.5 34.8,45.1 35.3,45.6 "/>
<polyline class="st2" points="34.5,45 34.2,45.3 33.9,45.3 "/>
<line class="st2" x1="33.7" y1="42.3" x2="35.4" y2="42.3"/>
<polyline class="st2" points="33.5,38.9 33.3,39.1 34,38.9 "/>
<polyline class="st2" points="33.5,42.2 33.5,41.9 33.6,41.7 33.7,41.7 "/>
<path class="st2" d="M35.5,42v0.2 M34.7,40.6l0.1-1.6 M34.5,39.2l0.4,2.5"/>
<polyline class="st2" points="35.4,41.9 35.5,41.9 35.5,42 "/>
<path class="st2" d="M33.7,41.7l1.7,0.1 M34.8,39l0.5-0.4"/>
<polyline class="st2" points="34,38.9 34.3,39 34.5,39.2 "/>
<line class="st2" x1="33.3" y1="39.1" x2="33.3" y2="45.1"/>
<polyline class="st2" points="35.2,41.9 35.5,41.5 36,41.5 36.4,41.9 36.4,42.3 36,42.7 35.5,42.7 35.2,42.3 "/>
<polyline class="st2" points="35.5,41.9 35.8,41.7 36,41.9 36.1,42.1 36,42.3 35.8,42.5 35.5,42.2 "/>
<polyline class="st2" points="33.7,42.3 33.6,42.3 33.5,42.2 "/>
<line class="st2" x1="35.5" y1="42.2" x2="35.4" y2="42.3"/>
<polyline class="st2" points="39.9,42.1 39.6,43.3 39,44.4 38.2,45.2 37.1,45.8 35.8,46.1 34.6,45.8 33.5,45.3 "/>
<polygon class="st4" points="38.2,51 51.6,58.8 52.1,58.1 38.5,50.3 "/>
<polyline class="st3" points="51.6,58.8 52.8,56.3 53.5,53.6 53.8,51 "/>
<polyline class="st4" points="70.8,19.3 70.8,48.9 53.8,48.9 53.8,51 53.8,51.3 73.2,51.3 73.2,19.3 "/>
<polyline class="st4" points="33.1,48.9 38.2,48.9 38.2,51 38.2,51.3 33.1,51.3 "/>
<polygon class="st4" points="72.7,69.6 81.9,53.7 81.1,53.4 72,69.1 "/>
<polyline class="st3" points="72.7,51.3 76,51.6 79,52.4 81.9,53.7 "/>
<line class="st3" x1="72.7" y1="51.3" x2="70.8" y2="51.3"/>
<line class="st3" x1="72.7" y1="69.6" x2="70.8" y2="69.6"/>
<polygon class="st4" points="58.9,81.8 68.1,97.7 67.2,98 58.2,82.3 "/>
<polyline class="st3" points="68.1,97.7 65.2,99 62.1,99.8 58.9,100.1 "/>
<polyline class="st4" points="56.9,127.5 56.9,100.1 58.9,100.1 59.3,100.1 59.3,127.5 "/>
<polyline class="st4" points="58.9,81.8 56.9,81.8 56.9,71.7 70.8,71.7 70.8,69.6 73.2,69.6 73.2,71.7 152.3,71.7 152.3,74.1 
	59.3,74.1 59.3,81.8 "/>
<polygon class="st3" points="28,91.2 18.1,108.2 18.9,108.7 28.8,91.5 "/>
<polyline class="st3" points="18.1,108.2 21.3,109.8 24.6,110.6 28,111 "/>
<path class="st3" d="M28,111h2 M28,91.2h2"/>
<path class="st5" d="M33.1,186.6h103.3 M33.1,190.6h103.3"/>
<polygon class="st4" points="38.2,133.3 53.9,142.4 54.4,141.7 38.5,132.6 "/>
<polyline class="st3" points="53.9,142.4 55.2,139.5 56.1,136.4 56.3,133.3 "/>
<path class="st3" d="M56.3,133.3v-2 M38.2,133.3v-2"/>
<path class="st3" d="M141,144.9v9.4 M136.4,144.9V172 M144.4,145.5v25.9 M142.1,152.7H141 M144.4,154.3h-7.9"/>
<polygon class="st4" points="129.6,156.1 130.5,155.6 137.4,171.6 136.5,172.1 "/>
<polyline class="st3" points="136.5,154.3 134.4,154.4 132.4,154.9 130.5,155.6 "/>
<rect x="141" y="152.7" class="st3" width="1.1" height="1.6"/>
<polyline class="st3" points="142.1,144.9 141,144.9 141,146.5 142.1,146.5 142.1,144.9 142.1,154.3 "/>
<line class="st6" x1="25.7" y1="135.1" x2="25.7" y2="190.5"/>
<line class="st6" x1="33.1" y1="135.1" x2="33.1" y2="190.5"/>
<line class="st6" x1="141.5" y1="132.5" x2="157.3" y2="132.5"/>
<line class="st6" x1="40.9" y1="19.3" x2="152.3" y2="19.3"/>
<line class="st6" x1="25.7" y1="11.7" x2="157.3" y2="11.7"/>
<line class="st6" x1="25.7" y1="11.1" x2="157.9" y2="11.1"/>
<line class="st6" x1="25.7" y1="8.9" x2="160.2" y2="8.9"/>
<path class="st6" d="M142.1,145.5V133 M144.4,145.5v-10.1 M142.1,190.5v-19.1 M144.4,190.5v-19.1 M157.9,114.3V133 M160.2,114.3
	v21.1 M157.9,60.2v25.6 M160.2,60.2v25.6 M157.9,11.1v20.6 M160.2,8.9v22.9 M141.5,144.9v-12.5 M136.5,144.9v-9.8 M141.5,190.5V172
	 M136.5,190.5V172 M157.4,114.9v17.5 M152.4,114.9v12.6 M157.4,60.8v24.4 M152.4,60.8v24.4 M157.4,11.7v19.4 M152.4,19.3v11.9"/>
<polyline class="st6" points="160.2,31.8 157.9,31.8 157.9,31.2 152.3,31.2 "/>
<polyline class="st6" points="160.2,60.2 157.9,60.2 157.9,60.8 152.3,60.8 "/>
<polyline class="st6" points="160.2,85.8 157.9,85.8 157.9,85.2 152.3,85.2 "/>
<polyline class="st6" points="160.2,114.3 157.9,114.3 157.9,114.9 152.3,114.9 "/>
<polyline class="st6" points="144.4,145.5 142.1,145.5 142.1,144.9 136.5,144.9 "/>
<polyline class="st6" points="144.4,171.5 142.1,171.5 142.1,172.1 136.5,172.1 "/>
<line class="st6" x1="25.7" y1="111" x2="25.7" y2="127.5"/>
<line class="st6" x1="25.7" y1="8.7" x2="25.7" y2="91.2"/>
<line class="st6" x1="33.1" y1="111" x2="33.1" y2="127.5"/>
<line class="st6" x1="33.1" y1="19.3" x2="33.1" y2="91.2"/>
<line class="st6" x1="25.9" y1="135.1" x2="25.9" y2="127.5"/>
<line class="st6" x1="25.9" y1="127.5" x2="25.7" y2="127.5"/>
<line class="st6" x1="25.9" y1="135.1" x2="25.7" y2="135.1"/>
<path class="st6" d="M33.1,91.2h-7.4 M33.1,111h-7.4"/>
<path class="st6" d="M33.1,19.3h2.4 M25.7,8.7L25.7,8.7"/>
<polyline class="st6" points="40.9,19.3 40.9,16.8 35.5,16.8 35.5,19.3 "/>
<line class="st6" x1="56.3" y1="127.5" x2="56.3" y2="135.1"/>
<line class="st6" x1="38.2" y1="127.5" x2="38.2" y2="135.1"/>
<line class="st6" x1="33.1" y1="190.5" x2="25.7" y2="190.5"/>
<line class="st6" x1="144.4" y1="190.5" x2="136.5" y2="190.5"/>
<line class="st6" x1="56.3" y1="127.5" x2="152.3" y2="127.5"/>
<line class="st6" x1="33.1" y1="127.5" x2="38.2" y2="127.5"/>
<line class="st6" x1="56.3" y1="135.1" x2="136.5" y2="135.1"/>
<line class="st6" x1="33.1" y1="135.1" x2="38.2" y2="135.1"/>
<path class="st7" d="M40.3,92.1h6.4c2.1,0,3.8,1.7,3.8,3.8V107c0,2.1-1.7,3.8-3.8,3.8h-6.4c-2.1,0-3.8-1.7-3.8-3.8V95.8
	C36.6,93.8,38.2,92.1,40.3,92.1z"/>
<path class="st7" d="M40.6,92.9h5.8c1.9,0,3.4,1.5,3.4,3.4v10c0,1.9-1.5,3.4-3.4,3.4h-5.8c-1.9,0-3.4-1.5-3.4-3.4v-10
	C37.2,94.5,38.7,92.9,40.6,92.9z"/>
<path class="st7" d="M44.6,103.7c-0.2,0.7-1.5,1.1-2.9,0.7s-2.4-1.2-2.2-2s1.5-1.1,2.9-0.7S44.8,103,44.6,103.7z"/>
<path class="st7" d="M41.6,104.4c1.3-0.6,1.5-1.5,0.7-2.7"/>
<path class="st7" d="M47.1,99c0.3,0.7-0.6,1.7-2,2.2s-2.7,0.3-2.9-0.4s0.6-1.7,2-2.2S46.8,98.2,47.1,99z"/>
<path class="st7" d="M45,101.2c0.7-1.2,0.4-2.1-1-2.6"/>
<path class="st8" d="M104.6,63.4v-2.3c0-0.2,0.2-0.4,0.4-0.4l0,0h6c0.1,0,0.2,0.1,0.2,0.2l0,0v2.5c0,1.4-1.1,2.5-2.5,2.5h-1.6
	C105.7,66,104.6,64.8,104.6,63.4L104.6,63.4z"/>
<path class="st7" d="M104.6,63.4c2.4,1.9,4.6,1.9,6.7,0"/>
<path class="st8" d="M111.9,63.5v-2.3c0-0.2,0.2-0.4,0.4-0.4l0,0h6.1c0.1,0,0.2,0.1,0.2,0.2l0,0v2.5c0,1.4-1.1,2.6-2.5,2.6l0,0h-1.6
	C113.1,66.1,111.9,64.9,111.9,63.5z"/>
<path class="st7" d="M111.9,63.5c2.4,1.9,4.6,1.9,6.7,0"/>
<path class="st8" d="M119.6,63.6v-2.3c0-0.2,0.2-0.4,0.4-0.4h6.1c0.1,0,0.2,0.1,0.2,0.2l0,0v2.5c0,1.4-1.1,2.5-2.6,2.5h-1.6
	C120.7,66.2,119.6,65,119.6,63.6z"/>
<path class="st7" d="M119.6,63.6c2.4,1.9,4.6,1.9,6.7,0"/>
<path class="st8" d="M104.9,47v2.3c0,0.2,0.2,0.4,0.4,0.4h6.1c0.1,0,0.2-0.1,0.2-0.2l0,0v-2.6c0-1.4-1.2-2.5-2.6-2.5l0,0h-1.6
	C106,44.4,104.9,45.5,104.9,47L104.9,47z"/>
<path class="st7" d="M104.9,47c2.4-1.9,4.6-1.9,6.7,0"/>
<path class="st8" d="M112.2,46.8v2.3c0,0.2,0.2,0.4,0.4,0.4l0,0h6.1c0.1,0,0.2-0.1,0.2-0.2l0,0v-2.5c0-1.4-1.1-2.5-2.5-2.5h-1.6
	C113.4,44.3,112.2,45.4,112.2,46.8z"/>
<path class="st7" d="M112.2,46.8c2.4-1.9,4.6-1.9,6.7,0"/>
<path class="st8" d="M119.9,46.8V49c0,0.2,0.2,0.4,0.4,0.4h6.1c0.1,0,0.2-0.1,0.2-0.2l0,0v-2.5c0-1.4-1.1-2.6-2.5-2.6l0,0h-1.6
	C121,44.2,119.9,45.4,119.9,46.8z"/>
<path class="st7" d="M119.9,46.8c2.4-1.9,4.6-1.9,6.7,0"/>
<path class="st9" d="M104.9,47.7h20.9c1.2,0,2.2,1,2.2,2.2V60c0,1.2-1,2.2-2.2,2.2h-20.9c-1.2,0-2.2-1-2.2-2.2V49.8
	C102.7,48.6,103.7,47.7,104.9,47.7z"/>
<path class="st8" d="M69.7,161.9v17.5c0,2.6-2.1,4.6-4.6,4.6H37.2c-0.8,0-1.4-0.6-1.5-1.4v-24c0-0.7,0.6-1.3,1.3-1.3l0,0h28
	C67.6,157.3,69.7,159.4,69.7,161.9z"/>
<path class="st9" d="M37.8,159.1h4.7c0.6,0,1,0.5,1,1v7.9c0,0.6-0.5,1-1,1h-4.7c-0.6,0-1-0.5-1-1v-7.9
	C36.8,159.5,37.2,159.1,37.8,159.1z"/>
<path class="st9" d="M38,171.8h4.7c0.6,0,1,0.5,1,1v7.9c0,0.6-0.5,1-1,1H38c-0.6,0-1-0.5-1-1v-7.9C37,172.3,37.4,171.8,38,171.8z"/>
<line class="st7" x1="52.5" y1="157.3" x2="52.5" y2="184.1"/>
<polygon class="st8" points="51.4,179.9 50.6,184.1 47.6,181.2 "/>
<line class="st7" x1="47.6" y1="181.2" x2="47.6" y2="157.3"/>
<polygon class="st8" points="126.4,143.9 126.3,143.2 115.2,144.4 115.3,145 "/>
<polygon class="st8" points="103.4,142.6 103.9,142.3 108,153.5 107.4,153.7 "/>
<rect x="101.7" y="137.3" class="st9" width="25.4" height="6.4"/>
<path class="st9" d="M137.7,83.4h8.8c1.9,0,3.5,1.6,3.5,3.5l0,0v30.3c0,1.9-1.6,3.5-3.5,3.5l0,0h-8.8c-1.9,0-3.5-1.6-3.5-3.5l0,0
	V86.9C134.2,85,135.8,83.4,137.7,83.4z"/>
<path class="st9" d="M137.4,117.1h10.5c0.6,0,1.1,0.5,1.1,1.1v1.5c0,0.6-0.5,1.1-1.1,1.1h-10.5c-0.6,0-1.1-0.5-1.1-1.1v-1.5
	C136.3,117.6,136.8,117.1,137.4,117.1z"/>
<path class="st9" d="M137.4,83.1h10.5c0.6,0,1.1,0.5,1.1,1.1v1.5c0,0.6-0.5,1.1-1.1,1.1h-10.5c-0.6,0-1.1-0.5-1.1-1.1v-1.5
	C136.3,83.6,136.8,83.1,137.4,83.1z"/>
<path class="st9" d="M146,83.7h1.8c0.7,0,1.3,0.6,1.3,1.3v34.3c0,0.7-0.6,1.3-1.3,1.3H146c-0.7,0-1.3-0.6-1.3-1.3V84.9
	C144.8,84.2,145.3,83.7,146,83.7z"/>
<path class="st9" d="M146.1,86.2h1.5c0.6,0,1.1,0.5,1.1,1.1v29.5c0,0.6-0.5,1.1-1.1,1.1h-1.5c-0.6,0-1.1-0.5-1.1-1.1V87.3
	C145.1,86.7,145.5,86.2,146.1,86.2z"/>
<line class="st7" x1="134.2" y1="102.1" x2="144.8" y2="102.1"/>
<rect x="93.8" y="158.7" class="st9" width="5.8" height="23.9"/>
<rect x="94.5" y="164.1" class="st9" width="3.8" height="14.3"/>
<rect x="96.1" y="160.9" class="st9" width="1.2" height="19.6"/>
<path class="st10" d="M91.9,85.1h9.6c4,0,7.2,3.2,7.2,7.2v18.1c0,4-3.2,7.2-7.2,7.2h-9.6c-4,0-7.2-3.2-7.2-7.2v-18
	C84.7,88.4,87.9,85.1,91.9,85.1z"/>
<text transform="matrix(1 0 0 1 88.9459 93.01)" class="st11 st12 st13">28,1</text>
<text transform="matrix(1 0 0 1 88.9462 113.3996)" class="st11 st12 st13">47,5</text>
<text transform="matrix(1 0 0 1 87.9728 103.7805)" class="st14 st12 st15">49,3</text>
<text transform="matrix(1 0 0 1 42.2101 44.4298)" class="st16 st12 st13" style="text-decoration: underline;">3,2</text>
<text transform="matrix(1 0 0 1 57.18 68.4099)" class="st16 st12 st13" style="text-decoration: underline;">5,4</text>
<text transform="matrix(1 0 0 1 133.0698 68.3799)" class="st16 st12 st13" style="text-decoration: underline;">10,8</text>
<text transform="matrix(1 0 0 1 61.8701 123.8799)" class="st16 st12 st13" style="text-decoration: underline;">13,1</text>
<text transform="matrix(1 0 0 1 117.6498 183.3401)" class="st16 st12 st13" style="text-decoration: underline;">15,0</text>
<text transform="matrix(6.123234e-17 -1 1 6.123234e-17 173.3 70.9502)" class="st16 st12 st13" style="text-decoration: underline;">3,4х0,3=1,0</text>
<text transform="matrix(6.123234e-17 -1 1 6.123234e-17 157.8601 179.04)" class="st16 st12 st13" style="text-decoration: underline;">2,5х0,3=0,8</text>
</svg>
