<?xml version="1.0" encoding="utf-8"?>
<!-- Generator: Adobe Illustrator 25.0.0, SVG Export Plug-In . SVG Version: 6.00 Build 0)  -->
<svg version="1.1" id="Слой_1" xmlns="http://www.w3.org/2000/svg" xmlns:xlink="http://www.w3.org/1999/xlink" x="0px" y="0px"
	 viewBox="0 0 200 200" style="enable-background:new 0 0 200 200;" xml:space="preserve">
<style type="text/css">
	.st0{fill:#A3C98F;}
	.st1{fill:none;stroke:#666666;stroke-width:0.2;stroke-linecap:round;stroke-linejoin:round;}
	.st2{fill:#FFFFFF;stroke:#333333;stroke-width:0.4;stroke-linecap:round;stroke-linejoin:round;}
	.st3{fill:none;stroke:#333333;stroke-width:0.4;stroke-linecap:round;stroke-linejoin:round;}
	.st4{fill:none;stroke:#333333;stroke-width:0.6;stroke-linecap:round;stroke-linejoin:round;}
	.st5{fill:none;stroke:#333333;stroke-width:0.8;stroke-linecap:round;stroke-linejoin:round;}
	.st6{fill-rule:evenodd;clip-rule:evenodd;fill:#A3C98F;stroke:#666666;stroke-width:0.2;stroke-miterlimit:22.93;}
	.st7{fill:none;stroke:#666666;stroke-width:0.2;stroke-miterlimit:22.93;}
	.st8{fill:#A3C98F;stroke:#666666;stroke-width:0.2;stroke-miterlimit:22.93;}
	.st9{fill:#A3C98F;stroke:#666666;stroke-width:0.201;stroke-miterlimit:23.0427;}
	.st10{fill:#A3C98F;stroke:#666666;stroke-width:0.2;stroke-miterlimit:22.9288;}
	.st11{fill:#FFFFFF;}
	.st12{fill:#1A1A18;}
	.st13{font-family:'ArialMT';}
	.st14{font-size:7px;}
	.st15{fill:#E43622;}
	.st16{font-size:8px;}
	.st17{fill:#666666;}
	.st18{font-size:7.11px;}
</style>
<rect x="24.2" y="51.4" class="st0" width="155.2" height="77.6"/>
<rect x="22.4" y="136.2" class="st0" width="159.6" height="18.8"/>
<path class="st1" d="M156.1,51.1h6.7c0.2,0,0.4,0.2,0.4,0.4V54c0,0.2-0.2,0.4-0.4,0.4h-6.7c-0.2,0-0.4-0.2-0.4-0.4v-2.5
	C155.6,51.3,155.8,51.1,156.1,51.1z"/>
<ellipse class="st1" cx="159.4" cy="59.4" rx="2.4" ry="2.8"/>
<ellipse class="st1" cx="159.4" cy="59.4" rx="2.4" ry="2.8"/>
<path class="st1" d="M162.3,59.4c0.4,1.6-0.6,3.2-2.3,3.6c-1.6,0.4-3.2-0.6-3.6-2.3c-0.1-0.4-0.1-0.9,0-1.3c0-1.1,0.3-2.2,0.7-3.2
	c0.5-0.8,1.3-0.5,2.2-0.5s1.7-0.3,2.2,0.3C162.1,57.1,162.4,58.2,162.3,59.4z"/>
<path class="st1" d="M157,54.5c0.2,0.5,0.3,1.1,0.2,1.7"/>
<path class="st1" d="M161.9,54.5c-0.2,0.5-0.3,1.1-0.2,1.7"/>
<circle class="st1" cx="159.4" cy="57.9" r="0.7"/>
<circle class="st1" cx="159.4" cy="57.9" r="0.4"/>
<path class="st1" d="M169.5,53.5c0,0,2.1-0.3,2.8-0.3s2.8,0.3,2.8,0.3"/>
<path class="st1" d="M175,53.5c0.2,0,0.4,0.1,0.6,0.2c0.2,0.2,0.3,0.3,0.4,0.5l0.1,0.6"/>
<path class="st1" d="M166.2,53.6c0,0,1.8-0.6,2.4-0.8c0.8-0.2,1.6-0.3,2.4-0.3c0.6,0,1.9,0,2.5,0c0.8,0.1,1.6,0.2,2.4,0.3
	c0.6,0.1,2.5,0.8,2.5,0.8"/>
<path class="st1" d="M168.3,54.9l0.1-0.6c0.1-0.2,0.3-0.4,0.4-0.5c0.2-0.1,0.4-0.2,0.6-0.2"/>
<path class="st1" d="M178.4,71.8l-0.5,1.6c0,0-0.8,1.1-1.1,1.4c-0.4,0.4-0.8,0.8-1.3,1.1c-0.5,0.3-1,0.5-1.6,0.6
	c-0.5,0.1-1.1,0.2-1.6,0.2c-0.6,0-1.1-0.1-1.7-0.2c-0.5-0.2-1-0.4-1.5-0.6c-0.5-0.3-1-0.7-1.4-1.1s-0.7-0.9-1-1.4l-0.5-1.6"/>
<path class="st1" d="M166.2,71.8V53.6 M165.6,77.2V51.5 M176.2,66.2V54.9 M178.4,53.6v18.1 M178.9,77.2V51.5"/>
<path class="st1" d="M176.2,66.2c0,0.4-0.1,0.9-0.2,1.3c-0.2,0.4-0.4,0.7-0.6,1.1c-0.3,0.4-0.6,0.7-1,1c-0.4,0.2-0.8,0.4-1.2,0.5
	s-0.9,0.1-1.3,0.1c-0.4-0.1-0.9-0.2-1.3-0.3c-0.2-0.1-0.4-0.2-0.6-0.3c-0.6-0.6-1.1-1.2-1.5-2c-0.1-0.4-0.2-0.8-0.2-1.3V54.9"/>
<path class="st1" d="M166.6,73.1c0,0,1.3-0.8,1.7-1c0.6-0.3,1.3-0.5,1.9-0.6c1.3-0.1,2.6-0.1,3.9,0c0.7,0.2,1.3,0.4,1.9,0.6
	c0.5,0.2,1.8,1,1.8,1"/>
<circle class="st1" cx="172.1" cy="55.2" r="0.7"/>
<circle class="st1" cx="172.1" cy="55.2" r="0.4"/>
<line class="st1" x1="178.9" y1="77.2" x2="165.6" y2="77.2"/>
<polygon class="st2" points="141.4,57.8 134.5,69.8 135.1,70.3 142.1,58.2 "/>
<polyline class="st3" points="134.5,69.8 136.6,70.9 139,71.5 141.4,71.8 "/>
<path class="st3" d="M141.4,71.8h1.7 M141.4,57.8h1.7"/>
<polyline class="st1" points="178.9,51.2 179.1,51.3 179.2,51.5 "/>
<line class="st1" x1="166.4" y1="77.5" x2="178.9" y2="77.5"/>
<polyline class="st1" points="179.2,77.2 179.1,77.4 178.9,77.5 "/>
<line class="st4" x1="126.9" y1="51.2" x2="127" y2="51.2"/>
<polygon class="st2" points="179.2,77.5 179.2,79.7 141,79.7 141,71.8 143.1,71.8 143.1,77.5 "/>
<polyline class="st2" points="141,51.2 141,57.8 143.1,57.8 143.1,51.2 "/>
<polyline class="st1" points="152.3,51.6 152.8,52.7 152.9,53.7 152.8,54.8 152.3,55.8 151.5,56.6 150.5,57.1 149.4,57.2 "/>
<polyline class="st1" points="149.4,56.9 150.1,56.8 150.6,56.6 151.1,56.4 151.6,56 152,55.5 152.3,55 152.4,54.5 152.5,53.8 
	152.5,53.2 "/>
<polyline class="st1" points="149.4,56.9 148.9,56.8 148.3,56.6 147.7,56.4 147.3,56 146.9,55.5 146.7,55 146.4,54.5 146.3,53.8 
	146.3,53.2 "/>
<polyline class="st1" points="146.6,51.6 146.8,51.5 146.6,52 "/>
<line class="st1" x1="149.2" y1="52.9" x2="146.8" y2="52.5"/>
<polyline class="st1" points="148,52.8 146.8,52.9 146.3,53.2 "/>
<polyline class="st1" points="146.8,52.5 146.6,52.3 146.6,52 "/>
<line class="st1" x1="149.1" y1="51.8" x2="149.2" y2="53.3"/>
<polyline class="st1" points="152.3,51.6 152.1,51.5 152.2,52 "/>
<polyline class="st1" points="149.3,51.7 149.6,51.7 149.8,51.8 "/>
<path class="st1" d="M149.5,53.4h-0.2 M150.8,52.8l1.4,0.1 M152,52.5l-2.4,0.3"/>
<polyline class="st1" points="149.6,53.3 149.6,53.4 149.5,53.4 "/>
<path class="st1" d="M149.8,51.8l-0.1,1.5 M152.2,52.9l0.3,0.3"/>
<polyline class="st1" points="152.2,52 152.2,52.3 152,52.5 "/>
<line class="st1" x1="152.1" y1="51.5" x2="146.8" y2="51.5"/>
<polyline class="st1" points="149.6,53.2 150,53.5 150,53.9 149.6,54.2 149.2,54.2 148.9,53.9 148.9,53.5 149.2,53.2 "/>
<polyline class="st1" points="149.6,53.4 149.8,53.6 149.6,53.9 149.4,54 149.2,53.9 149.1,53.6 149.2,53.4 "/>
<polyline class="st1" points="149.1,51.8 149.2,51.7 149.3,51.7 "/>
<polyline class="st1" points="149.3,53.4 149.2,53.4 149.2,53.3 "/>
<polyline class="st1" points="149.4,57.2 148.4,57.1 147.4,56.6 146.6,55.8 146.1,54.8 145.9,53.7 146,52.7 146.6,51.6 "/>
<path class="st4" d="M126.4,51.2v-3.5 M108.9,51.2v-3.5 M179.2,47.6h-52.8 M179.2,51.2h-52.8"/>
<path class="st3" d="M90.7,76.1V74 M106.8,76.1V74 M124.8,77.5v2.1 M141,77.5v2.1 M73.1,55.5H71"/>
<polyline class="st1" points="24.7,88.6 24.7,51.2 44.5,51.2 "/>
<line class="st1" x1="25.2" y1="79.1" x2="25.2" y2="75.8"/>
<path class="st1" d="M25.2,85.3h0.1 M25.2,85.4v-3.3"/>
<polyline class="st1" points="25.2,85.4 25.1,85.5 24.7,85.5 24.7,75.6 25.1,75.6 25.1,85.5 "/>
<line class="st1" x1="29.8" y1="53.6" x2="35.2" y2="53.6"/>
<polyline class="st1" points="29.8,53.4 35.2,53.4 35.2,53.6 "/>
<line class="st1" x1="36.1" y1="53.2" x2="36.2" y2="53.5"/>
<polyline class="st1" points="36.3,53.6 36.3,53.5 36.2,53.2 "/>
<polygon class="st1" points="35.8,53 35.8,52.8 36,52.7 36.2,52.8 36.3,53 36.2,53.2 35.8,53.2 "/>
<polyline class="st1" points="36.1,53.3 35.8,53.3 35.7,53 35.7,52.7 36,52.5 36.3,52.7 36.4,53 36.2,53.3 "/>
<polyline class="st1" points="36.1,53.3 35.8,53.2 35.7,53 35.8,52.8 36,52.7 36.2,52.8 36.3,53 36.2,53.2 "/>
<polyline class="st1" points="42.1,53.3 42.5,53.5 42.7,53.9 "/>
<polyline class="st1" points="42.3,52.4 42.7,52.7 42.9,53 "/>
<path class="st1" d="M25.2,85.3v-3.2 M25.6,79.1v-2.7"/>
<rect x="44.5" y="51.2" class="st1" width="8.9" height="10"/>
<path class="st1" d="M29.8,55.3L29.8,55.3 M29.8,54.5v-0.2 M29.8,53.6v-0.2"/>
<line class="st1" x1="37.2" y1="55.6" x2="37" y2="55.6"/>
<polyline class="st1" points="37.2,55.6 37.3,55.5 37.5,55.5 "/>
<line class="st1" x1="37.5" y1="55.3" x2="37.5" y2="55.5"/>
<path class="st1" d="M35.9,53.3l1.2,2.5 M36.4,53.1l1.2,2.3"/>
<path class="st1" d="M29.8,60.4h5.3 M29.8,55.3h5.3 M29.8,55.2h5.3 M29.8,54.5h5.3 M29.8,54.2h5.3 M36.6,53.5l0.5-0.2 M35.2,54.5
	v-0.2 M35.2,55.3L35.2,55.3"/>
<polyline class="st1" points="29.8,60.7 35.2,60.7 35.2,60.4 "/>
<path class="st1" d="M35.2,57.1v-0.2 M35.2,58v-0.2 M35.2,58.8L35.2,58.8 M35.2,59.7L35.2,59.7 M35.2,56.2L35.2,56.2 M29.8,59.7
	L29.8,59.7 M29.8,58.9L29.8,58.9 M29.8,58v-0.2 M29.8,57.2V57 M29.8,56.2L29.8,56.2 M29.8,60.7v-0.2"/>
<polyline class="st1" points="37.2,60.7 36.6,60.4 36.4,60 "/>
<path class="st1" d="M29.8,56.9h5.3 M29.8,57.1h5.3 M29.8,57.8h5.3 M29.8,56.2h5.3 M29.8,58h5.3 M29.8,56.1h5.3 M29.8,58.7h5.3
	 M29.8,58.9h5.3 M29.8,59.6h5.3 M29.8,59.7h5.3"/>
<polyline class="st1" points="36.1,60.8 29.8,60.8 29.4,60.5 29.3,60.2 29.3,53 29.4,52.7 29.8,52.4 36.1,52.4 "/>
<path class="st1" d="M29,61.1V52 M36.5,60v-5.5"/>
<line class="st1" x1="37.2" y1="55.8" x2="37.1" y2="55.8"/>
<polyline class="st1" points="37.2,55.8 37.4,55.6 37.5,55.6 "/>
<polyline class="st1" points="37.6,55.4 37.6,55.5 37.5,55.6 "/>
<polygon class="st1" points="39.2,56.9 39.3,56.6 39.6,56.5 40,56.6 40,56.9 40,57.2 39.6,57.5 39.3,57.2 "/>
<line class="st1" x1="40.5" y1="58" x2="42.1" y2="59.9"/>
<polyline class="st1" points="42.7,60 42.5,60.4 42.1,60.7 "/>
<polygon class="st1" points="38.9,56.9 39.1,56.5 39.6,56.3 40,56.5 40.3,56.9 40,57.5 39.6,57.7 39.1,57.5 "/>
<path class="st1" d="M36.1,60.8h6.3 M42.1,54l-1.6,2 M42.7,54v6 M43.2,52v9.1"/>
<polyline class="st1" points="42.9,60.2 42.7,60.5 42.4,60.8 "/>
<line class="st1" x1="42.9" y1="60.2" x2="42.9" y2="53"/>
<path class="st1" d="M42.1,60.7h-4.9 M38.7,58l-1.5,1.9 M37.2,53.3h4.9 M37.2,54l1.5,2 M43.1,61.1H29 M29,52h14.2 M42.3,52.4h-6.2"
	/>
<rect x="34.4" y="75.8" class="st1" width="0.8" height="9.6"/>
<rect x="25" y="75.8" class="st1" width="9.4" height="9.6"/>
<polygon class="st1" points="34.5,79 34.6,78.8 34.8,78.7 35,78.8 35.2,79 35,79.2 34.8,79.3 34.6,79.2 "/>
<polygon class="st1" points="34.5,83.7 34.6,83.5 34.8,83.4 35,83.5 35.2,83.7 35,83.9 34.8,84 34.6,83.9 "/>
<polygon class="st1" points="34.6,83.7 34.7,83.6 34.8,83.5 34.9,83.6 35,83.7 34.9,83.8 34.8,83.9 34.7,83.8 "/>
<polygon class="st1" points="34.5,80.6 34.6,80.3 34.8,80.2 35,80.3 35.2,80.6 35,80.8 34.8,80.9 34.6,80.8 "/>
<polygon class="st1" points="34.5,82.1 34.6,81.9 34.8,81.8 35,81.9 35.2,82.1 35,82.4 34.8,82.5 34.6,82.4 "/>
<polygon class="st1" points="34.6,82.1 34.7,82 34.9,82 35,82.1 34.9,82.3 34.7,82.3 "/>
<polygon class="st1" points="34.6,80.6 34.7,80.5 34.8,80.4 34.9,80.5 35,80.6 34.9,80.7 34.7,80.7 "/>
<polygon class="st1" points="34.5,77.4 34.6,77.2 34.8,77.1 35,77.2 35.2,77.4 35,77.7 34.8,77.8 34.6,77.7 "/>
<polygon class="st1" points="34.6,77.4 34.7,77.3 34.9,77.3 35,77.4 34.9,77.5 34.8,77.6 34.7,77.5 "/>
<polygon class="st1" points="34.6,79 34.7,78.9 34.8,78.8 34.9,78.9 35,79 34.9,79.1 34.8,79.2 34.7,79.1 "/>
<rect x="50.5" y="62.6" class="st1" width="2" height="0.1"/>
<line class="st1" x1="44.5" y1="61.7" x2="44.5" y2="62.2"/>
<polyline class="st1" points="45.1,62.6 44.8,62.5 44.5,62.2 "/>
<line class="st1" x1="45.1" y1="62.6" x2="53" y2="62.6"/>
<polyline class="st1" points="53.4,62.2 53.3,62.5 53,62.6 "/>
<polyline class="st1" points="53.4,62.2 53.4,61.7 44.5,61.7 "/>
<rect x="45.1" y="61.2" class="st1" width="7.9" height="0.5"/>
<path class="st1" d="M49,58.1v-3.9 M51,56.1h-3.9 M50.5,54.7l-3,2.9 M50.5,57.6l-3-2.9"/>
<polyline class="st1" points="44.5,51.2 44.5,61.7 35.2,61.7 35.2,88.6 "/>
<polyline class="st1" points="34.2,86.3 34.2,74.9 25.4,74.9 25.4,75.6 "/>
<polyline class="st1" points="34,86.1 34,75.1 25.6,75.1 25.6,75.6 "/>
<polyline class="st1" points="34,86.1 25.6,86.1 25.6,85.5 "/>
<polyline class="st1" points="34.2,86.3 25.4,86.3 25.4,85.5 "/>
<polyline class="st1" points="32.5,85.5 32.5,75.6 32.3,75.9 32.3,85.3 32.5,85.5 25.1,85.5 "/>
<line class="st1" x1="32.5" y1="75.6" x2="26.9" y2="75.6"/>
<polyline class="st1" points="32.3,85.3 31.8,84.7 31.8,76.4 32.3,75.9 25.2,75.9 25.6,76.4 31.8,76.4 31.7,76.7 31.7,84.4 
	31.8,84.7 25.6,84.7 25.6,82.1 "/>
<polyline class="st1" points="29.9,81.8 29.7,82.1 29.7,79.1 29.9,79.3 "/>
<polyline class="st1" points="29.7,82.1 25.1,82.1 25.1,79.1 29.7,79.1 "/>
<polyline class="st1" points="25.6,84.7 25.2,85.3 32.3,85.3 "/>
<polyline class="st1" points="25.2,79.1 25.2,75.7 25.1,75.6 32.5,75.6 "/>
<line class="st1" x1="35.2" y1="88.6" x2="24.7" y2="88.6"/>
<polyline class="st3" points="181.6,157.1 20.3,157.1 20.3,136 "/>
<polyline class="st3" points="22.5,136 22.5,155 181.6,155 "/>
<polyline class="st1" points="186.2,77.5 186,77.4 185.9,77.2 "/>
<path class="st3" d="M59.9,133.9H49.3 M59.9,133H49.3 M59.9,129H33.5 M59.4,136H34 M50.7,133.9V133 M49.4,136v-7 M58.7,133.9V133"/>
<polygon class="st2" points="47.7,122.8 48.2,123.5 34,129.7 33.5,128.9 "/>
<polyline class="st3" points="49.3,128.9 49.2,127 48.8,125.2 48.2,123.5 "/>
<polyline class="st1" points="17.6,77.5 17.9,77.4 18,77.2 "/>
<path class="st1" d="M17.5,113.8h0.1"/>
<path class="st3" d="M115.5,133.9H89.1 M89.7,136H115 M115.5,129H89.1"/>
<polyline class="st3" points="89.1,133 115.5,133 114.2,133 114.2,133.9 115.5,133.9 115.5,133 "/>
<rect x="89.1" y="133" class="st3" width="1.3" height="0.9"/>
<rect x="101.6" y="133" class="st3" width="1.4" height="0.9"/>
<path class="st3" d="M144,133.9h10.6 M144,133h10.6 M144,129h26.5 M144.5,136h25.4 M153.3,133.9V133 M154.6,136v-7 M145.4,133.9V133
	"/>
<polygon class="st2" points="156.3,122.8 155.8,123.5 170,129.7 170.4,128.9 "/>
<polyline class="st3" points="154.6,128.9 154.7,127 155.1,125.2 155.8,123.5 "/>
<line class="st3" x1="73.1" y1="71.8" x2="71" y2="71.8"/>
<polygon class="st2" points="71,55.5 62.9,69.5 63.5,69.9 71.6,56 "/>
<polyline class="st3" points="62.9,69.5 65.4,70.7 68.2,71.4 71,71.8 "/>
<polyline class="st2" points="71,51.2 71,55.5 72.7,55.5 73.1,55.5 73.1,51.2 "/>
<polygon class="st2" points="106.8,75.8 92.9,83.8 92.4,83.2 106.5,75.1 "/>
<polyline class="st3" points="92.9,83.8 91.7,81.2 90.9,78.6 90.7,75.8 "/>
<polyline class="st2" points="73.1,128.9 73.1,76.1 90.7,76.1 90.7,75.8 90.7,74 73.1,74 73.1,71.8 72.7,71.8 71,71.8 71,128.9 "/>
<polygon class="st2" points="124.9,79.3 138.9,87.3 139.3,86.7 125.2,78.6 "/>
<polyline class="st3" points="141,79.3 140.8,82.1 140,84.8 138.9,87.3 "/>
<line class="st3" x1="141" y1="79.3" x2="141" y2="77.5"/>
<polyline class="st2" points="120.6,128.9 120.6,76.1 106.8,76.1 106.8,75.8 106.8,74 122.8,74 122.8,77.5 124.9,77.5 124.9,79.3 
	124.9,79.7 122.8,79.7 122.8,128.9 "/>
<polygon class="st3" points="126.4,49.3 111.2,40.6 110.8,41.2 126.1,50 "/>
<polyline class="st3" points="111.2,40.6 109.8,43.4 109.1,46.3 108.9,49.3 "/>
<path class="st3" d="M108.9,49.3v1.8 M126.4,49.3v1.8"/>
<rect x="20.3" y="136" class="st5" width="2.1" height="21.1"/>
<rect x="181.6" y="136" class="st5" width="2.1" height="21.1"/>
<line class="st5" x1="59.4" y1="136" x2="86.2" y2="136"/>
<line class="st5" x1="22.9" y1="136" x2="34" y2="136"/>
<line class="st5" x1="59.9" y1="128.9" x2="85.6" y2="128.9"/>
<line class="st5" x1="24.7" y1="128.9" x2="33.5" y2="128.9"/>
<polyline class="st5" points="86.2,133.9 59.4,133.9 59.4,136 "/>
<polyline class="st5" points="59.4,133.9 59.9,133.9 59.9,128.9 "/>
<polyline class="st5" points="34,136 34,133.9 33.5,133.9 33.5,128.9 "/>
<line class="st5" x1="34" y1="133.9" x2="18.1" y2="133.9"/>
<line class="st5" x1="34" y1="136" x2="18.1" y2="136"/>
<line class="st5" x1="33.5" y1="133.3" x2="18.3" y2="133.3"/>
<path class="st5" d="M89.7,133.9H59.9 M89.7,136H62.4 M144.5,133.9H115 M144.5,136H115 M89.2,133.3H59.9 M89.1,129H62.9 M144,133.4
	h-28.5 M144,129h-28.5 M179.2,129h-8.8"/>
<polyline class="st5" points="144.5,136 144.5,133.9 144,133.9 144,128.9 "/>
<polyline class="st5" points="169.9,136 169.9,133.9 170.4,133.9 170.4,128.9 "/>
<polyline class="st5" points="89.7,136 89.7,133.9 89.1,133.9 89.1,128.9 "/>
<polyline class="st5" points="115,136 115,133.9 115.5,133.9 115.5,128.9 "/>
<line class="st5" x1="186.1" y1="136" x2="169.9" y2="136"/>
<line class="st5" x1="169.9" y1="133.9" x2="185.9" y2="133.9"/>
<line class="st5" x1="169.9" y1="136" x2="186.1" y2="136"/>
<line class="st5" x1="170.4" y1="133.3" x2="186" y2="133.3"/>
<line class="st5" x1="185.9" y1="128.9" x2="186" y2="128.9"/>
<path class="st5" d="M24.7,47.6H18 M18,57.2V136 M18,47.7v4.9 M24.7,64.2V129 M24.7,47.7v11.7"/>
<polyline class="st5" points="24.7,59.4 22.5,59.4 22.5,64.2 24.7,64.2 "/>
<polyline class="st5" points="18,57.2 20.3,57.2 20.3,52.5 18,52.5 "/>
<path class="st5" d="M179.2,47.6h6.7 M185.9,57.2V136 M185.9,47.7v4.9 M179.2,64.2V129 M179.2,47.7v11.7"/>
<polyline class="st5" points="179.2,59.4 181.6,59.4 181.6,64.2 179.2,64.2 "/>
<polyline class="st5" points="185.9,57.2 183.7,57.2 183.7,52.5 185.9,52.5 "/>
<path class="st4" d="M108.9,47.6H24.7 M108.9,51.2H24.7"/>
<path class="st6" d="M50.8,95.4h2c0.2,0,0.4,0.2,0.4,0.4v5.4c0,0.1-0.1,0.2-0.2,0.2h-2.2c-1.3,0-2.3-1-2.3-2.3v-1.4
	C48.5,96.4,49.5,95.4,50.8,95.4z"/>
<path class="st7" d="M50.8,95.4c-1.7,2.1-1.7,4.1,0,6"/>
<path class="st6" d="M50.7,101.9h2c0.2,0,0.4,0.2,0.4,0.4v5.4c0,0.1-0.1,0.2-0.2,0.2h-2.2c-1.2,0-2.3-1-2.3-2.3l0,0v-1.4
	C48.4,103,49.4,101.9,50.7,101.9z"/>
<path class="st7" d="M50.7,101.9c-1.7,2.1-1.7,4.1,0,6"/>
<path class="st6" d="M50.6,108.8h2c0.2,0,0.4,0.2,0.4,0.4v5.4c0,0.1-0.1,0.2-0.2,0.2h-2.2c-1.2,0-2.3-1-2.3-2.3v-1.4
	C48.3,109.8,49.3,108.8,50.6,108.8z"/>
<path class="st7" d="M50.6,108.8c-1.7,2.1-1.7,4.1,0,6"/>
<path class="st6" d="M65.4,95.7h-2c-0.2,0-0.4,0.1-0.4,0.3v5.4c0,0.1,0.1,0.2,0.2,0.2h2.2c1.2,0,2.3-1,2.3-2.3V98
	C67.7,96.7,66.7,95.7,65.4,95.7L65.4,95.7z"/>
<path class="st7" d="M65.4,95.7c1.7,2.1,1.7,4.1,0,6"/>
<path class="st6" d="M65.5,102.2h-2c-0.2,0-0.4,0.2-0.4,0.4v5.4c0,0.1,0.1,0.2,0.2,0.2h2.2c1.2,0,2.3-1,2.3-2.3v-1.4
	C67.8,103.2,66.8,102.2,65.5,102.2L65.5,102.2z"/>
<path class="st7" d="M65.5,102.2c1.7,2.1,1.7,4.1,0,6"/>
<path class="st6" d="M65.5,109h-2c-0.2,0-0.4,0.2-0.4,0.4v5.4c0,0.1,0.1,0.2,0.2,0.2h2.2c1.2,0,2.3-1,2.3-2.3v-1.4
	C67.9,110,66.8,109,65.5,109L65.5,109z"/>
<path class="st7" d="M65.5,109c1.7,2.1,1.7,4.1,0,6"/>
<path class="st8" d="M53.8,93.8h9c1.1,0,2,0.9,2,1.9v18.6c0,1.1-0.9,1.9-2,1.9h-9c-1.1,0-2-0.9-2-1.9V95.7
	C51.9,94.6,52.7,93.8,53.8,93.8z"/>
<path class="st8" d="M77.4,107.3h7.8c1.7,0,3.1,1.4,3.1,3.1v13.3c0,1.7-1.4,3.1-3.1,3.1h-7.8c-1.7,0-3.1-1.4-3.1-3.1v-13.3
	C74.3,108.7,75.7,107.3,77.4,107.3z"/>
<path class="st8" d="M75.7,107.2h10.1c0.3,0,0.6,0.3,0.6,0.6v0.8c0,0.3-0.3,0.6-0.6,0.6H75.7c-0.3,0-0.6-0.3-0.6-0.6v-0.8
	C75.2,107.5,75.4,107.2,75.7,107.2z"/>
<path class="st8" d="M75.8,125h10.1c0.3,0,0.6,0.3,0.6,0.6v0.8c0,0.3-0.3,0.6-0.6,0.6H75.8c-0.3,0-0.6-0.3-0.6-0.6v-0.8
	C75.2,125.3,75.4,125,75.8,125z"/>
<path class="st8" d="M76.3,107.4h1.6c0.6,0,1.1,0.5,1.1,1.1v17c0,0.6-0.5,1.1-1.1,1.1h-1.6c-0.6,0-1.1-0.5-1.1-1.1v-17
	C75.1,107.9,75.6,107.4,76.3,107.4z"/>
<path class="st8" d="M76.4,108.8h1.3c0.5,0,1,0.4,1,1v14.6c0,0.5-0.4,1-1,1h-1.3c-0.5,0-1-0.4-1-1v-14.6
	C75.4,109.2,75.8,108.8,76.4,108.8z"/>
<line class="st7" x1="88.3" y1="117.1" x2="78.9" y2="117.1"/>
<path class="st6" d="M154.1,114.9V99.3c0-2.3-1.8-4.1-4.1-4.1h-24.8c-0.7,0-1.3,0.6-1.3,1.3v21.3c0,0.6,0.5,1.2,1.1,1.2l0,0h24.9
	C152.2,119,154.1,117.1,154.1,114.9L154.1,114.9z"/>
<path class="st8" d="M125.7,108.6h4.2c0.5,0,0.9,0.4,0.9,0.9v7c0,0.5-0.4,0.9-0.9,0.9h-4.2c-0.5,0-0.9-0.4-0.9-0.9v-7
	C124.8,109,125.2,108.6,125.7,108.6z"/>
<path class="st8" d="M125.9,97.2h4.2c0.5,0,0.9,0.4,0.9,0.9v7c0,0.5-0.4,0.9-0.9,0.9h-4.2c-0.5,0-0.9-0.4-0.9-0.9v-7
	C125,97.6,125.4,97.2,125.9,97.2z"/>
<line class="st7" x1="138.8" y1="119" x2="138.8" y2="95.2"/>
<polygon class="st6" points="137.8,98.9 137.1,95.2 134.4,97.7 "/>
<line class="st7" x1="134.4" y1="97.7" x2="134.4" y2="119"/>
<path class="st8" d="M124.6,119h8.3c0.4,0,0.8,0.4,0.8,0.8v8.1c0,0.4-0.4,0.8-0.8,0.8h-8.3c-0.4,0-0.8-0.4-0.8-0.8v-8.1
	C123.8,119.3,124.1,119,124.6,119z"/>
<path class="st8" d="M124.5,85.3h8.3c0.4,0,0.8,0.4,0.8,0.8v8.1c0,0.4-0.4,0.8-0.8,0.8h-8.3c-0.4,0-0.8-0.4-0.8-0.8v-8.1
	C123.7,85.7,124,85.3,124.5,85.3z"/>
<rect x="172.5" y="97" class="st8" width="5.1" height="21.3"/>
<rect x="173.6" y="100.8" class="st8" width="3.4" height="12.7"/>
<rect x="174.4" y="98.8" class="st8" width="1.1" height="17.4"/>
<rect x="160.7" y="80.7" transform="matrix(9.951104e-02 -0.995 0.995 9.951104e-02 59.3034 237.706)" class="st9" width="0.6" height="10.7"/>
<rect x="169.1" y="89.9" transform="matrix(0.3611 -0.9325 0.9325 0.3611 27.3618 220.2494)" class="st10" width="10.6" height="0.6"/>
<rect x="154.1" y="80.6" class="st8" width="24.1" height="5.7"/>
<rect x="85.2" y="52.8" transform="matrix(9.758817e-02 -0.9952 0.9952 9.758817e-02 19.2936 137.5022)" class="st10" width="0.6" height="10.6"/>
<rect x="94.6" y="61.3" transform="matrix(0.3611 -0.9325 0.9325 0.3611 6.398 132.5319)" class="st10" width="10.6" height="0.6"/>
<rect x="79.5" y="52.1" class="st8" width="24.1" height="5.7"/>
<path class="st7" d="M114.4,52.6h9.8c1.8,0,3.3,1.5,3.3,3.3v5.7c0,1.8-1.5,3.3-3.3,3.3h-9.8c-1.8,0-3.3-1.5-3.3-3.3v-5.7
	C111.1,54.1,112.6,52.6,114.4,52.6z"/>
<path class="st7" d="M114.9,53.2h8.9c1.7,0,3,1.4,3,3v5.2c0,1.7-1.4,3-3,3h-8.9c-1.7,0-3-1.4-3-3v-5.2
	C111.8,54.5,113.2,53.2,114.9,53.2z"/>
<path class="st7" d="M121.4,59.8c0.7-0.2,0.9-1.3,0.6-2.6s-1.1-2.1-1.8-2s-0.9,1.3-0.6,2.6S120.8,60,121.4,59.8z"/>
<path class="st7" d="M122,57.1c-0.2,0.7-1,1.2-1.7,1c-0.3-0.1-0.5-0.2-0.7-0.4"/>
<path class="st7" d="M117.2,62c0.6,0.2,1.5-0.5,2-1.8s0.3-2.4-0.3-2.6s-1.5,0.5-2,1.8S116.6,61.8,117.2,62z"/>
<path class="st7" d="M119.2,60.1c-1.1,0.6-1.9,0.3-2.3-0.8"/>
<path class="st11" d="M99.5,87.2h8.5c3.6,0,6.4,2.9,6.4,6.4v16.1c0,3.6-2.9,6.4-6.4,6.4h-8.5c-3.6,0-6.4-2.9-6.4-6.4v-16
	C93,90.1,95.9,87.2,99.5,87.2z"/>
<text transform="matrix(1 0 0 1 96.9739 94.7562)" class="st12 st13 st14">17,2</text>
<text transform="matrix(1 0 0 1 96.9739 113.0001)" class="st12 st13 st14">37,3</text>
<text transform="matrix(1 0 0 1 96.0005 104.1492)" class="st15 st13 st16">40,1</text>
<text transform="matrix(1 0 0 1 53.2097 125.9299)" class="st17 st13 st18" style="text-decoration: underline;">11,7</text>
<text transform="matrix(1 0 0 1 114.07 71.75)" class="st17 st13 st18" style="text-decoration: underline;">5,2</text>
<text transform="matrix(1 0 0 1 107.7899 125.9299)" class="st17 st13 st18" style="text-decoration: underline;">8,3</text>
<text transform="matrix(1 0 0 1 146.2901 75.0601)" class="st17 st13 st18" style="text-decoration: underline;">3,2</text>
<text transform="matrix(1 0 0 1 142.3199 125.9399)" class="st17 st13 st18" style="text-decoration: underline;">8,9</text>
<text transform="matrix(1 0 0 1 83.26 147.8101)" class="st17 st13 st18" style="text-decoration: underline;">9,4х0,3=2,8</text>
</svg>
