<?xml version="1.0" encoding="UTF-8" standalone="no"?>
<!-- Created with Inkscape (http://www.inkscape.org/) -->

<svg
   xmlns:dc="http://purl.org/dc/elements/1.1/"
   xmlns:cc="http://creativecommons.org/ns#"
   xmlns:rdf="http://www.w3.org/1999/02/22-rdf-syntax-ns#"
   xmlns:svg="http://www.w3.org/2000/svg"
   xmlns="http://www.w3.org/2000/svg"
   xmlns:sodipodi="http://sodipodi.sourceforge.net/DTD/sodipodi-0.dtd"
   xmlns:inkscape="http://www.inkscape.org/namespaces/inkscape"
   width="68.70816mm"
   height="26.858831mm"
   viewBox="0 0 68.70816 26.858831"
   version="1.1"
   id="svg4630"
   inkscape:version="0.92.3 (2405546, 2018-03-11)"
   sodipodi:docname="drawing2.svg">
  <defs
     id="defs4624">
    <clipPath
       clipPathUnits="userSpaceOnUse"
       id="clipPath4454">
      <path
         d="M 0,1222 H 595.281 V 0 H 0 Z"
         id="path4452"
         inkscape:connector-curvature="0" />
    </clipPath>
    <linearGradient
       x1="0"
       y1="0"
       x2="1"
       y2="0"
       gradientUnits="userSpaceOnUse"
       gradientTransform="matrix(37.412865,-12.892053,-12.892053,-37.412865,220.10114,1060.1144)"
       spreadMethod="pad"
       id="linearGradient4444">
      <stop
         style="stop-opacity:1;stop-color:#aed544"
         offset="0"
         id="stop4436" />
      <stop
         style="stop-opacity:1;stop-color:#aed544"
         offset="0.40580702"
         id="stop4438" />
      <stop
         style="stop-opacity:1;stop-color:#00bbaf"
         offset="0.661197"
         id="stop4440" />
      <stop
         style="stop-opacity:1;stop-color:#00bbaf"
         offset="1"
         id="stop4442" />
    </linearGradient>
    <clipPath
       clipPathUnits="userSpaceOnUse"
       id="clipPath4366">
      <path
         d="M 0,1222 H 595.281 V 0 H 0 Z"
         id="path4364"
         inkscape:connector-curvature="0" />
    </clipPath>
    <linearGradient
       x1="0"
       y1="0"
       x2="1"
       y2="0"
       gradientUnits="userSpaceOnUse"
       gradientTransform="matrix(27.962877,13.536527,13.536527,-27.962877,202.77501,1059.3824)"
       spreadMethod="pad"
       id="linearGradient4356">
      <stop
         style="stop-opacity:1;stop-color:#aed544"
         offset="0"
         id="stop4348" />
      <stop
         style="stop-opacity:1;stop-color:#aed544"
         offset="0.40580702"
         id="stop4350" />
      <stop
         style="stop-opacity:1;stop-color:#00bbaf"
         offset="0.661197"
         id="stop4352" />
      <stop
         style="stop-opacity:1;stop-color:#00bbaf"
         offset="1"
         id="stop4354" />
    </linearGradient>
  </defs>
  <sodipodi:namedview
     id="base"
     pagecolor="#ffffff"
     bordercolor="#666666"
     borderopacity="1.0"
     inkscape:pageopacity="0.0"
     inkscape:pageshadow="2"
     inkscape:zoom="3.959798"
     inkscape:cx="138.19068"
     inkscape:cy="32.014082"
     inkscape:document-units="mm"
     inkscape:current-layer="g4820"
     showgrid="false"
     inkscape:window-width="1920"
     inkscape:window-height="1001"
     inkscape:window-x="-9"
     inkscape:window-y="-9"
     inkscape:window-maximized="1"
     fit-margin-top="0"
     fit-margin-left="0"
     fit-margin-right="0"
     fit-margin-bottom="0" />
  <metadata
     id="metadata4627">
    <rdf:RDF>
      <cc:Work
         rdf:about="">
        <dc:format>image/svg+xml</dc:format>
        <dc:type
           rdf:resource="http://purl.org/dc/dcmitype/StillImage" />
        <dc:title></dc:title>
      </cc:Work>
    </rdf:RDF>
  </metadata>
  <g
     inkscape:groupmode="layer"
     id="layer2"
     inkscape:label="Layer 2"
     transform="translate(-57.116156,-59.808684)">
    <g
       id="g4820">
      <g
         id="g5015">
        <g
           transform="matrix(0.35277777,0,0,-0.35277777,-13.530767,445.12564)"
           id="g4336">
          <g
             id="g4338">
            <g
               id="g4344">
              <g
                 id="g4346">
                <path
                   d="m 204.181,1092.127 c -0.83,-0.402 -2.083,-6.596 -1.949,-6.873 v 0 l -0.66,0.209 c 0,0 -0.867,-5.262 -0.441,-6.143 v 0 l -0.466,0.162 c 0,0 -0.266,-3.651 0.173,-4.556 v 0 l -0.579,0.201 c 0,0 0.24,-3.158 0.923,-4.566 v 0 l -0.713,-0.066 c 0,0 0.721,-3.095 1.452,-4.604 v 0 l -0.914,-0.163 2.35,-4.854 -0.781,-0.377 c 0,0 1.689,-2.846 2.851,-3.835 v 0 l -0.931,-0.451 c 0,0 1.581,-2.432 2.459,-3.155 v 0 l -0.828,-0.214 c 0,0 1.671,-2.233 2.686,-2.983 v 0 l -1.108,-0.661 c 0,0 2.465,-2.718 3.654,-3.508 v 0 l -0.529,-0.255 c 0,0 6.02,-7.112 18.25,-5.382 v 0 l 0.503,0.244 c 8.943,8.519 7.098,17.652 7.098,17.652 v 0 l -0.527,-0.256 c 0.118,1.422 -0.486,5.041 -0.486,5.041 v 0 l -1.205,-0.459 c 0.041,1.261 -0.675,3.958 -0.675,3.958 v 0 l -0.681,-0.517 c -0.022,1.138 -0.95,3.886 -0.95,3.886 v 0 l -0.93,-0.451 c -0.056,1.526 -1.241,4.615 -1.241,4.615 v 0 l -0.779,-0.377 -2.349,4.852 -0.695,-0.615 c -0.731,1.509 -2.711,3.996 -2.711,3.996 v 0 l -0.494,-0.519 c -0.681,1.408 -3.01,3.556 -3.01,3.556 v 0 l -0.2,-0.578 c -0.439,0.905 -3.467,2.961 -3.467,2.961 v 0 l -0.162,-0.466 c -0.427,0.88 -5.092,3.464 -5.092,3.464 v 0 l -0.245,-0.647 c -0.126,0.258 -5.056,2.772 -6.379,2.772 v 0 c -0.092,0 -0.167,-0.012 -0.222,-0.038"
                   style="fill:url(#linearGradient4356);stroke:none"
                   id="path4358"
                   inkscape:connector-curvature="0" />
              </g>
            </g>
          </g>
        </g>
        <g
           transform="matrix(0.35277777,0,0,-0.35277777,-13.530767,445.12564)"
           id="g4360">
          <g
             id="g4362"
             clip-path="url(#clipPath4366)">
            <g
               id="g4368"
               transform="translate(227.6484,1052.7427)">
              <path
                 d="M 0,0 C 0.748,0.917 1.479,1.849 2.086,2.865 2.704,3.871 3.25,4.925 3.649,6.036 4.034,7.146 4.335,8.307 4.308,9.483 4.279,8.309 3.924,7.173 3.493,6.097 3.046,5.019 2.459,4.007 1.805,3.048 1.162,2.078 0.398,1.196 -0.376,0.334 -0.776,-0.087 -1.192,-0.493 -1.6,-0.906 l -0.877,-0.79 -2.475,4.872 c 0.392,0.374 0.786,0.746 1.167,1.129 0.435,0.492 0.903,0.953 1.308,1.47 0.838,1.009 1.583,2.093 2.231,3.23 0.628,1.148 1.16,2.349 1.534,3.599 0.366,1.249 0.618,2.545 0.579,3.846 C 1.85,15.15 1.543,13.875 1.128,12.656 0.706,11.436 0.13,10.275 -0.535,9.175 -1.221,8.085 -1.996,7.055 -2.858,6.103 -3.274,5.615 -3.754,5.183 -4.198,4.722 -4.545,4.401 -4.904,4.093 -5.259,3.782 L -6.93,7.071 c 0.715,0.925 1.404,1.869 1.988,2.879 0.661,1.083 1.22,2.225 1.714,3.388 0.498,1.163 0.9,2.365 1.226,3.583 0.322,1.218 0.573,2.458 0.68,3.712 -0.162,-1.247 -0.467,-2.47 -0.842,-3.666 -0.377,-1.195 -0.828,-2.366 -1.37,-3.492 C -4.073,12.348 -4.672,11.25 -5.369,10.217 -5.934,9.333 -6.582,8.509 -7.253,7.708 l -1.693,3.334 c 0.613,1.021 1.171,2.074 1.58,3.186 0.444,1.181 0.813,2.39 1.054,3.623 0.253,1.23 0.425,2.474 0.516,3.722 0.086,1.248 0.107,2.501 0.017,3.746 0.05,-2.494 -0.255,-4.989 -0.859,-7.393 -0.293,-1.205 -0.709,-2.375 -1.193,-3.507 -0.398,-0.949 -0.908,-1.84 -1.461,-2.698 l -2.646,5.211 c 0.455,1.002 0.861,2.025 1.094,3.094 0.259,1.111 0.43,2.241 0.473,3.375 0.053,1.132 0.021,2.266 -0.097,3.388 -0.121,1.122 -0.311,2.237 -0.61,3.321 0.473,-2.198 0.586,-4.465 0.372,-6.685 -0.096,-1.111 -0.32,-2.206 -0.624,-3.27 -0.234,-0.867 -0.588,-1.691 -0.981,-2.489 l -2.933,5.774 c 0.015,0.024 0.032,0.047 0.04,0.076 l 0.397,1.342 c 0.115,0.453 0.207,0.911 0.311,1.365 0.152,0.921 0.277,1.85 0.249,2.786 -0.007,0.931 -0.132,1.869 -0.434,2.752 -0.304,0.872 -0.766,1.721 -1.474,2.317 0.669,-0.637 1.069,-1.498 1.314,-2.367 0.242,-0.878 0.307,-1.794 0.258,-2.698 -0.026,-0.907 -0.204,-1.801 -0.404,-2.683 -0.129,-0.436 -0.245,-0.874 -0.383,-1.306 l -0.282,-0.78 -7.716,15.19 c -0.027,0.053 -0.092,0.076 -0.147,0.049 -0.055,-0.026 -0.078,-0.093 -0.051,-0.148 l 9.075,-18.668 c -0.981,0.336 -1.947,0.731 -2.807,1.321 -0.549,0.309 -1.01,0.74 -1.505,1.128 -0.44,0.447 -0.907,0.874 -1.283,1.383 -0.791,0.981 -1.438,2.086 -1.924,3.261 -0.48,1.175 -0.834,2.416 -0.988,3.677 l -10e-4,0.005 c -0.004,0.033 -0.033,0.057 -0.066,0.054 -0.035,-0.003 -0.06,-0.033 -0.057,-0.067 0.111,-1.289 0.423,-2.55 0.869,-3.764 0.452,-1.212 1.072,-2.367 1.853,-3.41 0.37,-0.538 0.836,-0.998 1.278,-1.479 0.499,-0.422 0.966,-0.888 1.527,-1.232 1.058,-0.781 2.284,-1.279 3.515,-1.723 l 2.863,-5.889 c -0.93,0.157 -1.858,0.353 -2.753,0.67 -1.089,0.351 -2.144,0.815 -3.15,1.37 -1.011,0.548 -1.981,1.18 -2.888,1.894 -0.909,0.712 -1.771,1.492 -2.536,2.364 0.722,-0.908 1.549,-1.733 2.429,-2.493 0.88,-0.763 1.828,-1.449 2.827,-2.055 0.995,-0.613 2.048,-1.14 3.148,-1.554 1.053,-0.43 2.162,-0.698 3.279,-0.929 l 1.815,-3.733 c -1.115,-0.004 -2.237,0.042 -3.337,0.272 -1.301,0.239 -2.587,0.6 -3.819,1.108 -1.235,0.495 -2.433,1.095 -3.574,1.795 -1.137,0.703 -2.23,1.487 -3.228,2.384 0.96,-0.939 2.024,-1.77 3.138,-2.525 1.117,-0.751 2.301,-1.408 3.533,-1.963 1.229,-0.566 2.524,-0.991 3.85,-1.291 1.224,-0.309 2.49,-0.398 3.756,-0.436 l 1.364,-2.806 c -1.009,-0.22 -2.073,-0.245 -3.126,-0.163 -1.235,0.091 -2.46,0.354 -3.666,0.674 -1.209,0.318 -2.398,0.72 -3.566,1.175 -1.169,0.456 -2.324,0.954 -3.446,1.52 1.096,-0.616 2.23,-1.165 3.382,-1.674 1.152,-0.509 2.329,-0.967 3.536,-1.343 1.206,-0.378 2.437,-0.701 3.707,-0.852 1.137,-0.138 2.31,-0.165 3.472,0.06 l 1.385,-2.85 C -6.707,2.228 -7.767,2.007 -8.852,1.94 c -1.294,-0.062 -2.602,0.012 -3.894,0.226 -1.289,0.224 -2.563,0.555 -3.807,0.981 -1.241,0.431 -2.463,0.936 -3.626,1.56 1.136,-0.672 2.338,-1.231 3.568,-1.717 1.233,-0.481 2.504,-0.87 3.803,-1.154 1.302,-0.273 2.636,-0.406 3.977,-0.398 1.157,0.022 2.307,0.214 3.432,0.525 l 1.591,-3.272 c -1.007,-0.333 -2.059,-0.543 -3.132,-0.615 -1.259,-0.052 -2.527,0.037 -3.782,0.241 -1.252,0.221 -2.488,0.546 -3.699,0.954 -1.208,0.413 -2.399,0.894 -3.537,1.482 1.112,-0.638 2.283,-1.171 3.479,-1.64 1.2,-0.463 2.432,-0.845 3.693,-1.125 1.265,-0.263 2.557,-0.412 3.863,-0.414 1.145,0.026 2.288,0.204 3.401,0.529 l 2.334,-4.801 c -0.935,-0.319 -1.9,-0.569 -2.9,-0.603 -1.19,-0.055 -2.403,0.026 -3.576,0.321 -1.174,0.281 -2.32,0.697 -3.415,1.226 -1.092,0.533 -2.148,1.157 -3.114,1.905 0.931,-0.792 1.962,-1.466 3.038,-2.054 1.079,-0.583 2.22,-1.059 3.408,-1.402 1.185,-0.356 2.432,-0.5 3.678,-0.499 1.075,-0.01 2.132,0.215 3.165,0.521 l 3.211,-6.605 c 10e-4,-0.002 0.004,-0.007 0.005,-0.009 0.157,-0.31 0.535,-0.433 0.844,-0.276 0.309,0.157 0.433,0.535 0.276,0.844 l -2.89,5.689 0.949,1.068 c 0.379,0.49 0.781,0.96 1.139,1.464 0.721,1.004 1.391,2.045 1.948,3.148 0.555,1.102 1.028,2.246 1.359,3.432 0.321,1.184 0.548,2.41 0.489,3.636 C 6.429,3.882 6.147,2.677 5.777,1.521 5.396,0.363 4.877,-0.743 4.283,-1.801 3.686,-2.859 2.98,-3.852 2.23,-4.803 1.857,-5.281 1.441,-5.724 1.05,-6.186 l -0.819,-0.841 -2.402,4.728 0.986,0.978 C -0.79,-0.88 -0.386,-0.448 0,0"
                 style="fill:#0d7537;fill-opacity:1;fill-rule:nonzero;stroke:none"
                 id="path4370"
                 inkscape:connector-curvature="0" />
            </g>
            <g
               id="g4372"
               transform="translate(279.4717,1030.9829)">
              <path
                 d="M 0,0 0.934,0.069 2.64,2.317 h 1.338 l -2.11,-2.674 2.26,-3.206 H 2.848 L 0.991,-0.876 H 0 v -2.687 h -1.083 v 2.687 h -1.016 l -1.786,-2.687 h -1.361 l 2.295,3.159 -2.122,2.721 h 1.302 L -2.041,0.069 -1.083,0 V 2.317 H 0 Z"
                 style="fill:#000000;fill-opacity:1;fill-rule:nonzero;stroke:none"
                 id="path4374"
                 inkscape:connector-curvature="0" />
            </g>
            <g
               id="g4376"
               transform="translate(290.8687,1031.6401)">
              <path
                 d="m 0,0 -3.377,-4.22 h -1.05 V 1.66 H -3.32 V -2.628 L 0.092,1.66 H 1.107 V -4.22 H 0 Z"
                 style="fill:#000000;fill-opacity:1;fill-rule:nonzero;stroke:none"
                 id="path4378"
                 inkscape:connector-curvature="0" />
            </g>
            <g
               id="g4380"
               transform="translate(301.1719,1027.4204)">
              <path
                 d="m 0,0 h -1.13 v 4.935 h -2.455 c 0,-0.323 0,-0.658 -0.013,-1.003 C -3.608,3.586 -3.62,3.251 -3.655,2.929 -3.678,2.594 -3.713,2.283 -3.759,2.006 -3.804,1.707 -3.862,1.464 -3.942,1.246 -4.093,0.784 -4.3,0.45 -4.565,0.231 c -0.266,-0.22 -0.624,-0.323 -1.073,-0.323 -0.185,0 -0.345,0.011 -0.507,0.047 -0.138,0.022 -0.289,0.068 -0.427,0.126 l 0.219,0.888 c 0.104,-0.035 0.196,-0.069 0.3,-0.082 0.104,-0.011 0.196,-0.022 0.288,-0.022 0.219,0 0.381,0.069 0.508,0.196 0.126,0.138 0.219,0.312 0.277,0.519 0.126,0.368 0.218,0.83 0.264,1.395 0.035,0.565 0.058,1.187 0.058,1.891 V 5.88 H 0 Z"
                 style="fill:#000000;fill-opacity:1;fill-rule:nonzero;stroke:none"
                 id="path4382"
                 inkscape:connector-curvature="0" />
            </g>
            <g
               id="g4384"
               transform="translate(306.5176,1032.3315)">
              <path
                 d="m 0,0 c -0.254,-0.115 -0.473,-0.253 -0.646,-0.437 -0.184,-0.197 -0.323,-0.416 -0.415,-0.681 -0.104,-0.265 -0.15,-0.542 -0.15,-0.853 0,-0.312 0.046,-0.6 0.15,-0.865 0.104,-0.265 0.242,-0.484 0.415,-0.669 0.184,-0.184 0.404,-0.323 0.657,-0.437 0.254,-0.093 0.543,-0.151 0.854,-0.151 0.322,0 0.611,0.058 0.864,0.151 0.253,0.114 0.473,0.253 0.646,0.437 0.185,0.185 0.323,0.404 0.415,0.669 0.104,0.265 0.149,0.553 0.149,0.865 0,0.311 -0.045,0.588 -0.149,0.842 C 2.686,-0.864 2.547,-0.645 2.375,-0.46 2.19,-0.264 1.972,-0.115 1.718,-0.011 1.464,0.093 1.176,0.15 0.865,0.15 0.554,0.15 0.265,0.093 0,0 M 2.155,0.877 C 2.547,0.738 2.882,0.519 3.171,0.254 c 0.287,-0.277 0.507,-0.6 0.656,-0.98 0.151,-0.38 0.231,-0.795 0.231,-1.245 0,-0.438 -0.08,-0.842 -0.242,-1.222 C 3.654,-3.574 3.435,-3.897 3.158,-4.173 2.871,-4.45 2.537,-4.669 2.145,-4.818 1.753,-4.969 1.325,-5.049 0.865,-5.049 c -0.472,0 -0.911,0.069 -1.303,0.231 -0.392,0.138 -0.727,0.357 -1.015,0.622 -0.276,0.277 -0.495,0.599 -0.646,0.98 -0.149,0.38 -0.231,0.795 -0.231,1.245 0,0.438 0.082,0.842 0.231,1.221 0.162,0.381 0.381,0.705 0.669,0.981 0.277,0.277 0.611,0.496 1.003,0.646 0.392,0.15 0.82,0.23 1.292,0.23 0.473,0 0.899,-0.069 1.29,-0.23"
                 style="fill:#000000;fill-opacity:1;fill-rule:nonzero;stroke:none"
                 id="path4386"
                 inkscape:connector-curvature="0" />
            </g>
            <g
               id="g4388"
               transform="translate(315.7588,1035.4448)">
              <path
                 d="m 0,0 c 0.139,-0.149 0.335,-0.219 0.577,-0.219 0.242,0 0.439,0.07 0.577,0.219 0.16,0.138 0.242,0.334 0.253,0.6 H 2.318 C 2.307,0.334 2.249,0.092 2.157,-0.116 2.064,-0.323 1.938,-0.496 1.787,-0.646 1.638,-0.784 1.453,-0.888 1.246,-0.969 1.038,-1.049 0.819,-1.083 0.577,-1.083 c -0.242,0 -0.473,0.034 -0.681,0.114 -0.207,0.069 -0.391,0.174 -0.541,0.323 -0.15,0.138 -0.277,0.312 -0.369,0.53 -0.092,0.208 -0.137,0.45 -0.137,0.716 h 0.897 C -0.241,0.334 -0.161,0.138 0,0 m 2.249,-3.805 -3.378,-4.219 h -1.05 v 5.879 h 1.108 v -4.288 l 3.412,4.288 H 3.356 V -8.024 H 2.249 Z"
                 style="fill:#000000;fill-opacity:1;fill-rule:nonzero;stroke:none"
                 id="path4390"
                 inkscape:connector-curvature="0" />
            </g>
            <g
               id="g4392"
               transform="translate(328.5957,1030.9829)">
              <path
                 d="M 0,0 1.085,0.104 2.906,2.317 H 4.301 L 2.041,-0.334 4.578,-3.563 H 3.218 L 1.165,-0.922 H 0 v -2.641 h -1.117 v 5.88 H 0 Z"
                 style="fill:#000000;fill-opacity:1;fill-rule:nonzero;stroke:none"
                 id="path4394"
                 inkscape:connector-curvature="0" />
            </g>
            <g
               id="g4396"
               transform="translate(337.7578,1032.3315)">
              <path
                 d="m 0,0 c -0.254,-0.115 -0.473,-0.253 -0.645,-0.437 -0.184,-0.197 -0.323,-0.416 -0.416,-0.681 -0.103,-0.265 -0.148,-0.542 -0.148,-0.853 0,-0.312 0.045,-0.6 0.148,-0.865 0.105,-0.265 0.244,-0.484 0.416,-0.669 0.185,-0.184 0.404,-0.323 0.658,-0.437 0.254,-0.093 0.541,-0.151 0.852,-0.151 0.323,0 0.612,0.058 0.864,0.151 0.254,0.114 0.473,0.253 0.647,0.437 0.184,0.185 0.322,0.404 0.415,0.669 0.104,0.265 0.15,0.553 0.15,0.865 0,0.311 -0.046,0.588 -0.15,0.842 C 2.688,-0.864 2.549,-0.645 2.376,-0.46 2.191,-0.264 1.973,-0.115 1.719,-0.011 1.466,0.093 1.177,0.15 0.865,0.15 0.554,0.15 0.267,0.093 0,0 M 2.157,0.877 C 2.549,0.738 2.884,0.519 3.171,0.254 c 0.289,-0.277 0.508,-0.6 0.658,-0.98 0.15,-0.38 0.23,-0.795 0.23,-1.245 0,-0.438 -0.08,-0.842 -0.243,-1.222 C 3.655,-3.574 3.437,-3.897 3.16,-4.173 2.871,-4.45 2.537,-4.669 2.145,-4.818 1.753,-4.969 1.326,-5.049 0.865,-5.049 c -0.472,0 -0.91,0.069 -1.302,0.231 -0.392,0.138 -0.727,0.357 -1.015,0.622 -0.277,0.277 -0.496,0.599 -0.646,0.98 -0.149,0.38 -0.23,0.795 -0.23,1.245 0,0.438 0.081,0.842 0.23,1.221 0.162,0.381 0.381,0.705 0.669,0.981 0.278,0.277 0.612,0.496 1.003,0.646 0.392,0.15 0.819,0.23 1.291,0.23 0.473,0 0.9,-0.069 1.292,-0.23"
                 style="fill:#000000;fill-opacity:1;fill-rule:nonzero;stroke:none"
                 id="path4398"
                 inkscape:connector-curvature="0" />
            </g>
            <g
               id="g4400"
               transform="translate(348.0381,1030.3833)">
              <path
                 d="m 0,0 1.925,2.917 h 1.28 v -5.88 H 2.121 V 1.384 H 2.018 l -1.764,-2.64 h -0.53 l -1.753,2.64 h -0.116 v -4.347 h -1.072 v 5.88 h 1.303 z"
                 style="fill:#000000;fill-opacity:1;fill-rule:nonzero;stroke:none"
                 id="path4402"
                 inkscape:connector-curvature="0" />
            </g>
            <g
               id="g4404"
               transform="translate(359.9775,1027.4204)">
              <path
                 d="M 0,0 H -1.141 V 4.923 H -4.3 V 0 H -5.441 V 5.88 H 0 Z"
                 style="fill:#000000;fill-opacity:1;fill-rule:nonzero;stroke:none"
                 id="path4406"
                 inkscape:connector-curvature="0" />
            </g>
            <g
               id="g4408"
               transform="translate(369.1748,1027.4204)">
              <path
                 d="m 0,0 h -1.13 v 4.935 h -2.456 c 0,-0.323 0,-0.658 -0.011,-1.003 C -3.609,3.586 -3.62,3.251 -3.654,2.929 -3.678,2.594 -3.712,2.283 -3.759,2.006 -3.805,1.707 -3.863,1.464 -3.943,1.246 -4.093,0.784 -4.301,0.45 -4.565,0.231 c -0.266,-0.22 -0.623,-0.323 -1.073,-0.323 -0.183,0 -0.345,0.011 -0.508,0.047 -0.138,0.022 -0.288,0.068 -0.426,0.126 l 0.219,0.888 c 0.104,-0.035 0.197,-0.069 0.3,-0.082 0.104,-0.011 0.197,-0.022 0.288,-0.022 0.22,0 0.381,0.069 0.507,0.196 0.128,0.138 0.22,0.312 0.278,0.519 0.126,0.368 0.218,0.83 0.264,1.395 0.035,0.565 0.059,1.187 0.059,1.891 V 5.88 H 0 Z"
                 style="fill:#000000;fill-opacity:1;fill-rule:nonzero;stroke:none"
                 id="path4410"
                 inkscape:connector-curvature="0" />
            </g>
            <g
               id="g4412"
               transform="translate(376.584,1032.0435)">
              <path
                 d="m 0,0 c -0.276,0.288 -0.691,0.427 -1.257,0.427 -0.564,0 -1.003,-0.139 -1.338,-0.416 -0.334,-0.287 -0.541,-0.668 -0.621,-1.152 H 0.427 C 0.415,-0.668 0.276,-0.288 0,0 m -2.629,-3.332 c 0.358,-0.299 0.842,-0.449 1.442,-0.449 0.403,0 0.784,0.058 1.106,0.15 0.346,0.115 0.657,0.276 0.969,0.495 L 1.395,-3.931 C 1.003,-4.231 0.6,-4.438 0.173,-4.577 c -0.427,-0.115 -0.888,-0.184 -1.384,-0.184 -0.495,0 -0.945,0.069 -1.336,0.207 -0.392,0.151 -0.726,0.346 -0.993,0.623 -0.276,0.253 -0.483,0.576 -0.634,0.957 -0.149,0.38 -0.219,0.807 -0.219,1.28 0,0.449 0.081,0.853 0.231,1.233 0.149,0.38 0.368,0.704 0.645,0.98 0.278,0.277 0.612,0.496 1.004,0.646 0.391,0.15 0.829,0.23 1.302,0.23 0.416,0 0.796,-0.069 1.13,-0.196 C 0.254,1.072 0.542,0.888 0.795,0.635 1.025,0.404 1.222,0.104 1.35,-0.23 1.487,-0.564 1.556,-0.945 1.556,-1.349 1.556,-1.476 1.546,-1.591 1.533,-1.717 1.521,-1.833 1.498,-1.948 1.476,-2.064 h -4.74 c 0.059,-0.541 0.278,-0.968 0.635,-1.268"
                 style="fill:#000000;fill-opacity:1;fill-rule:nonzero;stroke:none"
                 id="path4414"
                 inkscape:connector-curvature="0" />
            </g>
            <g
               id="g4416"
               transform="translate(382.2637,1030.9829)">
              <path
                 d="m 0,0 1.084,0.104 1.82,2.213 H 4.3 L 2.04,-0.334 4.576,-3.563 H 3.217 L 1.165,-0.922 H 0 v -2.641 h -1.118 v 5.88 H 0 Z"
                 style="fill:#000000;fill-opacity:1;fill-rule:nonzero;stroke:none"
                 id="path4418"
                 inkscape:connector-curvature="0" />
            </g>
            <g
               id="g4420"
               transform="translate(393.2695,1032.2861)">
              <path
                 d="m 0,0 c -0.299,0.114 -0.633,0.172 -1.013,0.172 -0.278,0 -0.543,-0.045 -0.784,-0.138 -0.254,-0.092 -0.473,-0.23 -0.658,-0.404 -0.185,-0.172 -0.334,-0.392 -0.439,-0.645 -0.102,-0.254 -0.161,-0.542 -0.161,-0.864 0,-0.658 0.185,-1.177 0.542,-1.557 0.359,-0.38 0.866,-0.576 1.5,-0.576 0.368,0 0.714,0.069 1.026,0.184 0.311,0.139 0.588,0.323 0.806,0.565 L 1.5,-3.966 C 1.177,-4.324 0.808,-4.589 0.37,-4.75 c -0.415,-0.174 -0.9,-0.254 -1.431,-0.254 -0.495,0 -0.945,0.08 -1.336,0.231 -0.38,0.161 -0.715,0.38 -0.969,0.656 -0.277,0.278 -0.473,0.6 -0.599,0.981 -0.138,0.369 -0.208,0.773 -0.208,1.199 0,0.473 0.08,0.899 0.254,1.268 0.161,0.392 0.38,0.714 0.669,0.98 0.276,0.265 0.6,0.472 0.991,0.623 0.369,0.149 0.783,0.218 1.222,0.218 0.519,0 0.979,-0.069 1.384,-0.23 C 0.75,0.783 1.097,0.553 1.384,0.265 L 0.762,-0.473 C 0.543,-0.277 0.289,-0.116 0,0"
                 style="fill:#000000;fill-opacity:1;fill-rule:nonzero;stroke:none"
                 id="path4422"
                 inkscape:connector-curvature="0" />
            </g>
          </g>
        </g>
        <g
           transform="matrix(0.35277777,0,0,-0.35277777,-13.530767,445.12564)"
           id="g4424">
          <g
             id="g4426">
            <g
               id="g4432">
              <g
                 id="g4434">
                <path
                   d="m 242.85,1083.968 -0.409,0.78 c 0,0 -5.51,-3.972 -5.915,-5.15 v 0 l -0.275,0.566 c 0,0 -3.52,-3.06 -3.938,-4.271 v 0 l -0.342,0.701 c 0,0 -2.619,-3.068 -3.268,-4.952 v 0 l -0.703,0.58 c 0,0 -2.128,-3.444 -2.824,-5.463 v 0 l -0.972,0.674 -2.238,-6.493 -1.043,0.359 c 0,0 -1.031,-4.086 -0.871,-6.023 v 0 l -1.244,0.428 c 0,0 -0.757,-3.616 -0.614,-5.058 v 0 l -0.94,0.55 c 0,0 -0.497,-3.518 -0.254,-5.107 v 0 l -1.594,0.4 c 0,0 -0.216,-4.669 0.149,-6.451 v 0 l -0.707,0.244 c 0,0 -0.952,-11.829 11.647,-21.253 v 0 l 0.673,-0.232 c 15.729,-0.338 22.267,9.566 22.267,9.566 v 0 l -0.707,0.244 c 1.385,1.179 4.091,4.989 4.091,4.989 v 0 l -1.501,0.668 c 1.17,1.102 2.946,4.179 2.946,4.179 v 0 l -1.08,0.146 c 1.001,1.048 2.632,4.362 2.632,4.362 v 0 l -1.244,0.43 c 1.32,1.426 3.024,5.281 3.024,5.281 v 0 l -1.043,0.359 2.237,6.494 -1.18,0.068 c 0.695,2.019 1.141,6.043 1.141,6.043 v 0 l -0.912,-0.025 c 0.649,1.885 0.476,5.915 0.476,5.915 v 0 l -0.701,-0.342 c 0.418,1.211 -0.471,5.79 -0.471,5.79 v 0 l -0.565,-0.276 c 0.406,1.178 -1.487,7.702 -1.487,7.702 v 0 l -0.802,-0.364 c 0.128,0.371 -2.395,8.015 -3.505,8.397 v 0 c -0.045,0.016 -0.1,0.023 -0.164,0.023 v 0 c -1.485,0 -7.648,-4.123 -7.77,-4.478"
                   style="fill:url(#linearGradient4444);stroke:none"
                   id="path4446"
                   inkscape:connector-curvature="0" />
              </g>
            </g>
          </g>
        </g>
        <g
           transform="matrix(0.35277777,0,0,-0.35277777,-13.530767,445.12564)"
           id="g4448">
          <g
             id="g4450"
             clip-path="url(#clipPath4454)">
            <g
               id="g4456"
               transform="translate(236.6011,1031.7759)">
              <path
                 d="m 0,0 c 1.498,0.156 2.997,0.34 4.458,0.713 1.461,0.354 2.9,0.816 4.259,1.46 1.344,0.657 2.659,1.435 3.692,2.522 C 11.327,3.661 9.987,2.953 8.63,2.369 7.259,1.796 5.82,1.41 4.367,1.131 2.916,0.833 1.434,0.723 -0.041,0.64 -0.78,0.618 -1.52,0.626 -2.258,0.619 l -1.503,0.073 2.142,6.624 C -0.93,7.302 -0.24,7.284 0.448,7.288 1.283,7.342 2.12,7.336 2.95,7.44 c 1.663,0.159 3.309,0.469 4.916,0.914 1.599,0.472 3.158,1.079 4.619,1.872 1.452,0.799 2.844,1.744 3.976,2.953 C 15.278,12.021 13.857,11.144 12.387,10.416 10.909,9.693 9.347,9.163 7.757,8.767 6.16,8.398 4.535,8.164 2.901,8.079 2.086,8.012 1.265,8.053 0.449,8.035 -0.152,8.058 -0.752,8.101 -1.353,8.139 l 1.446,4.472 c 1.476,0.192 2.946,0.427 4.38,0.814 1.571,0.384 3.101,0.914 4.592,1.521 1.495,0.603 2.936,1.326 4.325,2.134 1.386,0.81 2.726,1.705 3.949,2.741 C 16.072,18.84 14.699,18.01 13.286,17.267 11.873,16.526 10.413,15.874 8.912,15.344 7.413,14.811 5.885,14.357 4.329,14.049 3.024,13.758 1.698,13.596 0.373,13.475 l 1.465,4.532 c 1.472,0.372 2.921,0.822 4.289,1.458 1.462,0.669 2.881,1.429 4.207,2.326 1.333,0.884 2.606,1.852 3.809,2.898 1.198,1.05 2.342,2.163 3.38,3.368 C 15.328,25.759 12.812,23.78 10.106,22.152 8.76,21.326 7.333,20.644 5.879,20.056 4.667,19.556 3.406,19.209 2.136,18.931 l 2.291,7.084 c 1.311,0.495 2.597,1.055 3.768,1.811 1.231,0.771 2.401,1.637 3.458,2.623 1.065,0.975 2.054,2.028 2.956,3.147 0.898,1.122 1.728,2.3 2.432,3.548 -1.547,-2.41 -3.482,-4.56 -5.668,-6.372 C 10.288,29.855 9.102,29.067 7.872,28.379 6.881,27.806 5.822,27.38 4.75,27.013 l 2.537,7.848 c 0.035,0.009 0.071,0.014 0.105,0.033 l 1.564,0.856 c 0.509,0.305 1.005,0.637 1.506,0.953 0.965,0.695 1.912,1.422 2.727,2.293 0.831,0.847 1.561,1.806 2.081,2.875 0.509,1.061 0.854,2.242 0.75,3.416 0.031,-1.176 -0.381,-2.312 -0.939,-3.317 -0.57,-1.01 -1.334,-1.897 -2.19,-2.669 -0.839,-0.795 -1.803,-1.444 -2.776,-2.06 C 9.607,36.963 9.109,36.672 8.597,36.405 l -0.956,-0.45 6.675,20.648 c 0.024,0.073 -0.015,0.152 -0.088,0.177 -0.074,0.025 -0.154,-0.014 -0.179,-0.088 L 5.476,31.681 c -0.583,1.185 -1.102,2.409 -1.348,3.715 -0.219,0.772 -0.247,1.575 -0.346,2.369 0.005,0.799 -0.034,1.605 0.083,2.402 0.168,1.598 0.576,3.176 1.192,4.674 0.621,1.492 1.417,2.93 2.411,4.209 l 0.003,0.004 c 0.026,0.033 0.021,0.082 -0.012,0.109 -0.033,0.028 -0.083,0.024 -0.11,-0.01 C 6.291,47.889 5.44,46.47 4.752,44.973 4.071,43.472 3.595,41.872 3.363,40.23 3.213,39.411 3.222,38.577 3.189,37.745 3.26,36.917 3.264,36.076 3.461,35.261 3.715,33.605 4.374,32.054 5.088,30.547 L 2.383,22.658 c -0.698,0.978 -1.361,1.988 -1.884,3.078 -0.668,1.294 -1.204,2.661 -1.614,4.067 -0.421,1.403 -0.728,2.844 -0.907,4.304 -0.182,1.46 -0.26,2.938 -0.167,4.413 -0.164,-1.469 -0.158,-2.957 -0.045,-4.434 0.109,-1.479 0.348,-2.95 0.707,-4.395 0.348,-1.447 0.826,-2.869 1.447,-4.231 0.564,-1.334 1.326,-2.572 2.127,-3.784 L 0.333,16.674 c -1.011,0.998 -1.983,2.047 -2.77,3.244 -0.96,1.383 -1.797,2.865 -2.453,4.43 -0.672,1.557 -1.214,3.175 -1.615,4.831 -0.396,1.656 -0.68,3.347 -0.775,5.053 0.024,-1.71 0.238,-3.416 0.566,-5.099 0.335,-1.682 0.813,-3.338 1.428,-4.946 0.6,-1.615 1.389,-3.163 2.316,-4.625 0.828,-1.378 1.892,-2.596 3.001,-3.767 l -1.288,-3.759 c -1.109,0.707 -2.091,1.64 -2.97,2.661 -1.033,1.19 -1.903,2.529 -2.706,3.901 -0.805,1.373 -1.518,2.804 -2.164,4.265 -0.646,1.462 -1.242,2.948 -1.747,4.468 0.437,-1.541 0.968,-3.056 1.55,-4.55 0.584,-1.494 1.235,-2.966 1.988,-4.389 0.749,-1.424 1.571,-2.823 2.582,-4.1 0.904,-1.146 1.938,-2.223 3.19,-3.063 l -1.309,-3.82 c -1.214,0.627 -2.369,1.38 -3.408,2.294 -1.225,1.107 -2.341,2.348 -3.315,3.701 -0.963,1.361 -1.816,2.804 -2.557,4.306 -0.734,1.505 -1.383,3.059 -1.874,4.665 0.423,-1.626 1.007,-3.211 1.681,-4.754 0.681,-1.542 1.479,-3.035 2.398,-4.458 0.931,-1.416 2.016,-2.735 3.234,-3.933 1.065,-1.019 2.275,-1.878 3.572,-2.607 L -4.615,2.238 c -1.208,0.604 -2.347,1.359 -3.382,2.259 -1.183,1.083 -2.248,2.302 -3.198,3.614 -0.933,1.324 -1.757,2.728 -2.484,4.184 -0.72,1.458 -1.363,2.961 -1.863,4.516 0.431,-1.576 1.01,-3.109 1.67,-4.607 0.666,-1.495 1.435,-2.948 2.324,-4.334 0.906,-1.373 1.939,-2.669 3.116,-3.843 1.058,-1.005 2.25,-1.87 3.546,-2.577 L -7.09,-4.981 c -1.13,0.551 -2.227,1.192 -3.16,2.059 -1.125,1.019 -2.147,2.182 -2.942,3.501 -0.807,1.309 -1.468,2.714 -1.982,4.176 -0.508,1.462 -0.901,2.974 -1.102,4.517 0.13,-1.551 0.455,-3.086 0.899,-4.584 0.451,-1.496 1.054,-2.951 1.818,-4.327 0.752,-1.386 1.748,-2.636 2.874,-3.754 0.961,-0.975 2.119,-1.721 3.327,-2.372 l -3.034,-8.849 -0.004,-0.013 c -0.136,-0.421 0.095,-0.872 0.515,-1.008 0.421,-0.136 0.872,0.094 1.008,0.515 l 2.5,7.732 1.816,0.114 c 0.782,0.101 1.567,0.165 2.344,0.298 1.552,0.26 3.093,0.599 4.587,1.094 1.49,0.496 2.945,1.104 4.31,1.878 1.354,0.781 2.659,1.685 3.708,2.845 C 9.292,-2.269 7.956,-3.104 6.583,-3.816 5.199,-4.52 3.737,-5.053 2.25,-5.474 0.76,-5.893 -0.768,-6.156 -2.3,-6.341 -3.066,-6.437 -3.84,-6.464 -4.608,-6.529 l -1.496,-0.025 2.079,6.428 1.768,-0.002 C -1.504,-0.086 -0.751,-0.058 0,0"
                 style="fill:#0d7537;fill-opacity:1;fill-rule:nonzero;stroke:none"
                 id="path4458"
                 inkscape:connector-curvature="0" />
            </g>
            <g
               id="g4460"
               transform="translate(307.1973,1046.2769)">
              <path
                 d="m 0,0 c -0.071,1.484 -0.163,3.139 -0.275,4.962 -0.114,1.821 -0.227,3.726 -0.339,5.715 -0.114,1.99 -0.219,3.895 -0.318,5.717 -0.099,1.821 -0.19,3.48 -0.275,4.977 -0.085,1.499 -0.155,2.645 -0.212,3.438 l -0.014,0.187 -0.132,0.132 c -0.135,0.134 -0.398,0.328 -1.236,0.643 -0.619,0.231 -1.377,0.349 -2.251,0.349 -1.034,0 -1.901,-0.245 -2.578,-0.729 -0.658,-0.471 -1.211,-1.161 -1.642,-2.054 -0.338,-0.704 -0.824,-1.698 -1.458,-2.98 l -2.034,-4.108 c -0.718,-1.453 -1.438,-2.892 -2.157,-4.316 -0.515,-1.018 -0.968,-1.918 -1.359,-2.699 -0.448,0.874 -0.968,1.894 -1.561,3.06 -0.804,1.58 -1.607,3.18 -2.436,4.853 l -2.22,4.48 c -0.693,1.399 -1.208,2.437 -1.547,3.115 l -0.094,0.131 c -0.272,0.271 -0.709,0.54 -1.334,0.822 -0.629,0.282 -1.424,0.425 -2.365,0.425 -0.891,0 -1.697,-0.243 -2.398,-0.722 -0.755,-0.514 -1.17,-1.371 -1.234,-2.535 -0.057,-0.736 -0.128,-1.79 -0.213,-3.163 -0.085,-1.37 -0.176,-2.909 -0.275,-4.618 -0.099,-1.709 -0.197,-3.489 -0.296,-5.338 -0.1,-1.849 -0.198,-3.627 -0.297,-5.334 -0.099,-1.71 -0.183,-3.257 -0.254,-4.641 -0.071,-1.387 -0.122,-2.448 -0.149,-3.184 l -0.019,-0.518 h 5.995 l 0.021,0.479 c 0.028,0.677 0.069,1.579 0.126,2.706 l 0.191,3.77 c 0.07,1.381 0.148,2.813 0.233,4.294 0.085,1.484 0.162,2.917 0.233,4.303 0.07,1.38 0.141,2.635 0.212,3.763 0.02,0.319 0.037,0.619 0.054,0.901 0.363,-0.7 0.75,-1.46 1.159,-2.279 0.747,-1.496 1.495,-3.005 2.243,-4.528 0.747,-1.524 1.446,-2.957 2.095,-4.297 0.646,-1.335 1.139,-2.381 1.475,-3.14 l 0.132,-0.297 h 4.784 l 0.139,0.276 c 0.256,0.51 0.588,1.198 1.001,2.064 0.407,0.858 0.858,1.788 1.351,2.788 0.495,1.003 1.01,2.055 1.547,3.158 0.536,1.1 1.051,2.151 1.544,3.152 0.495,1.001 0.953,1.925 1.376,2.772 l 0.189,0.377 0.029,-0.46 c 0.071,-1.115 0.149,-2.399 0.234,-3.851 0.084,-1.454 0.169,-2.992 0.254,-4.614 0.084,-1.625 0.168,-3.172 0.253,-4.64 0.085,-1.467 0.156,-2.758 0.212,-3.872 0.057,-1.119 0.099,-1.904 0.127,-2.356 l 0.03,-0.469 H 0.229 L 0.19,-3.397 C 0.134,-2.61 0.07,-1.478 0,0"
                 style="fill:#000000;fill-opacity:1;fill-rule:nonzero;stroke:none"
                 id="path4462"
                 inkscape:connector-curvature="0" />
            </g>
            <g
               id="g4464"
               transform="translate(318.998,1064.6343)">
              <path
                 d="m 0,0 c 0.22,0.536 0.609,1.022 1.156,1.446 0.565,0.436 1.36,0.791 2.363,1.055 1.027,0.27 2.337,0.408 3.896,0.408 1.386,0 2.463,-0.029 3.201,-0.084 0.47,-0.035 0.786,-0.068 1,-0.094 v -8.966 c -0.32,-0.04 -0.72,-0.083 -1.2,-0.129 -0.714,-0.069 -1.766,-0.104 -3.128,-0.104 -1.476,0 -2.733,0.124 -3.736,0.367 -0.978,0.238 -1.768,0.568 -2.348,0.981 -0.556,0.394 -0.954,0.871 -1.184,1.418 -0.242,0.569 -0.364,1.209 -0.364,1.901 0,0.637 0.115,1.243 0.344,1.801 M 14.797,7.71 C 14.354,7.799 13.562,7.898 12.375,8.014 11.201,8.128 9.489,8.186 7.288,8.186 2.763,8.186 -0.688,7.296 -2.97,5.542 -5.291,3.755 -6.468,1.3 -6.468,-1.758 c 0,-2.162 0.525,-3.965 1.56,-5.359 0.912,-1.231 2.137,-2.229 3.647,-2.974 -0.488,-0.701 -0.981,-1.463 -1.471,-2.271 -0.61,-1.007 -1.212,-2.035 -1.807,-3.083 -0.595,-1.048 -1.176,-2.096 -1.741,-3.143 -0.56,-1.033 -1.076,-2.037 -1.536,-2.984 l -0.349,-0.719 h 6.961 l 0.135,0.288 c 0.224,0.477 0.583,1.199 1.074,2.168 0.491,0.969 1.033,1.995 1.623,3.078 0.591,1.081 1.181,2.121 1.77,3.119 0.501,0.846 0.944,1.529 1.32,2.034 0.395,-0.04 0.781,-0.065 1.156,-0.077 1.396,-0.046 2.939,-0.02 4.324,0.064 0.583,0.035 1.054,0.07 1.418,0.105 v -10.779 h 5.87 V 4.51 c 0,1.043 -0.274,1.828 -0.815,2.335 -0.515,0.48 -1.156,0.773 -1.874,0.865"
                 style="fill:#000000;fill-opacity:1;fill-rule:nonzero;stroke:none"
                 id="path4466"
                 inkscape:connector-curvature="0" />
            </g>
            <g
               id="g4468"
               transform="translate(367.25,1066.9688)">
              <path
                 d="m 0,0 c 0.15,0.189 0.304,0.511 0.481,1.013 0.174,0.489 0.262,1.038 0.262,1.628 0,1.797 -1.065,2.787 -2.999,2.787 h -24.468 l -0.145,-0.245 c -0.064,-0.108 -0.175,-0.322 -0.417,-0.943 -0.191,-0.495 -0.287,-1.047 -0.287,-1.641 0,-1.798 1.065,-2.787 2.999,-2.787 h 7.97 v -24.437 h 6.04 V -0.188 H -0.15 Z"
                 style="fill:#000000;fill-opacity:1;fill-rule:nonzero;stroke:none"
                 id="path4470"
                 inkscape:connector-curvature="0" />
            </g>
            <g
               id="g4472"
               transform="translate(383.4033,1055.064)">
              <path
                 d="m 0,0 h -9.244 c 0.342,0.852 0.701,1.72 1.078,2.606 0.479,1.125 0.958,2.23 1.437,3.316 0.479,1.083 0.944,2.113 1.395,3.087 0.276,0.598 0.536,1.158 0.781,1.678 0.17,-0.358 0.362,-0.771 0.575,-1.241 0.436,-0.96 0.9,-2.022 1.392,-3.186 C -2.092,5.09 -1.591,3.895 -1.083,2.672 -0.687,1.718 -0.326,0.828 0,0 m 11.366,-12.045 c -0.226,0.607 -0.623,1.621 -1.189,3.043 -0.566,1.418 -1.222,3.043 -1.971,4.874 -0.75,1.832 -1.562,3.774 -2.438,5.826 -0.876,2.051 -1.732,4.02 -2.566,5.907 -0.833,1.884 -1.618,3.603 -2.335,5.11 -0.721,1.517 -1.32,2.683 -1.777,3.463 l -0.091,0.113 c -0.05,0.046 -0.12,0.102 -0.426,0.263 -0.195,0.102 -0.435,0.212 -0.72,0.329 -0.293,0.119 -0.631,0.225 -1.008,0.313 -0.391,0.091 -0.792,0.137 -1.194,0.137 -1.082,0 -2,-0.243 -2.73,-0.722 -0.727,-0.478 -1.371,-1.318 -1.916,-2.499 -1.018,-2.203 -2.042,-4.461 -3.073,-6.774 -1.033,-2.313 -2.029,-4.592 -2.99,-6.837 -0.961,-2.244 -1.879,-4.434 -2.755,-6.568 -0.882,-2.15 -1.681,-4.16 -2.375,-5.975 l -0.26,-0.678 h 6.158 l 0.12,0.329 c 0.31,0.85 0.711,1.913 1.204,3.189 0.458,1.189 0.973,2.478 1.542,3.869 H 2.092 c 0.192,-0.473 0.403,-1 0.633,-1.581 0.281,-0.715 0.555,-1.421 0.824,-2.122 0.267,-0.7 0.514,-1.352 0.739,-1.955 0.23,-0.616 0.416,-1.091 0.56,-1.426 l 0.131,-0.303 h 6.64 z"
                 style="fill:#000000;fill-opacity:1;fill-rule:nonzero;stroke:none"
                 id="path4474"
                 inkscape:connector-curvature="0" />
            </g>
          </g>
        </g>
      </g>
    </g>
  </g>
</svg>
